999
dxfrw 0.5.11
0
SECTION
2
HEADER
9
$ACADVER
1
AC1015
9
$HANDSEED
5
20000
9
$DWGCODEPAGE
3
ANSI_1250
9
$INSBASE
10
0
20
0
30
0
9
$EXTMIN
10
0
20
-297
30
0
9
$EXTMAX
10
420
20
0
30
0
9
$LIMMIN
10
0
20
0
9
$LIMMAX
10
420
20
297
9
$ORTHOMODE
70
0
9
$LTSCALE
40
1
9
$TEXTSTYLE
7
STANDARD
9
$CLAYER
8
DIMENSIONS
9
$DIMASZ
40
3.5
9
$DIMLFAC
40
1
9
$DIMSCALE
40
1
9
$DIMEXO
40
0
9
$DIMEXE
40
2
9
$DIMTXT
40
3.5
9
$DIMTSZ
40
0
9
$DIMAUNIT
70
0
9
$DIMADEC
70
2
9
$DIMLUNIT
70
2
9
$DIMSTYLE
2
STANDARD
9
$DIMGAP
40
1
9
$DIMTIH
70
0
9
$LUNITS
70
2
9
$LUPREC
70
2
9
$AUNITS
70
0
9
$AUPREC
70
2
9
$SPLINESEGS
70
8
9
$GRIDMODE
70
0
9
$SNAPSTYLE
70
0
9
$GRIDUNIT
10
0
20
0
9
$PINSBASE
10
0
20
297
30
0
9
$PLIMMIN
10
0
20
0
9
$PLIMMAX
10
420
20
297
9
$INSUNITS
70
4
9
$PSVPSCALE
40
1
0
ENDSEC
0
SECTION
2
CLASSES
0
ENDSEC
0
SECTION
2
TABLES
0
TABLE
2
VPORT
5
8
330
0
100
AcDbSymbolTable
70
1
0
VPORT
5
31
330
2
100
AcDbSymbolTableRecord
100
AcDbViewportTableRecord
2
*ACTIVE
70
0
10
0
20
0
11
1
21
1
12
212.295081967
22
8.49180327869
13
0
23
0
14
10
24
10
15
10
25
10
16
0
26
0
36
1
17
0
27
0
37
0
40
330.950819672
41
1.29680998613
42
50
43
0
44
0
50
0
51
0
71
0
72
100
73
1
74
3
75
0
76
0
77
0
78
0
281
0
65
1
110
0
120
0
130
0
111
1
121
0
131
0
112
0
122
1
132
0
79
0
146
0
0
ENDTAB
0
TABLE
2
LTYPE
5
5
330
0
100
AcDbSymbolTable
70
4
0
LTYPE
5
14
330
5
100
AcDbSymbolTableRecord
100
AcDbLinetypeTableRecord
2
ByBlock
70
0
3

72
65
73
0
40
0
0
LTYPE
5
15
330
5
100
AcDbSymbolTableRecord
100
AcDbLinetypeTableRecord
2
ByLayer
70
0
3

72
65
73
0
40
0
0
LTYPE
5
16
330
5
100
AcDbSymbolTableRecord
100
AcDbLinetypeTableRecord
2
Continuous
70
0
3
Solid line
72
65
73
0
40
0
0
LTYPE
5
32
330
5
100
AcDbSymbolTableRecord
100
AcDbLinetypeTableRecord
2
DOT
70
0
3
Dot . . . . . . . . . . . . . . . . . . . . . .
72
65
73
2
40
6.35
49
0
74
0
49
-6.35
74
0
0
LTYPE
5
33
330
5
100
AcDbSymbolTableRecord
100
AcDbLinetypeTableRecord
2
DOT2
70
0
3
Dot (.5x) .....................................
72
65
73
2
40
3.175
49
0
74
0
49
-3.175
74
0
0
LTYPE
5
34
330
5
100
AcDbSymbolTableRecord
100
AcDbLinetypeTableRecord
2
DOTX2
70
0
3
Dot (2x) .  .  .  .  .  .  .  .  .  .  .  .  .
72
65
73
2
40
12.7
49
0
74
0
49
-12.7
74
0
0
LTYPE
5
35
330
5
100
AcDbSymbolTableRecord
100
AcDbLinetypeTableRecord
2
DASHED
70
0
3
Dot . . . . . . . . . . . . . . . . . . . . . .
72
65
73
2
40
19.05
49
12.7
74
0
49
-6.35
74
0
0
LTYPE
5
36
330
5
100
AcDbSymbolTableRecord
100
AcDbLinetypeTableRecord
2
DASHED2
70
0
3
Dashed (.5x) _ _ _ _ _ _ _ _ _ _ _ _ _ _ _ _ _
72
65
73
2
40
9.525
49
6.35
74
0
49
-3.175
74
0
0
LTYPE
5
37
330
5
100
AcDbSymbolTableRecord
100
AcDbLinetypeTableRecord
2
DASHEDX2
70
0
3
Dashed (2x) ____  ____  ____  ____  ____  ___
72
65
73
2
40
38.1
49
25.4
74
0
49
-12.7
74
0
0
LTYPE
5
38
330
5
100
AcDbSymbolTableRecord
100
AcDbLinetypeTableRecord
2
DASHDOT
70
0
3
Dash dot __ . __ . __ . __ . __ . __ . __ . __
72
65
73
4
40
25.4
49
12.7
74
0
49
-6.35
74
0
49
0
74
0
49
-6.35
74
0
0
LTYPE
5
39
330
5
100
AcDbSymbolTableRecord
100
AcDbLinetypeTableRecord
2
DASHDOT2
70
0
3
Dash dot (.5x) _._._._._._._._._._._._._._._.
72
65
73
4
40
12.7
49
6.35
74
0
49
-3.175
74
0
49
0
74
0
49
-3.175
74
0
0
LTYPE
5
3A
330
5
100
AcDbSymbolTableRecord
100
AcDbLinetypeTableRecord
2
DASHDOTX2
70
0
3
Dash dot (2x) ____  .  ____  .  ____  .  ___
72
65
73
4
40
50.8
49
25.4
74
0
49
-12.7
74
0
49
0
74
0
49
-12.7
74
0
0
LTYPE
5
3B
330
5
100
AcDbSymbolTableRecord
100
AcDbLinetypeTableRecord
2
DIVIDE
70
0
3
Divide ____ . . ____ . . ____ . . ____ . . ____
72
65
73
6
40
31.75
49
12.7
74
0
49
-6.35
74
0
49
0
74
0
49
-6.35
74
0
49
0
74
0
49
-6.35
74
0
0
LTYPE
5
3C
330
5
100
AcDbSymbolTableRecord
100
AcDbLinetypeTableRecord
2
DIVIDE2
70
0
3
Divide (.5x) __..__..__..__..__..__..__..__.._
72
65
73
6
40
15.875
49
6.35
74
0
49
-3.175
74
0
49
0
74
0
49
-3.175
74
0
49
0
74
0
49
-3.175
74
0
0
LTYPE
5
3D
330
5
100
AcDbSymbolTableRecord
100
AcDbLinetypeTableRecord
2
DIVIDEX2
70
0
3
Divide (2x) ________  .  .  ________  .  .  _
72
65
73
6
40
63.5
49
25.4
74
0
49
-12.7
74
0
49
0
74
0
49
-12.7
74
0
49
0
74
0
49
-12.7
74
0
0
LTYPE
5
3E
330
5
100
AcDbSymbolTableRecord
100
AcDbLinetypeTableRecord
2
BORDER
70
0
3
Border __ __ . __ __ . __ __ . __ __ . __ __ .
72
65
73
6
40
44.45
49
12.7
74
0
49
-6.35
74
0
49
12.7
74
0
49
-6.35
74
0
49
0
74
0
49
-6.35
74
0
0
LTYPE
5
3F
330
5
100
AcDbSymbolTableRecord
100
AcDbLinetypeTableRecord
2
BORDER2
70
0
3
Border (.5x) __.__.__.__.__.__.__.__.__.__.__.
72
65
73
6
40
22.225
49
6.35
74
0
49
-3.175
74
0
49
6.35
74
0
49
-3.175
74
0
49
0
74
0
49
-3.175
74
0
0
LTYPE
5
40
330
5
100
AcDbSymbolTableRecord
100
AcDbLinetypeTableRecord
2
BORDERX2
70
0
3
Border (2x) ____  ____  .  ____  ____  .  ___
72
65
73
6
40
88.9
49
25.4
74
0
49
-12.7
74
0
49
25.4
74
0
49
-12.7
74
0
49
0
74
0
49
-12.7
74
0
0
LTYPE
5
41
330
5
100
AcDbSymbolTableRecord
100
AcDbLinetypeTableRecord
2
CENTER
70
0
3
Center ____ _ ____ _ ____ _ ____ _ ____ _ ____
72
65
73
4
40
50.8
49
31.75
74
0
49
-6.35
74
0
49
6.35
74
0
49
-6.35
74
0
0
LTYPE
5
42
330
5
100
AcDbSymbolTableRecord
100
AcDbLinetypeTableRecord
2
CENTER2
70
0
3
Center (.5x) ___ _ ___ _ ___ _ ___ _ ___ _ ___
72
65
73
4
40
28.575
49
19.05
74
0
49
-3.175
74
0
49
3.175
74
0
49
-3.175
74
0
0
LTYPE
5
43
330
5
100
AcDbSymbolTableRecord
100
AcDbLinetypeTableRecord
2
CENTERX2
70
0
3
Center (2x) ________  __  ________  __  _____
72
65
73
4
40
101.6
49
63.5
74
0
49
-12.7
74
0
49
12.7
74
0
49
-12.7
74
0
0
ENDTAB
0
TABLE
2
LAYER
5
2
330
0
100
AcDbSymbolTable
70
1
0
LAYER
5
10
330
2
100
AcDbSymbolTableRecord
100
AcDbLayerTableRecord
2
0
70
0
62
7
6
CONTINUOUS
370
35
390
F
0
LAYER
5
44
330
2
100
AcDbSymbolTableRecord
100
AcDbLayerTableRecord
2
BORDER
70
0
62
7
6
CONTINUOUS
370
35
390
F
0
LAYER
5
45
330
2
100
AcDbSymbolTableRecord
100
AcDbLayerTableRecord
2
DIMENSIONS
70
0
62
7
6
CONTINUOUS
370
18
390
F
0
LAYER
5
46
330
2
100
AcDbSymbolTableRecord
100
AcDbLayerTableRecord
2
LOGO
70
0
62
7
6
CONTINUOUS
370
35
390
F
0
LAYER
5
47
330
2
100
AcDbSymbolTableRecord
100
AcDbLayerTableRecord
2
PAPERSIZE
70
0
62
136
6
CONTINUOUS
370
0
390
F
0
LAYER
5
48
330
2
100
AcDbSymbolTableRecord
100
AcDbLayerTableRecord
2
TITLEBLOCK
70
0
62
7
6
CONTINUOUS
370
35
390
F
0
ENDTAB
0
TABLE
2
STYLE
5
3
330
0
100
AcDbSymbolTable
70
3
0
STYLE
5
49
330
2
100
AcDbSymbolTableRecord
100
AcDbTextStyleTableRecord
2
standard
70
0
40
0
41
1
50
0
71
0
42
1
3
standard
4

0
ENDTAB
0
TABLE
2
VIEW
5
6
330
0
100
AcDbSymbolTable
70
0
0
ENDTAB
0
TABLE
2
UCS
5
7
330
0
100
AcDbSymbolTable
70
0
0
ENDTAB
0
TABLE
2
APPID
5
9
330
0
100
AcDbSymbolTable
70
1
0
APPID
5
12
330
9
100
AcDbSymbolTableRecord
100
AcDbRegAppTableRecord
2
ACAD
70
0
0
ENDTAB
0
TABLE
2
DIMSTYLE
5
A
330
0
100
AcDbSymbolTable
70
1
100
AcDbDimStyleTable
71
1
0
DIMSTYLE
105
4A
330
A
100
AcDbSymbolTableRecord
100
AcDbDimStyleTableRecord
2
Standard
70
0
40
1
41
3.5
42
0
43
0.38
44
2
45
0
46
0
47
0
48
0
140
3.5
141
0.09
142
0
143
25.4
144
1
145
0
146
1
147
1
148
0
71
0
72
0
73
0
74
1
75
0
76
0
77
0
78
0
79
0
170
0
171
2
172
0
173
0
174
0
175
0
176
0
177
0
178
0
179
0
271
4
272
4
273
2
274
2
275
0
276
0
277
2
278
46
279
0
280
0
281
0
282
0
283
1
284
0
285
0
286
0
288
0
289
3
340
Standard
341

371
-2
372
-2
0
ENDTAB
0
TABLE
2
BLOCK_RECORD
5
1
330
0
100
AcDbSymbolTable
70
2
0
BLOCK_RECORD
5
1F
330
1
100
AcDbSymbolTableRecord
100
AcDbBlockTableRecord
2
*Model_Space
0
BLOCK_RECORD
5
1E
330
1
100
AcDbSymbolTableRecord
100
AcDbBlockTableRecord
2
*Paper_Space
0
ENDTAB
0
ENDSEC
0
SECTION
2
BLOCKS
0
BLOCK
5
20
330
1F
100
AcDbEntity
8
0
100
AcDbBlockBegin
2
*Model_Space
70
0
10
0
20
0
30
0
3
*Model_Space
1

0
ENDBLK
5
21
330
1F
100
AcDbEntity
8
0
100
AcDbBlockEnd
0
BLOCK
5
1C
330
1B
100
AcDbEntity
8
0
100
AcDbBlockBegin
2
*Paper_Space
70
0
10
0
20
0
30
0
3
*Paper_Space
1

0
ENDBLK
5
1D
330
1F
100
AcDbEntity
8
0
100
AcDbBlockEnd
0
BLOCK
5
2711
100
AcDbEntity
8
0
100
AcDbBlockBegin
2
Ortho1
70
0
10
0
20
0
3
Ortho1
1

0
LINE
8
0
6
BYBLOCK
62
0
5
2712
100
AcDbEntity
100
AcDbLine
10
-240
20
210
30
0
11
10
21
210
31
0
0
LINE
8
0
6
BYBLOCK
62
0
5
2713
100
AcDbEntity
100
AcDbLine
10
-240
20
-210
30
0
11
-240
21
210
31
0
0
LINE
8
0
6
BYBLOCK
62
0
5
2714
100
AcDbEntity
100
AcDbLine
10
10
20
210
30
0
11
10
21
-210
31
0
0
LINE
8
0
6
BYBLOCK
62
0
5
2715
100
AcDbEntity
100
AcDbLine
10
10
20
-210
30
0
11
-240
21
-210
31
0
0
LINE
8
0
6
BYBLOCK
62
0
5
2716
100
AcDbEntity
100
AcDbLine
10
-166.13
20
-33.54
30
0
11
-148.13
21
-33.54
31
0
0
LINE
8
0
6
BYBLOCK
62
0
5
2717
100
AcDbEntity
100
AcDbLine
10
-166.13
20
-40.54
30
0
11
-166.13
21
-33.54
31
0
0
LINE
8
0
6
BYBLOCK
62
0
5
2718
100
AcDbEntity
100
AcDbLine
10
-148.13
20
-33.54
30
0
11
-148.13
21
-40.54
31
0
0
LINE
8
0
6
BYBLOCK
62
0
5
2719
100
AcDbEntity
100
AcDbLine
10
-148.13
20
-40.54
30
0
11
-166.13
21
-40.54
31
0
0
LINE
8
0
6
BYBLOCK
62
0
5
271a
100
AcDbEntity
100
AcDbLine
10
-166.13
20
-53.57
30
0
11
-148.13
21
-53.57
31
0
0
LINE
8
0
6
BYBLOCK
62
0
5
271b
100
AcDbEntity
100
AcDbLine
10
-166.13
20
-60.57
30
0
11
-166.13
21
-53.57
31
0
0
LINE
8
0
6
BYBLOCK
62
0
5
271c
100
AcDbEntity
100
AcDbLine
10
-148.13
20
-53.57
30
0
11
-148.13
21
-60.57
31
0
0
LINE
8
0
6
BYBLOCK
62
0
5
271d
100
AcDbEntity
100
AcDbLine
10
-148.13
20
-60.57
30
0
11
-166.13
21
-60.57
31
0
0
LINE
8
0
6
BYBLOCK
62
0
5
271e
100
AcDbEntity
100
AcDbLine
10
-166.13
20
-73.62
30
0
11
-148.13
21
-73.62
31
0
0
LINE
8
0
6
BYBLOCK
62
0
5
271f
100
AcDbEntity
100
AcDbLine
10
-166.13
20
-80.62
30
0
11
-166.13
21
-73.62
31
0
0
LINE
8
0
6
BYBLOCK
62
0
5
2720
100
AcDbEntity
100
AcDbLine
10
-148.13
20
-73.62
30
0
11
-148.13
21
-80.62
31
0
0
LINE
8
0
6
BYBLOCK
62
0
5
2721
100
AcDbEntity
100
AcDbLine
10
-148.13
20
-80.62
30
0
11
-166.13
21
-80.62
31
0
0
LINE
8
0
6
BYBLOCK
62
0
5
2722
100
AcDbEntity
100
AcDbLine
10
-131.267
20
-53.73
30
0
11
-113.267
21
-53.73
31
0
0
LINE
8
0
6
BYBLOCK
62
0
5
2723
100
AcDbEntity
100
AcDbLine
10
-131.267
20
-60.73
30
0
11
-131.267
21
-53.73
31
0
0
LINE
8
0
6
BYBLOCK
62
0
5
2724
100
AcDbEntity
100
AcDbLine
10
-113.267
20
-53.73
30
0
11
-113.267
21
-60.73
31
0
0
LINE
8
0
6
BYBLOCK
62
0
5
2725
100
AcDbEntity
100
AcDbLine
10
-113.267
20
-60.73
30
0
11
-131.267
21
-60.73
31
0
0
LINE
8
0
6
BYBLOCK
62
0
5
2726
100
AcDbEntity
100
AcDbLine
10
-131.211
20
-73.66
30
0
11
-113.211
21
-73.66
31
0
0
LINE
8
0
6
BYBLOCK
62
0
5
2727
100
AcDbEntity
100
AcDbLine
10
-131.211
20
-80.66
30
0
11
-131.211
21
-73.66
31
0
0
LINE
8
0
6
BYBLOCK
62
0
5
2728
100
AcDbEntity
100
AcDbLine
10
-113.211
20
-73.66
30
0
11
-113.211
21
-80.66
31
0
0
LINE
8
0
6
BYBLOCK
62
0
5
2729
100
AcDbEntity
100
AcDbLine
10
-113.211
20
-80.66
30
0
11
-131.211
21
-80.66
31
0
0
LINE
8
0
6
BYBLOCK
62
0
5
272a
100
AcDbEntity
100
AcDbLine
10
-131.18
20
-33.64
30
0
11
-113.18
21
-33.64
31
0
0
LINE
8
0
6
BYBLOCK
62
0
5
272b
100
AcDbEntity
100
AcDbLine
10
-131.18
20
-40.64
30
0
11
-131.18
21
-33.64
31
0
0
LINE
8
0
6
BYBLOCK
62
0
5
272c
100
AcDbEntity
100
AcDbLine
10
-113.18
20
-33.64
30
0
11
-113.18
21
-40.64
31
0
0
LINE
8
0
6
BYBLOCK
62
0
5
272d
100
AcDbEntity
100
AcDbLine
10
-113.18
20
-40.64
30
0
11
-131.18
21
-40.64
31
0
0
LINE
8
0
6
BYBLOCK
62
0
5
272e
100
AcDbEntity
100
AcDbLine
10
-166.13
20
-93.53
30
0
11
-148.13
21
-93.53
31
0
0
LINE
8
0
6
BYBLOCK
62
0
5
272f
100
AcDbEntity
100
AcDbLine
10
-166.13
20
-100.53
30
0
11
-166.13
21
-93.53
31
0
0
LINE
8
0
6
BYBLOCK
62
0
5
2730
100
AcDbEntity
100
AcDbLine
10
-148.13
20
-93.53
30
0
11
-148.13
21
-100.53
31
0
0
LINE
8
0
6
BYBLOCK
62
0
5
2731
100
AcDbEntity
100
AcDbLine
10
-148.13
20
-100.53
30
0
11
-166.13
21
-100.53
31
0
0
CIRCLE
8
0
6
BYBLOCK
62
0
5
2732
100
AcDbEntity
100
AcDbCircle
10
-90.37
20
-100.05
30
0
40
7.1
0
CIRCLE
8
0
6
BYBLOCK
62
0
5
2733
100
AcDbEntity
100
AcDbCircle
10
-90.37
20
-80.05
30
0
40
7.1
0
CIRCLE
8
0
6
BYBLOCK
62
0
5
2734
100
AcDbEntity
100
AcDbCircle
10
-90.37
20
-60.05
30
0
40
7.1
0
LINE
8
0
6
BYBLOCK
62
0
5
2735
100
AcDbEntity
100
AcDbLine
10
-131.307
20
-93.6
30
0
11
-113.307
21
-93.6
31
0
0
LINE
8
0
6
BYBLOCK
62
0
5
2736
100
AcDbEntity
100
AcDbLine
10
-131.307
20
-100.6
30
0
11
-131.307
21
-93.6
31
0
0
LINE
8
0
6
BYBLOCK
62
0
5
2737
100
AcDbEntity
100
AcDbLine
10
-113.307
20
-93.6
30
0
11
-113.307
21
-100.6
31
0
0
LINE
8
0
6
BYBLOCK
62
0
5
2738
100
AcDbEntity
100
AcDbLine
10
-113.307
20
-100.6
30
0
11
-131.307
21
-100.6
31
0
0
CIRCLE
8
0
6
BYBLOCK
62
0
5
2739
100
AcDbEntity
100
AcDbCircle
10
-90.37
20
-40.05
30
0
40
7.1
0
CIRCLE
8
0
6
BYBLOCK
62
0
5
273a
100
AcDbEntity
100
AcDbCircle
10
-90.37
20
-120.05
30
0
40
7.1
0
LINE
8
0
6
BYBLOCK
62
0
5
273b
100
AcDbEntity
100
AcDbLine
10
-131.665
20
-113.67
30
0
11
-113.665
21
-113.67
31
0
0
LINE
8
0
6
BYBLOCK
62
0
5
273c
100
AcDbEntity
100
AcDbLine
10
-131.665
20
-120.67
30
0
11
-131.665
21
-113.67
31
0
0
LINE
8
0
6
BYBLOCK
62
0
5
273d
100
AcDbEntity
100
AcDbLine
10
-113.665
20
-113.67
30
0
11
-113.665
21
-120.67
31
0
0
LINE
8
0
6
BYBLOCK
62
0
5
273e
100
AcDbEntity
100
AcDbLine
10
-113.665
20
-120.67
30
0
11
-131.665
21
-120.67
31
0
0
LINE
8
0
6
BYBLOCK
62
0
5
273f
100
AcDbEntity
100
AcDbLine
10
-166.13
20
-113.6
30
0
11
-148.13
21
-113.6
31
0
0
LINE
8
0
6
BYBLOCK
62
0
5
2740
100
AcDbEntity
100
AcDbLine
10
-166.13
20
-120.6
30
0
11
-166.13
21
-113.6
31
0
0
LINE
8
0
6
BYBLOCK
62
0
5
2741
100
AcDbEntity
100
AcDbLine
10
-148.13
20
-113.6
30
0
11
-148.13
21
-120.6
31
0
0
LINE
8
0
6
BYBLOCK
62
0
5
2742
100
AcDbEntity
100
AcDbLine
10
-148.13
20
-120.6
30
0
11
-166.13
21
-120.6
31
0
0
LINE
8
0
6
BYBLOCK
62
0
5
2743
100
AcDbEntity
100
AcDbLine
10
-131.1
20
-6.62818
30
0
11
-113.1
21
-6.62818
31
0
0
LINE
8
0
6
BYBLOCK
62
0
5
2744
100
AcDbEntity
100
AcDbLine
10
-131.1
20
-13.6282
30
0
11
-131.1
21
-6.62818
31
0
0
LINE
8
0
6
BYBLOCK
62
0
5
2745
100
AcDbEntity
100
AcDbLine
10
-113.1
20
-6.62818
30
0
11
-113.1
21
-13.6282
31
0
0
LINE
8
0
6
BYBLOCK
62
0
5
2746
100
AcDbEntity
100
AcDbLine
10
-113.1
20
-13.6282
30
0
11
-131.1
21
-13.6282
31
0
0
CIRCLE
8
0
6
BYBLOCK
62
0
5
2747
100
AcDbEntity
100
AcDbCircle
10
-90.37
20
-13.11
30
0
40
7.1
0
LINE
8
0
6
BYBLOCK
62
0
5
2748
100
AcDbEntity
100
AcDbLine
10
-166.13
20
-6.64
30
0
11
-148.13
21
-6.64
31
0
0
LINE
8
0
6
BYBLOCK
62
0
5
2749
100
AcDbEntity
100
AcDbLine
10
-166.13
20
-13.64
30
0
11
-166.13
21
-6.64
31
0
0
LINE
8
0
6
BYBLOCK
62
0
5
274a
100
AcDbEntity
100
AcDbLine
10
-148.13
20
-6.64
30
0
11
-148.13
21
-13.64
31
0
0
LINE
8
0
6
BYBLOCK
62
0
5
274b
100
AcDbEntity
100
AcDbLine
10
-148.13
20
-13.64
30
0
11
-166.13
21
-13.64
31
0
0
CIRCLE
8
0
6
BYBLOCK
62
0
5
274c
100
AcDbEntity
100
AcDbCircle
10
-85
20
-26
30
0
40
1.3
0
CIRCLE
8
0
6
BYBLOCK
62
0
5
274d
100
AcDbEntity
100
AcDbCircle
10
-85
20
-154.006
30
0
40
1.3
0
CIRCLE
8
0
6
BYBLOCK
62
0
5
274e
100
AcDbEntity
100
AcDbCircle
10
-90.37
20
-140.05
30
0
40
7.1
0
LINE
8
0
6
BYBLOCK
62
0
5
274f
100
AcDbEntity
100
AcDbLine
10
-131.18
20
-133.63
30
0
11
-113.18
21
-133.63
31
0
0
LINE
8
0
6
BYBLOCK
62
0
5
2750
100
AcDbEntity
100
AcDbLine
10
-131.18
20
-140.63
30
0
11
-131.18
21
-133.63
31
0
0
LINE
8
0
6
BYBLOCK
62
0
5
2751
100
AcDbEntity
100
AcDbLine
10
-113.18
20
-133.63
30
0
11
-113.18
21
-140.63
31
0
0
LINE
8
0
6
BYBLOCK
62
0
5
2752
100
AcDbEntity
100
AcDbLine
10
-113.18
20
-140.63
30
0
11
-131.18
21
-140.63
31
0
0
LINE
8
0
6
BYBLOCK
62
0
5
2753
100
AcDbEntity
100
AcDbLine
10
-166.13
20
-133.43
30
0
11
-148.13
21
-133.43
31
0
0
LINE
8
0
6
BYBLOCK
62
0
5
2754
100
AcDbEntity
100
AcDbLine
10
-166.13
20
-140.43
30
0
11
-166.13
21
-133.43
31
0
0
LINE
8
0
6
BYBLOCK
62
0
5
2755
100
AcDbEntity
100
AcDbLine
10
-148.13
20
-133.43
30
0
11
-148.13
21
-140.43
31
0
0
LINE
8
0
6
BYBLOCK
62
0
5
2756
100
AcDbEntity
100
AcDbLine
10
-148.13
20
-140.43
30
0
11
-166.13
21
-140.43
31
0
0
CIRCLE
8
0
6
BYBLOCK
62
0
5
2757
100
AcDbEntity
100
AcDbCircle
10
-188.19
20
-80.07
30
0
40
7.1
0
CIRCLE
8
0
6
BYBLOCK
62
0
5
2758
100
AcDbEntity
100
AcDbCircle
10
-188.19
20
-100.07
30
0
40
7.1
0
CIRCLE
8
0
6
BYBLOCK
62
0
5
2759
100
AcDbEntity
100
AcDbCircle
10
-188.19
20
-120.07
30
0
40
7.1
0
CIRCLE
8
0
6
BYBLOCK
62
0
5
275a
100
AcDbEntity
100
AcDbCircle
10
-188.19
20
-140.07
30
0
40
7.1
0
CIRCLE
8
0
6
BYBLOCK
62
0
5
275b
100
AcDbEntity
100
AcDbCircle
10
-188.19
20
-60.07
30
0
40
7.1
0
CIRCLE
8
0
6
BYBLOCK
62
0
5
275c
100
AcDbEntity
100
AcDbCircle
10
-194.006
20
-154.006
30
0
40
1.3
0
CIRCLE
8
0
6
BYBLOCK
62
0
5
275d
100
AcDbEntity
100
AcDbCircle
10
-188.19
20
-40.07
30
0
40
7.1
0
CIRCLE
8
0
6
BYBLOCK
62
0
5
275e
100
AcDbEntity
100
AcDbCircle
10
-188.19
20
-13.11
30
0
40
7.1
0
CIRCLE
8
0
6
BYBLOCK
62
0
5
275f
100
AcDbEntity
100
AcDbCircle
10
-194.006
20
-26
30
0
40
1.3
0
LINE
8
0
6
BYBLOCK
62
0
5
2760
100
AcDbEntity
100
AcDbLine
10
-166.13
20
33.39
30
0
11
-148.13
21
33.39
31
0
0
LINE
8
0
6
BYBLOCK
62
0
5
2761
100
AcDbEntity
100
AcDbLine
10
-166.13
20
26.39
30
0
11
-166.13
21
33.39
31
0
0
LINE
8
0
6
BYBLOCK
62
0
5
2762
100
AcDbEntity
100
AcDbLine
10
-148.13
20
33.39
30
0
11
-148.13
21
26.39
31
0
0
LINE
8
0
6
BYBLOCK
62
0
5
2763
100
AcDbEntity
100
AcDbLine
10
-148.13
20
26.39
30
0
11
-166.13
21
26.39
31
0
0
CIRCLE
8
0
6
BYBLOCK
62
0
5
2764
100
AcDbEntity
100
AcDbCircle
10
-188.19
20
6.89
30
0
40
7.1
0
CIRCLE
8
0
6
BYBLOCK
62
0
5
2765
100
AcDbEntity
100
AcDbCircle
10
-188.19
20
26.89
30
0
40
7.1
0
LINE
8
0
6
BYBLOCK
62
0
5
2766
100
AcDbEntity
100
AcDbLine
10
-131.219
20
33.39
30
0
11
-113.219
21
33.39
31
0
0
LINE
8
0
6
BYBLOCK
62
0
5
2767
100
AcDbEntity
100
AcDbLine
10
-131.219
20
26.39
30
0
11
-131.219
21
33.39
31
0
0
LINE
8
0
6
BYBLOCK
62
0
5
2768
100
AcDbEntity
100
AcDbLine
10
-113.219
20
33.39
30
0
11
-113.219
21
26.39
31
0
0
LINE
8
0
6
BYBLOCK
62
0
5
2769
100
AcDbEntity
100
AcDbLine
10
-113.219
20
26.39
30
0
11
-131.219
21
26.39
31
0
0
CIRCLE
8
0
6
BYBLOCK
62
0
5
276a
100
AcDbEntity
100
AcDbCircle
10
-90.42
20
6.89
30
0
40
7.1
0
CIRCLE
8
0
6
BYBLOCK
62
0
5
276b
100
AcDbEntity
100
AcDbCircle
10
-90.42
20
26.89
30
0
40
7.1
0
CIRCLE
8
0
6
BYBLOCK
62
0
5
276c
100
AcDbEntity
100
AcDbCircle
10
5
20
-150
30
0
40
1.7
0
CIRCLE
8
0
6
BYBLOCK
62
0
5
276d
100
AcDbEntity
100
AcDbCircle
10
5
20
0
30
0
40
1.7
0
ARC
8
0
6
BYBLOCK
62
0
5
276e
100
AcDbEntity
100
AcDbCircle
10
-33.433
20
44.2276
30
0
40
15
100
AcDbArc
50
0
51
180
0
LINE
8
0
6
BYBLOCK
62
0
5
276f
100
AcDbEntity
100
AcDbLine
10
-18.433
20
44.2276
30
0
11
-18.433
21
-55.7724
31
0
0
LINE
8
0
6
BYBLOCK
62
0
5
2770
100
AcDbEntity
100
AcDbLine
10
-48.433
20
44.2276
30
0
11
-48.433
21
-55.7724
31
0
0
ARC
8
0
6
BYBLOCK
62
0
5
2771
100
AcDbEntity
100
AcDbCircle
10
-33.433
20
-55.7724
30
0
40
15
100
AcDbArc
50
180
51
0
0
CIRCLE
8
0
6
BYBLOCK
62
0
5
2772
100
AcDbEntity
100
AcDbCircle
10
5
20
150
30
0
40
1.7
0
CIRCLE
8
0
6
BYBLOCK
62
0
5
2773
100
AcDbEntity
100
AcDbCircle
10
-85
20
109.79
30
0
40
1.3
0
LINE
8
0
6
BYBLOCK
62
0
5
2774
100
AcDbEntity
100
AcDbLine
10
-131.227
20
13.2673
30
0
11
-113.227
21
13.2673
31
0
0
LINE
8
0
6
BYBLOCK
62
0
5
2775
100
AcDbEntity
100
AcDbLine
10
-131.227
20
6.26725
30
0
11
-131.227
21
13.2673
31
0
0
LINE
8
0
6
BYBLOCK
62
0
5
2776
100
AcDbEntity
100
AcDbLine
10
-113.227
20
13.2673
30
0
11
-113.227
21
6.26725
31
0
0
LINE
8
0
6
BYBLOCK
62
0
5
2777
100
AcDbEntity
100
AcDbLine
10
-113.227
20
6.26725
30
0
11
-131.227
21
6.26725
31
0
0
LINE
8
0
6
BYBLOCK
62
0
5
2778
100
AcDbEntity
100
AcDbLine
10
-131.328
20
53.3382
30
0
11
-113.328
21
53.3382
31
0
0
LINE
8
0
6
BYBLOCK
62
0
5
2779
100
AcDbEntity
100
AcDbLine
10
-131.328
20
46.3382
30
0
11
-131.328
21
53.3382
31
0
0
LINE
8
0
6
BYBLOCK
62
0
5
277a
100
AcDbEntity
100
AcDbLine
10
-113.328
20
53.3382
30
0
11
-113.328
21
46.3382
31
0
0
LINE
8
0
6
BYBLOCK
62
0
5
277b
100
AcDbEntity
100
AcDbLine
10
-113.328
20
46.3382
30
0
11
-131.328
21
46.3382
31
0
0
LINE
8
0
6
BYBLOCK
62
0
5
277c
100
AcDbEntity
100
AcDbLine
10
-131.18
20
93.52
30
0
11
-113.18
21
93.52
31
0
0
LINE
8
0
6
BYBLOCK
62
0
5
277d
100
AcDbEntity
100
AcDbLine
10
-131.18
20
86.52
30
0
11
-131.18
21
93.52
31
0
0
LINE
8
0
6
BYBLOCK
62
0
5
277e
100
AcDbEntity
100
AcDbLine
10
-113.18
20
93.52
30
0
11
-113.18
21
86.52
31
0
0
LINE
8
0
6
BYBLOCK
62
0
5
277f
100
AcDbEntity
100
AcDbLine
10
-113.18
20
86.52
30
0
11
-131.18
21
86.52
31
0
0
LINE
8
0
6
BYBLOCK
62
0
5
2780
100
AcDbEntity
100
AcDbLine
10
-131.307
20
73.2
30
0
11
-113.307
21
73.2
31
0
0
LINE
8
0
6
BYBLOCK
62
0
5
2781
100
AcDbEntity
100
AcDbLine
10
-131.307
20
66.2
30
0
11
-131.307
21
73.2
31
0
0
LINE
8
0
6
BYBLOCK
62
0
5
2782
100
AcDbEntity
100
AcDbLine
10
-113.307
20
73.2
30
0
11
-113.307
21
66.2
31
0
0
LINE
8
0
6
BYBLOCK
62
0
5
2783
100
AcDbEntity
100
AcDbLine
10
-113.307
20
66.2
30
0
11
-131.307
21
66.2
31
0
0
CIRCLE
8
0
6
BYBLOCK
62
0
5
2784
100
AcDbEntity
100
AcDbCircle
10
-90.42
20
86.89
30
0
40
7.1
0
CIRCLE
8
0
6
BYBLOCK
62
0
5
2785
100
AcDbEntity
100
AcDbCircle
10
-90.42
20
66.89
30
0
40
7.1
0
CIRCLE
8
0
6
BYBLOCK
62
0
5
2786
100
AcDbEntity
100
AcDbCircle
10
-90.42
20
46.89
30
0
40
7.1
0
LINE
8
0
6
BYBLOCK
62
0
5
2787
100
AcDbEntity
100
AcDbLine
10
-166.13
20
73.4
30
0
11
-148.13
21
73.4
31
0
0
LINE
8
0
6
BYBLOCK
62
0
5
2788
100
AcDbEntity
100
AcDbLine
10
-166.13
20
66.4
30
0
11
-166.13
21
73.4
31
0
0
LINE
8
0
6
BYBLOCK
62
0
5
2789
100
AcDbEntity
100
AcDbLine
10
-148.13
20
73.4
30
0
11
-148.13
21
66.4
31
0
0
LINE
8
0
6
BYBLOCK
62
0
5
278a
100
AcDbEntity
100
AcDbLine
10
-148.13
20
66.4
30
0
11
-166.13
21
66.4
31
0
0
LINE
8
0
6
BYBLOCK
62
0
5
278b
100
AcDbEntity
100
AcDbLine
10
-166.13
20
93.52
30
0
11
-148.13
21
93.52
31
0
0
LINE
8
0
6
BYBLOCK
62
0
5
278c
100
AcDbEntity
100
AcDbLine
10
-166.13
20
86.52
30
0
11
-166.13
21
93.52
31
0
0
LINE
8
0
6
BYBLOCK
62
0
5
278d
100
AcDbEntity
100
AcDbLine
10
-148.13
20
93.52
30
0
11
-148.13
21
86.52
31
0
0
LINE
8
0
6
BYBLOCK
62
0
5
278e
100
AcDbEntity
100
AcDbLine
10
-148.13
20
86.52
30
0
11
-166.13
21
86.52
31
0
0
LINE
8
0
6
BYBLOCK
62
0
5
278f
100
AcDbEntity
100
AcDbLine
10
-148.13
20
53.34
30
0
11
-166.13
21
53.34
31
0
0
LINE
8
0
6
BYBLOCK
62
0
5
2790
100
AcDbEntity
100
AcDbLine
10
-148.13
20
46.34
30
0
11
-148.13
21
53.34
31
0
0
LINE
8
0
6
BYBLOCK
62
0
5
2791
100
AcDbEntity
100
AcDbLine
10
-166.13
20
53.34
30
0
11
-166.13
21
46.34
31
0
0
LINE
8
0
6
BYBLOCK
62
0
5
2792
100
AcDbEntity
100
AcDbLine
10
-166.13
20
46.34
30
0
11
-148.13
21
46.34
31
0
0
LINE
8
0
6
BYBLOCK
62
0
5
2793
100
AcDbEntity
100
AcDbLine
10
-166.13
20
13.36
30
0
11
-148.13
21
13.36
31
0
0
LINE
8
0
6
BYBLOCK
62
0
5
2794
100
AcDbEntity
100
AcDbLine
10
-166.13
20
6.36
30
0
11
-166.13
21
13.36
31
0
0
LINE
8
0
6
BYBLOCK
62
0
5
2795
100
AcDbEntity
100
AcDbLine
10
-148.13
20
13.36
30
0
11
-148.13
21
6.36
31
0
0
LINE
8
0
6
BYBLOCK
62
0
5
2796
100
AcDbEntity
100
AcDbLine
10
-148.13
20
6.36
30
0
11
-166.13
21
6.36
31
0
0
CIRCLE
8
0
6
BYBLOCK
62
0
5
2797
100
AcDbEntity
100
AcDbCircle
10
-188.19
20
66.89
30
0
40
7.1
0
CIRCLE
8
0
6
BYBLOCK
62
0
5
2798
100
AcDbEntity
100
AcDbCircle
10
-188.19
20
86.89
30
0
40
7.1
0
CIRCLE
8
0
6
BYBLOCK
62
0
5
2799
100
AcDbEntity
100
AcDbCircle
10
-188.19
20
46.89
30
0
40
7.1
0
CIRCLE
8
0
6
BYBLOCK
62
0
5
279a
100
AcDbEntity
100
AcDbCircle
10
-194.006
20
109.79
30
0
40
1.3
0
CIRCLE
8
0
6
BYBLOCK
62
0
5
279b
100
AcDbEntity
100
AcDbCircle
10
-20
20
205
30
0
40
1.7
0
CIRCLE
8
0
6
BYBLOCK
62
0
5
279c
100
AcDbEntity
100
AcDbCircle
10
-115
20
205
30
0
40
1.7
0
CIRCLE
8
0
6
BYBLOCK
62
0
5
279d
100
AcDbEntity
100
AcDbCircle
10
-115
20
-205
30
0
40
1.7
0
CIRCLE
8
0
6
BYBLOCK
62
0
5
279e
100
AcDbEntity
100
AcDbCircle
10
-20
20
-205
30
0
40
1.7
0
CIRCLE
8
0
6
BYBLOCK
62
0
5
279f
100
AcDbEntity
100
AcDbCircle
10
-210
20
205
30
0
40
1.7
0
CIRCLE
8
0
6
BYBLOCK
62
0
5
27a0
100
AcDbEntity
100
AcDbCircle
10
-210
20
-205
30
0
40
1.7
0
ENDBLK
5
27a1
100
AcDbEntity
8
0
100
AcDbBlockEnd
0
BLOCK
5
27a2
100
AcDbEntity
8
0
100
AcDbBlockBegin
2
Ortho0011
70
0
10
0
20
0
3
Ortho0011
1

0
LINE
8
0
6
BYBLOCK
62
0
5
27a3
100
AcDbEntity
100
AcDbLine
10
-210
20
-140
30
0
11
-210
21
-145
31
0
0
LINE
8
0
6
BYBLOCK
62
0
5
27a4
100
AcDbEntity
100
AcDbLine
10
210
20
-140
30
0
11
210
21
-145
31
0
0
LINE
8
0
6
BYBLOCK
62
0
5
27a5
100
AcDbEntity
100
AcDbLine
10
-210
20
-140
30
0
11
210
21
-140
31
0
0
LINE
8
0
6
BYBLOCK
62
0
5
27a6
100
AcDbEntity
100
AcDbLine
10
-210
20
-145
30
0
11
210
21
-145
31
0
0
SPLINE
8
0
6
BYBLOCK
62
0
5
27a7
100
AcDbEntity
100
AcDbSpline
70
0
71
1
72
17
73
15
74
0
40
0
40
0
40
0.1122
40
0.224399
40
0.336599
40
0.448799
40
0.560999
40
0.673198
40
0.785398
40
0.897598
40
1.0098
40
1.122
40
1.2342
40
1.3464
40
1.4586
40
1.5708
40
1.5708
10
-109.79
20
-140
30
0
10
-109.936
20
-140
30
0
10
-110.079
20
-140
30
0
10
-110.219
20
-140
30
0
10
-110.354
20
-140
30
0
10
-110.482
20
-140
30
0
10
-110.601
20
-140
30
0
10
-110.709
20
-140
30
0
10
-110.806
20
-140
30
0
10
-110.891
20
-140
30
0
10
-110.961
20
-140
30
0
10
-111.017
20
-140
30
0
10
-111.057
20
-140
30
0
10
-111.082
20
-140
30
0
10
-111.09
20
-140
30
0
0
SPLINE
8
0
6
BYBLOCK
62
0
5
27a8
100
AcDbEntity
100
AcDbSpline
70
0
71
1
72
17
73
15
74
0
40
4.71239
40
4.71239
40
4.82459
40
4.93679
40
5.04899
40
5.16119
40
5.27339
40
5.38559
40
5.49779
40
5.60999
40
5.72219
40
5.83439
40
5.94659
40
6.05879
40
6.17099
40
6.28319
40
6.28319
10
-108.49
20
-140
30
0
10
-108.498
20
-140
30
0
10
-108.523
20
-140
30
0
10
-108.563
20
-140
30
0
10
-108.619
20
-140
30
0
10
-108.689
20
-140
30
0
10
-108.774
20
-140
30
0
10
-108.871
20
-140
30
0
10
-108.979
20
-140
30
0
10
-109.098
20
-140
30
0
10
-109.226
20
-140
30
0
10
-109.361
20
-140
30
0
10
-109.501
20
-140
30
0
10
-109.644
20
-140
30
0
10
-109.79
20
-140
30
0
0
SPLINE
8
0
6
BYBLOCK
62
0
5
27a9
100
AcDbEntity
100
AcDbSpline
70
0
71
1
72
17
73
15
74
0
40
3.14159
40
3.14159
40
3.36599
40
3.59039
40
3.81479
40
4.03919
40
4.26359
40
4.48799
40
4.71239
40
4.93679
40
5.16119
40
5.38559
40
5.60999
40
5.83439
40
6.05879
40
6.28319
40
6.28319
10
-203.3
20
-140
30
0
10
-203.343
20
-140
30
0
10
-203.468
20
-140
30
0
10
-203.671
20
-140
30
0
10
-203.94
20
-140
30
0
10
-204.262
20
-140
30
0
10
-204.622
20
-140
30
0
10
-205
20
-140
30
0
10
-205.378
20
-140
30
0
10
-205.738
20
-140
30
0
10
-206.06
20
-140
30
0
10
-206.329
20
-140
30
0
10
-206.532
20
-140
30
0
10
-206.657
20
-140
30
0
10
-206.7
20
-140
30
0
0
SPLINE
8
0
6
BYBLOCK
62
0
5
27aa
100
AcDbEntity
100
AcDbSpline
70
0
71
1
72
17
73
15
74
0
40
0
40
0
40
0.1122
40
0.224399
40
0.336599
40
0.448799
40
0.560999
40
0.673198
40
0.785398
40
0.897598
40
1.0098
40
1.122
40
1.2342
40
1.3464
40
1.4586
40
1.5708
40
1.5708
10
80.05
20
-145
30
0
10
79.2551
20
-145
30
0
10
78.4701
20
-145
30
0
10
77.705
20
-145
30
0
10
76.9694
20
-145
30
0
10
76.2726
20
-145
30
0
10
75.6232
20
-145
30
0
10
75.0295
20
-145
30
0
10
74.499
20
-145
30
0
10
74.0383
20
-145
30
0
10
73.6531
20
-145
30
0
10
73.3484
20
-145
30
0
10
73.128
20
-145
30
0
10
72.9946
20
-145
30
0
10
72.95
20
-145
30
0
0
SPLINE
8
0
6
BYBLOCK
62
0
5
27ab
100
AcDbEntity
100
AcDbSpline
70
0
71
1
72
17
73
15
74
0
40
0
40
0
40
0.224399
40
0.448799
40
0.673198
40
0.897598
40
1.122
40
1.3464
40
1.5708
40
1.7952
40
2.0196
40
2.24399
40
2.46839
40
2.69279
40
2.91719
40
3.14159
40
3.14159
10
-1.7
20
-145
30
0
10
-1.65738
20
-145
30
0
10
-1.53165
20
-145
30
0
10
-1.32911
20
-145
30
0
10
-1.05993
20
-145
30
0
10
-0.737602
20
-145
30
0
10
-0.378286
20
-145
30
0
10
-1.04095e-016
20
-145
30
0
10
0.378286
20
-145
30
0
10
0.737602
20
-145
30
0
10
1.05993
20
-145
30
0
10
1.32911
20
-145
30
0
10
1.53165
20
-145
30
0
10
1.65738
20
-145
30
0
10
1.7
20
-145
30
0
0
SPLINE
8
0
6
BYBLOCK
62
0
5
27ac
100
AcDbEntity
100
AcDbSpline
70
0
71
1
72
17
73
15
74
0
40
1.22466e-016
40
1.22466e-016
40
0.1122
40
0.224399
40
0.336599
40
0.448799
40
0.560999
40
0.673198
40
0.785398
40
0.897598
40
1.0098
40
1.122
40
1.2342
40
1.3464
40
1.4586
40
1.5708
40
1.5708
10
-44.2276
20
-145
30
0
10
-45.9071
20
-145
30
0
10
-47.5654
20
-145
30
0
10
-49.1818
20
-145
30
0
10
-50.7359
20
-145
30
0
10
-52.2081
20
-145
30
0
10
-53.58
20
-145
30
0
10
-54.8342
20
-145
30
0
10
-55.9551
20
-145
30
0
10
-56.9285
20
-145
30
0
10
-57.7421
20
-145
30
0
10
-58.3859
20
-145
30
0
10
-58.8515
20
-145
30
0
10
-59.1333
20
-145
30
0
10
-59.2276
20
-145
30
0
0
LINE
8
0
6
BYBLOCK
62
0
5
27ad
100
AcDbEntity
100
AcDbLine
10
-44.2276
20
-145
30
0
11
55.7724
21
-145
31
0
0
SPLINE
8
0
6
BYBLOCK
62
0
5
27ae
100
AcDbEntity
100
AcDbSpline
70
0
71
1
72
17
73
15
74
0
40
4.71239
40
4.71239
40
4.82459
40
4.93679
40
5.04899
40
5.16119
40
5.27339
40
5.38559
40
5.49779
40
5.60999
40
5.72219
40
5.83439
40
5.94659
40
6.05879
40
6.17099
40
6.28319
40
6.28319
10
70.7724
20
-145
30
0
10
70.6781
20
-145
30
0
10
70.3963
20
-145
30
0
10
69.9306
20
-145
30
0
10
69.2869
20
-145
30
0
10
68.4733
20
-145
30
0
10
67.4999
20
-145
30
0
10
66.379
20
-145
30
0
10
65.1247
20
-145
30
0
10
63.7529
20
-145
30
0
10
62.2806
20
-145
30
0
10
60.7266
20
-145
30
0
10
59.1102
20
-145
30
0
10
57.4519
20
-145
30
0
10
55.7724
20
-145
30
0
0
SPLINE
8
0
6
BYBLOCK
62
0
5
27af
100
AcDbEntity
100
AcDbSpline
70
0
71
1
72
17
73
15
74
0
40
0
40
0
40
0.224399
40
0.448799
40
0.673198
40
0.897598
40
1.122
40
1.3464
40
1.5708
40
1.7952
40
2.0196
40
2.24399
40
2.46839
40
2.69279
40
2.91719
40
3.14159
40
3.14159
10
-151.7
20
-145
30
0
10
-151.657
20
-145
30
0
10
-151.532
20
-145
30
0
10
-151.329
20
-145
30
0
10
-151.06
20
-145
30
0
10
-150.738
20
-145
30
0
10
-150.378
20
-145
30
0
10
-150
20
-145
30
0
10
-149.622
20
-145
30
0
10
-149.262
20
-145
30
0
10
-148.94
20
-145
30
0
10
-148.671
20
-145
30
0
10
-148.468
20
-145
30
0
10
-148.343
20
-145
30
0
10
-148.3
20
-145
30
0
0
SPLINE
8
0
6
BYBLOCK
62
0
5
27b0
100
AcDbEntity
100
AcDbSpline
70
0
71
1
72
17
73
15
74
0
40
0
40
0
40
0.1122
40
0.224399
40
0.336599
40
0.448799
40
0.560999
40
0.673198
40
0.785398
40
0.897598
40
1.0098
40
1.122
40
1.2342
40
1.3464
40
1.4586
40
1.5708
40
1.5708
10
-86.89
20
-145
30
0
10
-87.6849
20
-145
30
0
10
-88.4699
20
-145
30
0
10
-89.235
20
-145
30
0
10
-89.9706
20
-145
30
0
10
-90.6674
20
-145
30
0
10
-91.3168
20
-145
30
0
10
-91.9105
20
-145
30
0
10
-92.441
20
-145
30
0
10
-92.9017
20
-145
30
0
10
-93.2869
20
-145
30
0
10
-93.5916
20
-145
30
0
10
-93.812
20
-145
30
0
10
-93.9454
20
-145
30
0
10
-93.99
20
-145
30
0
0
SPLINE
8
0
6
BYBLOCK
62
0
5
27b1
100
AcDbEntity
100
AcDbSpline
70
0
71
1
72
17
73
15
74
0
40
4.71239
40
4.71239
40
4.82459
40
4.93679
40
5.04899
40
5.16119
40
5.27339
40
5.38559
40
5.49779
40
5.60999
40
5.72219
40
5.83439
40
5.94659
40
6.05879
40
6.17099
40
6.28319
40
6.28319
10
-79.79
20
-145
30
0
10
-79.8346
20
-145
30
0
10
-79.968
20
-145
30
0
10
-80.1884
20
-145
30
0
10
-80.4931
20
-145
30
0
10
-80.8783
20
-145
30
0
10
-81.339
20
-145
30
0
10
-81.8695
20
-145
30
0
10
-82.4632
20
-145
30
0
10
-83.1126
20
-145
30
0
10
-83.8094
20
-145
30
0
10
-84.545
20
-145
30
0
10
-85.3101
20
-145
30
0
10
-86.0951
20
-145
30
0
10
-86.89
20
-145
30
0
0
SPLINE
8
0
6
BYBLOCK
62
0
5
27b2
100
AcDbEntity
100
AcDbSpline
70
0
71
1
72
17
73
15
74
0
40
0
40
0
40
0.1122
40
0.224399
40
0.336599
40
0.448799
40
0.560999
40
0.673198
40
0.785398
40
0.897598
40
1.0098
40
1.122
40
1.2342
40
1.3464
40
1.4586
40
1.5708
40
1.5708
10
-66.89
20
-145
30
0
10
-67.6849
20
-145
30
0
10
-68.4699
20
-145
30
0
10
-69.235
20
-145
30
0
10
-69.9706
20
-145
30
0
10
-70.6674
20
-145
30
0
10
-71.3168
20
-145
30
0
10
-71.9105
20
-145
30
0
10
-72.441
20
-145
30
0
10
-72.9017
20
-145
30
0
10
-73.2869
20
-145
30
0
10
-73.5916
20
-145
30
0
10
-73.812
20
-145
30
0
10
-73.9454
20
-145
30
0
10
-73.99
20
-145
30
0
0
SPLINE
8
0
6
BYBLOCK
62
0
5
27b3
100
AcDbEntity
100
AcDbSpline
70
0
71
1
72
17
73
15
74
0
40
4.71239
40
4.71239
40
4.82459
40
4.93679
40
5.04899
40
5.16119
40
5.27339
40
5.38559
40
5.49779
40
5.60999
40
5.72219
40
5.83439
40
5.94659
40
6.05879
40
6.17099
40
6.28319
40
6.28319
10
-59.79
20
-145
30
0
10
-59.8346
20
-145
30
0
10
-59.968
20
-145
30
0
10
-60.1884
20
-145
30
0
10
-60.4931
20
-145
30
0
10
-60.8783
20
-145
30
0
10
-61.339
20
-145
30
0
10
-61.8695
20
-145
30
0
10
-62.4632
20
-145
30
0
10
-63.1126
20
-145
30
0
10
-63.8094
20
-145
30
0
10
-64.545
20
-145
30
0
10
-65.3101
20
-145
30
0
10
-66.0951
20
-145
30
0
10
-66.89
20
-145
30
0
0
SPLINE
8
0
6
BYBLOCK
62
0
5
27b4
100
AcDbEntity
100
AcDbSpline
70
0
71
1
72
17
73
15
74
0
40
3.14159
40
3.14159
40
3.36599
40
3.59039
40
3.81479
40
4.03919
40
4.26359
40
4.48799
40
4.71239
40
4.93679
40
5.16119
40
5.38559
40
5.60999
40
5.83439
40
6.05879
40
6.28319
40
6.28319
10
-203.3
20
-145
30
0
10
-203.343
20
-145
30
0
10
-203.468
20
-145
30
0
10
-203.671
20
-145
30
0
10
-203.94
20
-145
30
0
10
-204.262
20
-145
30
0
10
-204.622
20
-145
30
0
10
-205
20
-145
30
0
10
-205.378
20
-145
30
0
10
-205.738
20
-145
30
0
10
-206.06
20
-145
30
0
10
-206.329
20
-145
30
0
10
-206.532
20
-145
30
0
10
-206.657
20
-145
30
0
10
-206.7
20
-145
30
0
0
ENDBLK
5
27b5
100
AcDbEntity
8
0
100
AcDbBlockEnd
0
BLOCK
5
27b6
100
AcDbEntity
8
0
100
AcDbBlockBegin
2
Ortho0021
70
0
10
0
20
0
3
Ortho0021
1

0
LINE
8
0
6
BYBLOCK
62
0
5
27b7
100
AcDbEntity
100
AcDbLine
10
-240
20
140
30
0
11
-240
21
145
31
0
0
LINE
8
0
6
BYBLOCK
62
0
5
27b8
100
AcDbEntity
100
AcDbLine
10
10
20
140
30
0
11
10
21
145
31
0
0
LINE
8
0
6
BYBLOCK
62
0
5
27b9
100
AcDbEntity
100
AcDbLine
10
10
20
140
30
0
11
-240
21
140
31
0
0
LINE
8
0
6
BYBLOCK
62
0
5
27ba
100
AcDbEntity
100
AcDbLine
10
-166.13
20
140
30
0
11
-148.13
21
140
31
0
0
LINE
8
0
6
BYBLOCK
62
0
5
27bb
100
AcDbEntity
100
AcDbLine
10
-166.13
20
140
30
0
11
-148.13
21
140
31
0
0
LINE
8
0
6
BYBLOCK
62
0
5
27bc
100
AcDbEntity
100
AcDbLine
10
-166.13
20
140
30
0
11
-148.13
21
140
31
0
0
LINE
8
0
6
BYBLOCK
62
0
5
27bd
100
AcDbEntity
100
AcDbLine
10
-131.267
20
140
30
0
11
-113.267
21
140
31
0
0
LINE
8
0
6
BYBLOCK
62
0
5
27be
100
AcDbEntity
100
AcDbLine
10
-131.211
20
140
30
0
11
-113.211
21
140
31
0
0
LINE
8
0
6
BYBLOCK
62
0
5
27bf
100
AcDbEntity
100
AcDbLine
10
-131.18
20
140
30
0
11
-113.18
21
140
31
0
0
LINE
8
0
6
BYBLOCK
62
0
5
27c0
100
AcDbEntity
100
AcDbLine
10
-166.13
20
140
30
0
11
-148.13
21
140
31
0
0
LINE
8
0
6
BYBLOCK
62
0
5
27c1
100
AcDbEntity
100
AcDbLine
10
-131.307
20
140
30
0
11
-113.307
21
140
31
0
0
LINE
8
0
6
BYBLOCK
62
0
5
27c2
100
AcDbEntity
100
AcDbLine
10
-131.665
20
140
30
0
11
-113.665
21
140
31
0
0
LINE
8
0
6
BYBLOCK
62
0
5
27c3
100
AcDbEntity
100
AcDbLine
10
-166.13
20
140
30
0
11
-148.13
21
140
31
0
0
LINE
8
0
6
BYBLOCK
62
0
5
27c4
100
AcDbEntity
100
AcDbLine
10
-131.1
20
140
30
0
11
-113.1
21
140
31
0
0
LINE
8
0
6
BYBLOCK
62
0
5
27c5
100
AcDbEntity
100
AcDbLine
10
-166.13
20
140
30
0
11
-148.13
21
140
31
0
0
SPLINE
8
0
6
BYBLOCK
62
0
5
27c6
100
AcDbEntity
100
AcDbSpline
70
0
71
1
72
17
73
15
74
0
40
3.14159
40
3.14159
40
3.36599
40
3.59039
40
3.81479
40
4.03919
40
4.26359
40
4.48799
40
4.71239
40
4.93679
40
5.16119
40
5.38559
40
5.60999
40
5.83439
40
6.05879
40
6.28319
40
6.28319
10
-86.3
20
140
30
0
10
-86.2674
20
140
30
0
10
-86.1713
20
140
30
0
10
-86.0164
20
140
30
0
10
-85.8105
20
140
30
0
10
-85.564
20
140
30
0
10
-85.2893
20
140
30
0
10
-85
20
140
30
0
10
-84.7107
20
140
30
0
10
-84.436
20
140
30
0
10
-84.1895
20
140
30
0
10
-83.9836
20
140
30
0
10
-83.8287
20
140
30
0
10
-83.7326
20
140
30
0
10
-83.7
20
140
30
0
0
SPLINE
8
0
6
BYBLOCK
62
0
5
27c7
100
AcDbEntity
100
AcDbSpline
70
0
71
1
72
17
73
15
74
0
40
3.14159
40
3.14159
40
3.36599
40
3.59039
40
3.81479
40
4.03919
40
4.26359
40
4.48799
40
4.71239
40
4.93679
40
5.16119
40
5.38559
40
5.60999
40
5.83439
40
6.05879
40
6.28319
40
6.28319
10
-97.47
20
140
30
0
10
-97.292
20
140
30
0
10
-96.7669
20
140
30
0
10
-95.921
20
140
30
0
10
-94.7968
20
140
30
0
10
-93.4506
20
140
30
0
10
-91.9499
20
140
30
0
10
-90.37
20
140
30
0
10
-88.7901
20
140
30
0
10
-87.2894
20
140
30
0
10
-85.9432
20
140
30
0
10
-84.819
20
140
30
0
10
-83.9731
20
140
30
0
10
-83.448
20
140
30
0
10
-83.27
20
140
30
0
0
LINE
8
0
6
BYBLOCK
62
0
5
27c8
100
AcDbEntity
100
AcDbLine
10
-131.18
20
140
30
0
11
-113.18
21
140
31
0
0
LINE
8
0
6
BYBLOCK
62
0
5
27c9
100
AcDbEntity
100
AcDbLine
10
-166.13
20
140
30
0
11
-148.13
21
140
31
0
0
LINE
8
0
6
BYBLOCK
62
0
5
27ca
100
AcDbEntity
100
AcDbLine
10
-166.13
20
140
30
0
11
-148.13
21
140
31
0
0
LINE
8
0
6
BYBLOCK
62
0
5
27cb
100
AcDbEntity
100
AcDbLine
10
-131.219
20
140
30
0
11
-113.219
21
140
31
0
0
SPLINE
8
0
6
BYBLOCK
62
0
5
27cc
100
AcDbEntity
100
AcDbSpline
70
0
71
1
72
17
73
15
74
0
40
1.5708
40
1.5708
40
1.7952
40
2.0196
40
2.24399
40
2.46839
40
2.69279
40
2.91719
40
3.14159
40
3.36599
40
3.59039
40
3.81479
40
4.03919
40
4.26359
40
4.48799
40
4.71239
40
4.71239
10
6.7
20
140
30
0
10
6.65738
20
140
30
0
10
6.53165
20
140
30
0
10
6.32911
20
140
30
0
10
6.05993
20
140
30
0
10
5.7376
20
140
30
0
10
5.37829
20
140
30
0
10
5
20
140
30
0
10
4.62171
20
140
30
0
10
4.2624
20
140
30
0
10
3.94007
20
140
30
0
10
3.67089
20
140
30
0
10
3.46835
20
140
30
0
10
3.34262
20
140
30
0
10
3.3
20
140
30
0
0
SPLINE
8
0
6
BYBLOCK
62
0
5
27cd
100
AcDbEntity
100
AcDbSpline
70
0
71
1
72
17
73
15
74
0
40
3.14159
40
3.14159
40
3.36599
40
3.59039
40
3.81479
40
4.03919
40
4.26359
40
4.48799
40
4.71239
40
4.93679
40
5.16119
40
5.38559
40
5.60999
40
5.83439
40
6.05879
40
6.28319
40
6.28319
10
-48.433
20
140
30
0
10
-48.0569
20
140
30
0
10
-46.9475
20
140
30
0
10
-45.1604
20
140
30
0
10
-42.7853
20
140
30
0
10
-39.9412
20
140
30
0
10
-36.7708
20
140
30
0
10
-33.433
20
140
30
0
10
-30.0952
20
140
30
0
10
-26.9247
20
140
30
0
10
-24.0806
20
140
30
0
10
-21.7055
20
140
30
0
10
-19.9184
20
140
30
0
10
-18.8091
20
140
30
0
10
-18.433
20
140
30
0
0
LINE
8
0
6
BYBLOCK
62
0
5
27ce
100
AcDbEntity
100
AcDbLine
10
-131.227
20
140
30
0
11
-113.227
21
140
31
0
0
LINE
8
0
6
BYBLOCK
62
0
5
27cf
100
AcDbEntity
100
AcDbLine
10
-131.328
20
140
30
0
11
-113.328
21
140
31
0
0
LINE
8
0
6
BYBLOCK
62
0
5
27d0
100
AcDbEntity
100
AcDbLine
10
-131.18
20
140
30
0
11
-113.18
21
140
31
0
0
LINE
8
0
6
BYBLOCK
62
0
5
27d1
100
AcDbEntity
100
AcDbLine
10
-131.307
20
140
30
0
11
-113.307
21
140
31
0
0
LINE
8
0
6
BYBLOCK
62
0
5
27d2
100
AcDbEntity
100
AcDbLine
10
-166.13
20
140
30
0
11
-148.13
21
140
31
0
0
LINE
8
0
6
BYBLOCK
62
0
5
27d3
100
AcDbEntity
100
AcDbLine
10
-166.13
20
140
30
0
11
-148.13
21
140
31
0
0
LINE
8
0
6
BYBLOCK
62
0
5
27d4
100
AcDbEntity
100
AcDbLine
10
-148.13
20
140
30
0
11
-166.13
21
140
31
0
0
LINE
8
0
6
BYBLOCK
62
0
5
27d5
100
AcDbEntity
100
AcDbLine
10
-166.13
20
140
30
0
11
-148.13
21
140
31
0
0
SPLINE
8
0
6
BYBLOCK
62
0
5
27d6
100
AcDbEntity
100
AcDbSpline
70
0
71
1
72
17
73
15
74
0
40
1.5708
40
1.5708
40
1.7952
40
2.0196
40
2.24399
40
2.46839
40
2.69279
40
2.91719
40
3.14159
40
3.36599
40
3.59039
40
3.81479
40
4.03919
40
4.26359
40
4.48799
40
4.71239
40
4.71239
10
-116.7
20
140
30
0
10
-116.657
20
140
30
0
10
-116.532
20
140
30
0
10
-116.329
20
140
30
0
10
-116.06
20
140
30
0
10
-115.738
20
140
30
0
10
-115.378
20
140
30
0
10
-115
20
140
30
0
10
-114.622
20
140
30
0
10
-114.262
20
140
30
0
10
-113.94
20
140
30
0
10
-113.671
20
140
30
0
10
-113.468
20
140
30
0
10
-113.343
20
140
30
0
10
-113.3
20
140
30
0
0
SPLINE
8
0
6
BYBLOCK
62
0
5
27d7
100
AcDbEntity
100
AcDbSpline
70
0
71
1
72
17
73
15
74
0
40
1.5708
40
1.5708
40
1.7952
40
2.0196
40
2.24399
40
2.46839
40
2.69279
40
2.91719
40
3.14159
40
3.36599
40
3.59039
40
3.81479
40
4.03919
40
4.26359
40
4.48799
40
4.71239
40
4.71239
10
-21.7
20
140
30
0
10
-21.6574
20
140
30
0
10
-21.5316
20
140
30
0
10
-21.3291
20
140
30
0
10
-21.0599
20
140
30
0
10
-20.7376
20
140
30
0
10
-20.3783
20
140
30
0
10
-20
20
140
30
0
10
-19.6217
20
140
30
0
10
-19.2624
20
140
30
0
10
-18.9401
20
140
30
0
10
-18.6709
20
140
30
0
10
-18.4684
20
140
30
0
10
-18.3426
20
140
30
0
10
-18.3
20
140
30
0
0
LINE
8
0
6
BYBLOCK
62
0
5
27d8
100
AcDbEntity
100
AcDbLine
10
10
20
145
30
0
11
-240
21
145
31
0
0
SPLINE
8
0
6
BYBLOCK
62
0
5
27d9
100
AcDbEntity
100
AcDbSpline
70
0
71
1
72
17
73
15
74
0
40
1.5708
40
1.5708
40
1.7952
40
2.0196
40
2.24399
40
2.46839
40
2.69279
40
2.91719
40
3.14159
40
3.36599
40
3.59039
40
3.81479
40
4.03919
40
4.26359
40
4.48799
40
4.71239
40
4.71239
10
6.7
20
145
30
0
10
6.65738
20
145
30
0
10
6.53165
20
145
30
0
10
6.32911
20
145
30
0
10
6.05993
20
145
30
0
10
5.7376
20
145
30
0
10
5.37829
20
145
30
0
10
5
20
145
30
0
10
4.62171
20
145
30
0
10
4.2624
20
145
30
0
10
3.94007
20
145
30
0
10
3.67089
20
145
30
0
10
3.46835
20
145
30
0
10
3.34262
20
145
30
0
10
3.3
20
145
30
0
0
SPLINE
8
0
6
BYBLOCK
62
0
5
27da
100
AcDbEntity
100
AcDbSpline
70
0
71
1
72
17
73
15
74
0
40
3.14159
40
3.14159
40
3.36599
40
3.59039
40
3.81479
40
4.03919
40
4.26359
40
4.48799
40
4.71239
40
4.93679
40
5.16119
40
5.38559
40
5.60999
40
5.83439
40
6.05879
40
6.28319
40
6.28319
10
-48.433
20
145
30
0
10
-48.0569
20
145
30
0
10
-46.9475
20
145
30
0
10
-45.1604
20
145
30
0
10
-42.7853
20
145
30
0
10
-39.9412
20
145
30
0
10
-36.7708
20
145
30
0
10
-33.433
20
145
30
0
10
-30.0952
20
145
30
0
10
-26.9247
20
145
30
0
10
-24.0806
20
145
30
0
10
-21.7055
20
145
30
0
10
-19.9184
20
145
30
0
10
-18.8091
20
145
30
0
10
-18.433
20
145
30
0
0
SPLINE
8
0
6
BYBLOCK
62
0
5
27db
100
AcDbEntity
100
AcDbSpline
70
0
71
1
72
17
73
15
74
0
40
1.5708
40
1.5708
40
1.7952
40
2.0196
40
2.24399
40
2.46839
40
2.69279
40
2.91719
40
3.14159
40
3.36599
40
3.59039
40
3.81479
40
4.03919
40
4.26359
40
4.48799
40
4.71239
40
4.71239
10
-21.7
20
145
30
0
10
-21.6574
20
145
30
0
10
-21.5316
20
145
30
0
10
-21.3291
20
145
30
0
10
-21.0599
20
145
30
0
10
-20.7376
20
145
30
0
10
-20.3783
20
145
30
0
10
-20
20
145
30
0
10
-19.6217
20
145
30
0
10
-19.2624
20
145
30
0
10
-18.9401
20
145
30
0
10
-18.6709
20
145
30
0
10
-18.4684
20
145
30
0
10
-18.3426
20
145
30
0
10
-18.3
20
145
30
0
0
ENDBLK
5
27dc
100
AcDbEntity
8
0
100
AcDbBlockEnd
0
BLOCK
5
27dd
100
AcDbEntity
8
0
100
AcDbBlockBegin
2
Ortho0031
70
0
10
0
20
0
3
Ortho0031
1

0
LINE
8
0
6
BYBLOCK
62
0
5
27de
100
AcDbEntity
100
AcDbLine
10
210
20
-140
30
0
11
210
21
-145
31
0
0
LINE
8
0
6
BYBLOCK
62
0
5
27df
100
AcDbEntity
100
AcDbLine
10
-210
20
-140
30
0
11
-210
21
-145
31
0
0
LINE
8
0
6
BYBLOCK
62
0
5
27e0
100
AcDbEntity
100
AcDbLine
10
-210
20
-140
30
0
11
210
21
-140
31
0
0
LINE
8
0
6
BYBLOCK
62
0
5
27e1
100
AcDbEntity
100
AcDbLine
10
-210
20
-145
30
0
11
210
21
-145
31
0
0
SPLINE
8
0
6
BYBLOCK
62
0
5
27e2
100
AcDbEntity
100
AcDbSpline
70
0
71
1
72
17
73
15
74
0
40
1.5708
40
1.5708
40
1.7952
40
2.0196
40
2.24399
40
2.46839
40
2.69279
40
2.91719
40
3.14159
40
3.36599
40
3.59039
40
3.81479
40
4.03919
40
4.26359
40
4.48799
40
4.71239
40
4.71239
10
-72.97
20
-140
30
0
10
-73.148
20
-140
30
0
10
-73.6731
20
-140
30
0
10
-74.519
20
-140
30
0
10
-75.6432
20
-140
30
0
10
-76.9894
20
-140
30
0
10
-78.4901
20
-140
30
0
10
-80.07
20
-140
30
0
10
-81.6499
20
-140
30
0
10
-83.1506
20
-140
30
0
10
-84.4968
20
-140
30
0
10
-85.621
20
-140
30
0
10
-86.4669
20
-140
30
0
10
-86.992
20
-140
30
0
10
-87.17
20
-140
30
0
0
SPLINE
8
0
6
BYBLOCK
62
0
5
27e3
100
AcDbEntity
100
AcDbSpline
70
0
71
1
72
17
73
15
74
0
40
1.5708
40
1.5708
40
1.7952
40
2.0196
40
2.24399
40
2.46839
40
2.69279
40
2.91719
40
3.14159
40
3.36599
40
3.59039
40
3.81479
40
4.03919
40
4.26359
40
4.48799
40
4.71239
40
4.71239
10
-92.97
20
-140
30
0
10
-93.148
20
-140
30
0
10
-93.6731
20
-140
30
0
10
-94.519
20
-140
30
0
10
-95.6432
20
-140
30
0
10
-96.9894
20
-140
30
0
10
-98.4901
20
-140
30
0
10
-100.07
20
-140
30
0
10
-101.65
20
-140
30
0
10
-103.151
20
-140
30
0
10
-104.497
20
-140
30
0
10
-105.621
20
-140
30
0
10
-106.467
20
-140
30
0
10
-106.992
20
-140
30
0
10
-107.17
20
-140
30
0
0
SPLINE
8
0
6
BYBLOCK
62
0
5
27e4
100
AcDbEntity
100
AcDbSpline
70
0
71
1
72
17
73
15
74
0
40
1.5708
40
1.5708
40
1.7952
40
2.0196
40
2.24399
40
2.46839
40
2.69279
40
2.91719
40
3.14159
40
3.36599
40
3.59039
40
3.81479
40
4.03919
40
4.26359
40
4.48799
40
4.71239
40
4.71239
10
-52.97
20
-140
30
0
10
-53.148
20
-140
30
0
10
-53.6731
20
-140
30
0
10
-54.519
20
-140
30
0
10
-55.6432
20
-140
30
0
10
-56.9894
20
-140
30
0
10
-58.4901
20
-140
30
0
10
-60.07
20
-140
30
0
10
-61.6499
20
-140
30
0
10
-63.1506
20
-140
30
0
10
-64.4968
20
-140
30
0
10
-65.621
20
-140
30
0
10
-66.4669
20
-140
30
0
10
-66.992
20
-140
30
0
10
-67.17
20
-140
30
0
0
SPLINE
8
0
6
BYBLOCK
62
0
5
27e5
100
AcDbEntity
100
AcDbSpline
70
0
71
1
72
17
73
15
74
0
40
1.5708
40
1.5708
40
1.7952
40
2.0196
40
2.24399
40
2.46839
40
2.69279
40
2.91719
40
3.14159
40
3.36599
40
3.59039
40
3.81479
40
4.03919
40
4.26359
40
4.48799
40
4.71239
40
4.71239
10
-32.97
20
-140
30
0
10
-33.148
20
-140
30
0
10
-33.6731
20
-140
30
0
10
-34.519
20
-140
30
0
10
-35.6432
20
-140
30
0
10
-36.9894
20
-140
30
0
10
-38.4901
20
-140
30
0
10
-40.07
20
-140
30
0
10
-41.6499
20
-140
30
0
10
-43.1506
20
-140
30
0
10
-44.4968
20
-140
30
0
10
-45.621
20
-140
30
0
10
-46.4669
20
-140
30
0
10
-46.992
20
-140
30
0
10
-47.17
20
-140
30
0
0
SPLINE
8
0
6
BYBLOCK
62
0
5
27e6
100
AcDbEntity
100
AcDbSpline
70
0
71
1
72
17
73
15
74
0
40
1.5708
40
1.5708
40
1.7952
40
2.0196
40
2.24399
40
2.46839
40
2.69279
40
2.91719
40
3.14159
40
3.36599
40
3.59039
40
3.81479
40
4.03919
40
4.26359
40
4.48799
40
4.71239
40
4.71239
10
-6.01
20
-140
30
0
10
-6.18801
20
-140
30
0
10
-6.71312
20
-140
30
0
10
-7.559
20
-140
30
0
10
-8.68322
20
-140
30
0
10
-10.0294
20
-140
30
0
10
-11.5301
20
-140
30
0
10
-13.11
20
-140
30
0
10
-14.6899
20
-140
30
0
10
-16.1906
20
-140
30
0
10
-17.5368
20
-140
30
0
10
-18.661
20
-140
30
0
10
-19.5069
20
-140
30
0
10
-20.032
20
-140
30
0
10
-20.21
20
-140
30
0
0
SPLINE
8
0
6
BYBLOCK
62
0
5
27e7
100
AcDbEntity
100
AcDbSpline
70
0
71
1
72
17
73
15
74
0
40
1.5708
40
1.5708
40
1.7952
40
2.0196
40
2.24399
40
2.46839
40
2.69279
40
2.91719
40
3.14159
40
3.36599
40
3.59039
40
3.81479
40
4.03919
40
4.26359
40
4.48799
40
4.71239
40
4.71239
10
-24.7
20
-140
30
0
10
-24.7326
20
-140
30
0
10
-24.8287
20
-140
30
0
10
-24.9836
20
-140
30
0
10
-25.1895
20
-140
30
0
10
-25.436
20
-140
30
0
10
-25.7107
20
-140
30
0
10
-26
20
-140
30
0
10
-26.2893
20
-140
30
0
10
-26.564
20
-140
30
0
10
-26.8105
20
-140
30
0
10
-27.0164
20
-140
30
0
10
-27.1713
20
-140
30
0
10
-27.2674
20
-140
30
0
10
-27.3
20
-140
30
0
0
SPLINE
8
0
6
BYBLOCK
62
0
5
27e8
100
AcDbEntity
100
AcDbSpline
70
0
71
1
72
17
73
15
74
0
40
1.5708
40
1.5708
40
1.7952
40
2.0196
40
2.24399
40
2.46839
40
2.69279
40
2.91719
40
3.14159
40
3.36599
40
3.59039
40
3.81479
40
4.03919
40
4.26359
40
4.48799
40
4.71239
40
4.71239
10
13.99
20
-140
30
0
10
13.812
20
-140
30
0
10
13.2869
20
-140
30
0
10
12.441
20
-140
30
0
10
11.3168
20
-140
30
0
10
9.97057
20
-140
30
0
10
8.4699
20
-140
30
0
10
6.89
20
-140
30
0
10
5.3101
20
-140
30
0
10
3.80943
20
-140
30
0
10
2.46322
20
-140
30
0
10
1.339
20
-140
30
0
10
0.493121
20
-140
30
0
10
-0.0319882
20
-140
30
0
10
-0.21
20
-140
30
0
0
SPLINE
8
0
6
BYBLOCK
62
0
5
27e9
100
AcDbEntity
100
AcDbSpline
70
0
71
1
72
17
73
15
74
0
40
1.5708
40
1.5708
40
1.7952
40
2.0196
40
2.24399
40
2.46839
40
2.69279
40
2.91719
40
3.14159
40
3.36599
40
3.59039
40
3.81479
40
4.03919
40
4.26359
40
4.48799
40
4.71239
40
4.71239
10
33.99
20
-140
30
0
10
33.812
20
-140
30
0
10
33.2869
20
-140
30
0
10
32.441
20
-140
30
0
10
31.3168
20
-140
30
0
10
29.9706
20
-140
30
0
10
28.4699
20
-140
30
0
10
26.89
20
-140
30
0
10
25.3101
20
-140
30
0
10
23.8094
20
-140
30
0
10
22.4632
20
-140
30
0
10
21.339
20
-140
30
0
10
20.4931
20
-140
30
0
10
19.968
20
-140
30
0
10
19.79
20
-140
30
0
0
SPLINE
8
0
6
BYBLOCK
62
0
5
27ea
100
AcDbEntity
100
AcDbSpline
70
0
71
1
72
17
73
15
74
0
40
1.5708
40
1.5708
40
1.683
40
1.7952
40
1.9074
40
2.0196
40
2.1318
40
2.24399
40
2.35619
40
2.46839
40
2.58059
40
2.69279
40
2.80499
40
2.91719
40
3.02939
40
3.14159
40
3.14159
10
59.2276
20
-140
30
0
10
59.1333
20
-140
30
0
10
58.8515
20
-140
30
0
10
58.3859
20
-140
30
0
10
57.7421
20
-140
30
0
10
56.9285
20
-140
30
0
10
55.9551
20
-140
30
0
10
54.8342
20
-140
30
0
10
53.58
20
-140
30
0
10
52.2081
20
-140
30
0
10
50.7359
20
-140
30
0
10
49.1818
20
-140
30
0
10
47.5654
20
-140
30
0
10
45.9071
20
-140
30
0
10
44.2276
20
-140
30
0
0
LINE
8
0
6
BYBLOCK
62
0
5
27eb
100
AcDbEntity
100
AcDbLine
10
44.2276
20
-140
30
0
11
-55.7724
21
-140
31
0
0
SPLINE
8
0
6
BYBLOCK
62
0
5
27ec
100
AcDbEntity
100
AcDbSpline
70
0
71
1
72
17
73
15
74
0
40
3.14159
40
3.14159
40
3.36599
40
3.59039
40
3.81479
40
4.03919
40
4.26359
40
4.48799
40
4.71239
40
4.93679
40
5.16119
40
5.38559
40
5.60999
40
5.83439
40
6.05879
40
6.28319
40
6.28319
10
148.3
20
-140
30
0
10
148.343
20
-140
30
0
10
148.468
20
-140
30
0
10
148.671
20
-140
30
0
10
148.94
20
-140
30
0
10
149.262
20
-140
30
0
10
149.622
20
-140
30
0
10
150
20
-140
30
0
10
150.378
20
-140
30
0
10
150.738
20
-140
30
0
10
151.06
20
-140
30
0
10
151.329
20
-140
30
0
10
151.532
20
-140
30
0
10
151.657
20
-140
30
0
10
151.7
20
-140
30
0
0
SPLINE
8
0
6
BYBLOCK
62
0
5
27ed
100
AcDbEntity
100
AcDbSpline
70
0
71
1
72
17
73
15
74
0
40
1.5708
40
1.5708
40
1.7952
40
2.0196
40
2.24399
40
2.46839
40
2.69279
40
2.91719
40
3.14159
40
3.36599
40
3.59039
40
3.81479
40
4.03919
40
4.26359
40
4.48799
40
4.71239
40
4.71239
10
73.99
20
-140
30
0
10
73.812
20
-140
30
0
10
73.2869
20
-140
30
0
10
72.441
20
-140
30
0
10
71.3168
20
-140
30
0
10
69.9706
20
-140
30
0
10
68.4699
20
-140
30
0
10
66.89
20
-140
30
0
10
65.3101
20
-140
30
0
10
63.8094
20
-140
30
0
10
62.4632
20
-140
30
0
10
61.339
20
-140
30
0
10
60.4931
20
-140
30
0
10
59.968
20
-140
30
0
10
59.79
20
-140
30
0
0
SPLINE
8
0
6
BYBLOCK
62
0
5
27ee
100
AcDbEntity
100
AcDbSpline
70
0
71
1
72
17
73
15
74
0
40
1.5708
40
1.5708
40
1.7952
40
2.0196
40
2.24399
40
2.46839
40
2.69279
40
2.91719
40
3.14159
40
3.36599
40
3.59039
40
3.81479
40
4.03919
40
4.26359
40
4.48799
40
4.71239
40
4.71239
10
93.99
20
-140
30
0
10
93.812
20
-140
30
0
10
93.2869
20
-140
30
0
10
92.441
20
-140
30
0
10
91.3168
20
-140
30
0
10
89.9706
20
-140
30
0
10
88.4699
20
-140
30
0
10
86.89
20
-140
30
0
10
85.3101
20
-140
30
0
10
83.8094
20
-140
30
0
10
82.4632
20
-140
30
0
10
81.339
20
-140
30
0
10
80.4931
20
-140
30
0
10
79.968
20
-140
30
0
10
79.79
20
-140
30
0
0
SPLINE
8
0
6
BYBLOCK
62
0
5
27ef
100
AcDbEntity
100
AcDbSpline
70
0
71
1
72
17
73
15
74
0
40
1.5708
40
1.5708
40
1.7952
40
2.0196
40
2.24399
40
2.46839
40
2.69279
40
2.91719
40
3.14159
40
3.36599
40
3.59039
40
3.81479
40
4.03919
40
4.26359
40
4.48799
40
4.71239
40
4.71239
10
53.99
20
-140
30
0
10
53.812
20
-140
30
0
10
53.2869
20
-140
30
0
10
52.441
20
-140
30
0
10
51.3168
20
-140
30
0
10
49.9706
20
-140
30
0
10
48.4699
20
-140
30
0
10
46.89
20
-140
30
0
10
45.3101
20
-140
30
0
10
43.8094
20
-140
30
0
10
42.4632
20
-140
30
0
10
41.339
20
-140
30
0
10
40.4931
20
-140
30
0
10
39.968
20
-140
30
0
10
39.79
20
-140
30
0
0
SPLINE
8
0
6
BYBLOCK
62
0
5
27f0
100
AcDbEntity
100
AcDbSpline
70
0
71
1
72
17
73
15
74
0
40
1.5708
40
1.5708
40
1.7952
40
2.0196
40
2.24399
40
2.46839
40
2.69279
40
2.91719
40
3.14159
40
3.36599
40
3.59039
40
3.81479
40
4.03919
40
4.26359
40
4.48799
40
4.71239
40
4.71239
10
111.09
20
-140
30
0
10
111.057
20
-140
30
0
10
110.961
20
-140
30
0
10
110.806
20
-140
30
0
10
110.601
20
-140
30
0
10
110.354
20
-140
30
0
10
110.079
20
-140
30
0
10
109.79
20
-140
30
0
10
109.501
20
-140
30
0
10
109.226
20
-140
30
0
10
108.979
20
-140
30
0
10
108.774
20
-140
30
0
10
108.619
20
-140
30
0
10
108.523
20
-140
30
0
10
108.49
20
-140
30
0
0
SPLINE
8
0
6
BYBLOCK
62
0
5
27f1
100
AcDbEntity
100
AcDbSpline
70
0
71
1
72
17
73
15
74
0
40
0
40
0
40
0.224399
40
0.448799
40
0.673198
40
0.897598
40
1.122
40
1.3464
40
1.5708
40
1.7952
40
2.0196
40
2.24399
40
2.46839
40
2.69279
40
2.91719
40
3.14159
40
3.14159
10
206.7
20
-140
30
0
10
206.657
20
-140
30
0
10
206.532
20
-140
30
0
10
206.329
20
-140
30
0
10
206.06
20
-140
30
0
10
205.738
20
-140
30
0
10
205.378
20
-140
30
0
10
205
20
-140
30
0
10
204.622
20
-140
30
0
10
204.262
20
-140
30
0
10
203.94
20
-140
30
0
10
203.671
20
-140
30
0
10
203.468
20
-140
30
0
10
203.343
20
-140
30
0
10
203.3
20
-140
30
0
0
SPLINE
8
0
6
BYBLOCK
62
0
5
27f2
100
AcDbEntity
100
AcDbSpline
70
0
71
1
72
17
73
15
74
0
40
1.5708
40
1.5708
40
1.7952
40
2.0196
40
2.24399
40
2.46839
40
2.69279
40
2.91719
40
3.14159
40
3.36599
40
3.59039
40
3.81479
40
4.03919
40
4.26359
40
4.48799
40
4.71239
40
4.71239
10
-72.97
20
-145
30
0
10
-73.148
20
-145
30
0
10
-73.6731
20
-145
30
0
10
-74.519
20
-145
30
0
10
-75.6432
20
-145
30
0
10
-76.9894
20
-145
30
0
10
-78.4901
20
-145
30
0
10
-80.07
20
-145
30
0
10
-81.6499
20
-145
30
0
10
-83.1506
20
-145
30
0
10
-84.4968
20
-145
30
0
10
-85.621
20
-145
30
0
10
-86.4669
20
-145
30
0
10
-86.992
20
-145
30
0
10
-87.17
20
-145
30
0
0
SPLINE
8
0
6
BYBLOCK
62
0
5
27f3
100
AcDbEntity
100
AcDbSpline
70
0
71
1
72
17
73
15
74
0
40
1.5708
40
1.5708
40
1.7952
40
2.0196
40
2.24399
40
2.46839
40
2.69279
40
2.91719
40
3.14159
40
3.36599
40
3.59039
40
3.81479
40
4.03919
40
4.26359
40
4.48799
40
4.71239
40
4.71239
10
-92.97
20
-145
30
0
10
-93.148
20
-145
30
0
10
-93.6731
20
-145
30
0
10
-94.519
20
-145
30
0
10
-95.6432
20
-145
30
0
10
-96.9894
20
-145
30
0
10
-98.4901
20
-145
30
0
10
-100.07
20
-145
30
0
10
-101.65
20
-145
30
0
10
-103.151
20
-145
30
0
10
-104.497
20
-145
30
0
10
-105.621
20
-145
30
0
10
-106.467
20
-145
30
0
10
-106.992
20
-145
30
0
10
-107.17
20
-145
30
0
0
SPLINE
8
0
6
BYBLOCK
62
0
5
27f4
100
AcDbEntity
100
AcDbSpline
70
0
71
1
72
17
73
15
74
0
40
1.5708
40
1.5708
40
1.7952
40
2.0196
40
2.24399
40
2.46839
40
2.69279
40
2.91719
40
3.14159
40
3.36599
40
3.59039
40
3.81479
40
4.03919
40
4.26359
40
4.48799
40
4.71239
40
4.71239
10
-112.97
20
-145
30
0
10
-113.148
20
-145
30
0
10
-113.673
20
-145
30
0
10
-114.519
20
-145
30
0
10
-115.643
20
-145
30
0
10
-116.989
20
-145
30
0
10
-118.49
20
-145
30
0
10
-120.07
20
-145
30
0
10
-121.65
20
-145
30
0
10
-123.151
20
-145
30
0
10
-124.497
20
-145
30
0
10
-125.621
20
-145
30
0
10
-126.467
20
-145
30
0
10
-126.992
20
-145
30
0
10
-127.17
20
-145
30
0
0
SPLINE
8
0
6
BYBLOCK
62
0
5
27f5
100
AcDbEntity
100
AcDbSpline
70
0
71
1
72
17
73
15
74
0
40
1.5708
40
1.5708
40
1.7952
40
2.0196
40
2.24399
40
2.46839
40
2.69279
40
2.91719
40
3.14159
40
3.36599
40
3.59039
40
3.81479
40
4.03919
40
4.26359
40
4.48799
40
4.71239
40
4.71239
10
-132.97
20
-145
30
0
10
-133.148
20
-145
30
0
10
-133.673
20
-145
30
0
10
-134.519
20
-145
30
0
10
-135.643
20
-145
30
0
10
-136.989
20
-145
30
0
10
-138.49
20
-145
30
0
10
-140.07
20
-145
30
0
10
-141.65
20
-145
30
0
10
-143.151
20
-145
30
0
10
-144.497
20
-145
30
0
10
-145.621
20
-145
30
0
10
-146.467
20
-145
30
0
10
-146.992
20
-145
30
0
10
-147.17
20
-145
30
0
0
SPLINE
8
0
6
BYBLOCK
62
0
5
27f6
100
AcDbEntity
100
AcDbSpline
70
0
71
1
72
17
73
15
74
0
40
1.5708
40
1.5708
40
1.7952
40
2.0196
40
2.24399
40
2.46839
40
2.69279
40
2.91719
40
3.14159
40
3.36599
40
3.59039
40
3.81479
40
4.03919
40
4.26359
40
4.48799
40
4.71239
40
4.71239
10
-52.97
20
-145
30
0
10
-53.148
20
-145
30
0
10
-53.6731
20
-145
30
0
10
-54.519
20
-145
30
0
10
-55.6432
20
-145
30
0
10
-56.9894
20
-145
30
0
10
-58.4901
20
-145
30
0
10
-60.07
20
-145
30
0
10
-61.6499
20
-145
30
0
10
-63.1506
20
-145
30
0
10
-64.4968
20
-145
30
0
10
-65.621
20
-145
30
0
10
-66.4669
20
-145
30
0
10
-66.992
20
-145
30
0
10
-67.17
20
-145
30
0
0
SPLINE
8
0
6
BYBLOCK
62
0
5
27f7
100
AcDbEntity
100
AcDbSpline
70
0
71
1
72
17
73
15
74
0
40
1.5708
40
1.5708
40
1.7952
40
2.0196
40
2.24399
40
2.46839
40
2.69279
40
2.91719
40
3.14159
40
3.36599
40
3.59039
40
3.81479
40
4.03919
40
4.26359
40
4.48799
40
4.71239
40
4.71239
10
-152.706
20
-145
30
0
10
-152.738
20
-145
30
0
10
-152.834
20
-145
30
0
10
-152.989
20
-145
30
0
10
-153.195
20
-145
30
0
10
-153.442
20
-145
30
0
10
-153.716
20
-145
30
0
10
-154.006
20
-145
30
0
10
-154.295
20
-145
30
0
10
-154.57
20
-145
30
0
10
-154.816
20
-145
30
0
10
-155.022
20
-145
30
0
10
-155.177
20
-145
30
0
10
-155.273
20
-145
30
0
10
-155.306
20
-145
30
0
0
SPLINE
8
0
6
BYBLOCK
62
0
5
27f8
100
AcDbEntity
100
AcDbSpline
70
0
71
1
72
17
73
15
74
0
40
1.5708
40
1.5708
40
1.7952
40
2.0196
40
2.24399
40
2.46839
40
2.69279
40
2.91719
40
3.14159
40
3.36599
40
3.59039
40
3.81479
40
4.03919
40
4.26359
40
4.48799
40
4.71239
40
4.71239
10
-32.97
20
-145
30
0
10
-33.148
20
-145
30
0
10
-33.6731
20
-145
30
0
10
-34.519
20
-145
30
0
10
-35.6432
20
-145
30
0
10
-36.9894
20
-145
30
0
10
-38.4901
20
-145
30
0
10
-40.07
20
-145
30
0
10
-41.6499
20
-145
30
0
10
-43.1506
20
-145
30
0
10
-44.4968
20
-145
30
0
10
-45.621
20
-145
30
0
10
-46.4669
20
-145
30
0
10
-46.992
20
-145
30
0
10
-47.17
20
-145
30
0
0
SPLINE
8
0
6
BYBLOCK
62
0
5
27f9
100
AcDbEntity
100
AcDbSpline
70
0
71
1
72
17
73
15
74
0
40
1.5708
40
1.5708
40
1.7952
40
2.0196
40
2.24399
40
2.46839
40
2.69279
40
2.91719
40
3.14159
40
3.36599
40
3.59039
40
3.81479
40
4.03919
40
4.26359
40
4.48799
40
4.71239
40
4.71239
10
-6.01
20
-145
30
0
10
-6.18801
20
-145
30
0
10
-6.71312
20
-145
30
0
10
-7.559
20
-145
30
0
10
-8.68322
20
-145
30
0
10
-10.0294
20
-145
30
0
10
-11.5301
20
-145
30
0
10
-13.11
20
-145
30
0
10
-14.6899
20
-145
30
0
10
-16.1906
20
-145
30
0
10
-17.5368
20
-145
30
0
10
-18.661
20
-145
30
0
10
-19.5069
20
-145
30
0
10
-20.032
20
-145
30
0
10
-20.21
20
-145
30
0
0
SPLINE
8
0
6
BYBLOCK
62
0
5
27fa
100
AcDbEntity
100
AcDbSpline
70
0
71
1
72
17
73
15
74
0
40
1.5708
40
1.5708
40
1.7952
40
2.0196
40
2.24399
40
2.46839
40
2.69279
40
2.91719
40
3.14159
40
3.36599
40
3.59039
40
3.81479
40
4.03919
40
4.26359
40
4.48799
40
4.71239
40
4.71239
10
-24.7
20
-145
30
0
10
-24.7326
20
-145
30
0
10
-24.8287
20
-145
30
0
10
-24.9836
20
-145
30
0
10
-25.1895
20
-145
30
0
10
-25.436
20
-145
30
0
10
-25.7107
20
-145
30
0
10
-26
20
-145
30
0
10
-26.2893
20
-145
30
0
10
-26.564
20
-145
30
0
10
-26.8105
20
-145
30
0
10
-27.0164
20
-145
30
0
10
-27.1713
20
-145
30
0
10
-27.2674
20
-145
30
0
10
-27.3
20
-145
30
0
0
SPLINE
8
0
6
BYBLOCK
62
0
5
27fb
100
AcDbEntity
100
AcDbSpline
70
0
71
1
72
17
73
15
74
0
40
1.5708
40
1.5708
40
1.7952
40
2.0196
40
2.24399
40
2.46839
40
2.69279
40
2.91719
40
3.14159
40
3.36599
40
3.59039
40
3.81479
40
4.03919
40
4.26359
40
4.48799
40
4.71239
40
4.71239
10
13.99
20
-145
30
0
10
13.812
20
-145
30
0
10
13.2869
20
-145
30
0
10
12.441
20
-145
30
0
10
11.3168
20
-145
30
0
10
9.97057
20
-145
30
0
10
8.4699
20
-145
30
0
10
6.89
20
-145
30
0
10
5.3101
20
-145
30
0
10
3.80943
20
-145
30
0
10
2.46322
20
-145
30
0
10
1.339
20
-145
30
0
10
0.493121
20
-145
30
0
10
-0.0319882
20
-145
30
0
10
-0.21
20
-145
30
0
0
SPLINE
8
0
6
BYBLOCK
62
0
5
27fc
100
AcDbEntity
100
AcDbSpline
70
0
71
1
72
17
73
15
74
0
40
1.5708
40
1.5708
40
1.7952
40
2.0196
40
2.24399
40
2.46839
40
2.69279
40
2.91719
40
3.14159
40
3.36599
40
3.59039
40
3.81479
40
4.03919
40
4.26359
40
4.48799
40
4.71239
40
4.71239
10
33.99
20
-145
30
0
10
33.812
20
-145
30
0
10
33.2869
20
-145
30
0
10
32.441
20
-145
30
0
10
31.3168
20
-145
30
0
10
29.9706
20
-145
30
0
10
28.4699
20
-145
30
0
10
26.89
20
-145
30
0
10
25.3101
20
-145
30
0
10
23.8094
20
-145
30
0
10
22.4632
20
-145
30
0
10
21.339
20
-145
30
0
10
20.4931
20
-145
30
0
10
19.968
20
-145
30
0
10
19.79
20
-145
30
0
0
SPLINE
8
0
6
BYBLOCK
62
0
5
27fd
100
AcDbEntity
100
AcDbSpline
70
0
71
1
72
17
73
15
74
0
40
3.14159
40
3.14159
40
3.36599
40
3.59039
40
3.81479
40
4.03919
40
4.26359
40
4.48799
40
4.71239
40
4.93679
40
5.16119
40
5.38559
40
5.60999
40
5.83439
40
6.05879
40
6.28319
40
6.28319
10
-151.7
20
-145
30
0
10
-151.657
20
-145
30
0
10
-151.532
20
-145
30
0
10
-151.329
20
-145
30
0
10
-151.06
20
-145
30
0
10
-150.738
20
-145
30
0
10
-150.378
20
-145
30
0
10
-150
20
-145
30
0
10
-149.622
20
-145
30
0
10
-149.262
20
-145
30
0
10
-148.94
20
-145
30
0
10
-148.671
20
-145
30
0
10
-148.468
20
-145
30
0
10
-148.343
20
-145
30
0
10
-148.3
20
-145
30
0
0
SPLINE
8
0
6
BYBLOCK
62
0
5
27fe
100
AcDbEntity
100
AcDbSpline
70
0
71
1
72
17
73
15
74
0
40
1.5708
40
1.5708
40
1.63636
40
1.70192
40
1.76749
40
1.83305
40
1.89862
40
1.96418
40
2.02974
40
2.09531
40
2.16087
40
2.22644
40
2.292
40
2.35756
40
2.42313
40
2.48869
40
2.48869
10
59.2276
20
-145
30
0
10
59.1954
20
-145
30
0
10
59.0988
20
-145
30
0
10
58.9384
20
-145
30
0
10
58.7147
20
-145
30
0
10
58.4288
20
-145
30
0
10
58.0819
20
-145
30
0
10
57.6754
20
-145
30
0
10
57.2111
20
-145
30
0
10
56.6911
20
-145
30
0
10
56.1175
20
-145
30
0
10
55.4928
20
-145
30
0
10
54.8197
20
-145
30
0
10
54.101
20
-145
30
0
10
53.34
20
-145
30
0
0
SPLINE
8
0
6
BYBLOCK
62
0
5
27ff
100
AcDbEntity
100
AcDbSpline
70
0
71
1
72
17
73
15
74
0
40
3.00042
40
3.00042
40
3.0105
40
3.02059
40
3.03067
40
3.04076
40
3.05084
40
3.06092
40
3.07101
40
3.08109
40
3.09117
40
3.10126
40
3.11134
40
3.12143
40
3.13151
40
3.14159
40
3.14159
10
46.3382
20
-145
30
0
10
46.1883
20
-145
30
0
10
46.0382
20
-145
30
0
10
45.888
20
-145
30
0
10
45.7376
20
-145
30
0
10
45.587
20
-145
30
0
10
45.4363
20
-145
30
0
10
45.2855
20
-145
30
0
10
45.1346
20
-145
30
0
10
44.9836
20
-145
30
0
10
44.8325
20
-145
30
0
10
44.6813
20
-145
30
0
10
44.5301
20
-145
30
0
10
44.3789
20
-145
30
0
10
44.2276
20
-145
30
0
0
LINE
8
0
6
BYBLOCK
62
0
5
2800
100
AcDbEntity
100
AcDbLine
10
44.2276
20
-145
30
0
11
33.39
21
-145
31
0
0
LINE
8
0
6
BYBLOCK
62
0
5
2801
100
AcDbEntity
100
AcDbLine
10
26.39
20
-145
30
0
11
13.36
21
-145
31
0
0
LINE
8
0
6
BYBLOCK
62
0
5
2802
100
AcDbEntity
100
AcDbLine
10
6.26725
20
-145
30
0
11
-6.62818
21
-145
31
0
0
LINE
8
0
6
BYBLOCK
62
0
5
2803
100
AcDbEntity
100
AcDbLine
10
-13.64
20
-145
30
0
11
-33.54
21
-145
31
0
0
LINE
8
0
6
BYBLOCK
62
0
5
2804
100
AcDbEntity
100
AcDbLine
10
-40.64
20
-145
30
0
11
-53.57
21
-145
31
0
0
SPLINE
8
0
6
BYBLOCK
62
0
5
2805
100
AcDbEntity
100
AcDbSpline
70
0
71
1
72
17
73
15
74
0
40
3.14159
40
3.14159
40
3.36599
40
3.59039
40
3.81479
40
4.03919
40
4.26359
40
4.48799
40
4.71239
40
4.93679
40
5.16119
40
5.38559
40
5.60999
40
5.83439
40
6.05879
40
6.28319
40
6.28319
10
148.3
20
-145
30
0
10
148.343
20
-145
30
0
10
148.468
20
-145
30
0
10
148.671
20
-145
30
0
10
148.94
20
-145
30
0
10
149.262
20
-145
30
0
10
149.622
20
-145
30
0
10
150
20
-145
30
0
10
150.378
20
-145
30
0
10
150.738
20
-145
30
0
10
151.06
20
-145
30
0
10
151.329
20
-145
30
0
10
151.532
20
-145
30
0
10
151.657
20
-145
30
0
10
151.7
20
-145
30
0
0
SPLINE
8
0
6
BYBLOCK
62
0
5
2806
100
AcDbEntity
100
AcDbSpline
70
0
71
1
72
17
73
15
74
0
40
1.5708
40
1.5708
40
1.7952
40
2.0196
40
2.24399
40
2.46839
40
2.69279
40
2.91719
40
3.14159
40
3.36599
40
3.59039
40
3.81479
40
4.03919
40
4.26359
40
4.48799
40
4.71239
40
4.71239
10
73.99
20
-145
30
0
10
73.812
20
-145
30
0
10
73.2869
20
-145
30
0
10
72.441
20
-145
30
0
10
71.3168
20
-145
30
0
10
69.9706
20
-145
30
0
10
68.4699
20
-145
30
0
10
66.89
20
-145
30
0
10
65.3101
20
-145
30
0
10
63.8094
20
-145
30
0
10
62.4632
20
-145
30
0
10
61.339
20
-145
30
0
10
60.4931
20
-145
30
0
10
59.968
20
-145
30
0
10
59.79
20
-145
30
0
0
SPLINE
8
0
6
BYBLOCK
62
0
5
2807
100
AcDbEntity
100
AcDbSpline
70
0
71
1
72
17
73
15
74
0
40
1.5708
40
1.5708
40
1.7952
40
2.0196
40
2.24399
40
2.46839
40
2.69279
40
2.91719
40
3.14159
40
3.36599
40
3.59039
40
3.81479
40
4.03919
40
4.26359
40
4.48799
40
4.71239
40
4.71239
10
93.99
20
-145
30
0
10
93.812
20
-145
30
0
10
93.2869
20
-145
30
0
10
92.441
20
-145
30
0
10
91.3168
20
-145
30
0
10
89.9706
20
-145
30
0
10
88.4699
20
-145
30
0
10
86.89
20
-145
30
0
10
85.3101
20
-145
30
0
10
83.8094
20
-145
30
0
10
82.4632
20
-145
30
0
10
81.339
20
-145
30
0
10
80.4931
20
-145
30
0
10
79.968
20
-145
30
0
10
79.79
20
-145
30
0
0
SPLINE
8
0
6
BYBLOCK
62
0
5
2808
100
AcDbEntity
100
AcDbSpline
70
0
71
1
72
17
73
15
74
0
40
1.5708
40
1.5708
40
1.7952
40
2.0196
40
2.24399
40
2.46839
40
2.69279
40
2.91719
40
3.14159
40
3.36599
40
3.59039
40
3.81479
40
4.03919
40
4.26359
40
4.48799
40
4.71239
40
4.71239
10
53.99
20
-145
30
0
10
53.812
20
-145
30
0
10
53.2869
20
-145
30
0
10
52.441
20
-145
30
0
10
51.3168
20
-145
30
0
10
49.9706
20
-145
30
0
10
48.4699
20
-145
30
0
10
46.89
20
-145
30
0
10
45.3101
20
-145
30
0
10
43.8094
20
-145
30
0
10
42.4632
20
-145
30
0
10
41.339
20
-145
30
0
10
40.4931
20
-145
30
0
10
39.968
20
-145
30
0
10
39.79
20
-145
30
0
0
SPLINE
8
0
6
BYBLOCK
62
0
5
2809
100
AcDbEntity
100
AcDbSpline
70
0
71
1
72
17
73
15
74
0
40
0
40
0
40
0.224399
40
0.448799
40
0.673198
40
0.897598
40
1.122
40
1.3464
40
1.5708
40
1.7952
40
2.0196
40
2.24399
40
2.46839
40
2.69279
40
2.91719
40
3.14159
40
3.14159
10
206.7
20
-145
30
0
10
206.657
20
-145
30
0
10
206.532
20
-145
30
0
10
206.329
20
-145
30
0
10
206.06
20
-145
30
0
10
205.738
20
-145
30
0
10
205.378
20
-145
30
0
10
205
20
-145
30
0
10
204.622
20
-145
30
0
10
204.262
20
-145
30
0
10
203.94
20
-145
30
0
10
203.671
20
-145
30
0
10
203.468
20
-145
30
0
10
203.343
20
-145
30
0
10
203.3
20
-145
30
0
0
SPLINE
8
0
6
BYBLOCK
62
0
5
280a
100
AcDbEntity
100
AcDbSpline
70
0
71
1
72
17
73
15
74
0
40
0
40
0
40
0.224399
40
0.448799
40
0.673198
40
0.897598
40
1.122
40
1.3464
40
1.5708
40
1.7952
40
2.0196
40
2.24399
40
2.46839
40
2.69279
40
2.91719
40
3.14159
40
3.14159
10
-203.3
20
-145
30
0
10
-203.343
20
-145
30
0
10
-203.468
20
-145
30
0
10
-203.671
20
-145
30
0
10
-203.94
20
-145
30
0
10
-204.262
20
-145
30
0
10
-204.622
20
-145
30
0
10
-205
20
-145
30
0
10
-205.378
20
-145
30
0
10
-205.738
20
-145
30
0
10
-206.06
20
-145
30
0
10
-206.329
20
-145
30
0
10
-206.532
20
-145
30
0
10
-206.657
20
-145
30
0
10
-206.7
20
-145
30
0
0
ENDBLK
5
280b
100
AcDbEntity
8
0
100
AcDbBlockEnd
0
BLOCK
5
280c
100
AcDbEntity
8
0
100
AcDbBlockBegin
2
Ortho0041
70
0
10
0
20
0
3
Ortho0041
1

0
LINE
8
0
6
BYBLOCK
62
0
5
280d
100
AcDbEntity
100
AcDbLine
10
240
20
140
30
0
11
240
21
145
31
0
0
LINE
8
0
6
BYBLOCK
62
0
5
280e
100
AcDbEntity
100
AcDbLine
10
-10
20
140
30
0
11
-10
21
145
31
0
0
LINE
8
0
6
BYBLOCK
62
0
5
280f
100
AcDbEntity
100
AcDbLine
10
240
20
140
30
0
11
-10
21
140
31
0
0
LINE
8
0
6
BYBLOCK
62
0
5
2810
100
AcDbEntity
100
AcDbLine
10
240
20
145
30
0
11
-10
21
145
31
0
0
SPLINE
8
0
6
BYBLOCK
62
0
5
2811
100
AcDbEntity
100
AcDbSpline
70
0
71
1
72
17
73
15
74
0
40
0
40
0
40
0.224399
40
0.448799
40
0.673198
40
0.897598
40
1.122
40
1.3464
40
1.5708
40
1.7952
40
2.0196
40
2.24399
40
2.46839
40
2.69279
40
2.91719
40
3.14159
40
3.14159
10
83.7
20
140
30
0
10
83.7326
20
140
30
0
10
83.8287
20
140
30
0
10
83.9836
20
140
30
0
10
84.1895
20
140
30
0
10
84.436
20
140
30
0
10
84.7107
20
140
30
0
10
85
20
140
30
0
10
85.2893
20
140
30
0
10
85.564
20
140
30
0
10
85.8105
20
140
30
0
10
86.0164
20
140
30
0
10
86.1713
20
140
30
0
10
86.2674
20
140
30
0
10
86.3
20
140
30
0
0
SPLINE
8
0
6
BYBLOCK
62
0
5
2812
100
AcDbEntity
100
AcDbSpline
70
0
71
1
72
17
73
15
74
0
40
0
40
0
40
0.224399
40
0.448799
40
0.673198
40
0.897598
40
1.122
40
1.3464
40
1.5708
40
1.7952
40
2.0196
40
2.24399
40
2.46839
40
2.69279
40
2.91719
40
3.14159
40
3.14159
10
192.706
20
140
30
0
10
192.738
20
140
30
0
10
192.834
20
140
30
0
10
192.989
20
140
30
0
10
193.195
20
140
30
0
10
193.442
20
140
30
0
10
193.716
20
140
30
0
10
194.006
20
140
30
0
10
194.295
20
140
30
0
10
194.57
20
140
30
0
10
194.816
20
140
30
0
10
195.022
20
140
30
0
10
195.177
20
140
30
0
10
195.273
20
140
30
0
10
195.306
20
140
30
0
0
LINE
8
0
6
BYBLOCK
62
0
5
2813
100
AcDbEntity
100
AcDbLine
10
131.328
20
145
30
0
11
131.665
21
145
31
0
0
LINE
8
0
6
BYBLOCK
62
0
5
2814
100
AcDbEntity
100
AcDbLine
10
113.1
20
145
30
0
11
113.18
21
145
31
0
0
SPLINE
8
0
6
BYBLOCK
62
0
5
2815
100
AcDbEntity
100
AcDbSpline
70
0
71
1
72
17
73
15
74
0
40
1.22466e-016
40
1.22466e-016
40
0.224399
40
0.448799
40
0.673198
40
0.897598
40
1.122
40
1.3464
40
1.5708
40
1.7952
40
2.0196
40
2.24399
40
2.46839
40
2.69279
40
2.91719
40
3.14159
40
3.14159
10
18.433
20
145
30
0
10
18.8091
20
145
30
0
10
19.9184
20
145
30
0
10
21.7055
20
145
30
0
10
24.0806
20
145
30
0
10
26.9247
20
145
30
0
10
30.0952
20
145
30
0
10
33.433
20
145
30
0
10
36.7708
20
145
30
0
10
39.9412
20
145
30
0
10
42.7853
20
145
30
0
10
45.1604
20
145
30
0
10
46.9475
20
145
30
0
10
48.0569
20
145
30
0
10
48.433
20
145
30
0
0
SPLINE
8
0
6
BYBLOCK
62
0
5
2816
100
AcDbEntity
100
AcDbSpline
70
0
71
1
72
17
73
15
74
0
40
0
40
0
40
0.1122
40
0.224399
40
0.336599
40
0.448799
40
0.560999
40
0.673198
40
0.785398
40
0.897598
40
1.0098
40
1.122
40
1.2342
40
1.3464
40
1.4586
40
1.5708
40
1.5708
10
-5
20
145
30
0
10
-5.19034
20
145
30
0
10
-5.37829
20
145
30
0
10
-5.56147
20
145
30
0
10
-5.7376
20
145
30
0
10
-5.90445
20
145
30
0
10
-6.05993
20
145
30
0
10
-6.20208
20
145
30
0
10
-6.32911
20
145
30
0
10
-6.43943
20
145
30
0
10
-6.53165
20
145
30
0
10
-6.6046
20
145
30
0
10
-6.65738
20
145
30
0
10
-6.68931
20
145
30
0
10
-6.7
20
145
30
0
0
SPLINE
8
0
6
BYBLOCK
62
0
5
2817
100
AcDbEntity
100
AcDbSpline
70
0
71
1
72
17
73
15
74
0
40
4.71239
40
4.71239
40
4.82459
40
4.93679
40
5.04899
40
5.16119
40
5.27339
40
5.38559
40
5.49779
40
5.60999
40
5.72219
40
5.83439
40
5.94659
40
6.05879
40
6.17099
40
6.28319
40
6.28319
10
-3.3
20
145
30
0
10
-3.31069
20
145
30
0
10
-3.34262
20
145
30
0
10
-3.3954
20
145
30
0
10
-3.46835
20
145
30
0
10
-3.56057
20
145
30
0
10
-3.67089
20
145
30
0
10
-3.79792
20
145
30
0
10
-3.94007
20
145
30
0
10
-4.09555
20
145
30
0
10
-4.2624
20
145
30
0
10
-4.43853
20
145
30
0
10
-4.62171
20
145
30
0
10
-4.80966
20
145
30
0
10
-5
20
145
30
0
0
LINE
8
0
6
BYBLOCK
62
0
5
2818
100
AcDbEntity
100
AcDbLine
10
131.307
20
145
30
0
11
131.328
21
145
31
0
0
LINE
8
0
6
BYBLOCK
62
0
5
2819
100
AcDbEntity
100
AcDbLine
10
113.18
20
145
30
0
11
131.18
21
145
31
0
0
LINE
8
0
6
BYBLOCK
62
0
5
281a
100
AcDbEntity
100
AcDbLine
10
131.18
20
145
30
0
11
131.307
21
145
31
0
0
SPLINE
8
0
6
BYBLOCK
62
0
5
281b
100
AcDbEntity
100
AcDbSpline
70
0
71
1
72
17
73
15
74
0
40
0
40
0
40
0.224399
40
0.448799
40
0.673198
40
0.897598
40
1.122
40
1.3464
40
1.5708
40
1.7952
40
2.0196
40
2.24399
40
2.46839
40
2.69279
40
2.91719
40
3.14159
40
3.14159
10
83.32
20
145
30
0
10
83.498
20
145
30
0
10
84.0231
20
145
30
0
10
84.869
20
145
30
0
10
85.9932
20
145
30
0
10
87.3394
20
145
30
0
10
88.8401
20
145
30
0
10
90.42
20
145
30
0
10
91.9999
20
145
30
0
10
93.5006
20
145
30
0
10
94.8468
20
145
30
0
10
95.971
20
145
30
0
10
96.8169
20
145
30
0
10
97.342
20
145
30
0
10
97.52
20
145
30
0
0
LINE
8
0
6
BYBLOCK
62
0
5
281c
100
AcDbEntity
100
AcDbLine
10
148.13
20
145
30
0
11
148.13
21
145
31
0
0
LINE
8
0
6
BYBLOCK
62
0
5
281d
100
AcDbEntity
100
AcDbLine
10
148.13
20
145
30
0
11
166.13
21
145
31
0
0
SPLINE
8
0
6
BYBLOCK
62
0
5
281e
100
AcDbEntity
100
AcDbSpline
70
0
71
1
72
17
73
15
74
0
40
0
40
0
40
0.224399
40
0.448799
40
0.673198
40
0.897598
40
1.122
40
1.3464
40
1.5708
40
1.7952
40
2.0196
40
2.24399
40
2.46839
40
2.69279
40
2.91719
40
3.14159
40
3.14159
10
181.09
20
145
30
0
10
181.268
20
145
30
0
10
181.793
20
145
30
0
10
182.639
20
145
30
0
10
183.763
20
145
30
0
10
185.109
20
145
30
0
10
186.61
20
145
30
0
10
188.19
20
145
30
0
10
189.77
20
145
30
0
10
191.271
20
145
30
0
10
192.617
20
145
30
0
10
193.741
20
145
30
0
10
194.587
20
145
30
0
10
195.112
20
145
30
0
10
195.29
20
145
30
0
0
SPLINE
8
0
6
BYBLOCK
62
0
5
281f
100
AcDbEntity
100
AcDbSpline
70
0
71
1
72
17
73
15
74
0
40
0
40
0
40
0.1122
40
0.224399
40
0.336599
40
0.448799
40
0.560999
40
0.673198
40
0.785398
40
0.897598
40
1.0098
40
1.122
40
1.2342
40
1.3464
40
1.4586
40
1.5708
40
1.5708
10
20
20
145
30
0
10
20.1903
20
145
30
0
10
20.3783
20
145
30
0
10
20.5615
20
145
30
0
10
20.7376
20
145
30
0
10
20.9045
20
145
30
0
10
21.0599
20
145
30
0
10
21.2021
20
145
30
0
10
21.3291
20
145
30
0
10
21.4394
20
145
30
0
10
21.5316
20
145
30
0
10
21.6046
20
145
30
0
10
21.6574
20
145
30
0
10
21.6893
20
145
30
0
10
21.7
20
145
30
0
0
SPLINE
8
0
6
BYBLOCK
62
0
5
2820
100
AcDbEntity
100
AcDbSpline
70
0
71
1
72
17
73
15
74
0
40
4.71239
40
4.71239
40
4.82459
40
4.93679
40
5.04899
40
5.16119
40
5.27339
40
5.38559
40
5.49779
40
5.60999
40
5.72219
40
5.83439
40
5.94659
40
6.05879
40
6.17099
40
6.28319
40
6.28319
10
18.3
20
145
30
0
10
18.3107
20
145
30
0
10
18.3426
20
145
30
0
10
18.3954
20
145
30
0
10
18.4684
20
145
30
0
10
18.5606
20
145
30
0
10
18.6709
20
145
30
0
10
18.7979
20
145
30
0
10
18.9401
20
145
30
0
10
19.0955
20
145
30
0
10
19.2624
20
145
30
0
10
19.4385
20
145
30
0
10
19.6217
20
145
30
0
10
19.8097
20
145
30
0
10
20
20
145
30
0
0
SPLINE
8
0
6
BYBLOCK
62
0
5
2821
100
AcDbEntity
100
AcDbSpline
70
0
71
1
72
17
73
15
74
0
40
0
40
0
40
0.1122
40
0.224399
40
0.336599
40
0.448799
40
0.560999
40
0.673198
40
0.785398
40
0.897598
40
1.0098
40
1.122
40
1.2342
40
1.3464
40
1.4586
40
1.5708
40
1.5708
10
115
20
145
30
0
10
115.19
20
145
30
0
10
115.378
20
145
30
0
10
115.561
20
145
30
0
10
115.738
20
145
30
0
10
115.904
20
145
30
0
10
116.06
20
145
30
0
10
116.202
20
145
30
0
10
116.329
20
145
30
0
10
116.439
20
145
30
0
10
116.532
20
145
30
0
10
116.605
20
145
30
0
10
116.657
20
145
30
0
10
116.689
20
145
30
0
10
116.7
20
145
30
0
0
SPLINE
8
0
6
BYBLOCK
62
0
5
2822
100
AcDbEntity
100
AcDbSpline
70
0
71
1
72
17
73
15
74
0
40
4.71239
40
4.71239
40
4.82459
40
4.93679
40
5.04899
40
5.16119
40
5.27339
40
5.38559
40
5.49779
40
5.60999
40
5.72219
40
5.83439
40
5.94659
40
6.05879
40
6.17099
40
6.28319
40
6.28319
10
113.3
20
145
30
0
10
113.311
20
145
30
0
10
113.343
20
145
30
0
10
113.395
20
145
30
0
10
113.468
20
145
30
0
10
113.561
20
145
30
0
10
113.671
20
145
30
0
10
113.798
20
145
30
0
10
113.94
20
145
30
0
10
114.096
20
145
30
0
10
114.262
20
145
30
0
10
114.439
20
145
30
0
10
114.622
20
145
30
0
10
114.81
20
145
30
0
10
115
20
145
30
0
0
SPLINE
8
0
6
BYBLOCK
62
0
5
2823
100
AcDbEntity
100
AcDbSpline
70
0
71
1
72
17
73
15
74
0
40
0
40
0
40
0.1122
40
0.224399
40
0.336599
40
0.448799
40
0.560999
40
0.673198
40
0.785398
40
0.897598
40
1.0098
40
1.122
40
1.2342
40
1.3464
40
1.4586
40
1.5708
40
1.5708
10
210
20
145
30
0
10
210.19
20
145
30
0
10
210.378
20
145
30
0
10
210.561
20
145
30
0
10
210.738
20
145
30
0
10
210.904
20
145
30
0
10
211.06
20
145
30
0
10
211.202
20
145
30
0
10
211.329
20
145
30
0
10
211.439
20
145
30
0
10
211.532
20
145
30
0
10
211.605
20
145
30
0
10
211.657
20
145
30
0
10
211.689
20
145
30
0
10
211.7
20
145
30
0
0
SPLINE
8
0
6
BYBLOCK
62
0
5
2824
100
AcDbEntity
100
AcDbSpline
70
0
71
1
72
17
73
15
74
0
40
4.71239
40
4.71239
40
4.82459
40
4.93679
40
5.04899
40
5.16119
40
5.27339
40
5.38559
40
5.49779
40
5.60999
40
5.72219
40
5.83439
40
5.94659
40
6.05879
40
6.17099
40
6.28319
40
6.28319
10
208.3
20
145
30
0
10
208.311
20
145
30
0
10
208.343
20
145
30
0
10
208.395
20
145
30
0
10
208.468
20
145
30
0
10
208.561
20
145
30
0
10
208.671
20
145
30
0
10
208.798
20
145
30
0
10
208.94
20
145
30
0
10
209.096
20
145
30
0
10
209.262
20
145
30
0
10
209.439
20
145
30
0
10
209.622
20
145
30
0
10
209.81
20
145
30
0
10
210
20
145
30
0
0
ENDBLK
5
2825
100
AcDbEntity
8
0
100
AcDbBlockEnd
0
ENDSEC
0
SECTION
2
ENTITIES
0
LINE
5
4B
100
AcDbEntity
8
PAPERSIZE
6
ByLayer
62
256
370
-1
100
AcDbLine
10
0
20
-5
11
0
21
0
0
LINE
5
4C
100
AcDbEntity
8
PAPERSIZE
6
ByLayer
62
256
370
-1
100
AcDbLine
10
0
20
0
11
5
21
0
0
LINE
5
4D
100
AcDbEntity
8
PAPERSIZE
6
ByLayer
62
256
370
-1
100
AcDbLine
10
415
20
0
11
420
21
0
0
LINE
5
4E
100
AcDbEntity
8
PAPERSIZE
6
ByLayer
62
256
370
-1
100
AcDbLine
10
420
20
0
11
420
21
-5
0
LINE
5
4F
100
AcDbEntity
8
PAPERSIZE
6
ByLayer
62
256
370
-1
100
AcDbLine
10
415
20
-297
11
420
21
-297
0
LINE
5
50
100
AcDbEntity
8
PAPERSIZE
6
ByLayer
62
256
370
-1
100
AcDbLine
10
420
20
-297
11
420
21
-292
0
LINE
5
51
100
AcDbEntity
8
PAPERSIZE
6
ByLayer
62
256
370
-1
100
AcDbLine
10
0
20
-292
11
0
21
-297
0
LINE
5
52
100
AcDbEntity
8
PAPERSIZE
6
ByLayer
62
256
370
-1
100
AcDbLine
10
0
20
-297
11
5
21
-297
0
LINE
5
53
100
AcDbEntity
8
BORDER
6
ByLayer
62
7
370
-1
100
AcDbLine
10
20
20
-10
11
410
21
-10
0
LINE
5
54
100
AcDbEntity
8
BORDER
6
ByLayer
62
7
370
-1
100
AcDbLine
10
410
20
-10
11
410
21
-287
0
LINE
5
55
100
AcDbEntity
8
BORDER
6
ByLayer
62
7
370
-1
100
AcDbLine
10
410
20
-287
11
20
21
-287
0
LINE
5
56
100
AcDbEntity
8
BORDER
6
ByLayer
62
7
370
-1
100
AcDbLine
10
20
20
-287
11
20
21
-10
0
LINE
5
57
100
AcDbEntity
8
TITLEBLOCK
6
ByLayer
62
7
370
-1
100
AcDbLine
10
230
20
-227
11
410
21
-227
0
LINE
5
58
100
AcDbEntity
8
TITLEBLOCK
6
ByLayer
62
7
370
-1
100
AcDbLine
10
410
20
-227
11
410
21
-287
0
LINE
5
59
100
AcDbEntity
8
TITLEBLOCK
6
ByLayer
62
7
370
-1
100
AcDbLine
10
410
20
-287
11
230
21
-287
0
LINE
5
5A
100
AcDbEntity
8
TITLEBLOCK
6
ByLayer
62
7
370
-1
100
AcDbLine
10
230
20
-287
11
230
21
-227
0
LINE
5
5B
100
AcDbEntity
8
TITLEBLOCK
6
ByLayer
62
7
370
-1
100
AcDbLine
10
230
20
-239
11
410
21
-239
0
LINE
5
5C
100
AcDbEntity
8
TITLEBLOCK
6
ByLayer
62
7
370
-1
100
AcDbLine
10
290
20
-227
11
290
21
-239
0
LINE
5
5D
100
AcDbEntity
8
TITLEBLOCK
6
ByLayer
62
7
370
-1
100
AcDbLine
10
350
20
-239
11
350
21
-287
0
LINE
5
5E
100
AcDbEntity
8
TITLEBLOCK
6
ByLayer
62
7
370
-1
100
AcDbLine
10
370
20
-239
11
370
21
-251
0
LINE
5
5F
100
AcDbEntity
8
TITLEBLOCK
6
ByLayer
62
7
370
-1
100
AcDbLine
10
390
20
-239
11
390
21
-251
0
LINE
5
60
100
AcDbEntity
8
TITLEBLOCK
6
ByLayer
62
7
370
-1
100
AcDbLine
10
350
20
-251
11
410
21
-251
0
LINE
5
61
100
AcDbEntity
8
TITLEBLOCK
6
ByLayer
62
7
370
-1
100
AcDbLine
10
350
20
-275
11
410
21
-275
0
LINE
5
62
100
AcDbEntity
8
TITLEBLOCK
6
ByLayer
62
7
370
-1
100
AcDbLine
10
390
20
-275
11
390
21
-287
0
LINE
5
63
100
AcDbEntity
8
LOGO
6
ByLayer
62
7
370
-1
100
AcDbLine
10
338.6524
20
-276.15254
11
338.6524
21
-285.00744
0
LINE
5
64
100
AcDbEntity
8
LOGO
6
ByLayer
62
7
370
-1
100
AcDbLine
10
338.6524
20
-285.00744
11
340.6268
21
-285.00744
0
LINE
5
65
100
AcDbEntity
8
LOGO
6
ByLayer
62
7
370
-1
100
AcDbLine
10
340.6268
20
-285.00744
11
340.6268
21
-281.54224
0
LINE
5
66
100
AcDbEntity
8
LOGO
6
ByLayer
62
7
370
-1
100
AcDbLine
10
340.6268
20
-281.54224
11
342.0228
21
-281.54224
0
LINE
5
67
100
AcDbEntity
8
LOGO
6
ByLayer
62
7
370
-1
100
AcDbLine
10
342.0228
20
-281.54224
11
342.0228
21
-280.17614
0
LINE
5
68
100
AcDbEntity
8
LOGO
6
ByLayer
62
7
370
-1
100
AcDbLine
10
342.0228
20
-280.17614
11
340.6268
21
-280.17614
0
LINE
5
69
100
AcDbEntity
8
LOGO
6
ByLayer
62
7
370
-1
100
AcDbLine
10
340.6268
20
-280.17614
11
340.6268
21
-278.70164
0
LINE
5
6A
100
AcDbEntity
8
LOGO
6
ByLayer
62
7
370
-1
100
AcDbLine
10
340.6268
20
-278.70164
11
344.0659
21
-278.70164
0
LINE
5
6B
100
AcDbEntity
8
LOGO
6
ByLayer
62
7
370
-1
100
AcDbLine
10
344.0659
20
-278.70164
11
344.0659
21
-276.15754
0
LINE
5
6C
100
AcDbEntity
8
LOGO
6
ByLayer
62
7
370
-1
100
AcDbLine
10
344.0659
20
-276.15754
11
338.6524
21
-276.15254
0
LINE
5
6D
100
AcDbEntity
8
LOGO
6
ByLayer
62
7
370
-1
100
AcDbLine
10
338.6524
20
-276.15254
11
338.6524
21
-276.15254
0
LINE
5
6E
100
AcDbEntity
8
LOGO
6
ByLayer
62
7
370
-1
100
AcDbLine
10
346.2927
20
-279.4504
11
345.78555
21
-279.2744
0
LINE
5
6F
100
AcDbEntity
8
LOGO
6
ByLayer
62
7
370
-1
100
AcDbLine
10
345.78555
20
-279.2744
11
345.30168
21
-278.0378
0
LINE
5
70
100
AcDbEntity
8
LOGO
6
ByLayer
62
7
370
-1
100
AcDbLine
10
345.30168
20
-278.0378
11
344.54053
21
-278.0778
0
LINE
5
71
100
AcDbEntity
8
LOGO
6
ByLayer
62
7
370
-1
100
AcDbLine
10
344.54053
20
-278.0778
11
344.19335
21
-279.3565
0
LINE
5
72
100
AcDbEntity
8
LOGO
6
ByLayer
62
7
370
-1
100
AcDbLine
10
344.19335
20
-279.3565
11
343.70745
21
-279.58919
0
LINE
5
73
100
AcDbEntity
8
LOGO
6
ByLayer
62
7
370
-1
100
AcDbLine
10
343.70745
20
-279.58919
11
342.49555
21
-279.05904
0
LINE
5
74
100
AcDbEntity
8
LOGO
6
ByLayer
62
7
370
-1
100
AcDbLine
10
342.49555
20
-279.05904
11
341.98367
21
-279.62786
0
LINE
5
75
100
AcDbEntity
8
LOGO
6
ByLayer
62
7
370
-1
100
AcDbLine
10
341.98367
20
-279.62786
11
342.64259
21
-280.77636
0
LINE
5
76
100
AcDbEntity
8
LOGO
6
ByLayer
62
7
370
-1
100
AcDbLine
10
342.64259
20
-280.77636
11
342.46253
21
-281.28203
0
LINE
5
77
100
AcDbEntity
8
LOGO
6
ByLayer
62
7
370
-1
100
AcDbLine
10
342.46253
20
-281.28203
11
341.22593
21
-281.7659
0
LINE
5
78
100
AcDbEntity
8
LOGO
6
ByLayer
62
7
370
-1
100
AcDbLine
10
341.22593
20
-281.7659
11
341.269994
21
-282.52853
0
LINE
5
79
100
AcDbEntity
8
LOGO
6
ByLayer
62
7
370
-1
100
AcDbLine
10
341.269994
20
-282.52853
11
342.548694
21
-282.87571
0
LINE
5
7A
100
AcDbEntity
8
LOGO
6
ByLayer
62
7
370
-1
100
AcDbLine
10
342.548694
20
-282.87571
11
342.781384
21
-283.36161
0
LINE
5
7B
100
AcDbEntity
8
LOGO
6
ByLayer
62
7
370
-1
100
AcDbLine
10
342.781384
20
-283.36161
11
342.247174
21
-284.57201
0
LINE
5
7C
100
AcDbEntity
8
LOGO
6
ByLayer
62
7
370
-1
100
AcDbLine
10
342.247174
20
-284.57201
11
342.815994
21
-285.08389
0
LINE
5
7D
100
AcDbEntity
8
LOGO
6
ByLayer
62
7
370
-1
100
AcDbLine
10
342.815994
20
-285.08389
11
343.964494
21
-284.42498
0
LINE
5
7E
100
AcDbEntity
8
LOGO
6
ByLayer
62
7
370
-1
100
AcDbLine
10
343.964494
20
-284.42498
11
344.474224
21
-284.60653
0
LINE
5
7F
100
AcDbEntity
8
LOGO
6
ByLayer
62
7
370
-1
100
AcDbLine
10
344.474224
20
-284.60653
11
344.954024
21
-285.84163
0
LINE
5
80
100
AcDbEntity
8
LOGO
6
ByLayer
62
7
370
-1
100
AcDbLine
10
344.954024
20
-285.84163
11
345.720724
21
-285.79905
0
LINE
5
81
100
AcDbEntity
8
LOGO
6
ByLayer
62
7
370
-1
100
AcDbLine
10
345.720724
20
-285.79905
11
346.063834
21
-284.51885
0
LINE
5
82
100
AcDbEntity
8
LOGO
6
ByLayer
62
7
370
-1
100
AcDbLine
10
346.063834
20
-284.51885
11
346.549734
21
-284.28616
0
LINE
5
83
100
AcDbEntity
8
LOGO
6
ByLayer
62
7
370
-1
100
AcDbLine
10
346.549734
20
-284.28616
11
347.764234
21
-284.82186
0
LINE
5
84
100
AcDbEntity
8
LOGO
6
ByLayer
62
7
370
-1
100
AcDbLine
10
347.764234
20
-284.82186
11
348.276114
21
-284.25304
0
LINE
5
85
100
AcDbEntity
8
LOGO
6
ByLayer
62
7
370
-1
100
AcDbLine
10
348.276114
20
-284.25304
11
347.617204
21
-283.10454
0
LINE
5
86
100
AcDbEntity
8
LOGO
6
ByLayer
62
7
370
-1
100
AcDbLine
10
347.617204
20
-283.10454
11
347.794684
21
-282.59332
0
LINE
5
87
100
AcDbEntity
8
LOGO
6
ByLayer
62
7
370
-1
100
AcDbLine
10
347.794684
20
-282.59332
11
349.029784
21
-282.11352
0
LINE
5
88
100
AcDbEntity
8
LOGO
6
ByLayer
62
7
370
-1
100
AcDbLine
10
349.029784
20
-282.11352
11
348.991274
21
-281.34831
0
LINE
5
89
100
AcDbEntity
8
LOGO
6
ByLayer
62
7
370
-1
100
AcDbLine
10
348.991274
20
-281.34831
11
347.711074
21
-281.0052
0
LINE
5
8A
100
AcDbEntity
8
LOGO
6
ByLayer
62
7
370
-1
100
AcDbLine
10
347.711074
20
-281.0052
11
347.478384
21
-280.5193
0
LINE
5
8B
100
AcDbEntity
8
LOGO
6
ByLayer
62
7
370
-1
100
AcDbLine
10
347.478384
20
-280.5193
11
348.010014
21
-279.3033
0
LINE
5
8C
100
AcDbEntity
8
LOGO
6
ByLayer
62
7
370
-1
100
AcDbLine
10
348.010014
20
-279.3033
11
347.441204
21
-278.79146
0
LINE
5
8D
100
AcDbEntity
8
LOGO
6
ByLayer
62
7
370
-1
100
AcDbLine
10
347.441204
20
-278.79146
11
346.2927
21
-279.4504
0
LINE
5
8E
100
AcDbEntity
8
LOGO
6
ByLayer
62
7
370
-1
100
AcDbLine
10
345.7212
20
-280.6748
11
345.95696
21
-280.81159
0
LINE
5
8F
100
AcDbEntity
8
LOGO
6
ByLayer
62
7
370
-1
100
AcDbLine
10
345.95696
20
-280.81159
11
346.16122
21
-280.99678
0
LINE
5
90
100
AcDbEntity
8
LOGO
6
ByLayer
62
7
370
-1
100
AcDbLine
10
346.16122
20
-280.99678
11
346.32475
21
-281.21779
0
LINE
5
91
100
AcDbEntity
8
LOGO
6
ByLayer
62
7
370
-1
100
AcDbLine
10
346.32475
20
-281.21779
11
346.44238
21
-281.46351
0
LINE
5
92
100
AcDbEntity
8
LOGO
6
ByLayer
62
7
370
-1
100
AcDbLine
10
346.44238
20
-281.46351
11
346.51154
21
-281.7284
0
LINE
5
93
100
AcDbEntity
8
LOGO
6
ByLayer
62
7
370
-1
100
AcDbLine
10
346.51154
20
-281.7284
11
346.523
21
-281.99986
0
LINE
5
94
100
AcDbEntity
8
LOGO
6
ByLayer
62
7
370
-1
100
AcDbLine
10
346.523
20
-281.99986
11
346.48379
21
-282.27125
0
LINE
5
95
100
AcDbEntity
8
LOGO
6
ByLayer
62
7
370
-1
100
AcDbLine
10
346.48379
20
-282.27125
11
346.39431
21
-282.52889
0
LINE
5
96
100
AcDbEntity
8
LOGO
6
ByLayer
62
7
370
-1
100
AcDbLine
10
346.39431
20
-282.52889
11
346.25197
21
-282.76723
0
LINE
5
97
100
AcDbEntity
8
LOGO
6
ByLayer
62
7
370
-1
100
AcDbLine
10
346.25197
20
-282.76723
11
346.07233
21
-282.9689
0
LINE
5
98
100
AcDbEntity
8
LOGO
6
ByLayer
62
7
370
-1
100
AcDbLine
10
346.07233
20
-282.9689
11
345.85132
21
-283.13243
0
LINE
5
99
100
AcDbEntity
8
LOGO
6
ByLayer
62
7
370
-1
100
AcDbLine
10
345.85132
20
-283.13243
11
345.6056
21
-283.25006
0
LINE
5
9A
100
AcDbEntity
8
LOGO
6
ByLayer
62
7
370
-1
100
AcDbLine
10
345.6056
20
-283.25006
11
345.34071
21
-283.31922
0
LINE
5
9B
100
AcDbEntity
8
LOGO
6
ByLayer
62
7
370
-1
100
AcDbLine
10
345.34071
20
-283.31922
11
345.06776
21
-283.33475
0
LINE
5
9C
100
AcDbEntity
8
LOGO
6
ByLayer
62
7
370
-1
100
AcDbLine
10
345.06776
20
-283.33475
11
344.79586
21
-283.29475
0
LINE
5
9D
100
AcDbEntity
8
LOGO
6
ByLayer
62
7
370
-1
100
AcDbLine
10
344.79586
20
-283.29475
11
344.53826
21
-283.20575
0
LINE
5
9E
100
AcDbEntity
8
LOGO
6
ByLayer
62
7
370
-1
100
AcDbLine
10
344.53826
20
-283.20575
11
344.29996
21
-283.06275
0
LINE
5
9F
100
AcDbEntity
8
LOGO
6
ByLayer
62
7
370
-1
100
AcDbLine
10
344.29996
20
-283.06275
11
344.09976
21
-282.87975
0
LINE
5
A0
100
AcDbEntity
8
LOGO
6
ByLayer
62
7
370
-1
100
AcDbLine
10
344.09976
20
-282.87975
11
343.93476
21
-282.66275
0
LINE
5
A1
100
AcDbEntity
8
LOGO
6
ByLayer
62
7
370
-1
100
AcDbLine
10
343.93476
20
-282.66275
11
343.81706
21
-282.41675
0
LINE
5
A2
100
AcDbEntity
8
LOGO
6
ByLayer
62
7
370
-1
100
AcDbLine
10
343.81706
20
-282.41675
11
343.74946
21
-282.14775
0
LINE
5
A3
100
AcDbEntity
8
LOGO
6
ByLayer
62
7
370
-1
100
AcDbLine
10
343.74946
20
-282.14775
11
343.73386
21
-281.87475
0
LINE
5
A4
100
AcDbEntity
8
LOGO
6
ByLayer
62
7
370
-1
100
AcDbLine
10
343.73386
20
-281.87475
11
343.773066
21
-281.60335
0
LINE
5
A5
100
AcDbEntity
8
LOGO
6
ByLayer
62
7
370
-1
100
AcDbLine
10
343.773066
20
-281.60335
11
343.86255
21
-281.34571
0
LINE
5
A6
100
AcDbEntity
8
LOGO
6
ByLayer
62
7
370
-1
100
AcDbLine
10
343.86255
20
-281.34571
11
344.0034
21
-281.11144
0
LINE
5
A7
100
AcDbEntity
8
LOGO
6
ByLayer
62
7
370
-1
100
AcDbLine
10
344.0034
20
-281.11144
11
344.18453
21
-280.9057
0
LINE
5
A8
100
AcDbEntity
8
LOGO
6
ByLayer
62
7
370
-1
100
AcDbLine
10
344.18453
20
-280.9057
11
344.40554
21
-280.74218
0
LINE
5
A9
100
AcDbEntity
8
LOGO
6
ByLayer
62
7
370
-1
100
AcDbLine
10
344.40554
20
-280.74218
11
344.65126
21
-280.62455
0
LINE
5
AA
100
AcDbEntity
8
LOGO
6
ByLayer
62
7
370
-1
100
AcDbLine
10
344.65126
20
-280.62455
11
344.92021
21
-280.55687
0
LINE
5
AB
100
AcDbEntity
8
LOGO
6
ByLayer
62
7
370
-1
100
AcDbLine
10
344.92021
20
-280.55687
11
345.19168
21
-280.54541
0
LINE
5
AC
100
AcDbEntity
8
LOGO
6
ByLayer
62
7
370
-1
100
AcDbLine
10
345.19168
20
-280.54541
11
345.46307
21
-280.58462
0
LINE
5
AD
100
AcDbEntity
8
LOGO
6
ByLayer
62
7
370
-1
100
AcDbLine
10
345.46307
20
-280.58462
11
345.72071
21
-280.6741
0
LINE
5
AE
100
AcDbEntity
8
LOGO
6
ByLayer
62
7
370
-1
100
AcDbLine
10
345.72071
20
-280.6741
11
345.7212
21
-280.6748
0
TEXT
5
AF
100
AcDbEntity
8
TITLEBLOCK
6
ByLayer
62
256
370
20
100
AcDbText
10
231
20
-230
30
0
40
2.2
1
Created by:
50
0
41
1
51
0
7
standard
71
0
210
0
220
0
230
1
100
AcDbText
0
TEXT
5
B0
100
AcDbEntity
8
TITLEBLOCK
6
ByLayer
62
256
370
20
100
AcDbText
10
231
20
-242
30
0
40
2.2
1
Supplementary information:
50
0
41
1
51
0
7
standard
71
0
210
0
220
0
230
1
100
AcDbText
0
TEXT
5
B1
100
AcDbEntity
8
TITLEBLOCK
6
ByLayer
62
256
370
20
100
AcDbText
10
291
20
-230
30
0
40
2.2
1
Title:
50
0
41
1
51
0
7
standard
71
0
210
0
220
0
230
1
100
AcDbText
0
TEXT
5
B2
100
AcDbEntity
8
TITLEBLOCK
6
ByLayer
62
256
370
20
100
AcDbText
10
351
20
-242
30
0
40
2.2
1
Size:
50
0
41
1
51
0
7
standard
71
0
210
0
220
0
230
1
100
AcDbText
0
TEXT
5
B3
100
AcDbEntity
8
TITLEBLOCK
6
ByLayer
62
256
370
20
100
AcDbText
10
371
20
-242
30
0
40
2.2
1
Sheet:
50
0
41
1
51
0
7
standard
71
0
210
0
220
0
230
1
100
AcDbText
0
TEXT
5
B4
100
AcDbEntity
8
TITLEBLOCK
6
ByLayer
62
256
370
20
100
AcDbText
10
391
20
-242
30
0
40
2.2
1
Scale:
50
0
41
1
51
0
7
standard
71
0
210
0
220
0
230
1
100
AcDbText
0
TEXT
5
B5
100
AcDbEntity
8
TITLEBLOCK
6
ByLayer
62
256
370
20
100
AcDbText
10
351
20
-254
30
0
40
2.2
1
Part number:
50
0
41
1
51
0
7
standard
71
0
210
0
220
0
230
1
100
AcDbText
0
TEXT
5
B6
100
AcDbEntity
8
TITLEBLOCK
6
ByLayer
62
256
370
20
100
AcDbText
10
351
20
-266
30
0
40
2.2
1
Drawing number:
50
0
41
1
51
0
7
standard
71
0
210
0
220
0
230
1
100
AcDbText
0
TEXT
5
B7
100
AcDbEntity
8
TITLEBLOCK
6
ByLayer
62
256
370
20
100
AcDbText
10
351
20
-278
30
0
40
2.2
1
Date:
50
0
41
1
51
0
7
standard
71
0
210
0
220
0
230
1
100
AcDbText
0
TEXT
5
B8
100
AcDbEntity
8
TITLEBLOCK
6
ByLayer
62
256
370
20
100
AcDbText
10
391
20
-278
30
0
40
2.2
1
Revision:
50
0
41
1
51
0
7
standard
71
0
210
0
220
0
230
1
100
AcDbText
0
TEXT
5
B9
100
AcDbEntity
8
TITLEBLOCK
6
ByLayer
62
256
370
35
100
AcDbText
10
260
20
-236
30
0
40
3.7
1
AUTHOR NAME
50
0
41
1
51
0
7
standard
71
0
72
1
11
260
21
-236
31
0
210
0
220
0
230
1
100
AcDbText
0
TEXT
5
BA
100
AcDbEntity
8
TITLEBLOCK
6
ByLayer
62
256
370
35
100
AcDbText
10
350
20
-236
30
0
40
3.7
1
DRAWING TITLE
50
0
41
1
51
0
7
standard
71
0
72
1
11
350
21
-236
31
0
210
0
220
0
230
1
100
AcDbText
0
TEXT
5
BB
100
AcDbEntity
8
TITLEBLOCK
6
ByLayer
62
256
370
35
100
AcDbText
10
290
20
-248
30
0
40
3.7
1

50
0
41
1
51
0
7
standard
71
0
72
1
11
290
21
-248
31
0
210
0
220
0
230
1
100
AcDbText
0
TEXT
5
BC
100
AcDbEntity
8
TITLEBLOCK
6
ByLayer
62
256
370
35
100
AcDbText
10
290
20
-255
30
0
40
3.7
1

50
0
41
1
51
0
7
standard
71
0
72
1
11
290
21
-255
31
0
210
0
220
0
230
1
100
AcDbText
0
TEXT
5
BD
100
AcDbEntity
8
TITLEBLOCK
6
ByLayer
62
256
370
35
100
AcDbText
10
290
20
-262
30
0
40
3.7
1
FreeCAD DRAWING
50
0
41
1
51
0
7
standard
71
0
72
1
11
290
21
-262
31
0
210
0
220
0
230
1
100
AcDbText
0
TEXT
5
BE
100
AcDbEntity
8
TITLEBLOCK
6
ByLayer
62
256
370
35
100
AcDbText
10
290
20
-269
30
0
40
3.7
1

50
0
41
1
51
0
7
standard
71
0
72
1
11
290
21
-269
31
0
210
0
220
0
230
1
100
AcDbText
0
TEXT
5
BF
100
AcDbEntity
8
TITLEBLOCK
6
ByLayer
62
256
370
35
100
AcDbText
10
290
20
-276
30
0
40
3.7
1

50
0
41
1
51
0
7
standard
71
0
72
1
11
290
21
-276
31
0
210
0
220
0
230
1
100
AcDbText
0
TEXT
5
C0
100
AcDbEntity
8
TITLEBLOCK
6
ByLayer
62
256
370
35
100
AcDbText
10
290
20
-283
30
0
40
3.7
1

50
0
41
1
51
0
7
standard
71
0
72
1
11
290
21
-283
31
0
210
0
220
0
230
1
100
AcDbText
0
TEXT
5
C1
100
AcDbEntity
8
TITLEBLOCK
6
ByLayer
62
256
370
35
100
AcDbText
10
380
20
-260
30
0
40
3.7
1
PN
50
0
41
1
51
0
7
standard
71
0
72
1
11
380
21
-260
31
0
210
0
220
0
230
1
100
AcDbText
0
TEXT
5
C2
100
AcDbEntity
8
TITLEBLOCK
6
ByLayer
62
256
370
35
100
AcDbText
10
380
20
-272
30
0
40
3.7
1
DN
50
0
41
1
51
0
7
standard
71
0
72
1
11
380
21
-272
31
0
210
0
220
0
230
1
100
AcDbText
0
TEXT
5
C3
100
AcDbEntity
8
TITLEBLOCK
6
ByLayer
62
256
370
35
100
AcDbText
10
360
20
-248
30
0
40
3.7
1
A3
50
0
41
1
51
0
7
standard
71
0
72
1
11
360
21
-248
31
0
210
0
220
0
230
1
100
AcDbText
0
TEXT
5
C4
100
AcDbEntity
8
TITLEBLOCK
6
ByLayer
62
256
370
35
100
AcDbText
10
380
20
-248
30
0
40
3.7
1
X / Y
50
0
41
1
51
0
7
standard
71
0
72
1
11
380
21
-248
31
0
210
0
220
0
230
1
100
AcDbText
0
TEXT
5
C5
100
AcDbEntity
8
TITLEBLOCK
6
ByLayer
62
256
370
35
100
AcDbText
10
400
20
-248
30
0
40
3.7
1
SCALE
50
0
41
1
51
0
7
standard
71
0
72
1
11
400
21
-248
31
0
210
0
220
0
230
1
100
AcDbText
0
TEXT
5
C6
100
AcDbEntity
8
TITLEBLOCK
6
ByLayer
62
256
370
35
100
AcDbText
10
370
20
-284
30
0
40
3.7
1
DD/MM/YYYY
50
0
41
1
51
0
7
standard
71
0
72
1
11
370
21
-284
31
0
210
0
220
0
230
1
100
AcDbText
0
TEXT
5
C7
100
AcDbEntity
8
TITLEBLOCK
6
ByLayer
62
256
370
35
100
AcDbText
10
400
20
-284
30
0
40
3.7
1
REV A
50
0
41
1
51
0
7
standard
71
0
72
1
11
400
21
-284
31
0
210
0
220
0
230
1
100
AcDbText
0
INSERT
5
2826
8
0
6
BYLAYER
62
256
2
Ortho1
10
214.999908447
20
-176.0
30
0
41
0.5
42
0.5
43
0.5
50
-90.0000026563
0
INSERT
5
2827
8
0
6
BYLAYER
62
256
2
Ortho0011
10
214.999908447
20
-275.25
30
0
41
0.5
42
0.5
43
0.5
50
-180.000005313
0
INSERT
5
2828
8
0
6
BYLAYER
62
256
2
Ortho0021
10
-6.25
20
-176.0
30
0
41
0.5
42
0.5
43
0.5
50
-90.0000026563
0
INSERT
5
2829
8
0
6
BYLAYER
62
256
2
Ortho0031
10
214.999908447
20
38.25
30
0
41
0.5
42
0.5
43
0.5
50
0.0
0
INSERT
5
282a
8
0
6
BYLAYER
62
256
2
Ortho0041
10
436.25
20
-176.0
30
0
41
0.5
42
0.5
43
0.5
50
90.0000026563
0
ENDSEC
0
SECTION
2
OBJECTS
0
DICTIONARY
5
C
330
0
100
AcDbDictionary
281
1
3
ACAD_GROUP
350
D
0
DICTIONARY
5
D
330
C
100
AcDbDictionary
281
1
0
ENDSEC
0
EOF
