999
dxfrw 0.5.4
0
SECTION
2
HEADER
9
$ACADVER
1
AC1021
9
$HANDSEED
5
20000
9
$DWGCODEPAGE
3
ANSI_1252
9
$INSBASE
10
0
20
0
30
0
9
$EXTMIN
10
1e+020
20
1e+020
30
1e+020
9
$EXTMAX
10
-1e+020
20
-1e+020
30
-1e+020
9
$LIMMIN
10
0
20
0
9
$LIMMAX
10
420
20
297
9
$ORTHOMODE
70
0
9
$LTSCALE
40
1
9
$TEXTSTYLE
7
STANDARD
9
$DIMASZ
40
2.5
9
$DIMEXO
40
0.625
9
$DIMEXE
40
1.25
9
$DIMTXT
40
2.5
9
$DIMTSZ
40
0
9
$DIMAUNIT
70
0
9
$DIMADEC
70
0
9
$DIMSTYLE
2
Standard
9
$DIMGAP
40
0.625
9
$DIMTIH
70
0
9
$LUNITS
70
2
9
$LUPREC
70
4
9
$AUNITS
70
0
9
$AUPREC
70
2
9
$SPLINESEGS
70
8
9
$SNAPSTYLE
70
0
9
$PINSBASE
10
0
20
0
30
0
9
$PLIMMIN
10
0
20
0
9
$PLIMMAX
10
297
20
210
9
$INSUNITS
70
0
9
$PSVPSCALE
40
0
0
ENDSEC
0
SECTION
2
CLASSES
0
ENDSEC
0
SECTION
2
TABLES
0
TABLE
2
VPORT
5
8
330
0
100
AcDbSymbolTable
70
1
0
VPORT
5
31
330
2
100
AcDbSymbolTableRecord
100
AcDbViewportTableRecord
2
*ACTIVE
70
0
10
0
20
0
11
1
21
1
12
420.761108398
22
97.2747802734
13
0
23
0
14
10
24
10
15
10
25
10
16
0
26
0
36
1
17
0
27
0
37
0
40
554.656982422
41
2.15543328748
42
50
43
0
44
0
50
0
51
0
71
0
72
100
73
1
74
3
75
0
76
1
77
0
78
0
281
0
65
1
110
0
120
0
130
0
111
1
121
0
131
0
112
0
122
1
132
0
79
0
146
0
348
10020
60
7
61
5
292
1
282
1
141
0
142
0
63
250
421
3358443
0
ENDTAB
0
TABLE
2
LTYPE
5
5
330
0
100
AcDbSymbolTable
70
4
0
LTYPE
5
14
330
5
100
AcDbSymbolTableRecord
100
AcDbLinetypeTableRecord
2
ByBlock
70
0
3

72
65
73
0
40
0
0
LTYPE
5
15
330
5
100
AcDbSymbolTableRecord
100
AcDbLinetypeTableRecord
2
ByLayer
70
0
3

72
65
73
0
40
0
0
LTYPE
5
16
330
5
100
AcDbSymbolTableRecord
100
AcDbLinetypeTableRecord
2
Continuous
70
0
3
Solid line
72
65
73
0
40
0
0
LTYPE
5
32
330
5
100
AcDbSymbolTableRecord
100
AcDbLinetypeTableRecord
2
DOT
70
0
3
Dot . . . . . . . . . . . . . . . . . . . . . .
72
65
73
2
40
6.35
49
0
74
0
49
-6.35
74
0
0
LTYPE
5
33
330
5
100
AcDbSymbolTableRecord
100
AcDbLinetypeTableRecord
2
DOT2
70
0
3
Dot (.5x) .....................................
72
65
73
2
40
3.175
49
0
74
0
49
-3.175
74
0
0
LTYPE
5
34
330
5
100
AcDbSymbolTableRecord
100
AcDbLinetypeTableRecord
2
DOTX2
70
0
3
Dot (2x) .  .  .  .  .  .  .  .  .  .  .  .  .
72
65
73
2
40
12.7
49
0
74
0
49
-12.7
74
0
0
LTYPE
5
35
330
5
100
AcDbSymbolTableRecord
100
AcDbLinetypeTableRecord
2
DASHED
70
0
3
Dot . . . . . . . . . . . . . . . . . . . . . .
72
65
73
2
40
19.05
49
12.7
74
0
49
-6.35
74
0
0
LTYPE
5
36
330
5
100
AcDbSymbolTableRecord
100
AcDbLinetypeTableRecord
2
DASHED2
70
0
3
Dashed (.5x) _ _ _ _ _ _ _ _ _ _ _ _ _ _ _ _ _
72
65
73
2
40
9.525
49
6.35
74
0
49
-3.175
74
0
0
LTYPE
5
37
330
5
100
AcDbSymbolTableRecord
100
AcDbLinetypeTableRecord
2
DASHEDX2
70
0
3
Dashed (2x) ____  ____  ____  ____  ____  ___
72
65
73
2
40
38.1
49
25.4
74
0
49
-12.7
74
0
0
LTYPE
5
38
330
5
100
AcDbSymbolTableRecord
100
AcDbLinetypeTableRecord
2
DASHDOT
70
0
3
Dash dot __ . __ . __ . __ . __ . __ . __ . __
72
65
73
4
40
25.4
49
12.7
74
0
49
-6.35
74
0
49
0
74
0
49
-6.35
74
0
0
LTYPE
5
39
330
5
100
AcDbSymbolTableRecord
100
AcDbLinetypeTableRecord
2
DASHDOT2
70
0
3
Dash dot (.5x) _._._._._._._._._._._._._._._.
72
65
73
4
40
12.7
49
6.35
74
0
49
-3.175
74
0
49
0
74
0
49
-3.175
74
0
0
LTYPE
5
3A
330
5
100
AcDbSymbolTableRecord
100
AcDbLinetypeTableRecord
2
DASHDOTX2
70
0
3
Dash dot (2x) ____  .  ____  .  ____  .  ___
72
65
73
4
40
50.8
49
25.4
74
0
49
-12.7
74
0
49
0
74
0
49
-12.7
74
0
0
LTYPE
5
3B
330
5
100
AcDbSymbolTableRecord
100
AcDbLinetypeTableRecord
2
DIVIDE
70
0
3
Divide ____ . . ____ . . ____ . . ____ . . ____
72
65
73
6
40
31.75
49
12.7
74
0
49
-6.35
74
0
49
0
74
0
49
-6.35
74
0
49
0
74
0
49
-6.35
74
0
0
LTYPE
5
3C
330
5
100
AcDbSymbolTableRecord
100
AcDbLinetypeTableRecord
2
DIVIDE2
70
0
3
Divide (.5x) __..__..__..__..__..__..__..__.._
72
65
73
6
40
15.875
49
6.35
74
0
49
-3.175
74
0
49
0
74
0
49
-3.175
74
0
49
0
74
0
49
-3.175
74
0
0
LTYPE
5
3D
330
5
100
AcDbSymbolTableRecord
100
AcDbLinetypeTableRecord
2
DIVIDEX2
70
0
3
Divide (2x) ________  .  .  ________  .  .  _
72
65
73
6
40
63.5
49
25.4
74
0
49
-12.7
74
0
49
0
74
0
49
-12.7
74
0
49
0
74
0
49
-12.7
74
0
0
LTYPE
5
3E
330
5
100
AcDbSymbolTableRecord
100
AcDbLinetypeTableRecord
2
BORDER
70
0
3
Border __ __ . __ __ . __ __ . __ __ . __ __ .
72
65
73
6
40
44.45
49
12.7
74
0
49
-6.35
74
0
49
12.7
74
0
49
-6.35
74
0
49
0
74
0
49
-6.35
74
0
0
LTYPE
5
3F
330
5
100
AcDbSymbolTableRecord
100
AcDbLinetypeTableRecord
2
BORDER2
70
0
3
Border (.5x) __.__.__.__.__.__.__.__.__.__.__.
72
65
73
6
40
22.225
49
6.35
74
0
49
-3.175
74
0
49
6.35
74
0
49
-3.175
74
0
49
0
74
0
49
-3.175
74
0
0
LTYPE
5
40
330
5
100
AcDbSymbolTableRecord
100
AcDbLinetypeTableRecord
2
BORDERX2
70
0
3
Border (2x) ____  ____  .  ____  ____  .  ___
72
65
73
6
40
88.9
49
25.4
74
0
49
-12.7
74
0
49
25.4
74
0
49
-12.7
74
0
49
0
74
0
49
-12.7
74
0
0
LTYPE
5
41
330
5
100
AcDbSymbolTableRecord
100
AcDbLinetypeTableRecord
2
CENTER
70
0
3
Center ____ _ ____ _ ____ _ ____ _ ____ _ ____
72
65
73
4
40
50.8
49
31.75
74
0
49
-6.35
74
0
49
6.35
74
0
49
-6.35
74
0
0
LTYPE
5
42
330
5
100
AcDbSymbolTableRecord
100
AcDbLinetypeTableRecord
2
CENTER2
70
0
3
Center (.5x) ___ _ ___ _ ___ _ ___ _ ___ _ ___
72
65
73
4
40
28.575
49
19.05
74
0
49
-3.175
74
0
49
3.175
74
0
49
-3.175
74
0
0
LTYPE
5
43
330
5
100
AcDbSymbolTableRecord
100
AcDbLinetypeTableRecord
2
CENTERX2
70
0
3
Center (2x) ________  __  ________  __  _____
72
65
73
4
40
101.6
49
63.5
74
0
49
-12.7
74
0
49
12.7
74
0
49
-12.7
74
0
0
ENDTAB
0
TABLE
2
LAYER
5
2
330
0
100
AcDbSymbolTable
70
1
0
LAYER
5
10
330
2
100
AcDbSymbolTableRecord
100
AcDbLayerTableRecord
2
0
70
0
62
7
6
CONTINUOUS
370
0
390
F
0
ENDTAB
0
TABLE
2
STYLE
5
3
330
0
100
AcDbSymbolTable
70
3
0
STYLE
5
44
330
2
100
AcDbSymbolTableRecord
100
AcDbTextStyleTableRecord
2
Standard
70
0
40
0
41
1
50
0
71
0
42
1
3
txt
4

0
ENDTAB
0
TABLE
2
VIEW
5
6
330
0
100
AcDbSymbolTable
70
0
0
ENDTAB
0
TABLE
2
UCS
5
7
330
0
100
AcDbSymbolTable
70
0
0
ENDTAB
0
TABLE
2
APPID
5
9
330
0
100
AcDbSymbolTable
70
1
0
APPID
5
12
330
9
100
AcDbSymbolTableRecord
100
AcDbRegAppTableRecord
2
ACAD
70
0
0
ENDTAB
0
TABLE
2
DIMSTYLE
5
A
330
0
100
AcDbSymbolTable
70
1
100
AcDbDimStyleTable
71
1
0
DIMSTYLE
105
45
330
A
100
AcDbSymbolTableRecord
100
AcDbDimStyleTableRecord
2
Standard
70
0
40
1
41
2.5
42
0.625
43
0.38
44
1.25
45
0
46
0
47
0
48
0
140
2.5
141
0.09
142
0
143
25.4
144
1
145
0
146
1
147
0.625
148
0
71
0
72
0
73
0
74
1
75
0
76
0
77
0
78
0
79
0
170
0
171
2
172
0
173
0
174
0
175
0
176
0
177
0
178
0
179
0
271
4
272
4
273
2
274
2
275
0
276
0
277
2
278
46
279
0
280
0
281
0
282
0
283
1
284
0
285
0
286
0
288
0
289
3
340
Standard
341

371
-2
372
-2
0
ENDTAB
0
TABLE
2
BLOCK_RECORD
5
1
330
0
100
AcDbSymbolTable
70
2
0
BLOCK_RECORD
5
1F
330
1
100
AcDbSymbolTableRecord
100
AcDbBlockTableRecord
2
*Model_Space
70
0
280
1
281
0
0
BLOCK_RECORD
5
1E
330
1
100
AcDbSymbolTableRecord
100
AcDbBlockTableRecord
2
*Paper_Space
70
0
280
1
281
0
0
BLOCK_RECORD
5
46
330
1
100
AcDbSymbolTableRecord
100
AcDbBlockTableRecord
2
Ortho1
70
0
280
1
281
0
0
BLOCK_RECORD
5
49
330
1
100
AcDbSymbolTableRecord
100
AcDbBlockTableRecord
2
Ortho0011
70
0
280
1
281
0
0
BLOCK_RECORD
5
4C
330
1
100
AcDbSymbolTableRecord
100
AcDbBlockTableRecord
2
Ortho0021
70
0
280
1
281
0
0
BLOCK_RECORD
5
4F
330
1
100
AcDbSymbolTableRecord
100
AcDbBlockTableRecord
2
Ortho0031
70
0
280
1
281
0
0
BLOCK_RECORD
5
52
330
1
100
AcDbSymbolTableRecord
100
AcDbBlockTableRecord
2
Ortho0041
70
0
280
1
281
0
0
ENDTAB
0
ENDSEC
0
SECTION
2
BLOCKS
0
BLOCK
5
20
330
1F
100
AcDbEntity
8
0
100
AcDbBlockBegin
2
*Model_Space
70
0
10
0
20
0
30
0
3
*Model_Space
1

0
ENDBLK
5
21
330
1F
100
AcDbEntity
8
0
100
AcDbBlockEnd
0
BLOCK
5
1C
330
1B
100
AcDbEntity
8
0
100
AcDbBlockBegin
2
*Paper_Space
70
0
10
0
20
0
30
0
3
*Paper_Space
1

0
ENDBLK
5
1D
330
1F
100
AcDbEntity
8
0
100
AcDbBlockEnd
0
BLOCK
5
47
330
46
100
AcDbEntity
8
0
100
AcDbBlockBegin
2
Ortho1
70
0
10
0
20
0
3
Ortho1
1

0
LINE
5
55
100
AcDbEntity
8
0
6
ByBlock
62
0
370
-1
100
AcDbLine
10
-200
20
-140
11
200
21
-140
0
LINE
5
56
100
AcDbEntity
8
0
6
ByBlock
62
0
370
-1
100
AcDbLine
10
-200
20
160
11
-200
21
-140
0
SPLINE
5
57
100
AcDbEntity
8
0
6
ByBlock
62
0
370
-1
100
AcDbSpline
210
0
220
0
230
1
70
8
71
1
72
17
73
15
74
0
42
1e-007
43
1e-007
40
0
40
0
40
0.0714285714286
40
0.142857142857
40
0.214285714286
40
0.285714285714
40
0.357142857143
40
0.428571428571
40
0.5
40
0.571428571429
40
0.642857142857
40
0.714285714286
40
0.785714285714
40
0.857142857143
40
0.928571428571
40
1
40
1
10
-200
20
116.7
30
0
10
-200
20
116.657
30
0
10
-200
20
116.532
30
0
10
-200
20
116.329
30
0
10
-200
20
116.06
30
0
10
-200
20
115.738
30
0
10
-200
20
115.378
30
0
10
-200
20
115
30
0
10
-200
20
114.622
30
0
10
-200
20
114.262
30
0
10
-200
20
113.94
30
0
10
-200
20
113.671
30
0
10
-200
20
113.468
30
0
10
-200
20
113.343
30
0
10
-200
20
113.3
30
0
0
SPLINE
5
58
100
AcDbEntity
8
0
6
ByBlock
62
0
370
-1
100
AcDbSpline
210
0
220
0
230
1
70
8
71
1
72
17
73
15
74
0
42
1e-007
43
1e-007
40
0
40
0
40
0.0714285714286
40
0.142857142857
40
0.214285714286
40
0.285714285714
40
0.357142857143
40
0.428571428571
40
0.5
40
0.571428571429
40
0.642857142857
40
0.714285714286
40
0.785714285714
40
0.857142857143
40
0.928571428571
40
1
40
1
10
-200
20
11.7
30
0
10
-200
20
11.6574
30
0
10
-200
20
11.5316
30
0
10
-200
20
11.3291
30
0
10
-200
20
11.0599
30
0
10
-200
20
10.7376
30
0
10
-200
20
10.3783
30
0
10
-200
20
10
30
0
10
-200
20
9.62171
30
0
10
-200
20
9.2624
30
0
10
-200
20
8.94007
30
0
10
-200
20
8.67089
30
0
10
-200
20
8.46835
30
0
10
-200
20
8.34262
30
0
10
-200
20
8.3
30
0
0
SPLINE
5
59
100
AcDbEntity
8
0
6
ByBlock
62
0
370
-1
100
AcDbSpline
210
0
220
0
230
1
70
8
71
1
72
17
73
15
74
0
42
1e-007
43
1e-007
40
0
40
0
40
0.0714285714286
40
0.142857142857
40
0.214285714286
40
0.285714285714
40
0.357142857143
40
0.428571428571
40
0.5
40
0.571428571429
40
0.642857142857
40
0.714285714286
40
0.785714285714
40
0.857142857143
40
0.928571428571
40
1
40
1
10
-200
20
-93.3
30
0
10
-200
20
-93.3426
30
0
10
-200
20
-93.4684
30
0
10
-200
20
-93.6709
30
0
10
-200
20
-93.9401
30
0
10
-200
20
-94.2624
30
0
10
-200
20
-94.6217
30
0
10
-200
20
-95
30
0
10
-200
20
-95.3783
30
0
10
-200
20
-95.7376
30
0
10
-200
20
-96.0599
30
0
10
-200
20
-96.3291
30
0
10
-200
20
-96.5316
30
0
10
-200
20
-96.6574
30
0
10
-200
20
-96.7
30
0
0
LINE
5
5A
100
AcDbEntity
8
0
6
ByBlock
62
0
370
-1
100
AcDbLine
10
200
20
-140
11
200
21
160
0
LINE
5
5B
100
AcDbEntity
8
0
6
ByBlock
62
0
370
-1
100
AcDbLine
10
200
20
160
11
-200
21
160
0
CIRCLE
5
5C
100
AcDbEntity
8
0
6
ByBlock
62
0
370
-1
100
AcDbCircle
10
-155
20
-66
40
5
0
CIRCLE
5
5D
100
AcDbEntity
8
0
6
ByBlock
62
0
370
-1
100
AcDbCircle
10
155
20
-66
40
5
0
ENDBLK
5
48
330
46
100
AcDbEntity
8
0
100
AcDbBlockEnd
0
BLOCK
5
4A
330
49
100
AcDbEntity
8
0
100
AcDbBlockBegin
2
Ortho0011
70
0
10
0
20
0
3
Ortho0011
1

0
LINE
5
5E
100
AcDbEntity
8
0
6
ByBlock
62
0
370
-1
100
AcDbLine
10
-10
20
-200
11
1.95399e-014
21
-200
0
SPLINE
5
5F
100
AcDbEntity
8
0
6
ByBlock
62
0
370
-1
100
AcDbSpline
210
0
220
0
230
1
70
8
71
1
72
17
73
15
74
0
42
1e-007
43
1e-007
40
0
40
0
40
0.0714285714286
40
0.142857142857
40
0.214285714286
40
0.285714285714
40
0.357142857143
40
0.428571428571
40
0.5
40
0.571428571429
40
0.642857142857
40
0.714285714286
40
0.785714285714
40
0.857142857143
40
0.928571428571
40
1
40
1
10
-6.7
20
-200
30
0
10
-6.65738
20
-200
30
0
10
-6.53165
20
-200
30
0
10
-6.32911
20
-200
30
0
10
-6.05993
20
-200
30
0
10
-5.7376
20
-200
30
0
10
-5.37829
20
-200
30
0
10
-5
20
-200
30
0
10
-4.62171
20
-200
30
0
10
-4.2624
20
-200
30
0
10
-3.94007
20
-200
30
0
10
-3.67089
20
-200
30
0
10
-3.46835
20
-200
30
0
10
-3.34262
20
-200
30
0
10
-3.3
20
-200
30
0
0
LINE
5
60
100
AcDbEntity
8
0
6
ByBlock
62
0
370
-1
100
AcDbLine
10
-10
20
200
11
-10
21
-200
0
SPLINE
5
61
100
AcDbEntity
8
0
6
ByBlock
62
0
370
-1
100
AcDbSpline
210
0
220
0
230
1
70
8
71
1
72
17
73
15
74
0
42
1e-007
43
1e-007
40
0
40
0
40
0.0714285714286
40
0.142857142857
40
0.214285714286
40
0.285714285714
40
0.357142857143
40
0.428571428571
40
0.5
40
0.571428571429
40
0.642857142857
40
0.714285714286
40
0.785714285714
40
0.857142857143
40
0.928571428571
40
1
40
1
10
-10
20
-150
30
0
10
-10
20
-150.125
30
0
10
-10
20
-150.495
30
0
10
-10
20
-151.091
30
0
10
-10
20
-151.883
30
0
10
-10
20
-152.831
30
0
10
-10
20
-153.887
30
0
10
-10
20
-155
30
0
10
-10
20
-156.113
30
0
10
-10
20
-157.169
30
0
10
-10
20
-158.117
30
0
10
-10
20
-158.909
30
0
10
-10
20
-159.505
30
0
10
-10
20
-159.875
30
0
10
-10
20
-160
30
0
0
SPLINE
5
62
100
AcDbEntity
8
0
6
ByBlock
62
0
370
-1
100
AcDbSpline
210
0
220
0
230
1
70
8
71
1
72
17
73
15
74
0
42
1e-007
43
1e-007
40
0
40
0
40
0.0714285714286
40
0.142857142857
40
0.214285714286
40
0.285714285714
40
0.357142857143
40
0.428571428571
40
0.5
40
0.571428571429
40
0.642857142857
40
0.714285714286
40
0.785714285714
40
0.857142857143
40
0.928571428571
40
1
40
1
10
-10
20
160
30
0
10
-10
20
159.875
30
0
10
-10
20
159.505
30
0
10
-10
20
158.909
30
0
10
-10
20
158.117
30
0
10
-10
20
157.169
30
0
10
-10
20
156.113
30
0
10
-10
20
155
30
0
10
-10
20
153.887
30
0
10
-10
20
152.831
30
0
10
-10
20
151.883
30
0
10
-10
20
151.091
30
0
10
-10
20
150.495
30
0
10
-10
20
150.125
30
0
10
-10
20
150
30
0
0
LINE
5
63
100
AcDbEntity
8
0
6
ByBlock
62
0
370
-1
100
AcDbLine
10
1.95943e-014
20
200
11
1.95943e-014
21
-200
0
LINE
5
64
100
AcDbEntity
8
0
6
ByBlock
62
0
370
-1
100
AcDbLine
10
-10
20
200
11
1.95399e-014
21
200
0
CIRCLE
5
65
100
AcDbEntity
8
0
6
ByBlock
62
0
370
-1
100
AcDbCircle
10
-5
20
150
40
1.7
0
CIRCLE
5
66
100
AcDbEntity
8
0
6
ByBlock
62
0
370
-1
100
AcDbCircle
10
-5
20
-150
40
1.7
0
CIRCLE
5
67
100
AcDbEntity
8
0
6
ByBlock
62
0
370
-1
100
AcDbCircle
10
-5
20
0
40
1.7
0
CIRCLE
5
68
100
AcDbEntity
8
0
6
ByBlock
62
0
370
-1
100
AcDbCircle
10
-5
20
0
40
1.7
0
ENDBLK
5
4B
330
49
100
AcDbEntity
8
0
100
AcDbBlockEnd
0
BLOCK
5
4D
330
4C
100
AcDbEntity
8
0
100
AcDbBlockBegin
2
Ortho0021
70
0
10
0
20
0
3
Ortho0021
1

0
LINE
5
69
100
AcDbEntity
8
0
6
ByBlock
62
0
370
-1
100
AcDbLine
10
10
20
140
11
1.77636e-014
21
140
0
SPLINE
5
6A
100
AcDbEntity
8
0
6
ByBlock
62
0
370
-1
100
AcDbSpline
210
0
220
0
230
1
70
8
71
1
72
17
73
15
74
0
42
1e-007
43
1e-007
40
0
40
0
40
0.0714285714286
40
0.142857142857
40
0.214285714286
40
0.285714285714
40
0.357142857143
40
0.428571428571
40
0.5
40
0.571428571429
40
0.642857142857
40
0.714285714286
40
0.785714285714
40
0.857142857143
40
0.928571428571
40
1
40
1
10
6.7
20
140
30
0
10
6.65738
20
140
30
0
10
6.53165
20
140
30
0
10
6.32911
20
140
30
0
10
6.05993
20
140
30
0
10
5.7376
20
140
30
0
10
5.37829
20
140
30
0
10
5
20
140
30
0
10
4.62171
20
140
30
0
10
4.2624
20
140
30
0
10
3.94007
20
140
30
0
10
3.67089
20
140
30
0
10
3.46835
20
140
30
0
10
3.34262
20
140
30
0
10
3.3
20
140
30
0
0
LINE
5
6B
100
AcDbEntity
8
0
6
ByBlock
62
0
370
-1
100
AcDbLine
10
10
20
-160
11
-1.95399e-014
21
-160
0
LINE
5
6C
100
AcDbEntity
8
0
6
ByBlock
62
0
370
-1
100
AcDbLine
10
10
20
-160
11
10
21
140
0
LINE
5
6D
100
AcDbEntity
8
0
6
ByBlock
62
0
370
-1
100
AcDbLine
10
-1.95943e-014
20
-160
11
1.71451e-014
21
140
0
CIRCLE
5
6E
100
AcDbEntity
8
0
6
ByBlock
62
0
370
-1
100
AcDbCircle
10
5
20
-115
40
1.7
0
CIRCLE
5
6F
100
AcDbEntity
8
0
6
ByBlock
62
0
370
-1
100
AcDbCircle
10
5
20
-10
40
1.7
0
CIRCLE
5
70
100
AcDbEntity
8
0
6
ByBlock
62
0
370
-1
100
AcDbCircle
10
5
20
95
40
1.7
0
SPLINE
5
71
100
AcDbEntity
8
0
6
ByBlock
62
0
370
-1
100
AcDbSpline
210
0
220
0
230
1
70
8
71
1
72
17
73
15
74
0
42
1e-007
43
1e-007
40
0
40
0
40
0.0714285714286
40
0.142857142857
40
0.214285714286
40
0.285714285714
40
0.357142857143
40
0.428571428571
40
0.5
40
0.571428571429
40
0.642857142857
40
0.714285714286
40
0.785714285714
40
0.857142857143
40
0.928571428571
40
1
40
1
10
7.10543e-015
20
61
30
0
10
7.10543e-015
20
61.1254
30
0
10
7.10543e-015
20
61.4952
30
0
10
7.10543e-015
20
62.0908
30
0
10
7.10543e-015
20
62.8826
30
0
10
7.10543e-015
20
63.8306
30
0
10
7.10543e-015
20
64.8874
30
0
10
7.10543e-015
20
66
30
0
10
7.10543e-015
20
67.1126
30
0
10
7.10543e-015
20
68.1694
30
0
10
7.10543e-015
20
69.1174
30
0
10
7.10543e-015
20
69.9092
30
0
10
7.10543e-015
20
70.5048
30
0
10
7.10543e-015
20
70.8746
30
0
10
7.10543e-015
20
71
30
0
0
SPLINE
5
72
100
AcDbEntity
8
0
6
ByBlock
62
0
370
-1
100
AcDbSpline
210
0
220
0
230
1
70
8
71
1
72
17
73
15
74
0
42
1e-007
43
1e-007
40
0
40
0
40
0.0714285714286
40
0.142857142857
40
0.214285714286
40
0.285714285714
40
0.357142857143
40
0.428571428571
40
0.5
40
0.571428571429
40
0.642857142857
40
0.714285714286
40
0.785714285714
40
0.857142857143
40
0.928571428571
40
1
40
1
10
6.7
20
-160
30
0
10
6.65738
20
-160
30
0
10
6.53165
20
-160
30
0
10
6.32911
20
-160
30
0
10
6.05993
20
-160
30
0
10
5.7376
20
-160
30
0
10
5.37829
20
-160
30
0
10
5
20
-160
30
0
10
4.62171
20
-160
30
0
10
4.2624
20
-160
30
0
10
3.94007
20
-160
30
0
10
3.67089
20
-160
30
0
10
3.46835
20
-160
30
0
10
3.34262
20
-160
30
0
10
3.3
20
-160
30
0
0
ENDBLK
5
4E
330
4C
100
AcDbEntity
8
0
100
AcDbBlockEnd
0
BLOCK
5
50
330
4F
100
AcDbEntity
8
0
100
AcDbBlockBegin
2
Ortho0031
70
0
10
0
20
0
3
Ortho0031
1

0
LINE
5
73
100
AcDbEntity
8
0
6
ByBlock
62
0
370
-1
100
AcDbLine
10
10
20
-200
11
1.77636e-014
21
-200
0
LINE
5
74
100
AcDbEntity
8
0
6
ByBlock
62
0
370
-1
100
AcDbLine
10
10
20
-200
11
10
21
200
0
LINE
5
75
100
AcDbEntity
8
0
6
ByBlock
62
0
370
-1
100
AcDbLine
10
1.71451e-014
20
-200
11
1.71451e-014
21
200
0
LINE
5
76
100
AcDbEntity
8
0
6
ByBlock
62
0
370
-1
100
AcDbLine
10
10
20
200
11
1.77636e-014
21
200
0
CIRCLE
5
77
100
AcDbEntity
8
0
6
ByBlock
62
0
370
-1
100
AcDbCircle
10
5
20
0
40
1.7
0
CIRCLE
5
78
100
AcDbEntity
8
0
6
ByBlock
62
0
370
-1
100
AcDbCircle
10
5
20
-150
40
1.7
0
CIRCLE
5
79
100
AcDbEntity
8
0
6
ByBlock
62
0
370
-1
100
AcDbCircle
10
5
20
150
40
1.7
0
SPLINE
5
7A
100
AcDbEntity
8
0
6
ByBlock
62
0
370
-1
100
AcDbSpline
210
0
220
0
230
1
70
8
71
1
72
17
73
15
74
0
42
1e-007
43
1e-007
40
0
40
0
40
0.0714285714286
40
0.142857142857
40
0.214285714286
40
0.285714285714
40
0.357142857143
40
0.428571428571
40
0.5
40
0.571428571429
40
0.642857142857
40
0.714285714286
40
0.785714285714
40
0.857142857143
40
0.928571428571
40
1
40
1
10
7.10543e-015
20
-160
30
0
10
7.10543e-015
20
-159.875
30
0
10
7.10543e-015
20
-159.505
30
0
10
7.10543e-015
20
-158.909
30
0
10
7.10543e-015
20
-158.117
30
0
10
7.10543e-015
20
-157.169
30
0
10
7.10543e-015
20
-156.113
30
0
10
7.10543e-015
20
-155
30
0
10
7.10543e-015
20
-153.887
30
0
10
7.10543e-015
20
-152.831
30
0
10
7.10543e-015
20
-151.883
30
0
10
7.10543e-015
20
-151.091
30
0
10
7.10543e-015
20
-150.495
30
0
10
7.10543e-015
20
-150.125
30
0
10
7.10543e-015
20
-150
30
0
0
SPLINE
5
7B
100
AcDbEntity
8
0
6
ByBlock
62
0
370
-1
100
AcDbSpline
210
0
220
0
230
1
70
8
71
1
72
17
73
15
74
0
42
1e-007
43
1e-007
40
0
40
0
40
0.0714285714286
40
0.142857142857
40
0.214285714286
40
0.285714285714
40
0.357142857143
40
0.428571428571
40
0.5
40
0.571428571429
40
0.642857142857
40
0.714285714286
40
0.785714285714
40
0.857142857143
40
0.928571428571
40
1
40
1
10
7.10543e-015
20
150
30
0
10
7.10543e-015
20
150.125
30
0
10
7.10543e-015
20
150.495
30
0
10
7.10543e-015
20
151.091
30
0
10
7.10543e-015
20
151.883
30
0
10
7.10543e-015
20
152.831
30
0
10
7.10543e-015
20
153.887
30
0
10
7.10543e-015
20
155
30
0
10
7.10543e-015
20
156.113
30
0
10
7.10543e-015
20
157.169
30
0
10
7.10543e-015
20
158.117
30
0
10
7.10543e-015
20
158.909
30
0
10
7.10543e-015
20
159.505
30
0
10
7.10543e-015
20
159.875
30
0
10
7.10543e-015
20
160
30
0
0
SPLINE
5
7C
100
AcDbEntity
8
0
6
ByBlock
62
0
370
-1
100
AcDbSpline
210
0
220
0
230
1
70
8
71
1
72
17
73
15
74
0
42
1e-007
43
1e-007
40
0
40
0
40
0.0714285714286
40
0.142857142857
40
0.214285714286
40
0.285714285714
40
0.357142857143
40
0.428571428571
40
0.5
40
0.571428571429
40
0.642857142857
40
0.714285714286
40
0.785714285714
40
0.857142857143
40
0.928571428571
40
1
40
1
10
3.3
20
200
30
0
10
3.34262
20
200
30
0
10
3.46835
20
200
30
0
10
3.67089
20
200
30
0
10
3.94007
20
200
30
0
10
4.2624
20
200
30
0
10
4.62171
20
200
30
0
10
5
20
200
30
0
10
5.37829
20
200
30
0
10
5.7376
20
200
30
0
10
6.05993
20
200
30
0
10
6.32911
20
200
30
0
10
6.53165
20
200
30
0
10
6.65738
20
200
30
0
10
6.7
20
200
30
0
0
CIRCLE
5
7D
100
AcDbEntity
8
0
6
ByBlock
62
0
370
-1
100
AcDbCircle
10
5
20
-150
40
1.7
0
ENDBLK
5
51
330
4F
100
AcDbEntity
8
0
100
AcDbBlockEnd
0
BLOCK
5
53
330
52
100
AcDbEntity
8
0
100
AcDbBlockBegin
2
Ortho0041
70
0
10
0
20
0
3
Ortho0041
1

0
LINE
5
7E
100
AcDbEntity
8
0
6
ByBlock
62
0
370
-1
100
AcDbLine
10
-10
20
140
11
-1.77636e-014
21
140
0
LINE
5
7F
100
AcDbEntity
8
0
6
ByBlock
62
0
370
-1
100
AcDbLine
10
-10
20
140
11
-10
21
-160
0
LINE
5
80
100
AcDbEntity
8
0
6
ByBlock
62
0
370
-1
100
AcDbLine
10
-1.71451e-014
20
140
11
1.95943e-014
21
-160
0
SPLINE
5
81
100
AcDbEntity
8
0
6
ByBlock
62
0
370
-1
100
AcDbSpline
210
0
220
0
230
1
70
8
71
1
72
17
73
15
74
0
42
1e-007
43
1e-007
40
0
40
0
40
0.0714285714286
40
0.142857142857
40
0.214285714286
40
0.285714285714
40
0.357142857143
40
0.428571428571
40
0.5
40
0.571428571429
40
0.642857142857
40
0.714285714286
40
0.785714285714
40
0.857142857143
40
0.928571428571
40
1
40
1
10
-7.10543e-015
20
71
30
0
10
-7.10543e-015
20
70.9686
30
0
10
-7.10543e-015
20
70.8746
30
0
10
-7.10543e-015
20
70.7194
30
0
10
-7.10543e-015
20
70.5048
30
0
10
-7.10543e-015
20
70.2336
30
0
10
-7.10543e-015
20
69.9092
30
0
10
-7.10543e-015
20
69.5355
30
0
10
-7.10543e-015
20
69.1174
30
0
10
-7.10543e-015
20
68.6602
30
0
10
-7.10543e-015
20
68.1694
30
0
10
-7.10543e-015
20
67.6514
30
0
10
-7.10543e-015
20
67.1126
30
0
10
-7.10543e-015
20
66.5598
30
0
10
-7.10543e-015
20
66
30
0
0
LINE
5
82
100
AcDbEntity
8
0
6
ByBlock
62
0
370
-1
100
AcDbLine
10
-10
20
-160
11
1.95399e-014
21
-160
0
CIRCLE
5
83
100
AcDbEntity
8
0
6
ByBlock
62
0
370
-1
100
AcDbCircle
10
-5
20
-10
40
1.7
0
CIRCLE
5
84
100
AcDbEntity
8
0
6
ByBlock
62
0
370
-1
100
AcDbCircle
10
-5
20
-115
40
1.7
0
CIRCLE
5
85
100
AcDbEntity
8
0
6
ByBlock
62
0
370
-1
100
AcDbCircle
10
-5
20
95
40
1.7
0
SPLINE
5
86
100
AcDbEntity
8
0
6
ByBlock
62
0
370
-1
100
AcDbSpline
210
0
220
0
230
1
70
8
71
1
72
17
73
15
74
0
42
1e-007
43
1e-007
40
0
40
0
40
0.0714285714286
40
0.142857142857
40
0.214285714286
40
0.285714285714
40
0.357142857143
40
0.428571428571
40
0.5
40
0.571428571429
40
0.642857142857
40
0.714285714286
40
0.785714285714
40
0.857142857143
40
0.928571428571
40
1
40
1
10
-5
20
-160
30
0
10
-5.19034
20
-160
30
0
10
-5.37829
20
-160
30
0
10
-5.56147
20
-160
30
0
10
-5.7376
20
-160
30
0
10
-5.90445
20
-160
30
0
10
-6.05993
20
-160
30
0
10
-6.20208
20
-160
30
0
10
-6.32911
20
-160
30
0
10
-6.43943
20
-160
30
0
10
-6.53165
20
-160
30
0
10
-6.6046
20
-160
30
0
10
-6.65738
20
-160
30
0
10
-6.68931
20
-160
30
0
10
-6.7
20
-160
30
0
0
SPLINE
5
87
100
AcDbEntity
8
0
6
ByBlock
62
0
370
-1
100
AcDbSpline
210
0
220
0
230
1
70
8
71
1
72
17
73
15
74
0
42
1e-007
43
1e-007
40
0
40
0
40
0.0714285714286
40
0.142857142857
40
0.214285714286
40
0.285714285714
40
0.357142857143
40
0.428571428571
40
0.5
40
0.571428571429
40
0.642857142857
40
0.714285714286
40
0.785714285714
40
0.857142857143
40
0.928571428571
40
1
40
1
10
-3.3
20
-160
30
0
10
-3.31069
20
-160
30
0
10
-3.34262
20
-160
30
0
10
-3.3954
20
-160
30
0
10
-3.46835
20
-160
30
0
10
-3.56057
20
-160
30
0
10
-3.67089
20
-160
30
0
10
-3.79792
20
-160
30
0
10
-3.94007
20
-160
30
0
10
-4.09555
20
-160
30
0
10
-4.2624
20
-160
30
0
10
-4.43853
20
-160
30
0
10
-4.62171
20
-160
30
0
10
-4.80966
20
-160
30
0
10
-5
20
-160
30
0
0
ENDBLK
5
54
330
52
100
AcDbEntity
8
0
100
AcDbBlockEnd
0
ENDSEC
0
SECTION
2
ENTITIES
0
INSERT
5
88
100
AcDbEntity
8
0
6
ByLayer
62
256
370
-1
100
AcDbBlockReference
2
Ortho1
10
210
20
-122.25
30
0
41
0.375
42
0.375
43
0
50
0
70
1
71
1
44
0
45
0
0
INSERT
5
89
100
AcDbEntity
8
0
6
ByLayer
62
256
370
-1
100
AcDbBlockReference
2
Ortho0011
10
210
20
-38
30
0
41
0.375
42
0.375
43
0
50
-90.0000026563
70
1
71
1
44
0
45
0
0
INSERT
5
8A
100
AcDbEntity
8
0
6
ByLayer
62
256
370
-1
100
AcDbBlockReference
2
Ortho0021
10
74.375
20
-122.25
30
0
41
0.375
42
0.375
43
0
50
-180.000005313
70
1
71
1
44
0
45
0
0
INSERT
5
8B
100
AcDbEntity
8
0
6
ByLayer
62
256
370
-1
100
AcDbBlockReference
2
Ortho0031
10
210
20
-199
30
0
41
0.375
42
0.375
43
0
50
-90.0000026563
70
1
71
1
44
0
45
0
0
INSERT
5
8C
100
AcDbEntity
8
0
6
ByLayer
62
256
370
-1
100
AcDbBlockReference
2
Ortho0041
10
345.625
20
-122.25
30
0
41
0.375
42
0.375
43
0
50
-180.000005313
70
1
71
1
44
0
45
0
0
ENDSEC
0
SECTION
2
OBJECTS
0
DICTIONARY
5
C
330
0
100
AcDbDictionary
281
1
3
ACAD_GROUP
350
D
0
DICTIONARY
5
D
330
C
100
AcDbDictionary
281
1
0
ENDSEC
0
EOF
