999
dxfrw 0.5.4
0
SECTION
2
HEADER
9
$ACADVER
1
AC1021
9
$HANDSEED
5
20000
9
$DWGCODEPAGE
3
ANSI_1250
9
$INSBASE
10
0
20
0
30
0
9
$EXTMIN
10
0
20
-297
30
0
9
$EXTMAX
10
420
20
0
30
0
9
$LIMMIN
10
0
20
0
9
$LIMMAX
10
420
20
297
9
$ORTHOMODE
70
0
9
$LTSCALE
40
1
9
$TEXTSTYLE
7
STANDARD
9
$DIMASZ
40
3.5
9
$DIMEXO
40
0
9
$DIMEXE
40
2
9
$DIMTXT
40
3.5
9
$DIMTSZ
40
0
9
$DIMAUNIT
70
0
9
$DIMADEC
70
2
9
$DIMSTYLE
2
STANDARD
9
$DIMGAP
40
1
9
$DIMTIH
70
0
9
$LUNITS
70
2
9
$LUPREC
70
2
9
$AUNITS
70
0
9
$AUPREC
70
2
9
$SPLINESEGS
70
8
9
$GRIDMODE
70
0
9
$SNAPSTYLE
70
0
9
$GRIDUNIT
10
0
20
0
9
$PINSBASE
10
0
20
297
30
0
9
$PLIMMIN
10
0
20
0
9
$PLIMMAX
10
420
20
297
9
$INSUNITS
70
4
9
$PSVPSCALE
40
1
0
ENDSEC
0
SECTION
2
CLASSES
0
ENDSEC
0
SECTION
2
TABLES
0
TABLE
2
VPORT
5
8
330
0
100
AcDbSymbolTable
70
1
0
VPORT
5
31
330
2
100
AcDbSymbolTableRecord
100
AcDbViewportTableRecord
2
*ACTIVE
70
0
10
0
20
0
11
1
21
1
12
212.363902857
22
8.64933366406
13
0
23
0
14
10
24
10
15
10
25
10
16
0
26
0
36
1
17
0
27
0
37
0
40
330.950819672
41
2.15543328748
42
50
43
0
44
0
50
0
51
0
71
0
72
100
73
1
74
3
75
0
76
0
77
0
78
0
281
0
65
1
110
0
120
0
130
0
111
1
121
0
131
0
112
0
122
1
132
0
79
0
146
0
348
10020
60
7
61
5
292
1
282
1
141
0
142
0
63
250
421
3358443
0
ENDTAB
0
TABLE
2
LTYPE
5
5
330
0
100
AcDbSymbolTable
70
4
0
LTYPE
5
14
330
5
100
AcDbSymbolTableRecord
100
AcDbLinetypeTableRecord
2
ByBlock
70
0
3

72
65
73
0
40
0
0
LTYPE
5
15
330
5
100
AcDbSymbolTableRecord
100
AcDbLinetypeTableRecord
2
ByLayer
70
0
3

72
65
73
0
40
0
0
LTYPE
5
16
330
5
100
AcDbSymbolTableRecord
100
AcDbLinetypeTableRecord
2
Continuous
70
0
3
Solid line
72
65
73
0
40
0
0
LTYPE
5
32
330
5
100
AcDbSymbolTableRecord
100
AcDbLinetypeTableRecord
2
DOT
70
0
3
Dot . . . . . . . . . . . . . . . . . . . . . .
72
65
73
2
40
6.35
49
0
74
0
49
-6.35
74
0
0
LTYPE
5
33
330
5
100
AcDbSymbolTableRecord
100
AcDbLinetypeTableRecord
2
DOT2
70
0
3
Dot (.5x) .....................................
72
65
73
2
40
3.175
49
0
74
0
49
-3.175
74
0
0
LTYPE
5
34
330
5
100
AcDbSymbolTableRecord
100
AcDbLinetypeTableRecord
2
DOTX2
70
0
3
Dot (2x) .  .  .  .  .  .  .  .  .  .  .  .  .
72
65
73
2
40
12.7
49
0
74
0
49
-12.7
74
0
0
LTYPE
5
35
330
5
100
AcDbSymbolTableRecord
100
AcDbLinetypeTableRecord
2
DASHED
70
0
3
Dot . . . . . . . . . . . . . . . . . . . . . .
72
65
73
2
40
19.05
49
12.7
74
0
49
-6.35
74
0
0
LTYPE
5
36
330
5
100
AcDbSymbolTableRecord
100
AcDbLinetypeTableRecord
2
DASHED2
70
0
3
Dashed (.5x) _ _ _ _ _ _ _ _ _ _ _ _ _ _ _ _ _
72
65
73
2
40
9.525
49
6.35
74
0
49
-3.175
74
0
0
LTYPE
5
37
330
5
100
AcDbSymbolTableRecord
100
AcDbLinetypeTableRecord
2
DASHEDX2
70
0
3
Dashed (2x) ____  ____  ____  ____  ____  ___
72
65
73
2
40
38.1
49
25.4
74
0
49
-12.7
74
0
0
LTYPE
5
38
330
5
100
AcDbSymbolTableRecord
100
AcDbLinetypeTableRecord
2
DASHDOT
70
0
3
Dash dot __ . __ . __ . __ . __ . __ . __ . __
72
65
73
4
40
25.4
49
12.7
74
0
49
-6.35
74
0
49
0
74
0
49
-6.35
74
0
0
LTYPE
5
39
330
5
100
AcDbSymbolTableRecord
100
AcDbLinetypeTableRecord
2
DASHDOT2
70
0
3
Dash dot (.5x) _._._._._._._._._._._._._._._.
72
65
73
4
40
12.7
49
6.35
74
0
49
-3.175
74
0
49
0
74
0
49
-3.175
74
0
0
LTYPE
5
3A
330
5
100
AcDbSymbolTableRecord
100
AcDbLinetypeTableRecord
2
DASHDOTX2
70
0
3
Dash dot (2x) ____  .  ____  .  ____  .  ___
72
65
73
4
40
50.8
49
25.4
74
0
49
-12.7
74
0
49
0
74
0
49
-12.7
74
0
0
LTYPE
5
3B
330
5
100
AcDbSymbolTableRecord
100
AcDbLinetypeTableRecord
2
DIVIDE
70
0
3
Divide ____ . . ____ . . ____ . . ____ . . ____
72
65
73
6
40
31.75
49
12.7
74
0
49
-6.35
74
0
49
0
74
0
49
-6.35
74
0
49
0
74
0
49
-6.35
74
0
0
LTYPE
5
3C
330
5
100
AcDbSymbolTableRecord
100
AcDbLinetypeTableRecord
2
DIVIDE2
70
0
3
Divide (.5x) __..__..__..__..__..__..__..__.._
72
65
73
6
40
15.875
49
6.35
74
0
49
-3.175
74
0
49
0
74
0
49
-3.175
74
0
49
0
74
0
49
-3.175
74
0
0
LTYPE
5
3D
330
5
100
AcDbSymbolTableRecord
100
AcDbLinetypeTableRecord
2
DIVIDEX2
70
0
3
Divide (2x) ________  .  .  ________  .  .  _
72
65
73
6
40
63.5
49
25.4
74
0
49
-12.7
74
0
49
0
74
0
49
-12.7
74
0
49
0
74
0
49
-12.7
74
0
0
LTYPE
5
3E
330
5
100
AcDbSymbolTableRecord
100
AcDbLinetypeTableRecord
2
BORDER
70
0
3
Border __ __ . __ __ . __ __ . __ __ . __ __ .
72
65
73
6
40
44.45
49
12.7
74
0
49
-6.35
74
0
49
12.7
74
0
49
-6.35
74
0
49
0
74
0
49
-6.35
74
0
0
LTYPE
5
3F
330
5
100
AcDbSymbolTableRecord
100
AcDbLinetypeTableRecord
2
BORDER2
70
0
3
Border (.5x) __.__.__.__.__.__.__.__.__.__.__.
72
65
73
6
40
22.225
49
6.35
74
0
49
-3.175
74
0
49
6.35
74
0
49
-3.175
74
0
49
0
74
0
49
-3.175
74
0
0
LTYPE
5
40
330
5
100
AcDbSymbolTableRecord
100
AcDbLinetypeTableRecord
2
BORDERX2
70
0
3
Border (2x) ____  ____  .  ____  ____  .  ___
72
65
73
6
40
88.9
49
25.4
74
0
49
-12.7
74
0
49
25.4
74
0
49
-12.7
74
0
49
0
74
0
49
-12.7
74
0
0
LTYPE
5
41
330
5
100
AcDbSymbolTableRecord
100
AcDbLinetypeTableRecord
2
CENTER
70
0
3
Center ____ _ ____ _ ____ _ ____ _ ____ _ ____
72
65
73
4
40
50.8
49
31.75
74
0
49
-6.35
74
0
49
6.35
74
0
49
-6.35
74
0
0
LTYPE
5
42
330
5
100
AcDbSymbolTableRecord
100
AcDbLinetypeTableRecord
2
CENTER2
70
0
3
Center (.5x) ___ _ ___ _ ___ _ ___ _ ___ _ ___
72
65
73
4
40
28.575
49
19.05
74
0
49
-3.175
74
0
49
3.175
74
0
49
-3.175
74
0
0
LTYPE
5
43
330
5
100
AcDbSymbolTableRecord
100
AcDbLinetypeTableRecord
2
CENTERX2
70
0
3
Center (2x) ________  __  ________  __  _____
72
65
73
4
40
101.6
49
63.5
74
0
49
-12.7
74
0
49
12.7
74
0
49
-12.7
74
0
0
ENDTAB
0
TABLE
2
LAYER
5
2
330
0
100
AcDbSymbolTable
70
1
0
LAYER
5
10
330
2
100
AcDbSymbolTableRecord
100
AcDbLayerTableRecord
2
0
70
0
62
7
6
CONTINUOUS
370
35
390
F
0
LAYER
5
44
330
2
100
AcDbSymbolTableRecord
100
AcDbLayerTableRecord
2
BORDER
70
0
62
7
6
CONTINUOUS
370
35
390
F
0
LAYER
5
45
330
2
100
AcDbSymbolTableRecord
100
AcDbLayerTableRecord
2
DIMENSIONS
70
0
62
7
6
CONTINUOUS
370
18
390
F
0
LAYER
5
46
330
2
100
AcDbSymbolTableRecord
100
AcDbLayerTableRecord
2
LOGO
70
0
62
7
6
CONTINUOUS
370
35
390
F
0
LAYER
5
47
330
2
100
AcDbSymbolTableRecord
100
AcDbLayerTableRecord
2
PAPERSIZE
70
0
62
136
6
CONTINUOUS
370
0
390
F
0
LAYER
5
48
330
2
100
AcDbSymbolTableRecord
100
AcDbLayerTableRecord
2
TITLEBLOCK
70
0
62
7
6
CONTINUOUS
370
35
390
F
0
ENDTAB
0
TABLE
2
STYLE
5
3
330
0
100
AcDbSymbolTable
70
3
0
STYLE
5
49
330
2
100
AcDbSymbolTableRecord
100
AcDbTextStyleTableRecord
2
standard
70
0
40
0
41
1
50
0
71
0
42
1
3
standard
4

0
STYLE
5
4A
330
2
100
AcDbSymbolTableRecord
100
AcDbTextStyleTableRecord
2
Standard
70
0
40
0
41
1
50
0
71
0
42
1
3
txt
4

0
ENDTAB
0
TABLE
2
VIEW
5
6
330
0
100
AcDbSymbolTable
70
0
0
ENDTAB
0
TABLE
2
UCS
5
7
330
0
100
AcDbSymbolTable
70
0
0
ENDTAB
0
TABLE
2
APPID
5
9
330
0
100
AcDbSymbolTable
70
1
0
APPID
5
12
330
9
100
AcDbSymbolTableRecord
100
AcDbRegAppTableRecord
2
ACAD
70
0
0
ENDTAB
0
TABLE
2
DIMSTYLE
5
A
330
0
100
AcDbSymbolTable
70
1
100
AcDbDimStyleTable
71
1
0
DIMSTYLE
105
4B
330
A
100
AcDbSymbolTableRecord
100
AcDbDimStyleTableRecord
2
Standard
70
0
40
1
41
3.5
42
0
43
0.38
44
2
45
0
46
0
47
0
48
0
140
3.5
141
0.09
142
0
143
25.4
144
1
145
0
146
1
147
1
148
0
71
0
72
0
73
0
74
1
75
0
76
0
77
0
78
0
79
0
170
0
171
2
172
0
173
0
174
0
175
0
176
0
177
0
178
0
179
0
271
4
272
4
273
2
274
2
275
0
276
0
277
2
278
46
279
0
280
0
281
0
282
0
283
1
284
0
285
0
286
0
288
0
289
3
340
Standard
341

371
-2
372
-2
0
ENDTAB
0
TABLE
2
BLOCK_RECORD
5
1
330
0
100
AcDbSymbolTable
70
2
0
BLOCK_RECORD
5
1F
330
1
100
AcDbSymbolTableRecord
100
AcDbBlockTableRecord
2
*Model_Space
70
0
280
1
281
0
0
BLOCK_RECORD
5
1E
330
1
100
AcDbSymbolTableRecord
100
AcDbBlockTableRecord
2
*Paper_Space
70
0
280
1
281
0
0
BLOCK_RECORD
5
4C
330
1
100
AcDbSymbolTableRecord
100
AcDbBlockTableRecord
2
Ortho1
70
0
280
1
281
0
0
BLOCK_RECORD
5
4F
330
1
100
AcDbSymbolTableRecord
100
AcDbBlockTableRecord
2
Ortho0011
70
0
280
1
281
0
0
BLOCK_RECORD
5
52
330
1
100
AcDbSymbolTableRecord
100
AcDbBlockTableRecord
2
Ortho0021
70
0
280
1
281
0
0
BLOCK_RECORD
5
55
330
1
100
AcDbSymbolTableRecord
100
AcDbBlockTableRecord
2
Ortho0031
70
0
280
1
281
0
0
BLOCK_RECORD
5
58
330
1
100
AcDbSymbolTableRecord
100
AcDbBlockTableRecord
2
Ortho0041
70
0
280
1
281
0
0
ENDTAB
0
ENDSEC
0
SECTION
2
BLOCKS
0
BLOCK
5
20
330
1F
100
AcDbEntity
8
0
100
AcDbBlockBegin
2
*Model_Space
70
0
10
0
20
0
30
0
3
*Model_Space
1

0
ENDBLK
5
21
330
1F
100
AcDbEntity
8
0
100
AcDbBlockEnd
0
BLOCK
5
1C
330
1B
100
AcDbEntity
8
0
100
AcDbBlockBegin
2
*Paper_Space
70
0
10
0
20
0
30
0
3
*Paper_Space
1

0
ENDBLK
5
1D
330
1F
100
AcDbEntity
8
0
100
AcDbBlockEnd
0
BLOCK
5
4D
330
4C
100
AcDbEntity
8
0
100
AcDbBlockBegin
2
Ortho1
70
0
10
0
20
0
3
Ortho1
1

0
LINE
5
5B
100
AcDbEntity
8
0
6
ByBlock
62
0
370
-1
100
AcDbLine
10
-240
20
210
11
10
21
210
0
LINE
5
5C
100
AcDbEntity
8
0
6
ByBlock
62
0
370
-1
100
AcDbLine
10
-240
20
-210
11
-240
21
210
0
LINE
5
5D
100
AcDbEntity
8
0
6
ByBlock
62
0
370
-1
100
AcDbLine
10
10
20
210
11
10
21
-210
0
LINE
5
5E
100
AcDbEntity
8
0
6
ByBlock
62
0
370
-1
100
AcDbLine
10
10
20
-210
11
-240
21
-210
0
LINE
5
5F
100
AcDbEntity
8
0
6
ByBlock
62
0
370
-1
100
AcDbLine
10
-166.13
20
-33.54
11
-148.13
21
-33.54
0
LINE
5
60
100
AcDbEntity
8
0
6
ByBlock
62
0
370
-1
100
AcDbLine
10
-166.13
20
-40.54
11
-166.13
21
-33.54
0
LINE
5
61
100
AcDbEntity
8
0
6
ByBlock
62
0
370
-1
100
AcDbLine
10
-148.13
20
-33.54
11
-148.13
21
-40.54
0
LINE
5
62
100
AcDbEntity
8
0
6
ByBlock
62
0
370
-1
100
AcDbLine
10
-148.13
20
-40.54
11
-166.13
21
-40.54
0
LINE
5
63
100
AcDbEntity
8
0
6
ByBlock
62
0
370
-1
100
AcDbLine
10
-166.13
20
-53.57
11
-148.13
21
-53.57
0
LINE
5
64
100
AcDbEntity
8
0
6
ByBlock
62
0
370
-1
100
AcDbLine
10
-166.13
20
-60.57
11
-166.13
21
-53.57
0
LINE
5
65
100
AcDbEntity
8
0
6
ByBlock
62
0
370
-1
100
AcDbLine
10
-148.13
20
-53.57
11
-148.13
21
-60.57
0
LINE
5
66
100
AcDbEntity
8
0
6
ByBlock
62
0
370
-1
100
AcDbLine
10
-148.13
20
-60.57
11
-166.13
21
-60.57
0
LINE
5
67
100
AcDbEntity
8
0
6
ByBlock
62
0
370
-1
100
AcDbLine
10
-166.13
20
-73.62
11
-148.13
21
-73.62
0
LINE
5
68
100
AcDbEntity
8
0
6
ByBlock
62
0
370
-1
100
AcDbLine
10
-166.13
20
-80.62
11
-166.13
21
-73.62
0
LINE
5
69
100
AcDbEntity
8
0
6
ByBlock
62
0
370
-1
100
AcDbLine
10
-148.13
20
-73.62
11
-148.13
21
-80.62
0
LINE
5
6A
100
AcDbEntity
8
0
6
ByBlock
62
0
370
-1
100
AcDbLine
10
-148.13
20
-80.62
11
-166.13
21
-80.62
0
LINE
5
6B
100
AcDbEntity
8
0
6
ByBlock
62
0
370
-1
100
AcDbLine
10
-131.267
20
-53.73
11
-113.267
21
-53.73
0
LINE
5
6C
100
AcDbEntity
8
0
6
ByBlock
62
0
370
-1
100
AcDbLine
10
-131.267
20
-60.73
11
-131.267
21
-53.73
0
LINE
5
6D
100
AcDbEntity
8
0
6
ByBlock
62
0
370
-1
100
AcDbLine
10
-113.267
20
-53.73
11
-113.267
21
-60.73
0
LINE
5
6E
100
AcDbEntity
8
0
6
ByBlock
62
0
370
-1
100
AcDbLine
10
-113.267
20
-60.73
11
-131.267
21
-60.73
0
LINE
5
6F
100
AcDbEntity
8
0
6
ByBlock
62
0
370
-1
100
AcDbLine
10
-131.211
20
-73.66
11
-113.211
21
-73.66
0
LINE
5
70
100
AcDbEntity
8
0
6
ByBlock
62
0
370
-1
100
AcDbLine
10
-131.211
20
-80.66
11
-131.211
21
-73.66
0
LINE
5
71
100
AcDbEntity
8
0
6
ByBlock
62
0
370
-1
100
AcDbLine
10
-113.211
20
-73.66
11
-113.211
21
-80.66
0
LINE
5
72
100
AcDbEntity
8
0
6
ByBlock
62
0
370
-1
100
AcDbLine
10
-113.211
20
-80.66
11
-131.211
21
-80.66
0
LINE
5
73
100
AcDbEntity
8
0
6
ByBlock
62
0
370
-1
100
AcDbLine
10
-131.18
20
-33.64
11
-113.18
21
-33.64
0
LINE
5
74
100
AcDbEntity
8
0
6
ByBlock
62
0
370
-1
100
AcDbLine
10
-131.18
20
-40.64
11
-131.18
21
-33.64
0
LINE
5
75
100
AcDbEntity
8
0
6
ByBlock
62
0
370
-1
100
AcDbLine
10
-113.18
20
-33.64
11
-113.18
21
-40.64
0
LINE
5
76
100
AcDbEntity
8
0
6
ByBlock
62
0
370
-1
100
AcDbLine
10
-113.18
20
-40.64
11
-131.18
21
-40.64
0
LINE
5
77
100
AcDbEntity
8
0
6
ByBlock
62
0
370
-1
100
AcDbLine
10
-166.13
20
-93.53
11
-148.13
21
-93.53
0
LINE
5
78
100
AcDbEntity
8
0
6
ByBlock
62
0
370
-1
100
AcDbLine
10
-166.13
20
-100.53
11
-166.13
21
-93.53
0
LINE
5
79
100
AcDbEntity
8
0
6
ByBlock
62
0
370
-1
100
AcDbLine
10
-148.13
20
-93.53
11
-148.13
21
-100.53
0
LINE
5
7A
100
AcDbEntity
8
0
6
ByBlock
62
0
370
-1
100
AcDbLine
10
-148.13
20
-100.53
11
-166.13
21
-100.53
0
CIRCLE
5
7B
100
AcDbEntity
8
0
6
ByBlock
62
0
370
-1
100
AcDbCircle
10
-90.37
20
-100.05
40
7.1
0
CIRCLE
5
7C
100
AcDbEntity
8
0
6
ByBlock
62
0
370
-1
100
AcDbCircle
10
-90.37
20
-80.05
40
7.1
0
CIRCLE
5
7D
100
AcDbEntity
8
0
6
ByBlock
62
0
370
-1
100
AcDbCircle
10
-90.37
20
-60.05
40
7.1
0
LINE
5
7E
100
AcDbEntity
8
0
6
ByBlock
62
0
370
-1
100
AcDbLine
10
-131.307
20
-93.6
11
-113.307
21
-93.6
0
LINE
5
7F
100
AcDbEntity
8
0
6
ByBlock
62
0
370
-1
100
AcDbLine
10
-131.307
20
-100.6
11
-131.307
21
-93.6
0
LINE
5
80
100
AcDbEntity
8
0
6
ByBlock
62
0
370
-1
100
AcDbLine
10
-113.307
20
-93.6
11
-113.307
21
-100.6
0
LINE
5
81
100
AcDbEntity
8
0
6
ByBlock
62
0
370
-1
100
AcDbLine
10
-113.307
20
-100.6
11
-131.307
21
-100.6
0
CIRCLE
5
82
100
AcDbEntity
8
0
6
ByBlock
62
0
370
-1
100
AcDbCircle
10
-90.37
20
-40.05
40
7.1
0
CIRCLE
5
83
100
AcDbEntity
8
0
6
ByBlock
62
0
370
-1
100
AcDbCircle
10
-90.37
20
-120.05
40
7.1
0
LINE
5
84
100
AcDbEntity
8
0
6
ByBlock
62
0
370
-1
100
AcDbLine
10
-131.665
20
-113.67
11
-113.665
21
-113.67
0
LINE
5
85
100
AcDbEntity
8
0
6
ByBlock
62
0
370
-1
100
AcDbLine
10
-131.665
20
-120.67
11
-131.665
21
-113.67
0
LINE
5
86
100
AcDbEntity
8
0
6
ByBlock
62
0
370
-1
100
AcDbLine
10
-113.665
20
-113.67
11
-113.665
21
-120.67
0
LINE
5
87
100
AcDbEntity
8
0
6
ByBlock
62
0
370
-1
100
AcDbLine
10
-113.665
20
-120.67
11
-131.665
21
-120.67
0
LINE
5
88
100
AcDbEntity
8
0
6
ByBlock
62
0
370
-1
100
AcDbLine
10
-166.13
20
-113.6
11
-148.13
21
-113.6
0
LINE
5
89
100
AcDbEntity
8
0
6
ByBlock
62
0
370
-1
100
AcDbLine
10
-166.13
20
-120.6
11
-166.13
21
-113.6
0
LINE
5
8A
100
AcDbEntity
8
0
6
ByBlock
62
0
370
-1
100
AcDbLine
10
-148.13
20
-113.6
11
-148.13
21
-120.6
0
LINE
5
8B
100
AcDbEntity
8
0
6
ByBlock
62
0
370
-1
100
AcDbLine
10
-148.13
20
-120.6
11
-166.13
21
-120.6
0
LINE
5
8C
100
AcDbEntity
8
0
6
ByBlock
62
0
370
-1
100
AcDbLine
10
-131.1
20
-6.62818
11
-113.1
21
-6.62818
0
LINE
5
8D
100
AcDbEntity
8
0
6
ByBlock
62
0
370
-1
100
AcDbLine
10
-131.1
20
-13.6282
11
-131.1
21
-6.62818
0
LINE
5
8E
100
AcDbEntity
8
0
6
ByBlock
62
0
370
-1
100
AcDbLine
10
-113.1
20
-6.62818
11
-113.1
21
-13.6282
0
LINE
5
8F
100
AcDbEntity
8
0
6
ByBlock
62
0
370
-1
100
AcDbLine
10
-113.1
20
-13.6282
11
-131.1
21
-13.6282
0
CIRCLE
5
90
100
AcDbEntity
8
0
6
ByBlock
62
0
370
-1
100
AcDbCircle
10
-90.37
20
-13.11
40
7.1
0
LINE
5
91
100
AcDbEntity
8
0
6
ByBlock
62
0
370
-1
100
AcDbLine
10
-166.13
20
-6.64
11
-148.13
21
-6.64
0
LINE
5
92
100
AcDbEntity
8
0
6
ByBlock
62
0
370
-1
100
AcDbLine
10
-166.13
20
-13.64
11
-166.13
21
-6.64
0
LINE
5
93
100
AcDbEntity
8
0
6
ByBlock
62
0
370
-1
100
AcDbLine
10
-148.13
20
-6.64
11
-148.13
21
-13.64
0
LINE
5
94
100
AcDbEntity
8
0
6
ByBlock
62
0
370
-1
100
AcDbLine
10
-148.13
20
-13.64
11
-166.13
21
-13.64
0
CIRCLE
5
95
100
AcDbEntity
8
0
6
ByBlock
62
0
370
-1
100
AcDbCircle
10
-85
20
-26
40
1.3
0
CIRCLE
5
96
100
AcDbEntity
8
0
6
ByBlock
62
0
370
-1
100
AcDbCircle
10
-85
20
-154.006
40
1.3
0
CIRCLE
5
97
100
AcDbEntity
8
0
6
ByBlock
62
0
370
-1
100
AcDbCircle
10
-90.37
20
-140.05
40
7.1
0
LINE
5
98
100
AcDbEntity
8
0
6
ByBlock
62
0
370
-1
100
AcDbLine
10
-131.18
20
-133.63
11
-113.18
21
-133.63
0
LINE
5
99
100
AcDbEntity
8
0
6
ByBlock
62
0
370
-1
100
AcDbLine
10
-131.18
20
-140.63
11
-131.18
21
-133.63
0
LINE
5
9A
100
AcDbEntity
8
0
6
ByBlock
62
0
370
-1
100
AcDbLine
10
-113.18
20
-133.63
11
-113.18
21
-140.63
0
LINE
5
9B
100
AcDbEntity
8
0
6
ByBlock
62
0
370
-1
100
AcDbLine
10
-113.18
20
-140.63
11
-131.18
21
-140.63
0
LINE
5
9C
100
AcDbEntity
8
0
6
ByBlock
62
0
370
-1
100
AcDbLine
10
-166.13
20
-133.43
11
-148.13
21
-133.43
0
LINE
5
9D
100
AcDbEntity
8
0
6
ByBlock
62
0
370
-1
100
AcDbLine
10
-166.13
20
-140.43
11
-166.13
21
-133.43
0
LINE
5
9E
100
AcDbEntity
8
0
6
ByBlock
62
0
370
-1
100
AcDbLine
10
-148.13
20
-133.43
11
-148.13
21
-140.43
0
LINE
5
9F
100
AcDbEntity
8
0
6
ByBlock
62
0
370
-1
100
AcDbLine
10
-148.13
20
-140.43
11
-166.13
21
-140.43
0
CIRCLE
5
A0
100
AcDbEntity
8
0
6
ByBlock
62
0
370
-1
100
AcDbCircle
10
-188.19
20
-80.07
40
7.1
0
CIRCLE
5
A1
100
AcDbEntity
8
0
6
ByBlock
62
0
370
-1
100
AcDbCircle
10
-188.19
20
-100.07
40
7.1
0
CIRCLE
5
A2
100
AcDbEntity
8
0
6
ByBlock
62
0
370
-1
100
AcDbCircle
10
-188.19
20
-120.07
40
7.1
0
CIRCLE
5
A3
100
AcDbEntity
8
0
6
ByBlock
62
0
370
-1
100
AcDbCircle
10
-188.19
20
-140.07
40
7.1
0
CIRCLE
5
A4
100
AcDbEntity
8
0
6
ByBlock
62
0
370
-1
100
AcDbCircle
10
-188.19
20
-60.07
40
7.1
0
CIRCLE
5
A5
100
AcDbEntity
8
0
6
ByBlock
62
0
370
-1
100
AcDbCircle
10
-194.006
20
-154.006
40
1.3
0
CIRCLE
5
A6
100
AcDbEntity
8
0
6
ByBlock
62
0
370
-1
100
AcDbCircle
10
-188.19
20
-40.07
40
7.1
0
CIRCLE
5
A7
100
AcDbEntity
8
0
6
ByBlock
62
0
370
-1
100
AcDbCircle
10
-188.19
20
-13.11
40
7.1
0
CIRCLE
5
A8
100
AcDbEntity
8
0
6
ByBlock
62
0
370
-1
100
AcDbCircle
10
-194.006
20
-26
40
1.3
0
LINE
5
A9
100
AcDbEntity
8
0
6
ByBlock
62
0
370
-1
100
AcDbLine
10
-166.13
20
33.39
11
-148.13
21
33.39
0
LINE
5
AA
100
AcDbEntity
8
0
6
ByBlock
62
0
370
-1
100
AcDbLine
10
-166.13
20
26.39
11
-166.13
21
33.39
0
LINE
5
AB
100
AcDbEntity
8
0
6
ByBlock
62
0
370
-1
100
AcDbLine
10
-148.13
20
33.39
11
-148.13
21
26.39
0
LINE
5
AC
100
AcDbEntity
8
0
6
ByBlock
62
0
370
-1
100
AcDbLine
10
-148.13
20
26.39
11
-166.13
21
26.39
0
CIRCLE
5
AD
100
AcDbEntity
8
0
6
ByBlock
62
0
370
-1
100
AcDbCircle
10
-188.19
20
6.89
40
7.1
0
CIRCLE
5
AE
100
AcDbEntity
8
0
6
ByBlock
62
0
370
-1
100
AcDbCircle
10
-188.19
20
26.89
40
7.1
0
LINE
5
AF
100
AcDbEntity
8
0
6
ByBlock
62
0
370
-1
100
AcDbLine
10
-131.219
20
33.39
11
-113.219
21
33.39
0
LINE
5
B0
100
AcDbEntity
8
0
6
ByBlock
62
0
370
-1
100
AcDbLine
10
-131.219
20
26.39
11
-131.219
21
33.39
0
LINE
5
B1
100
AcDbEntity
8
0
6
ByBlock
62
0
370
-1
100
AcDbLine
10
-113.219
20
33.39
11
-113.219
21
26.39
0
LINE
5
B2
100
AcDbEntity
8
0
6
ByBlock
62
0
370
-1
100
AcDbLine
10
-113.219
20
26.39
11
-131.219
21
26.39
0
CIRCLE
5
B3
100
AcDbEntity
8
0
6
ByBlock
62
0
370
-1
100
AcDbCircle
10
-90.42
20
6.89
40
7.1
0
CIRCLE
5
B4
100
AcDbEntity
8
0
6
ByBlock
62
0
370
-1
100
AcDbCircle
10
-90.42
20
26.89
40
7.1
0
CIRCLE
5
B5
100
AcDbEntity
8
0
6
ByBlock
62
0
370
-1
100
AcDbCircle
10
5
20
-150
40
1.7
0
CIRCLE
5
B6
100
AcDbEntity
8
0
6
ByBlock
62
0
370
-1
100
AcDbCircle
10
5
20
0
40
1.7
0
ARC
5
B7
100
AcDbEntity
8
0
6
ByBlock
62
0
370
-1
100
AcDbCircle
10
-33.433
20
44.2276
40
15
100
AcDbArc
50
0
51
180
0
LINE
5
B8
100
AcDbEntity
8
0
6
ByBlock
62
0
370
-1
100
AcDbLine
10
-18.433
20
44.2276
11
-18.433
21
-55.7724
0
LINE
5
B9
100
AcDbEntity
8
0
6
ByBlock
62
0
370
-1
100
AcDbLine
10
-48.433
20
44.2276
11
-48.433
21
-55.7724
0
ARC
5
BA
100
AcDbEntity
8
0
6
ByBlock
62
0
370
-1
100
AcDbCircle
10
-33.433
20
-55.7724
40
15
100
AcDbArc
50
180
51
0
0
CIRCLE
5
BB
100
AcDbEntity
8
0
6
ByBlock
62
0
370
-1
100
AcDbCircle
10
5
20
150
40
1.7
0
CIRCLE
5
BC
100
AcDbEntity
8
0
6
ByBlock
62
0
370
-1
100
AcDbCircle
10
-85
20
109.79
40
1.3
0
LINE
5
BD
100
AcDbEntity
8
0
6
ByBlock
62
0
370
-1
100
AcDbLine
10
-131.227
20
13.2673
11
-113.227
21
13.2673
0
LINE
5
BE
100
AcDbEntity
8
0
6
ByBlock
62
0
370
-1
100
AcDbLine
10
-131.227
20
6.26725
11
-131.227
21
13.2673
0
LINE
5
BF
100
AcDbEntity
8
0
6
ByBlock
62
0
370
-1
100
AcDbLine
10
-113.227
20
13.2673
11
-113.227
21
6.26725
0
LINE
5
C0
100
AcDbEntity
8
0
6
ByBlock
62
0
370
-1
100
AcDbLine
10
-113.227
20
6.26725
11
-131.227
21
6.26725
0
LINE
5
C1
100
AcDbEntity
8
0
6
ByBlock
62
0
370
-1
100
AcDbLine
10
-131.328
20
53.3382
11
-113.328
21
53.3382
0
LINE
5
C2
100
AcDbEntity
8
0
6
ByBlock
62
0
370
-1
100
AcDbLine
10
-131.328
20
46.3382
11
-131.328
21
53.3382
0
LINE
5
C3
100
AcDbEntity
8
0
6
ByBlock
62
0
370
-1
100
AcDbLine
10
-113.328
20
53.3382
11
-113.328
21
46.3382
0
LINE
5
C4
100
AcDbEntity
8
0
6
ByBlock
62
0
370
-1
100
AcDbLine
10
-113.328
20
46.3382
11
-131.328
21
46.3382
0
LINE
5
C5
100
AcDbEntity
8
0
6
ByBlock
62
0
370
-1
100
AcDbLine
10
-131.18
20
93.52
11
-113.18
21
93.52
0
LINE
5
C6
100
AcDbEntity
8
0
6
ByBlock
62
0
370
-1
100
AcDbLine
10
-131.18
20
86.52
11
-131.18
21
93.52
0
LINE
5
C7
100
AcDbEntity
8
0
6
ByBlock
62
0
370
-1
100
AcDbLine
10
-113.18
20
93.52
11
-113.18
21
86.52
0
LINE
5
C8
100
AcDbEntity
8
0
6
ByBlock
62
0
370
-1
100
AcDbLine
10
-113.18
20
86.52
11
-131.18
21
86.52
0
LINE
5
C9
100
AcDbEntity
8
0
6
ByBlock
62
0
370
-1
100
AcDbLine
10
-131.307
20
73.2
11
-113.307
21
73.2
0
LINE
5
CA
100
AcDbEntity
8
0
6
ByBlock
62
0
370
-1
100
AcDbLine
10
-131.307
20
66.2
11
-131.307
21
73.2
0
LINE
5
CB
100
AcDbEntity
8
0
6
ByBlock
62
0
370
-1
100
AcDbLine
10
-113.307
20
73.2
11
-113.307
21
66.2
0
LINE
5
CC
100
AcDbEntity
8
0
6
ByBlock
62
0
370
-1
100
AcDbLine
10
-113.307
20
66.2
11
-131.307
21
66.2
0
CIRCLE
5
CD
100
AcDbEntity
8
0
6
ByBlock
62
0
370
-1
100
AcDbCircle
10
-90.42
20
86.89
40
7.1
0
CIRCLE
5
CE
100
AcDbEntity
8
0
6
ByBlock
62
0
370
-1
100
AcDbCircle
10
-90.42
20
66.89
40
7.1
0
CIRCLE
5
CF
100
AcDbEntity
8
0
6
ByBlock
62
0
370
-1
100
AcDbCircle
10
-90.42
20
46.89
40
7.1
0
LINE
5
D0
100
AcDbEntity
8
0
6
ByBlock
62
0
370
-1
100
AcDbLine
10
-166.13
20
73.4
11
-148.13
21
73.4
0
LINE
5
D1
100
AcDbEntity
8
0
6
ByBlock
62
0
370
-1
100
AcDbLine
10
-166.13
20
66.4
11
-166.13
21
73.4
0
LINE
5
D2
100
AcDbEntity
8
0
6
ByBlock
62
0
370
-1
100
AcDbLine
10
-148.13
20
73.4
11
-148.13
21
66.4
0
LINE
5
D3
100
AcDbEntity
8
0
6
ByBlock
62
0
370
-1
100
AcDbLine
10
-148.13
20
66.4
11
-166.13
21
66.4
0
LINE
5
D4
100
AcDbEntity
8
0
6
ByBlock
62
0
370
-1
100
AcDbLine
10
-166.13
20
93.52
11
-148.13
21
93.52
0
LINE
5
D5
100
AcDbEntity
8
0
6
ByBlock
62
0
370
-1
100
AcDbLine
10
-166.13
20
86.52
11
-166.13
21
93.52
0
LINE
5
D6
100
AcDbEntity
8
0
6
ByBlock
62
0
370
-1
100
AcDbLine
10
-148.13
20
93.52
11
-148.13
21
86.52
0
LINE
5
D7
100
AcDbEntity
8
0
6
ByBlock
62
0
370
-1
100
AcDbLine
10
-148.13
20
86.52
11
-166.13
21
86.52
0
LINE
5
D8
100
AcDbEntity
8
0
6
ByBlock
62
0
370
-1
100
AcDbLine
10
-148.13
20
53.34
11
-166.13
21
53.34
0
LINE
5
D9
100
AcDbEntity
8
0
6
ByBlock
62
0
370
-1
100
AcDbLine
10
-148.13
20
46.34
11
-148.13
21
53.34
0
LINE
5
DA
100
AcDbEntity
8
0
6
ByBlock
62
0
370
-1
100
AcDbLine
10
-166.13
20
53.34
11
-166.13
21
46.34
0
LINE
5
DB
100
AcDbEntity
8
0
6
ByBlock
62
0
370
-1
100
AcDbLine
10
-166.13
20
46.34
11
-148.13
21
46.34
0
LINE
5
DC
100
AcDbEntity
8
0
6
ByBlock
62
0
370
-1
100
AcDbLine
10
-166.13
20
13.36
11
-148.13
21
13.36
0
LINE
5
DD
100
AcDbEntity
8
0
6
ByBlock
62
0
370
-1
100
AcDbLine
10
-166.13
20
6.36
11
-166.13
21
13.36
0
LINE
5
DE
100
AcDbEntity
8
0
6
ByBlock
62
0
370
-1
100
AcDbLine
10
-148.13
20
13.36
11
-148.13
21
6.36
0
LINE
5
DF
100
AcDbEntity
8
0
6
ByBlock
62
0
370
-1
100
AcDbLine
10
-148.13
20
6.36
11
-166.13
21
6.36
0
CIRCLE
5
E0
100
AcDbEntity
8
0
6
ByBlock
62
0
370
-1
100
AcDbCircle
10
-188.19
20
66.89
40
7.1
0
CIRCLE
5
E1
100
AcDbEntity
8
0
6
ByBlock
62
0
370
-1
100
AcDbCircle
10
-188.19
20
86.89
40
7.1
0
CIRCLE
5
E2
100
AcDbEntity
8
0
6
ByBlock
62
0
370
-1
100
AcDbCircle
10
-188.19
20
46.89
40
7.1
0
CIRCLE
5
E3
100
AcDbEntity
8
0
6
ByBlock
62
0
370
-1
100
AcDbCircle
10
-194.006
20
109.79
40
1.3
0
CIRCLE
5
E4
100
AcDbEntity
8
0
6
ByBlock
62
0
370
-1
100
AcDbCircle
10
-20
20
205
40
1.7
0
CIRCLE
5
E5
100
AcDbEntity
8
0
6
ByBlock
62
0
370
-1
100
AcDbCircle
10
-115
20
205
40
1.7
0
CIRCLE
5
E6
100
AcDbEntity
8
0
6
ByBlock
62
0
370
-1
100
AcDbCircle
10
-115
20
-205
40
1.7
0
CIRCLE
5
E7
100
AcDbEntity
8
0
6
ByBlock
62
0
370
-1
100
AcDbCircle
10
-20
20
-205
40
1.7
0
CIRCLE
5
E8
100
AcDbEntity
8
0
6
ByBlock
62
0
370
-1
100
AcDbCircle
10
-210
20
205
40
1.7
0
CIRCLE
5
E9
100
AcDbEntity
8
0
6
ByBlock
62
0
370
-1
100
AcDbCircle
10
-210
20
-205
40
1.7
0
ENDBLK
5
4E
330
4C
100
AcDbEntity
8
0
100
AcDbBlockEnd
0
BLOCK
5
50
330
4F
100
AcDbEntity
8
0
100
AcDbBlockBegin
2
Ortho0011
70
0
10
0
20
0
3
Ortho0011
1

0
LINE
5
EA
100
AcDbEntity
8
0
6
ByBlock
62
0
370
-1
100
AcDbLine
10
-210
20
-140
11
-210
21
-145
0
LINE
5
EB
100
AcDbEntity
8
0
6
ByBlock
62
0
370
-1
100
AcDbLine
10
210
20
-140
11
210
21
-145
0
LINE
5
EC
100
AcDbEntity
8
0
6
ByBlock
62
0
370
-1
100
AcDbLine
10
-210
20
-140
11
210
21
-140
0
LINE
5
ED
100
AcDbEntity
8
0
6
ByBlock
62
0
370
-1
100
AcDbLine
10
-210
20
-145
11
210
21
-145
0
SPLINE
5
EE
100
AcDbEntity
8
0
6
ByBlock
62
0
370
-1
100
AcDbSpline
210
0
220
0
230
1
70
8
71
1
72
17
73
15
74
0
42
1e-007
43
1e-007
40
0
40
0
40
0.0714285714286
40
0.142857142857
40
0.214285714286
40
0.285714285714
40
0.357142857143
40
0.428571428571
40
0.5
40
0.571428571429
40
0.642857142857
40
0.714285714286
40
0.785714285714
40
0.857142857143
40
0.928571428571
40
1
40
1
10
-109.79
20
-140
30
0
10
-109.936
20
-140
30
0
10
-110.079
20
-140
30
0
10
-110.219
20
-140
30
0
10
-110.354
20
-140
30
0
10
-110.482
20
-140
30
0
10
-110.601
20
-140
30
0
10
-110.709
20
-140
30
0
10
-110.806
20
-140
30
0
10
-110.891
20
-140
30
0
10
-110.961
20
-140
30
0
10
-111.017
20
-140
30
0
10
-111.057
20
-140
30
0
10
-111.082
20
-140
30
0
10
-111.09
20
-140
30
0
0
SPLINE
5
EF
100
AcDbEntity
8
0
6
ByBlock
62
0
370
-1
100
AcDbSpline
210
0
220
0
230
1
70
8
71
1
72
17
73
15
74
0
42
1e-007
43
1e-007
40
0
40
0
40
0.0714285714286
40
0.142857142857
40
0.214285714286
40
0.285714285714
40
0.357142857143
40
0.428571428571
40
0.5
40
0.571428571429
40
0.642857142857
40
0.714285714286
40
0.785714285714
40
0.857142857143
40
0.928571428571
40
1
40
1
10
-108.49
20
-140
30
0
10
-108.498
20
-140
30
0
10
-108.523
20
-140
30
0
10
-108.563
20
-140
30
0
10
-108.619
20
-140
30
0
10
-108.689
20
-140
30
0
10
-108.774
20
-140
30
0
10
-108.871
20
-140
30
0
10
-108.979
20
-140
30
0
10
-109.098
20
-140
30
0
10
-109.226
20
-140
30
0
10
-109.361
20
-140
30
0
10
-109.501
20
-140
30
0
10
-109.644
20
-140
30
0
10
-109.79
20
-140
30
0
0
SPLINE
5
F0
100
AcDbEntity
8
0
6
ByBlock
62
0
370
-1
100
AcDbSpline
210
0
220
0
230
1
70
8
71
1
72
17
73
15
74
0
42
1e-007
43
1e-007
40
0
40
0
40
0.0714285714286
40
0.142857142857
40
0.214285714286
40
0.285714285714
40
0.357142857143
40
0.428571428571
40
0.5
40
0.571428571429
40
0.642857142857
40
0.714285714286
40
0.785714285714
40
0.857142857143
40
0.928571428571
40
1
40
1
10
-203.3
20
-140
30
0
10
-203.343
20
-140
30
0
10
-203.468
20
-140
30
0
10
-203.671
20
-140
30
0
10
-203.94
20
-140
30
0
10
-204.262
20
-140
30
0
10
-204.622
20
-140
30
0
10
-205
20
-140
30
0
10
-205.378
20
-140
30
0
10
-205.738
20
-140
30
0
10
-206.06
20
-140
30
0
10
-206.329
20
-140
30
0
10
-206.532
20
-140
30
0
10
-206.657
20
-140
30
0
10
-206.7
20
-140
30
0
0
SPLINE
5
F1
100
AcDbEntity
8
0
6
ByBlock
62
0
370
-1
100
AcDbSpline
210
0
220
0
230
1
70
8
71
1
72
17
73
15
74
0
42
1e-007
43
1e-007
40
0
40
0
40
0.0714285714286
40
0.142857142857
40
0.214285714286
40
0.285714285714
40
0.357142857143
40
0.428571428571
40
0.5
40
0.571428571429
40
0.642857142857
40
0.714285714286
40
0.785714285714
40
0.857142857143
40
0.928571428571
40
1
40
1
10
80.05
20
-145
30
0
10
79.2551
20
-145
30
0
10
78.4701
20
-145
30
0
10
77.705
20
-145
30
0
10
76.9694
20
-145
30
0
10
76.2726
20
-145
30
0
10
75.6232
20
-145
30
0
10
75.0295
20
-145
30
0
10
74.499
20
-145
30
0
10
74.0383
20
-145
30
0
10
73.6531
20
-145
30
0
10
73.3484
20
-145
30
0
10
73.128
20
-145
30
0
10
72.9946
20
-145
30
0
10
72.95
20
-145
30
0
0
SPLINE
5
F2
100
AcDbEntity
8
0
6
ByBlock
62
0
370
-1
100
AcDbSpline
210
0
220
0
230
1
70
8
71
1
72
17
73
15
74
0
42
1e-007
43
1e-007
40
0
40
0
40
0.0714285714286
40
0.142857142857
40
0.214285714286
40
0.285714285714
40
0.357142857143
40
0.428571428571
40
0.5
40
0.571428571429
40
0.642857142857
40
0.714285714286
40
0.785714285714
40
0.857142857143
40
0.928571428571
40
1
40
1
10
-1.7
20
-145
30
0
10
-1.65738
20
-145
30
0
10
-1.53165
20
-145
30
0
10
-1.32911
20
-145
30
0
10
-1.05993
20
-145
30
0
10
-0.737602
20
-145
30
0
10
-0.378286
20
-145
30
0
10
-1.04095e-016
20
-145
30
0
10
0.378286
20
-145
30
0
10
0.737602
20
-145
30
0
10
1.05993
20
-145
30
0
10
1.32911
20
-145
30
0
10
1.53165
20
-145
30
0
10
1.65738
20
-145
30
0
10
1.7
20
-145
30
0
0
SPLINE
5
F3
100
AcDbEntity
8
0
6
ByBlock
62
0
370
-1
100
AcDbSpline
210
0
220
0
230
1
70
8
71
1
72
17
73
15
74
0
42
1e-007
43
1e-007
40
0
40
0
40
0.0714285714286
40
0.142857142857
40
0.214285714286
40
0.285714285714
40
0.357142857143
40
0.428571428571
40
0.5
40
0.571428571429
40
0.642857142857
40
0.714285714286
40
0.785714285714
40
0.857142857143
40
0.928571428571
40
1
40
1
10
-44.2276
20
-145
30
0
10
-45.9071
20
-145
30
0
10
-47.5654
20
-145
30
0
10
-49.1818
20
-145
30
0
10
-50.7359
20
-145
30
0
10
-52.2081
20
-145
30
0
10
-53.58
20
-145
30
0
10
-54.8342
20
-145
30
0
10
-55.9551
20
-145
30
0
10
-56.9285
20
-145
30
0
10
-57.7421
20
-145
30
0
10
-58.3859
20
-145
30
0
10
-58.8515
20
-145
30
0
10
-59.1333
20
-145
30
0
10
-59.2276
20
-145
30
0
0
LINE
5
F4
100
AcDbEntity
8
0
6
ByBlock
62
0
370
-1
100
AcDbLine
10
-44.2276
20
-145
11
55.7724
21
-145
0
SPLINE
5
F5
100
AcDbEntity
8
0
6
ByBlock
62
0
370
-1
100
AcDbSpline
210
0
220
0
230
1
70
8
71
1
72
17
73
15
74
0
42
1e-007
43
1e-007
40
0
40
0
40
0.0714285714286
40
0.142857142857
40
0.214285714286
40
0.285714285714
40
0.357142857143
40
0.428571428571
40
0.5
40
0.571428571429
40
0.642857142857
40
0.714285714286
40
0.785714285714
40
0.857142857143
40
0.928571428571
40
1
40
1
10
70.7724
20
-145
30
0
10
70.6781
20
-145
30
0
10
70.3963
20
-145
30
0
10
69.9306
20
-145
30
0
10
69.2869
20
-145
30
0
10
68.4733
20
-145
30
0
10
67.4999
20
-145
30
0
10
66.379
20
-145
30
0
10
65.1247
20
-145
30
0
10
63.7529
20
-145
30
0
10
62.2806
20
-145
30
0
10
60.7266
20
-145
30
0
10
59.1102
20
-145
30
0
10
57.4519
20
-145
30
0
10
55.7724
20
-145
30
0
0
SPLINE
5
F6
100
AcDbEntity
8
0
6
ByBlock
62
0
370
-1
100
AcDbSpline
210
0
220
0
230
1
70
8
71
1
72
17
73
15
74
0
42
1e-007
43
1e-007
40
0
40
0
40
0.0714285714286
40
0.142857142857
40
0.214285714286
40
0.285714285714
40
0.357142857143
40
0.428571428571
40
0.5
40
0.571428571429
40
0.642857142857
40
0.714285714286
40
0.785714285714
40
0.857142857143
40
0.928571428571
40
1
40
1
10
-151.7
20
-145
30
0
10
-151.657
20
-145
30
0
10
-151.532
20
-145
30
0
10
-151.329
20
-145
30
0
10
-151.06
20
-145
30
0
10
-150.738
20
-145
30
0
10
-150.378
20
-145
30
0
10
-150
20
-145
30
0
10
-149.622
20
-145
30
0
10
-149.262
20
-145
30
0
10
-148.94
20
-145
30
0
10
-148.671
20
-145
30
0
10
-148.468
20
-145
30
0
10
-148.343
20
-145
30
0
10
-148.3
20
-145
30
0
0
SPLINE
5
F7
100
AcDbEntity
8
0
6
ByBlock
62
0
370
-1
100
AcDbSpline
210
0
220
0
230
1
70
8
71
1
72
17
73
15
74
0
42
1e-007
43
1e-007
40
0
40
0
40
0.0714285714286
40
0.142857142857
40
0.214285714286
40
0.285714285714
40
0.357142857143
40
0.428571428571
40
0.5
40
0.571428571429
40
0.642857142857
40
0.714285714286
40
0.785714285714
40
0.857142857143
40
0.928571428571
40
1
40
1
10
-86.89
20
-145
30
0
10
-87.6849
20
-145
30
0
10
-88.4699
20
-145
30
0
10
-89.235
20
-145
30
0
10
-89.9706
20
-145
30
0
10
-90.6674
20
-145
30
0
10
-91.3168
20
-145
30
0
10
-91.9105
20
-145
30
0
10
-92.441
20
-145
30
0
10
-92.9017
20
-145
30
0
10
-93.2869
20
-145
30
0
10
-93.5916
20
-145
30
0
10
-93.812
20
-145
30
0
10
-93.9454
20
-145
30
0
10
-93.99
20
-145
30
0
0
SPLINE
5
F8
100
AcDbEntity
8
0
6
ByBlock
62
0
370
-1
100
AcDbSpline
210
0
220
0
230
1
70
8
71
1
72
17
73
15
74
0
42
1e-007
43
1e-007
40
0
40
0
40
0.0714285714286
40
0.142857142857
40
0.214285714286
40
0.285714285714
40
0.357142857143
40
0.428571428571
40
0.5
40
0.571428571429
40
0.642857142857
40
0.714285714286
40
0.785714285714
40
0.857142857143
40
0.928571428571
40
1
40
1
10
-79.79
20
-145
30
0
10
-79.8346
20
-145
30
0
10
-79.968
20
-145
30
0
10
-80.1884
20
-145
30
0
10
-80.4931
20
-145
30
0
10
-80.8783
20
-145
30
0
10
-81.339
20
-145
30
0
10
-81.8695
20
-145
30
0
10
-82.4632
20
-145
30
0
10
-83.1126
20
-145
30
0
10
-83.8094
20
-145
30
0
10
-84.545
20
-145
30
0
10
-85.3101
20
-145
30
0
10
-86.0951
20
-145
30
0
10
-86.89
20
-145
30
0
0
SPLINE
5
F9
100
AcDbEntity
8
0
6
ByBlock
62
0
370
-1
100
AcDbSpline
210
0
220
0
230
1
70
8
71
1
72
17
73
15
74
0
42
1e-007
43
1e-007
40
0
40
0
40
0.0714285714286
40
0.142857142857
40
0.214285714286
40
0.285714285714
40
0.357142857143
40
0.428571428571
40
0.5
40
0.571428571429
40
0.642857142857
40
0.714285714286
40
0.785714285714
40
0.857142857143
40
0.928571428571
40
1
40
1
10
-66.89
20
-145
30
0
10
-67.6849
20
-145
30
0
10
-68.4699
20
-145
30
0
10
-69.235
20
-145
30
0
10
-69.9706
20
-145
30
0
10
-70.6674
20
-145
30
0
10
-71.3168
20
-145
30
0
10
-71.9105
20
-145
30
0
10
-72.441
20
-145
30
0
10
-72.9017
20
-145
30
0
10
-73.2869
20
-145
30
0
10
-73.5916
20
-145
30
0
10
-73.812
20
-145
30
0
10
-73.9454
20
-145
30
0
10
-73.99
20
-145
30
0
0
SPLINE
5
FA
100
AcDbEntity
8
0
6
ByBlock
62
0
370
-1
100
AcDbSpline
210
0
220
0
230
1
70
8
71
1
72
17
73
15
74
0
42
1e-007
43
1e-007
40
0
40
0
40
0.0714285714286
40
0.142857142857
40
0.214285714286
40
0.285714285714
40
0.357142857143
40
0.428571428571
40
0.5
40
0.571428571429
40
0.642857142857
40
0.714285714286
40
0.785714285714
40
0.857142857143
40
0.928571428571
40
1
40
1
10
-59.79
20
-145
30
0
10
-59.8346
20
-145
30
0
10
-59.968
20
-145
30
0
10
-60.1884
20
-145
30
0
10
-60.4931
20
-145
30
0
10
-60.8783
20
-145
30
0
10
-61.339
20
-145
30
0
10
-61.8695
20
-145
30
0
10
-62.4632
20
-145
30
0
10
-63.1126
20
-145
30
0
10
-63.8094
20
-145
30
0
10
-64.545
20
-145
30
0
10
-65.3101
20
-145
30
0
10
-66.0951
20
-145
30
0
10
-66.89
20
-145
30
0
0
SPLINE
5
FB
100
AcDbEntity
8
0
6
ByBlock
62
0
370
-1
100
AcDbSpline
210
0
220
0
230
1
70
8
71
1
72
17
73
15
74
0
42
1e-007
43
1e-007
40
0
40
0
40
0.0714285714286
40
0.142857142857
40
0.214285714286
40
0.285714285714
40
0.357142857143
40
0.428571428571
40
0.5
40
0.571428571429
40
0.642857142857
40
0.714285714286
40
0.785714285714
40
0.857142857143
40
0.928571428571
40
1
40
1
10
-203.3
20
-145
30
0
10
-203.343
20
-145
30
0
10
-203.468
20
-145
30
0
10
-203.671
20
-145
30
0
10
-203.94
20
-145
30
0
10
-204.262
20
-145
30
0
10
-204.622
20
-145
30
0
10
-205
20
-145
30
0
10
-205.378
20
-145
30
0
10
-205.738
20
-145
30
0
10
-206.06
20
-145
30
0
10
-206.329
20
-145
30
0
10
-206.532
20
-145
30
0
10
-206.657
20
-145
30
0
10
-206.7
20
-145
30
0
0
ENDBLK
5
51
330
4F
100
AcDbEntity
8
0
100
AcDbBlockEnd
0
BLOCK
5
53
330
52
100
AcDbEntity
8
0
100
AcDbBlockBegin
2
Ortho0021
70
0
10
0
20
0
3
Ortho0021
1

0
LINE
5
FC
100
AcDbEntity
8
0
6
ByBlock
62
0
370
-1
100
AcDbLine
10
-240
20
140
11
-240
21
145
0
LINE
5
FD
100
AcDbEntity
8
0
6
ByBlock
62
0
370
-1
100
AcDbLine
10
10
20
140
11
10
21
145
0
LINE
5
FE
100
AcDbEntity
8
0
6
ByBlock
62
0
370
-1
100
AcDbLine
10
10
20
140
11
-240
21
140
0
LINE
5
FF
100
AcDbEntity
8
0
6
ByBlock
62
0
370
-1
100
AcDbLine
10
-166.13
20
140
11
-148.13
21
140
0
LINE
5
100
100
AcDbEntity
8
0
6
ByBlock
62
0
370
-1
100
AcDbLine
10
-166.13
20
140
11
-148.13
21
140
0
LINE
5
101
100
AcDbEntity
8
0
6
ByBlock
62
0
370
-1
100
AcDbLine
10
-166.13
20
140
11
-148.13
21
140
0
LINE
5
102
100
AcDbEntity
8
0
6
ByBlock
62
0
370
-1
100
AcDbLine
10
-131.267
20
140
11
-113.267
21
140
0
LINE
5
103
100
AcDbEntity
8
0
6
ByBlock
62
0
370
-1
100
AcDbLine
10
-131.211
20
140
11
-113.211
21
140
0
LINE
5
104
100
AcDbEntity
8
0
6
ByBlock
62
0
370
-1
100
AcDbLine
10
-131.18
20
140
11
-113.18
21
140
0
LINE
5
105
100
AcDbEntity
8
0
6
ByBlock
62
0
370
-1
100
AcDbLine
10
-166.13
20
140
11
-148.13
21
140
0
LINE
5
106
100
AcDbEntity
8
0
6
ByBlock
62
0
370
-1
100
AcDbLine
10
-131.307
20
140
11
-113.307
21
140
0
LINE
5
107
100
AcDbEntity
8
0
6
ByBlock
62
0
370
-1
100
AcDbLine
10
-131.665
20
140
11
-113.665
21
140
0
LINE
5
108
100
AcDbEntity
8
0
6
ByBlock
62
0
370
-1
100
AcDbLine
10
-166.13
20
140
11
-148.13
21
140
0
LINE
5
109
100
AcDbEntity
8
0
6
ByBlock
62
0
370
-1
100
AcDbLine
10
-131.1
20
140
11
-113.1
21
140
0
LINE
5
10A
100
AcDbEntity
8
0
6
ByBlock
62
0
370
-1
100
AcDbLine
10
-166.13
20
140
11
-148.13
21
140
0
SPLINE
5
10B
100
AcDbEntity
8
0
6
ByBlock
62
0
370
-1
100
AcDbSpline
210
0
220
0
230
1
70
8
71
1
72
17
73
15
74
0
42
1e-007
43
1e-007
40
0
40
0
40
0.0714285714286
40
0.142857142857
40
0.214285714286
40
0.285714285714
40
0.357142857143
40
0.428571428571
40
0.5
40
0.571428571429
40
0.642857142857
40
0.714285714286
40
0.785714285714
40
0.857142857143
40
0.928571428571
40
1
40
1
10
-86.3
20
140
30
0
10
-86.2674
20
140
30
0
10
-86.1713
20
140
30
0
10
-86.0164
20
140
30
0
10
-85.8105
20
140
30
0
10
-85.564
20
140
30
0
10
-85.2893
20
140
30
0
10
-85
20
140
30
0
10
-84.7107
20
140
30
0
10
-84.436
20
140
30
0
10
-84.1895
20
140
30
0
10
-83.9836
20
140
30
0
10
-83.8287
20
140
30
0
10
-83.7326
20
140
30
0
10
-83.7
20
140
30
0
0
SPLINE
5
10C
100
AcDbEntity
8
0
6
ByBlock
62
0
370
-1
100
AcDbSpline
210
0
220
0
230
1
70
8
71
1
72
17
73
15
74
0
42
1e-007
43
1e-007
40
0
40
0
40
0.0714285714286
40
0.142857142857
40
0.214285714286
40
0.285714285714
40
0.357142857143
40
0.428571428571
40
0.5
40
0.571428571429
40
0.642857142857
40
0.714285714286
40
0.785714285714
40
0.857142857143
40
0.928571428571
40
1
40
1
10
-97.47
20
140
30
0
10
-97.292
20
140
30
0
10
-96.7669
20
140
30
0
10
-95.921
20
140
30
0
10
-94.7968
20
140
30
0
10
-93.4506
20
140
30
0
10
-91.9499
20
140
30
0
10
-90.37
20
140
30
0
10
-88.7901
20
140
30
0
10
-87.2894
20
140
30
0
10
-85.9432
20
140
30
0
10
-84.819
20
140
30
0
10
-83.9731
20
140
30
0
10
-83.448
20
140
30
0
10
-83.27
20
140
30
0
0
LINE
5
10D
100
AcDbEntity
8
0
6
ByBlock
62
0
370
-1
100
AcDbLine
10
-131.18
20
140
11
-113.18
21
140
0
LINE
5
10E
100
AcDbEntity
8
0
6
ByBlock
62
0
370
-1
100
AcDbLine
10
-166.13
20
140
11
-148.13
21
140
0
LINE
5
10F
100
AcDbEntity
8
0
6
ByBlock
62
0
370
-1
100
AcDbLine
10
-166.13
20
140
11
-148.13
21
140
0
LINE
5
110
100
AcDbEntity
8
0
6
ByBlock
62
0
370
-1
100
AcDbLine
10
-131.219
20
140
11
-113.219
21
140
0
SPLINE
5
111
100
AcDbEntity
8
0
6
ByBlock
62
0
370
-1
100
AcDbSpline
210
0
220
0
230
1
70
8
71
1
72
17
73
15
74
0
42
1e-007
43
1e-007
40
0
40
0
40
0.0714285714286
40
0.142857142857
40
0.214285714286
40
0.285714285714
40
0.357142857143
40
0.428571428571
40
0.5
40
0.571428571429
40
0.642857142857
40
0.714285714286
40
0.785714285714
40
0.857142857143
40
0.928571428571
40
1
40
1
10
6.7
20
140
30
0
10
6.65738
20
140
30
0
10
6.53165
20
140
30
0
10
6.32911
20
140
30
0
10
6.05993
20
140
30
0
10
5.7376
20
140
30
0
10
5.37829
20
140
30
0
10
5
20
140
30
0
10
4.62171
20
140
30
0
10
4.2624
20
140
30
0
10
3.94007
20
140
30
0
10
3.67089
20
140
30
0
10
3.46835
20
140
30
0
10
3.34262
20
140
30
0
10
3.3
20
140
30
0
0
SPLINE
5
112
100
AcDbEntity
8
0
6
ByBlock
62
0
370
-1
100
AcDbSpline
210
0
220
0
230
1
70
8
71
1
72
17
73
15
74
0
42
1e-007
43
1e-007
40
0
40
0
40
0.0714285714286
40
0.142857142857
40
0.214285714286
40
0.285714285714
40
0.357142857143
40
0.428571428571
40
0.5
40
0.571428571429
40
0.642857142857
40
0.714285714286
40
0.785714285714
40
0.857142857143
40
0.928571428571
40
1
40
1
10
-48.433
20
140
30
0
10
-48.0569
20
140
30
0
10
-46.9475
20
140
30
0
10
-45.1604
20
140
30
0
10
-42.7853
20
140
30
0
10
-39.9412
20
140
30
0
10
-36.7708
20
140
30
0
10
-33.433
20
140
30
0
10
-30.0952
20
140
30
0
10
-26.9247
20
140
30
0
10
-24.0806
20
140
30
0
10
-21.7055
20
140
30
0
10
-19.9184
20
140
30
0
10
-18.8091
20
140
30
0
10
-18.433
20
140
30
0
0
LINE
5
113
100
AcDbEntity
8
0
6
ByBlock
62
0
370
-1
100
AcDbLine
10
-131.227
20
140
11
-113.227
21
140
0
LINE
5
114
100
AcDbEntity
8
0
6
ByBlock
62
0
370
-1
100
AcDbLine
10
-131.328
20
140
11
-113.328
21
140
0
LINE
5
115
100
AcDbEntity
8
0
6
ByBlock
62
0
370
-1
100
AcDbLine
10
-131.18
20
140
11
-113.18
21
140
0
LINE
5
116
100
AcDbEntity
8
0
6
ByBlock
62
0
370
-1
100
AcDbLine
10
-131.307
20
140
11
-113.307
21
140
0
LINE
5
117
100
AcDbEntity
8
0
6
ByBlock
62
0
370
-1
100
AcDbLine
10
-166.13
20
140
11
-148.13
21
140
0
LINE
5
118
100
AcDbEntity
8
0
6
ByBlock
62
0
370
-1
100
AcDbLine
10
-166.13
20
140
11
-148.13
21
140
0
LINE
5
119
100
AcDbEntity
8
0
6
ByBlock
62
0
370
-1
100
AcDbLine
10
-148.13
20
140
11
-166.13
21
140
0
LINE
5
11A
100
AcDbEntity
8
0
6
ByBlock
62
0
370
-1
100
AcDbLine
10
-166.13
20
140
11
-148.13
21
140
0
SPLINE
5
11B
100
AcDbEntity
8
0
6
ByBlock
62
0
370
-1
100
AcDbSpline
210
0
220
0
230
1
70
8
71
1
72
17
73
15
74
0
42
1e-007
43
1e-007
40
0
40
0
40
0.0714285714286
40
0.142857142857
40
0.214285714286
40
0.285714285714
40
0.357142857143
40
0.428571428571
40
0.5
40
0.571428571429
40
0.642857142857
40
0.714285714286
40
0.785714285714
40
0.857142857143
40
0.928571428571
40
1
40
1
10
-116.7
20
140
30
0
10
-116.657
20
140
30
0
10
-116.532
20
140
30
0
10
-116.329
20
140
30
0
10
-116.06
20
140
30
0
10
-115.738
20
140
30
0
10
-115.378
20
140
30
0
10
-115
20
140
30
0
10
-114.622
20
140
30
0
10
-114.262
20
140
30
0
10
-113.94
20
140
30
0
10
-113.671
20
140
30
0
10
-113.468
20
140
30
0
10
-113.343
20
140
30
0
10
-113.3
20
140
30
0
0
SPLINE
5
11C
100
AcDbEntity
8
0
6
ByBlock
62
0
370
-1
100
AcDbSpline
210
0
220
0
230
1
70
8
71
1
72
17
73
15
74
0
42
1e-007
43
1e-007
40
0
40
0
40
0.0714285714286
40
0.142857142857
40
0.214285714286
40
0.285714285714
40
0.357142857143
40
0.428571428571
40
0.5
40
0.571428571429
40
0.642857142857
40
0.714285714286
40
0.785714285714
40
0.857142857143
40
0.928571428571
40
1
40
1
10
-21.7
20
140
30
0
10
-21.6574
20
140
30
0
10
-21.5316
20
140
30
0
10
-21.3291
20
140
30
0
10
-21.0599
20
140
30
0
10
-20.7376
20
140
30
0
10
-20.3783
20
140
30
0
10
-20
20
140
30
0
10
-19.6217
20
140
30
0
10
-19.2624
20
140
30
0
10
-18.9401
20
140
30
0
10
-18.6709
20
140
30
0
10
-18.4684
20
140
30
0
10
-18.3426
20
140
30
0
10
-18.3
20
140
30
0
0
LINE
5
11D
100
AcDbEntity
8
0
6
ByBlock
62
0
370
-1
100
AcDbLine
10
10
20
145
11
-240
21
145
0
SPLINE
5
11E
100
AcDbEntity
8
0
6
ByBlock
62
0
370
-1
100
AcDbSpline
210
0
220
0
230
1
70
8
71
1
72
17
73
15
74
0
42
1e-007
43
1e-007
40
0
40
0
40
0.0714285714286
40
0.142857142857
40
0.214285714286
40
0.285714285714
40
0.357142857143
40
0.428571428571
40
0.5
40
0.571428571429
40
0.642857142857
40
0.714285714286
40
0.785714285714
40
0.857142857143
40
0.928571428571
40
1
40
1
10
6.7
20
145
30
0
10
6.65738
20
145
30
0
10
6.53165
20
145
30
0
10
6.32911
20
145
30
0
10
6.05993
20
145
30
0
10
5.7376
20
145
30
0
10
5.37829
20
145
30
0
10
5
20
145
30
0
10
4.62171
20
145
30
0
10
4.2624
20
145
30
0
10
3.94007
20
145
30
0
10
3.67089
20
145
30
0
10
3.46835
20
145
30
0
10
3.34262
20
145
30
0
10
3.3
20
145
30
0
0
SPLINE
5
11F
100
AcDbEntity
8
0
6
ByBlock
62
0
370
-1
100
AcDbSpline
210
0
220
0
230
1
70
8
71
1
72
17
73
15
74
0
42
1e-007
43
1e-007
40
0
40
0
40
0.0714285714286
40
0.142857142857
40
0.214285714286
40
0.285714285714
40
0.357142857143
40
0.428571428571
40
0.5
40
0.571428571429
40
0.642857142857
40
0.714285714286
40
0.785714285714
40
0.857142857143
40
0.928571428571
40
1
40
1
10
-48.433
20
145
30
0
10
-48.0569
20
145
30
0
10
-46.9475
20
145
30
0
10
-45.1604
20
145
30
0
10
-42.7853
20
145
30
0
10
-39.9412
20
145
30
0
10
-36.7708
20
145
30
0
10
-33.433
20
145
30
0
10
-30.0952
20
145
30
0
10
-26.9247
20
145
30
0
10
-24.0806
20
145
30
0
10
-21.7055
20
145
30
0
10
-19.9184
20
145
30
0
10
-18.8091
20
145
30
0
10
-18.433
20
145
30
0
0
SPLINE
5
120
100
AcDbEntity
8
0
6
ByBlock
62
0
370
-1
100
AcDbSpline
210
0
220
0
230
1
70
8
71
1
72
17
73
15
74
0
42
1e-007
43
1e-007
40
0
40
0
40
0.0714285714286
40
0.142857142857
40
0.214285714286
40
0.285714285714
40
0.357142857143
40
0.428571428571
40
0.5
40
0.571428571429
40
0.642857142857
40
0.714285714286
40
0.785714285714
40
0.857142857143
40
0.928571428571
40
1
40
1
10
-21.7
20
145
30
0
10
-21.6574
20
145
30
0
10
-21.5316
20
145
30
0
10
-21.3291
20
145
30
0
10
-21.0599
20
145
30
0
10
-20.7376
20
145
30
0
10
-20.3783
20
145
30
0
10
-20
20
145
30
0
10
-19.6217
20
145
30
0
10
-19.2624
20
145
30
0
10
-18.9401
20
145
30
0
10
-18.6709
20
145
30
0
10
-18.4684
20
145
30
0
10
-18.3426
20
145
30
0
10
-18.3
20
145
30
0
0
ENDBLK
5
54
330
52
100
AcDbEntity
8
0
100
AcDbBlockEnd
0
BLOCK
5
56
330
55
100
AcDbEntity
8
0
100
AcDbBlockBegin
2
Ortho0031
70
0
10
0
20
0
3
Ortho0031
1

0
LINE
5
121
100
AcDbEntity
8
0
6
ByBlock
62
0
370
-1
100
AcDbLine
10
210
20
-140
11
210
21
-145
0
LINE
5
122
100
AcDbEntity
8
0
6
ByBlock
62
0
370
-1
100
AcDbLine
10
-210
20
-140
11
-210
21
-145
0
LINE
5
123
100
AcDbEntity
8
0
6
ByBlock
62
0
370
-1
100
AcDbLine
10
-210
20
-140
11
210
21
-140
0
LINE
5
124
100
AcDbEntity
8
0
6
ByBlock
62
0
370
-1
100
AcDbLine
10
-210
20
-145
11
210
21
-145
0
SPLINE
5
125
100
AcDbEntity
8
0
6
ByBlock
62
0
370
-1
100
AcDbSpline
210
0
220
0
230
1
70
8
71
1
72
17
73
15
74
0
42
1e-007
43
1e-007
40
0
40
0
40
0.0714285714286
40
0.142857142857
40
0.214285714286
40
0.285714285714
40
0.357142857143
40
0.428571428571
40
0.5
40
0.571428571429
40
0.642857142857
40
0.714285714286
40
0.785714285714
40
0.857142857143
40
0.928571428571
40
1
40
1
10
-72.97
20
-140
30
0
10
-73.148
20
-140
30
0
10
-73.6731
20
-140
30
0
10
-74.519
20
-140
30
0
10
-75.6432
20
-140
30
0
10
-76.9894
20
-140
30
0
10
-78.4901
20
-140
30
0
10
-80.07
20
-140
30
0
10
-81.6499
20
-140
30
0
10
-83.1506
20
-140
30
0
10
-84.4968
20
-140
30
0
10
-85.621
20
-140
30
0
10
-86.4669
20
-140
30
0
10
-86.992
20
-140
30
0
10
-87.17
20
-140
30
0
0
SPLINE
5
126
100
AcDbEntity
8
0
6
ByBlock
62
0
370
-1
100
AcDbSpline
210
0
220
0
230
1
70
8
71
1
72
17
73
15
74
0
42
1e-007
43
1e-007
40
0
40
0
40
0.0714285714286
40
0.142857142857
40
0.214285714286
40
0.285714285714
40
0.357142857143
40
0.428571428571
40
0.5
40
0.571428571429
40
0.642857142857
40
0.714285714286
40
0.785714285714
40
0.857142857143
40
0.928571428571
40
1
40
1
10
-92.97
20
-140
30
0
10
-93.148
20
-140
30
0
10
-93.6731
20
-140
30
0
10
-94.519
20
-140
30
0
10
-95.6432
20
-140
30
0
10
-96.9894
20
-140
30
0
10
-98.4901
20
-140
30
0
10
-100.07
20
-140
30
0
10
-101.65
20
-140
30
0
10
-103.151
20
-140
30
0
10
-104.497
20
-140
30
0
10
-105.621
20
-140
30
0
10
-106.467
20
-140
30
0
10
-106.992
20
-140
30
0
10
-107.17
20
-140
30
0
0
SPLINE
5
127
100
AcDbEntity
8
0
6
ByBlock
62
0
370
-1
100
AcDbSpline
210
0
220
0
230
1
70
8
71
1
72
17
73
15
74
0
42
1e-007
43
1e-007
40
0
40
0
40
0.0714285714286
40
0.142857142857
40
0.214285714286
40
0.285714285714
40
0.357142857143
40
0.428571428571
40
0.5
40
0.571428571429
40
0.642857142857
40
0.714285714286
40
0.785714285714
40
0.857142857143
40
0.928571428571
40
1
40
1
10
-52.97
20
-140
30
0
10
-53.148
20
-140
30
0
10
-53.6731
20
-140
30
0
10
-54.519
20
-140
30
0
10
-55.6432
20
-140
30
0
10
-56.9894
20
-140
30
0
10
-58.4901
20
-140
30
0
10
-60.07
20
-140
30
0
10
-61.6499
20
-140
30
0
10
-63.1506
20
-140
30
0
10
-64.4968
20
-140
30
0
10
-65.621
20
-140
30
0
10
-66.4669
20
-140
30
0
10
-66.992
20
-140
30
0
10
-67.17
20
-140
30
0
0
SPLINE
5
128
100
AcDbEntity
8
0
6
ByBlock
62
0
370
-1
100
AcDbSpline
210
0
220
0
230
1
70
8
71
1
72
17
73
15
74
0
42
1e-007
43
1e-007
40
0
40
0
40
0.0714285714286
40
0.142857142857
40
0.214285714286
40
0.285714285714
40
0.357142857143
40
0.428571428571
40
0.5
40
0.571428571429
40
0.642857142857
40
0.714285714286
40
0.785714285714
40
0.857142857143
40
0.928571428571
40
1
40
1
10
-32.97
20
-140
30
0
10
-33.148
20
-140
30
0
10
-33.6731
20
-140
30
0
10
-34.519
20
-140
30
0
10
-35.6432
20
-140
30
0
10
-36.9894
20
-140
30
0
10
-38.4901
20
-140
30
0
10
-40.07
20
-140
30
0
10
-41.6499
20
-140
30
0
10
-43.1506
20
-140
30
0
10
-44.4968
20
-140
30
0
10
-45.621
20
-140
30
0
10
-46.4669
20
-140
30
0
10
-46.992
20
-140
30
0
10
-47.17
20
-140
30
0
0
SPLINE
5
129
100
AcDbEntity
8
0
6
ByBlock
62
0
370
-1
100
AcDbSpline
210
0
220
0
230
1
70
8
71
1
72
17
73
15
74
0
42
1e-007
43
1e-007
40
0
40
0
40
0.0714285714286
40
0.142857142857
40
0.214285714286
40
0.285714285714
40
0.357142857143
40
0.428571428571
40
0.5
40
0.571428571429
40
0.642857142857
40
0.714285714286
40
0.785714285714
40
0.857142857143
40
0.928571428571
40
1
40
1
10
-6.01
20
-140
30
0
10
-6.18801
20
-140
30
0
10
-6.71312
20
-140
30
0
10
-7.559
20
-140
30
0
10
-8.68322
20
-140
30
0
10
-10.0294
20
-140
30
0
10
-11.5301
20
-140
30
0
10
-13.11
20
-140
30
0
10
-14.6899
20
-140
30
0
10
-16.1906
20
-140
30
0
10
-17.5368
20
-140
30
0
10
-18.661
20
-140
30
0
10
-19.5069
20
-140
30
0
10
-20.032
20
-140
30
0
10
-20.21
20
-140
30
0
0
SPLINE
5
12A
100
AcDbEntity
8
0
6
ByBlock
62
0
370
-1
100
AcDbSpline
210
0
220
0
230
1
70
8
71
1
72
17
73
15
74
0
42
1e-007
43
1e-007
40
0
40
0
40
0.0714285714286
40
0.142857142857
40
0.214285714286
40
0.285714285714
40
0.357142857143
40
0.428571428571
40
0.5
40
0.571428571429
40
0.642857142857
40
0.714285714286
40
0.785714285714
40
0.857142857143
40
0.928571428571
40
1
40
1
10
-24.7
20
-140
30
0
10
-24.7326
20
-140
30
0
10
-24.8287
20
-140
30
0
10
-24.9836
20
-140
30
0
10
-25.1895
20
-140
30
0
10
-25.436
20
-140
30
0
10
-25.7107
20
-140
30
0
10
-26
20
-140
30
0
10
-26.2893
20
-140
30
0
10
-26.564
20
-140
30
0
10
-26.8105
20
-140
30
0
10
-27.0164
20
-140
30
0
10
-27.1713
20
-140
30
0
10
-27.2674
20
-140
30
0
10
-27.3
20
-140
30
0
0
SPLINE
5
12B
100
AcDbEntity
8
0
6
ByBlock
62
0
370
-1
100
AcDbSpline
210
0
220
0
230
1
70
8
71
1
72
17
73
15
74
0
42
1e-007
43
1e-007
40
0
40
0
40
0.0714285714286
40
0.142857142857
40
0.214285714286
40
0.285714285714
40
0.357142857143
40
0.428571428571
40
0.5
40
0.571428571429
40
0.642857142857
40
0.714285714286
40
0.785714285714
40
0.857142857143
40
0.928571428571
40
1
40
1
10
13.99
20
-140
30
0
10
13.812
20
-140
30
0
10
13.2869
20
-140
30
0
10
12.441
20
-140
30
0
10
11.3168
20
-140
30
0
10
9.97057
20
-140
30
0
10
8.4699
20
-140
30
0
10
6.89
20
-140
30
0
10
5.3101
20
-140
30
0
10
3.80943
20
-140
30
0
10
2.46322
20
-140
30
0
10
1.339
20
-140
30
0
10
0.493121
20
-140
30
0
10
-0.0319882
20
-140
30
0
10
-0.21
20
-140
30
0
0
SPLINE
5
12C
100
AcDbEntity
8
0
6
ByBlock
62
0
370
-1
100
AcDbSpline
210
0
220
0
230
1
70
8
71
1
72
17
73
15
74
0
42
1e-007
43
1e-007
40
0
40
0
40
0.0714285714286
40
0.142857142857
40
0.214285714286
40
0.285714285714
40
0.357142857143
40
0.428571428571
40
0.5
40
0.571428571429
40
0.642857142857
40
0.714285714286
40
0.785714285714
40
0.857142857143
40
0.928571428571
40
1
40
1
10
33.99
20
-140
30
0
10
33.812
20
-140
30
0
10
33.2869
20
-140
30
0
10
32.441
20
-140
30
0
10
31.3168
20
-140
30
0
10
29.9706
20
-140
30
0
10
28.4699
20
-140
30
0
10
26.89
20
-140
30
0
10
25.3101
20
-140
30
0
10
23.8094
20
-140
30
0
10
22.4632
20
-140
30
0
10
21.339
20
-140
30
0
10
20.4931
20
-140
30
0
10
19.968
20
-140
30
0
10
19.79
20
-140
30
0
0
SPLINE
5
12D
100
AcDbEntity
8
0
6
ByBlock
62
0
370
-1
100
AcDbSpline
210
0
220
0
230
1
70
8
71
1
72
17
73
15
74
0
42
1e-007
43
1e-007
40
0
40
0
40
0.0714285714286
40
0.142857142857
40
0.214285714286
40
0.285714285714
40
0.357142857143
40
0.428571428571
40
0.5
40
0.571428571429
40
0.642857142857
40
0.714285714286
40
0.785714285714
40
0.857142857143
40
0.928571428571
40
1
40
1
10
59.2276
20
-140
30
0
10
59.1333
20
-140
30
0
10
58.8515
20
-140
30
0
10
58.3859
20
-140
30
0
10
57.7421
20
-140
30
0
10
56.9285
20
-140
30
0
10
55.9551
20
-140
30
0
10
54.8342
20
-140
30
0
10
53.58
20
-140
30
0
10
52.2081
20
-140
30
0
10
50.7359
20
-140
30
0
10
49.1818
20
-140
30
0
10
47.5654
20
-140
30
0
10
45.9071
20
-140
30
0
10
44.2276
20
-140
30
0
0
LINE
5
12E
100
AcDbEntity
8
0
6
ByBlock
62
0
370
-1
100
AcDbLine
10
44.2276
20
-140
11
-55.7724
21
-140
0
SPLINE
5
12F
100
AcDbEntity
8
0
6
ByBlock
62
0
370
-1
100
AcDbSpline
210
0
220
0
230
1
70
8
71
1
72
17
73
15
74
0
42
1e-007
43
1e-007
40
0
40
0
40
0.0714285714286
40
0.142857142857
40
0.214285714286
40
0.285714285714
40
0.357142857143
40
0.428571428571
40
0.5
40
0.571428571429
40
0.642857142857
40
0.714285714286
40
0.785714285714
40
0.857142857143
40
0.928571428571
40
1
40
1
10
148.3
20
-140
30
0
10
148.343
20
-140
30
0
10
148.468
20
-140
30
0
10
148.671
20
-140
30
0
10
148.94
20
-140
30
0
10
149.262
20
-140
30
0
10
149.622
20
-140
30
0
10
150
20
-140
30
0
10
150.378
20
-140
30
0
10
150.738
20
-140
30
0
10
151.06
20
-140
30
0
10
151.329
20
-140
30
0
10
151.532
20
-140
30
0
10
151.657
20
-140
30
0
10
151.7
20
-140
30
0
0
SPLINE
5
130
100
AcDbEntity
8
0
6
ByBlock
62
0
370
-1
100
AcDbSpline
210
0
220
0
230
1
70
8
71
1
72
17
73
15
74
0
42
1e-007
43
1e-007
40
0
40
0
40
0.0714285714286
40
0.142857142857
40
0.214285714286
40
0.285714285714
40
0.357142857143
40
0.428571428571
40
0.5
40
0.571428571429
40
0.642857142857
40
0.714285714286
40
0.785714285714
40
0.857142857143
40
0.928571428571
40
1
40
1
10
73.99
20
-140
30
0
10
73.812
20
-140
30
0
10
73.2869
20
-140
30
0
10
72.441
20
-140
30
0
10
71.3168
20
-140
30
0
10
69.9706
20
-140
30
0
10
68.4699
20
-140
30
0
10
66.89
20
-140
30
0
10
65.3101
20
-140
30
0
10
63.8094
20
-140
30
0
10
62.4632
20
-140
30
0
10
61.339
20
-140
30
0
10
60.4931
20
-140
30
0
10
59.968
20
-140
30
0
10
59.79
20
-140
30
0
0
SPLINE
5
131
100
AcDbEntity
8
0
6
ByBlock
62
0
370
-1
100
AcDbSpline
210
0
220
0
230
1
70
8
71
1
72
17
73
15
74
0
42
1e-007
43
1e-007
40
0
40
0
40
0.0714285714286
40
0.142857142857
40
0.214285714286
40
0.285714285714
40
0.357142857143
40
0.428571428571
40
0.5
40
0.571428571429
40
0.642857142857
40
0.714285714286
40
0.785714285714
40
0.857142857143
40
0.928571428571
40
1
40
1
10
93.99
20
-140
30
0
10
93.812
20
-140
30
0
10
93.2869
20
-140
30
0
10
92.441
20
-140
30
0
10
91.3168
20
-140
30
0
10
89.9706
20
-140
30
0
10
88.4699
20
-140
30
0
10
86.89
20
-140
30
0
10
85.3101
20
-140
30
0
10
83.8094
20
-140
30
0
10
82.4632
20
-140
30
0
10
81.339
20
-140
30
0
10
80.4931
20
-140
30
0
10
79.968
20
-140
30
0
10
79.79
20
-140
30
0
0
SPLINE
5
132
100
AcDbEntity
8
0
6
ByBlock
62
0
370
-1
100
AcDbSpline
210
0
220
0
230
1
70
8
71
1
72
17
73
15
74
0
42
1e-007
43
1e-007
40
0
40
0
40
0.0714285714286
40
0.142857142857
40
0.214285714286
40
0.285714285714
40
0.357142857143
40
0.428571428571
40
0.5
40
0.571428571429
40
0.642857142857
40
0.714285714286
40
0.785714285714
40
0.857142857143
40
0.928571428571
40
1
40
1
10
53.99
20
-140
30
0
10
53.812
20
-140
30
0
10
53.2869
20
-140
30
0
10
52.441
20
-140
30
0
10
51.3168
20
-140
30
0
10
49.9706
20
-140
30
0
10
48.4699
20
-140
30
0
10
46.89
20
-140
30
0
10
45.3101
20
-140
30
0
10
43.8094
20
-140
30
0
10
42.4632
20
-140
30
0
10
41.339
20
-140
30
0
10
40.4931
20
-140
30
0
10
39.968
20
-140
30
0
10
39.79
20
-140
30
0
0
SPLINE
5
133
100
AcDbEntity
8
0
6
ByBlock
62
0
370
-1
100
AcDbSpline
210
0
220
0
230
1
70
8
71
1
72
17
73
15
74
0
42
1e-007
43
1e-007
40
0
40
0
40
0.0714285714286
40
0.142857142857
40
0.214285714286
40
0.285714285714
40
0.357142857143
40
0.428571428571
40
0.5
40
0.571428571429
40
0.642857142857
40
0.714285714286
40
0.785714285714
40
0.857142857143
40
0.928571428571
40
1
40
1
10
111.09
20
-140
30
0
10
111.057
20
-140
30
0
10
110.961
20
-140
30
0
10
110.806
20
-140
30
0
10
110.601
20
-140
30
0
10
110.354
20
-140
30
0
10
110.079
20
-140
30
0
10
109.79
20
-140
30
0
10
109.501
20
-140
30
0
10
109.226
20
-140
30
0
10
108.979
20
-140
30
0
10
108.774
20
-140
30
0
10
108.619
20
-140
30
0
10
108.523
20
-140
30
0
10
108.49
20
-140
30
0
0
SPLINE
5
134
100
AcDbEntity
8
0
6
ByBlock
62
0
370
-1
100
AcDbSpline
210
0
220
0
230
1
70
8
71
1
72
17
73
15
74
0
42
1e-007
43
1e-007
40
0
40
0
40
0.0714285714286
40
0.142857142857
40
0.214285714286
40
0.285714285714
40
0.357142857143
40
0.428571428571
40
0.5
40
0.571428571429
40
0.642857142857
40
0.714285714286
40
0.785714285714
40
0.857142857143
40
0.928571428571
40
1
40
1
10
206.7
20
-140
30
0
10
206.657
20
-140
30
0
10
206.532
20
-140
30
0
10
206.329
20
-140
30
0
10
206.06
20
-140
30
0
10
205.738
20
-140
30
0
10
205.378
20
-140
30
0
10
205
20
-140
30
0
10
204.622
20
-140
30
0
10
204.262
20
-140
30
0
10
203.94
20
-140
30
0
10
203.671
20
-140
30
0
10
203.468
20
-140
30
0
10
203.343
20
-140
30
0
10
203.3
20
-140
30
0
0
SPLINE
5
135
100
AcDbEntity
8
0
6
ByBlock
62
0
370
-1
100
AcDbSpline
210
0
220
0
230
1
70
8
71
1
72
17
73
15
74
0
42
1e-007
43
1e-007
40
0
40
0
40
0.0714285714286
40
0.142857142857
40
0.214285714286
40
0.285714285714
40
0.357142857143
40
0.428571428571
40
0.5
40
0.571428571429
40
0.642857142857
40
0.714285714286
40
0.785714285714
40
0.857142857143
40
0.928571428571
40
1
40
1
10
-72.97
20
-145
30
0
10
-73.148
20
-145
30
0
10
-73.6731
20
-145
30
0
10
-74.519
20
-145
30
0
10
-75.6432
20
-145
30
0
10
-76.9894
20
-145
30
0
10
-78.4901
20
-145
30
0
10
-80.07
20
-145
30
0
10
-81.6499
20
-145
30
0
10
-83.1506
20
-145
30
0
10
-84.4968
20
-145
30
0
10
-85.621
20
-145
30
0
10
-86.4669
20
-145
30
0
10
-86.992
20
-145
30
0
10
-87.17
20
-145
30
0
0
SPLINE
5
136
100
AcDbEntity
8
0
6
ByBlock
62
0
370
-1
100
AcDbSpline
210
0
220
0
230
1
70
8
71
1
72
17
73
15
74
0
42
1e-007
43
1e-007
40
0
40
0
40
0.0714285714286
40
0.142857142857
40
0.214285714286
40
0.285714285714
40
0.357142857143
40
0.428571428571
40
0.5
40
0.571428571429
40
0.642857142857
40
0.714285714286
40
0.785714285714
40
0.857142857143
40
0.928571428571
40
1
40
1
10
-92.97
20
-145
30
0
10
-93.148
20
-145
30
0
10
-93.6731
20
-145
30
0
10
-94.519
20
-145
30
0
10
-95.6432
20
-145
30
0
10
-96.9894
20
-145
30
0
10
-98.4901
20
-145
30
0
10
-100.07
20
-145
30
0
10
-101.65
20
-145
30
0
10
-103.151
20
-145
30
0
10
-104.497
20
-145
30
0
10
-105.621
20
-145
30
0
10
-106.467
20
-145
30
0
10
-106.992
20
-145
30
0
10
-107.17
20
-145
30
0
0
SPLINE
5
137
100
AcDbEntity
8
0
6
ByBlock
62
0
370
-1
100
AcDbSpline
210
0
220
0
230
1
70
8
71
1
72
17
73
15
74
0
42
1e-007
43
1e-007
40
0
40
0
40
0.0714285714286
40
0.142857142857
40
0.214285714286
40
0.285714285714
40
0.357142857143
40
0.428571428571
40
0.5
40
0.571428571429
40
0.642857142857
40
0.714285714286
40
0.785714285714
40
0.857142857143
40
0.928571428571
40
1
40
1
10
-112.97
20
-145
30
0
10
-113.148
20
-145
30
0
10
-113.673
20
-145
30
0
10
-114.519
20
-145
30
0
10
-115.643
20
-145
30
0
10
-116.989
20
-145
30
0
10
-118.49
20
-145
30
0
10
-120.07
20
-145
30
0
10
-121.65
20
-145
30
0
10
-123.151
20
-145
30
0
10
-124.497
20
-145
30
0
10
-125.621
20
-145
30
0
10
-126.467
20
-145
30
0
10
-126.992
20
-145
30
0
10
-127.17
20
-145
30
0
0
SPLINE
5
138
100
AcDbEntity
8
0
6
ByBlock
62
0
370
-1
100
AcDbSpline
210
0
220
0
230
1
70
8
71
1
72
17
73
15
74
0
42
1e-007
43
1e-007
40
0
40
0
40
0.0714285714286
40
0.142857142857
40
0.214285714286
40
0.285714285714
40
0.357142857143
40
0.428571428571
40
0.5
40
0.571428571429
40
0.642857142857
40
0.714285714286
40
0.785714285714
40
0.857142857143
40
0.928571428571
40
1
40
1
10
-132.97
20
-145
30
0
10
-133.148
20
-145
30
0
10
-133.673
20
-145
30
0
10
-134.519
20
-145
30
0
10
-135.643
20
-145
30
0
10
-136.989
20
-145
30
0
10
-138.49
20
-145
30
0
10
-140.07
20
-145
30
0
10
-141.65
20
-145
30
0
10
-143.151
20
-145
30
0
10
-144.497
20
-145
30
0
10
-145.621
20
-145
30
0
10
-146.467
20
-145
30
0
10
-146.992
20
-145
30
0
10
-147.17
20
-145
30
0
0
SPLINE
5
139
100
AcDbEntity
8
0
6
ByBlock
62
0
370
-1
100
AcDbSpline
210
0
220
0
230
1
70
8
71
1
72
17
73
15
74
0
42
1e-007
43
1e-007
40
0
40
0
40
0.0714285714286
40
0.142857142857
40
0.214285714286
40
0.285714285714
40
0.357142857143
40
0.428571428571
40
0.5
40
0.571428571429
40
0.642857142857
40
0.714285714286
40
0.785714285714
40
0.857142857143
40
0.928571428571
40
1
40
1
10
-52.97
20
-145
30
0
10
-53.148
20
-145
30
0
10
-53.6731
20
-145
30
0
10
-54.519
20
-145
30
0
10
-55.6432
20
-145
30
0
10
-56.9894
20
-145
30
0
10
-58.4901
20
-145
30
0
10
-60.07
20
-145
30
0
10
-61.6499
20
-145
30
0
10
-63.1506
20
-145
30
0
10
-64.4968
20
-145
30
0
10
-65.621
20
-145
30
0
10
-66.4669
20
-145
30
0
10
-66.992
20
-145
30
0
10
-67.17
20
-145
30
0
0
SPLINE
5
13A
100
AcDbEntity
8
0
6
ByBlock
62
0
370
-1
100
AcDbSpline
210
0
220
0
230
1
70
8
71
1
72
17
73
15
74
0
42
1e-007
43
1e-007
40
0
40
0
40
0.0714285714286
40
0.142857142857
40
0.214285714286
40
0.285714285714
40
0.357142857143
40
0.428571428571
40
0.5
40
0.571428571429
40
0.642857142857
40
0.714285714286
40
0.785714285714
40
0.857142857143
40
0.928571428571
40
1
40
1
10
-152.706
20
-145
30
0
10
-152.738
20
-145
30
0
10
-152.834
20
-145
30
0
10
-152.989
20
-145
30
0
10
-153.195
20
-145
30
0
10
-153.442
20
-145
30
0
10
-153.716
20
-145
30
0
10
-154.006
20
-145
30
0
10
-154.295
20
-145
30
0
10
-154.57
20
-145
30
0
10
-154.816
20
-145
30
0
10
-155.022
20
-145
30
0
10
-155.177
20
-145
30
0
10
-155.273
20
-145
30
0
10
-155.306
20
-145
30
0
0
SPLINE
5
13B
100
AcDbEntity
8
0
6
ByBlock
62
0
370
-1
100
AcDbSpline
210
0
220
0
230
1
70
8
71
1
72
17
73
15
74
0
42
1e-007
43
1e-007
40
0
40
0
40
0.0714285714286
40
0.142857142857
40
0.214285714286
40
0.285714285714
40
0.357142857143
40
0.428571428571
40
0.5
40
0.571428571429
40
0.642857142857
40
0.714285714286
40
0.785714285714
40
0.857142857143
40
0.928571428571
40
1
40
1
10
-32.97
20
-145
30
0
10
-33.148
20
-145
30
0
10
-33.6731
20
-145
30
0
10
-34.519
20
-145
30
0
10
-35.6432
20
-145
30
0
10
-36.9894
20
-145
30
0
10
-38.4901
20
-145
30
0
10
-40.07
20
-145
30
0
10
-41.6499
20
-145
30
0
10
-43.1506
20
-145
30
0
10
-44.4968
20
-145
30
0
10
-45.621
20
-145
30
0
10
-46.4669
20
-145
30
0
10
-46.992
20
-145
30
0
10
-47.17
20
-145
30
0
0
SPLINE
5
13C
100
AcDbEntity
8
0
6
ByBlock
62
0
370
-1
100
AcDbSpline
210
0
220
0
230
1
70
8
71
1
72
17
73
15
74
0
42
1e-007
43
1e-007
40
0
40
0
40
0.0714285714286
40
0.142857142857
40
0.214285714286
40
0.285714285714
40
0.357142857143
40
0.428571428571
40
0.5
40
0.571428571429
40
0.642857142857
40
0.714285714286
40
0.785714285714
40
0.857142857143
40
0.928571428571
40
1
40
1
10
-6.01
20
-145
30
0
10
-6.18801
20
-145
30
0
10
-6.71312
20
-145
30
0
10
-7.559
20
-145
30
0
10
-8.68322
20
-145
30
0
10
-10.0294
20
-145
30
0
10
-11.5301
20
-145
30
0
10
-13.11
20
-145
30
0
10
-14.6899
20
-145
30
0
10
-16.1906
20
-145
30
0
10
-17.5368
20
-145
30
0
10
-18.661
20
-145
30
0
10
-19.5069
20
-145
30
0
10
-20.032
20
-145
30
0
10
-20.21
20
-145
30
0
0
SPLINE
5
13D
100
AcDbEntity
8
0
6
ByBlock
62
0
370
-1
100
AcDbSpline
210
0
220
0
230
1
70
8
71
1
72
17
73
15
74
0
42
1e-007
43
1e-007
40
0
40
0
40
0.0714285714286
40
0.142857142857
40
0.214285714286
40
0.285714285714
40
0.357142857143
40
0.428571428571
40
0.5
40
0.571428571429
40
0.642857142857
40
0.714285714286
40
0.785714285714
40
0.857142857143
40
0.928571428571
40
1
40
1
10
-24.7
20
-145
30
0
10
-24.7326
20
-145
30
0
10
-24.8287
20
-145
30
0
10
-24.9836
20
-145
30
0
10
-25.1895
20
-145
30
0
10
-25.436
20
-145
30
0
10
-25.7107
20
-145
30
0
10
-26
20
-145
30
0
10
-26.2893
20
-145
30
0
10
-26.564
20
-145
30
0
10
-26.8105
20
-145
30
0
10
-27.0164
20
-145
30
0
10
-27.1713
20
-145
30
0
10
-27.2674
20
-145
30
0
10
-27.3
20
-145
30
0
0
SPLINE
5
13E
100
AcDbEntity
8
0
6
ByBlock
62
0
370
-1
100
AcDbSpline
210
0
220
0
230
1
70
8
71
1
72
17
73
15
74
0
42
1e-007
43
1e-007
40
0
40
0
40
0.0714285714286
40
0.142857142857
40
0.214285714286
40
0.285714285714
40
0.357142857143
40
0.428571428571
40
0.5
40
0.571428571429
40
0.642857142857
40
0.714285714286
40
0.785714285714
40
0.857142857143
40
0.928571428571
40
1
40
1
10
13.99
20
-145
30
0
10
13.812
20
-145
30
0
10
13.2869
20
-145
30
0
10
12.441
20
-145
30
0
10
11.3168
20
-145
30
0
10
9.97057
20
-145
30
0
10
8.4699
20
-145
30
0
10
6.89
20
-145
30
0
10
5.3101
20
-145
30
0
10
3.80943
20
-145
30
0
10
2.46322
20
-145
30
0
10
1.339
20
-145
30
0
10
0.493121
20
-145
30
0
10
-0.0319882
20
-145
30
0
10
-0.21
20
-145
30
0
0
SPLINE
5
13F
100
AcDbEntity
8
0
6
ByBlock
62
0
370
-1
100
AcDbSpline
210
0
220
0
230
1
70
8
71
1
72
17
73
15
74
0
42
1e-007
43
1e-007
40
0
40
0
40
0.0714285714286
40
0.142857142857
40
0.214285714286
40
0.285714285714
40
0.357142857143
40
0.428571428571
40
0.5
40
0.571428571429
40
0.642857142857
40
0.714285714286
40
0.785714285714
40
0.857142857143
40
0.928571428571
40
1
40
1
10
33.99
20
-145
30
0
10
33.812
20
-145
30
0
10
33.2869
20
-145
30
0
10
32.441
20
-145
30
0
10
31.3168
20
-145
30
0
10
29.9706
20
-145
30
0
10
28.4699
20
-145
30
0
10
26.89
20
-145
30
0
10
25.3101
20
-145
30
0
10
23.8094
20
-145
30
0
10
22.4632
20
-145
30
0
10
21.339
20
-145
30
0
10
20.4931
20
-145
30
0
10
19.968
20
-145
30
0
10
19.79
20
-145
30
0
0
SPLINE
5
140
100
AcDbEntity
8
0
6
ByBlock
62
0
370
-1
100
AcDbSpline
210
0
220
0
230
1
70
8
71
1
72
17
73
15
74
0
42
1e-007
43
1e-007
40
0
40
0
40
0.0714285714286
40
0.142857142857
40
0.214285714286
40
0.285714285714
40
0.357142857143
40
0.428571428571
40
0.5
40
0.571428571429
40
0.642857142857
40
0.714285714286
40
0.785714285714
40
0.857142857143
40
0.928571428571
40
1
40
1
10
-151.7
20
-145
30
0
10
-151.657
20
-145
30
0
10
-151.532
20
-145
30
0
10
-151.329
20
-145
30
0
10
-151.06
20
-145
30
0
10
-150.738
20
-145
30
0
10
-150.378
20
-145
30
0
10
-150
20
-145
30
0
10
-149.622
20
-145
30
0
10
-149.262
20
-145
30
0
10
-148.94
20
-145
30
0
10
-148.671
20
-145
30
0
10
-148.468
20
-145
30
0
10
-148.343
20
-145
30
0
10
-148.3
20
-145
30
0
0
SPLINE
5
141
100
AcDbEntity
8
0
6
ByBlock
62
0
370
-1
100
AcDbSpline
210
0
220
0
230
1
70
8
71
1
72
17
73
15
74
0
42
1e-007
43
1e-007
40
0
40
0
40
0.0714285714286
40
0.142857142857
40
0.214285714286
40
0.285714285714
40
0.357142857143
40
0.428571428571
40
0.5
40
0.571428571429
40
0.642857142857
40
0.714285714286
40
0.785714285714
40
0.857142857143
40
0.928571428571
40
1
40
1
10
59.2276
20
-145
30
0
10
59.1954
20
-145
30
0
10
59.0988
20
-145
30
0
10
58.9384
20
-145
30
0
10
58.7147
20
-145
30
0
10
58.4288
20
-145
30
0
10
58.0819
20
-145
30
0
10
57.6754
20
-145
30
0
10
57.2111
20
-145
30
0
10
56.6911
20
-145
30
0
10
56.1175
20
-145
30
0
10
55.4928
20
-145
30
0
10
54.8197
20
-145
30
0
10
54.101
20
-145
30
0
10
53.34
20
-145
30
0
0
SPLINE
5
142
100
AcDbEntity
8
0
6
ByBlock
62
0
370
-1
100
AcDbSpline
210
0
220
0
230
1
70
8
71
1
72
17
73
15
74
0
42
1e-007
43
1e-007
40
0
40
0
40
0.0714285714286
40
0.142857142857
40
0.214285714286
40
0.285714285714
40
0.357142857143
40
0.428571428571
40
0.5
40
0.571428571429
40
0.642857142857
40
0.714285714286
40
0.785714285714
40
0.857142857143
40
0.928571428571
40
1
40
1
10
46.3382
20
-145
30
0
10
46.1883
20
-145
30
0
10
46.0382
20
-145
30
0
10
45.888
20
-145
30
0
10
45.7376
20
-145
30
0
10
45.587
20
-145
30
0
10
45.4363
20
-145
30
0
10
45.2855
20
-145
30
0
10
45.1346
20
-145
30
0
10
44.9836
20
-145
30
0
10
44.8325
20
-145
30
0
10
44.6813
20
-145
30
0
10
44.5301
20
-145
30
0
10
44.3789
20
-145
30
0
10
44.2276
20
-145
30
0
0
LINE
5
143
100
AcDbEntity
8
0
6
ByBlock
62
0
370
-1
100
AcDbLine
10
44.2276
20
-145
11
33.39
21
-145
0
LINE
5
144
100
AcDbEntity
8
0
6
ByBlock
62
0
370
-1
100
AcDbLine
10
26.39
20
-145
11
13.36
21
-145
0
LINE
5
145
100
AcDbEntity
8
0
6
ByBlock
62
0
370
-1
100
AcDbLine
10
6.26725
20
-145
11
-6.62818
21
-145
0
LINE
5
146
100
AcDbEntity
8
0
6
ByBlock
62
0
370
-1
100
AcDbLine
10
-13.64
20
-145
11
-33.54
21
-145
0
LINE
5
147
100
AcDbEntity
8
0
6
ByBlock
62
0
370
-1
100
AcDbLine
10
-40.64
20
-145
11
-53.57
21
-145
0
SPLINE
5
148
100
AcDbEntity
8
0
6
ByBlock
62
0
370
-1
100
AcDbSpline
210
0
220
0
230
1
70
8
71
1
72
17
73
15
74
0
42
1e-007
43
1e-007
40
0
40
0
40
0.0714285714286
40
0.142857142857
40
0.214285714286
40
0.285714285714
40
0.357142857143
40
0.428571428571
40
0.5
40
0.571428571429
40
0.642857142857
40
0.714285714286
40
0.785714285714
40
0.857142857143
40
0.928571428571
40
1
40
1
10
148.3
20
-145
30
0
10
148.343
20
-145
30
0
10
148.468
20
-145
30
0
10
148.671
20
-145
30
0
10
148.94
20
-145
30
0
10
149.262
20
-145
30
0
10
149.622
20
-145
30
0
10
150
20
-145
30
0
10
150.378
20
-145
30
0
10
150.738
20
-145
30
0
10
151.06
20
-145
30
0
10
151.329
20
-145
30
0
10
151.532
20
-145
30
0
10
151.657
20
-145
30
0
10
151.7
20
-145
30
0
0
SPLINE
5
149
100
AcDbEntity
8
0
6
ByBlock
62
0
370
-1
100
AcDbSpline
210
0
220
0
230
1
70
8
71
1
72
17
73
15
74
0
42
1e-007
43
1e-007
40
0
40
0
40
0.0714285714286
40
0.142857142857
40
0.214285714286
40
0.285714285714
40
0.357142857143
40
0.428571428571
40
0.5
40
0.571428571429
40
0.642857142857
40
0.714285714286
40
0.785714285714
40
0.857142857143
40
0.928571428571
40
1
40
1
10
73.99
20
-145
30
0
10
73.812
20
-145
30
0
10
73.2869
20
-145
30
0
10
72.441
20
-145
30
0
10
71.3168
20
-145
30
0
10
69.9706
20
-145
30
0
10
68.4699
20
-145
30
0
10
66.89
20
-145
30
0
10
65.3101
20
-145
30
0
10
63.8094
20
-145
30
0
10
62.4632
20
-145
30
0
10
61.339
20
-145
30
0
10
60.4931
20
-145
30
0
10
59.968
20
-145
30
0
10
59.79
20
-145
30
0
0
SPLINE
5
14A
100
AcDbEntity
8
0
6
ByBlock
62
0
370
-1
100
AcDbSpline
210
0
220
0
230
1
70
8
71
1
72
17
73
15
74
0
42
1e-007
43
1e-007
40
0
40
0
40
0.0714285714286
40
0.142857142857
40
0.214285714286
40
0.285714285714
40
0.357142857143
40
0.428571428571
40
0.5
40
0.571428571429
40
0.642857142857
40
0.714285714286
40
0.785714285714
40
0.857142857143
40
0.928571428571
40
1
40
1
10
93.99
20
-145
30
0
10
93.812
20
-145
30
0
10
93.2869
20
-145
30
0
10
92.441
20
-145
30
0
10
91.3168
20
-145
30
0
10
89.9706
20
-145
30
0
10
88.4699
20
-145
30
0
10
86.89
20
-145
30
0
10
85.3101
20
-145
30
0
10
83.8094
20
-145
30
0
10
82.4632
20
-145
30
0
10
81.339
20
-145
30
0
10
80.4931
20
-145
30
0
10
79.968
20
-145
30
0
10
79.79
20
-145
30
0
0
SPLINE
5
14B
100
AcDbEntity
8
0
6
ByBlock
62
0
370
-1
100
AcDbSpline
210
0
220
0
230
1
70
8
71
1
72
17
73
15
74
0
42
1e-007
43
1e-007
40
0
40
0
40
0.0714285714286
40
0.142857142857
40
0.214285714286
40
0.285714285714
40
0.357142857143
40
0.428571428571
40
0.5
40
0.571428571429
40
0.642857142857
40
0.714285714286
40
0.785714285714
40
0.857142857143
40
0.928571428571
40
1
40
1
10
53.99
20
-145
30
0
10
53.812
20
-145
30
0
10
53.2869
20
-145
30
0
10
52.441
20
-145
30
0
10
51.3168
20
-145
30
0
10
49.9706
20
-145
30
0
10
48.4699
20
-145
30
0
10
46.89
20
-145
30
0
10
45.3101
20
-145
30
0
10
43.8094
20
-145
30
0
10
42.4632
20
-145
30
0
10
41.339
20
-145
30
0
10
40.4931
20
-145
30
0
10
39.968
20
-145
30
0
10
39.79
20
-145
30
0
0
SPLINE
5
14C
100
AcDbEntity
8
0
6
ByBlock
62
0
370
-1
100
AcDbSpline
210
0
220
0
230
1
70
8
71
1
72
17
73
15
74
0
42
1e-007
43
1e-007
40
0
40
0
40
0.0714285714286
40
0.142857142857
40
0.214285714286
40
0.285714285714
40
0.357142857143
40
0.428571428571
40
0.5
40
0.571428571429
40
0.642857142857
40
0.714285714286
40
0.785714285714
40
0.857142857143
40
0.928571428571
40
1
40
1
10
206.7
20
-145
30
0
10
206.657
20
-145
30
0
10
206.532
20
-145
30
0
10
206.329
20
-145
30
0
10
206.06
20
-145
30
0
10
205.738
20
-145
30
0
10
205.378
20
-145
30
0
10
205
20
-145
30
0
10
204.622
20
-145
30
0
10
204.262
20
-145
30
0
10
203.94
20
-145
30
0
10
203.671
20
-145
30
0
10
203.468
20
-145
30
0
10
203.343
20
-145
30
0
10
203.3
20
-145
30
0
0
SPLINE
5
14D
100
AcDbEntity
8
0
6
ByBlock
62
0
370
-1
100
AcDbSpline
210
0
220
0
230
1
70
8
71
1
72
17
73
15
74
0
42
1e-007
43
1e-007
40
0
40
0
40
0.0714285714286
40
0.142857142857
40
0.214285714286
40
0.285714285714
40
0.357142857143
40
0.428571428571
40
0.5
40
0.571428571429
40
0.642857142857
40
0.714285714286
40
0.785714285714
40
0.857142857143
40
0.928571428571
40
1
40
1
10
-203.3
20
-145
30
0
10
-203.343
20
-145
30
0
10
-203.468
20
-145
30
0
10
-203.671
20
-145
30
0
10
-203.94
20
-145
30
0
10
-204.262
20
-145
30
0
10
-204.622
20
-145
30
0
10
-205
20
-145
30
0
10
-205.378
20
-145
30
0
10
-205.738
20
-145
30
0
10
-206.06
20
-145
30
0
10
-206.329
20
-145
30
0
10
-206.532
20
-145
30
0
10
-206.657
20
-145
30
0
10
-206.7
20
-145
30
0
0
ENDBLK
5
57
330
55
100
AcDbEntity
8
0
100
AcDbBlockEnd
0
BLOCK
5
59
330
58
100
AcDbEntity
8
0
100
AcDbBlockBegin
2
Ortho0041
70
0
10
0
20
0
3
Ortho0041
1

0
LINE
5
14E
100
AcDbEntity
8
0
6
ByBlock
62
0
370
-1
100
AcDbLine
10
240
20
140
11
240
21
145
0
LINE
5
14F
100
AcDbEntity
8
0
6
ByBlock
62
0
370
-1
100
AcDbLine
10
-10
20
140
11
-10
21
145
0
LINE
5
150
100
AcDbEntity
8
0
6
ByBlock
62
0
370
-1
100
AcDbLine
10
240
20
140
11
-10
21
140
0
LINE
5
151
100
AcDbEntity
8
0
6
ByBlock
62
0
370
-1
100
AcDbLine
10
240
20
145
11
-10
21
145
0
SPLINE
5
152
100
AcDbEntity
8
0
6
ByBlock
62
0
370
-1
100
AcDbSpline
210
0
220
0
230
1
70
8
71
1
72
17
73
15
74
0
42
1e-007
43
1e-007
40
0
40
0
40
0.0714285714286
40
0.142857142857
40
0.214285714286
40
0.285714285714
40
0.357142857143
40
0.428571428571
40
0.5
40
0.571428571429
40
0.642857142857
40
0.714285714286
40
0.785714285714
40
0.857142857143
40
0.928571428571
40
1
40
1
10
83.7
20
140
30
0
10
83.7326
20
140
30
0
10
83.8287
20
140
30
0
10
83.9836
20
140
30
0
10
84.1895
20
140
30
0
10
84.436
20
140
30
0
10
84.7107
20
140
30
0
10
85
20
140
30
0
10
85.2893
20
140
30
0
10
85.564
20
140
30
0
10
85.8105
20
140
30
0
10
86.0164
20
140
30
0
10
86.1713
20
140
30
0
10
86.2674
20
140
30
0
10
86.3
20
140
30
0
0
SPLINE
5
153
100
AcDbEntity
8
0
6
ByBlock
62
0
370
-1
100
AcDbSpline
210
0
220
0
230
1
70
8
71
1
72
17
73
15
74
0
42
1e-007
43
1e-007
40
0
40
0
40
0.0714285714286
40
0.142857142857
40
0.214285714286
40
0.285714285714
40
0.357142857143
40
0.428571428571
40
0.5
40
0.571428571429
40
0.642857142857
40
0.714285714286
40
0.785714285714
40
0.857142857143
40
0.928571428571
40
1
40
1
10
192.706
20
140
30
0
10
192.738
20
140
30
0
10
192.834
20
140
30
0
10
192.989
20
140
30
0
10
193.195
20
140
30
0
10
193.442
20
140
30
0
10
193.716
20
140
30
0
10
194.006
20
140
30
0
10
194.295
20
140
30
0
10
194.57
20
140
30
0
10
194.816
20
140
30
0
10
195.022
20
140
30
0
10
195.177
20
140
30
0
10
195.273
20
140
30
0
10
195.306
20
140
30
0
0
LINE
5
154
100
AcDbEntity
8
0
6
ByBlock
62
0
370
-1
100
AcDbLine
10
131.328
20
145
11
131.665
21
145
0
LINE
5
155
100
AcDbEntity
8
0
6
ByBlock
62
0
370
-1
100
AcDbLine
10
113.1
20
145
11
113.18
21
145
0
SPLINE
5
156
100
AcDbEntity
8
0
6
ByBlock
62
0
370
-1
100
AcDbSpline
210
0
220
0
230
1
70
8
71
1
72
17
73
15
74
0
42
1e-007
43
1e-007
40
0
40
0
40
0.0714285714286
40
0.142857142857
40
0.214285714286
40
0.285714285714
40
0.357142857143
40
0.428571428571
40
0.5
40
0.571428571429
40
0.642857142857
40
0.714285714286
40
0.785714285714
40
0.857142857143
40
0.928571428571
40
1
40
1
10
18.433
20
145
30
0
10
18.8091
20
145
30
0
10
19.9184
20
145
30
0
10
21.7055
20
145
30
0
10
24.0806
20
145
30
0
10
26.9247
20
145
30
0
10
30.0952
20
145
30
0
10
33.433
20
145
30
0
10
36.7708
20
145
30
0
10
39.9412
20
145
30
0
10
42.7853
20
145
30
0
10
45.1604
20
145
30
0
10
46.9475
20
145
30
0
10
48.0569
20
145
30
0
10
48.433
20
145
30
0
0
SPLINE
5
157
100
AcDbEntity
8
0
6
ByBlock
62
0
370
-1
100
AcDbSpline
210
0
220
0
230
1
70
8
71
1
72
17
73
15
74
0
42
1e-007
43
1e-007
40
0
40
0
40
0.0714285714286
40
0.142857142857
40
0.214285714286
40
0.285714285714
40
0.357142857143
40
0.428571428571
40
0.5
40
0.571428571429
40
0.642857142857
40
0.714285714286
40
0.785714285714
40
0.857142857143
40
0.928571428571
40
1
40
1
10
-5
20
145
30
0
10
-5.19034
20
145
30
0
10
-5.37829
20
145
30
0
10
-5.56147
20
145
30
0
10
-5.7376
20
145
30
0
10
-5.90445
20
145
30
0
10
-6.05993
20
145
30
0
10
-6.20208
20
145
30
0
10
-6.32911
20
145
30
0
10
-6.43943
20
145
30
0
10
-6.53165
20
145
30
0
10
-6.6046
20
145
30
0
10
-6.65738
20
145
30
0
10
-6.68931
20
145
30
0
10
-6.7
20
145
30
0
0
SPLINE
5
158
100
AcDbEntity
8
0
6
ByBlock
62
0
370
-1
100
AcDbSpline
210
0
220
0
230
1
70
8
71
1
72
17
73
15
74
0
42
1e-007
43
1e-007
40
0
40
0
40
0.0714285714286
40
0.142857142857
40
0.214285714286
40
0.285714285714
40
0.357142857143
40
0.428571428571
40
0.5
40
0.571428571429
40
0.642857142857
40
0.714285714286
40
0.785714285714
40
0.857142857143
40
0.928571428571
40
1
40
1
10
-3.3
20
145
30
0
10
-3.31069
20
145
30
0
10
-3.34262
20
145
30
0
10
-3.3954
20
145
30
0
10
-3.46835
20
145
30
0
10
-3.56057
20
145
30
0
10
-3.67089
20
145
30
0
10
-3.79792
20
145
30
0
10
-3.94007
20
145
30
0
10
-4.09555
20
145
30
0
10
-4.2624
20
145
30
0
10
-4.43853
20
145
30
0
10
-4.62171
20
145
30
0
10
-4.80966
20
145
30
0
10
-5
20
145
30
0
0
LINE
5
159
100
AcDbEntity
8
0
6
ByBlock
62
0
370
-1
100
AcDbLine
10
131.307
20
145
11
131.328
21
145
0
LINE
5
15A
100
AcDbEntity
8
0
6
ByBlock
62
0
370
-1
100
AcDbLine
10
113.18
20
145
11
131.18
21
145
0
LINE
5
15B
100
AcDbEntity
8
0
6
ByBlock
62
0
370
-1
100
AcDbLine
10
131.18
20
145
11
131.307
21
145
0
SPLINE
5
15C
100
AcDbEntity
8
0
6
ByBlock
62
0
370
-1
100
AcDbSpline
210
0
220
0
230
1
70
8
71
1
72
17
73
15
74
0
42
1e-007
43
1e-007
40
0
40
0
40
0.0714285714286
40
0.142857142857
40
0.214285714286
40
0.285714285714
40
0.357142857143
40
0.428571428571
40
0.5
40
0.571428571429
40
0.642857142857
40
0.714285714286
40
0.785714285714
40
0.857142857143
40
0.928571428571
40
1
40
1
10
83.32
20
145
30
0
10
83.498
20
145
30
0
10
84.0231
20
145
30
0
10
84.869
20
145
30
0
10
85.9932
20
145
30
0
10
87.3394
20
145
30
0
10
88.8401
20
145
30
0
10
90.42
20
145
30
0
10
91.9999
20
145
30
0
10
93.5006
20
145
30
0
10
94.8468
20
145
30
0
10
95.971
20
145
30
0
10
96.8169
20
145
30
0
10
97.342
20
145
30
0
10
97.52
20
145
30
0
0
LINE
5
15D
100
AcDbEntity
8
0
6
ByBlock
62
0
370
-1
100
AcDbLine
10
148.13
20
145
11
148.13
21
145
0
LINE
5
15E
100
AcDbEntity
8
0
6
ByBlock
62
0
370
-1
100
AcDbLine
10
148.13
20
145
11
166.13
21
145
0
SPLINE
5
15F
100
AcDbEntity
8
0
6
ByBlock
62
0
370
-1
100
AcDbSpline
210
0
220
0
230
1
70
8
71
1
72
17
73
15
74
0
42
1e-007
43
1e-007
40
0
40
0
40
0.0714285714286
40
0.142857142857
40
0.214285714286
40
0.285714285714
40
0.357142857143
40
0.428571428571
40
0.5
40
0.571428571429
40
0.642857142857
40
0.714285714286
40
0.785714285714
40
0.857142857143
40
0.928571428571
40
1
40
1
10
181.09
20
145
30
0
10
181.268
20
145
30
0
10
181.793
20
145
30
0
10
182.639
20
145
30
0
10
183.763
20
145
30
0
10
185.109
20
145
30
0
10
186.61
20
145
30
0
10
188.19
20
145
30
0
10
189.77
20
145
30
0
10
191.271
20
145
30
0
10
192.617
20
145
30
0
10
193.741
20
145
30
0
10
194.587
20
145
30
0
10
195.112
20
145
30
0
10
195.29
20
145
30
0
0
SPLINE
5
160
100
AcDbEntity
8
0
6
ByBlock
62
0
370
-1
100
AcDbSpline
210
0
220
0
230
1
70
8
71
1
72
17
73
15
74
0
42
1e-007
43
1e-007
40
0
40
0
40
0.0714285714286
40
0.142857142857
40
0.214285714286
40
0.285714285714
40
0.357142857143
40
0.428571428571
40
0.5
40
0.571428571429
40
0.642857142857
40
0.714285714286
40
0.785714285714
40
0.857142857143
40
0.928571428571
40
1
40
1
10
20
20
145
30
0
10
20.1903
20
145
30
0
10
20.3783
20
145
30
0
10
20.5615
20
145
30
0
10
20.7376
20
145
30
0
10
20.9045
20
145
30
0
10
21.0599
20
145
30
0
10
21.2021
20
145
30
0
10
21.3291
20
145
30
0
10
21.4394
20
145
30
0
10
21.5316
20
145
30
0
10
21.6046
20
145
30
0
10
21.6574
20
145
30
0
10
21.6893
20
145
30
0
10
21.7
20
145
30
0
0
SPLINE
5
161
100
AcDbEntity
8
0
6
ByBlock
62
0
370
-1
100
AcDbSpline
210
0
220
0
230
1
70
8
71
1
72
17
73
15
74
0
42
1e-007
43
1e-007
40
0
40
0
40
0.0714285714286
40
0.142857142857
40
0.214285714286
40
0.285714285714
40
0.357142857143
40
0.428571428571
40
0.5
40
0.571428571429
40
0.642857142857
40
0.714285714286
40
0.785714285714
40
0.857142857143
40
0.928571428571
40
1
40
1
10
18.3
20
145
30
0
10
18.3107
20
145
30
0
10
18.3426
20
145
30
0
10
18.3954
20
145
30
0
10
18.4684
20
145
30
0
10
18.5606
20
145
30
0
10
18.6709
20
145
30
0
10
18.7979
20
145
30
0
10
18.9401
20
145
30
0
10
19.0955
20
145
30
0
10
19.2624
20
145
30
0
10
19.4385
20
145
30
0
10
19.6217
20
145
30
0
10
19.8097
20
145
30
0
10
20
20
145
30
0
0
SPLINE
5
162
100
AcDbEntity
8
0
6
ByBlock
62
0
370
-1
100
AcDbSpline
210
0
220
0
230
1
70
8
71
1
72
17
73
15
74
0
42
1e-007
43
1e-007
40
0
40
0
40
0.0714285714286
40
0.142857142857
40
0.214285714286
40
0.285714285714
40
0.357142857143
40
0.428571428571
40
0.5
40
0.571428571429
40
0.642857142857
40
0.714285714286
40
0.785714285714
40
0.857142857143
40
0.928571428571
40
1
40
1
10
115
20
145
30
0
10
115.19
20
145
30
0
10
115.378
20
145
30
0
10
115.561
20
145
30
0
10
115.738
20
145
30
0
10
115.904
20
145
30
0
10
116.06
20
145
30
0
10
116.202
20
145
30
0
10
116.329
20
145
30
0
10
116.439
20
145
30
0
10
116.532
20
145
30
0
10
116.605
20
145
30
0
10
116.657
20
145
30
0
10
116.689
20
145
30
0
10
116.7
20
145
30
0
0
SPLINE
5
163
100
AcDbEntity
8
0
6
ByBlock
62
0
370
-1
100
AcDbSpline
210
0
220
0
230
1
70
8
71
1
72
17
73
15
74
0
42
1e-007
43
1e-007
40
0
40
0
40
0.0714285714286
40
0.142857142857
40
0.214285714286
40
0.285714285714
40
0.357142857143
40
0.428571428571
40
0.5
40
0.571428571429
40
0.642857142857
40
0.714285714286
40
0.785714285714
40
0.857142857143
40
0.928571428571
40
1
40
1
10
113.3
20
145
30
0
10
113.311
20
145
30
0
10
113.343
20
145
30
0
10
113.395
20
145
30
0
10
113.468
20
145
30
0
10
113.561
20
145
30
0
10
113.671
20
145
30
0
10
113.798
20
145
30
0
10
113.94
20
145
30
0
10
114.096
20
145
30
0
10
114.262
20
145
30
0
10
114.439
20
145
30
0
10
114.622
20
145
30
0
10
114.81
20
145
30
0
10
115
20
145
30
0
0
SPLINE
5
164
100
AcDbEntity
8
0
6
ByBlock
62
0
370
-1
100
AcDbSpline
210
0
220
0
230
1
70
8
71
1
72
17
73
15
74
0
42
1e-007
43
1e-007
40
0
40
0
40
0.0714285714286
40
0.142857142857
40
0.214285714286
40
0.285714285714
40
0.357142857143
40
0.428571428571
40
0.5
40
0.571428571429
40
0.642857142857
40
0.714285714286
40
0.785714285714
40
0.857142857143
40
0.928571428571
40
1
40
1
10
210
20
145
30
0
10
210.19
20
145
30
0
10
210.378
20
145
30
0
10
210.561
20
145
30
0
10
210.738
20
145
30
0
10
210.904
20
145
30
0
10
211.06
20
145
30
0
10
211.202
20
145
30
0
10
211.329
20
145
30
0
10
211.439
20
145
30
0
10
211.532
20
145
30
0
10
211.605
20
145
30
0
10
211.657
20
145
30
0
10
211.689
20
145
30
0
10
211.7
20
145
30
0
0
SPLINE
5
165
100
AcDbEntity
8
0
6
ByBlock
62
0
370
-1
100
AcDbSpline
210
0
220
0
230
1
70
8
71
1
72
17
73
15
74
0
42
1e-007
43
1e-007
40
0
40
0
40
0.0714285714286
40
0.142857142857
40
0.214285714286
40
0.285714285714
40
0.357142857143
40
0.428571428571
40
0.5
40
0.571428571429
40
0.642857142857
40
0.714285714286
40
0.785714285714
40
0.857142857143
40
0.928571428571
40
1
40
1
10
208.3
20
145
30
0
10
208.311
20
145
30
0
10
208.343
20
145
30
0
10
208.395
20
145
30
0
10
208.468
20
145
30
0
10
208.561
20
145
30
0
10
208.671
20
145
30
0
10
208.798
20
145
30
0
10
208.94
20
145
30
0
10
209.096
20
145
30
0
10
209.262
20
145
30
0
10
209.439
20
145
30
0
10
209.622
20
145
30
0
10
209.81
20
145
30
0
10
210
20
145
30
0
0
ENDBLK
5
5A
330
58
100
AcDbEntity
8
0
100
AcDbBlockEnd
0
ENDSEC
0
SECTION
2
ENTITIES
0
LINE
5
166
100
AcDbEntity
8
PAPERSIZE
6
ByLayer
62
256
370
-1
100
AcDbLine
10
0
20
-5
11
0
21
0
0
LINE
5
167
100
AcDbEntity
8
PAPERSIZE
6
ByLayer
62
256
370
-1
100
AcDbLine
10
0
20
0
11
5
21
0
0
LINE
5
168
100
AcDbEntity
8
PAPERSIZE
6
ByLayer
62
256
370
-1
100
AcDbLine
10
415
20
0
11
420
21
0
0
LINE
5
169
100
AcDbEntity
8
PAPERSIZE
6
ByLayer
62
256
370
-1
100
AcDbLine
10
420
20
0
11
420
21
-5
0
LINE
5
16A
100
AcDbEntity
8
PAPERSIZE
6
ByLayer
62
256
370
-1
100
AcDbLine
10
415
20
-297
11
420
21
-297
0
LINE
5
16B
100
AcDbEntity
8
PAPERSIZE
6
ByLayer
62
256
370
-1
100
AcDbLine
10
420
20
-297
11
420
21
-292
0
LINE
5
16C
100
AcDbEntity
8
PAPERSIZE
6
ByLayer
62
256
370
-1
100
AcDbLine
10
0
20
-292
11
0
21
-297
0
LINE
5
16D
100
AcDbEntity
8
PAPERSIZE
6
ByLayer
62
256
370
-1
100
AcDbLine
10
0
20
-297
11
5
21
-297
0
LINE
5
16E
100
AcDbEntity
8
BORDER
6
ByLayer
62
7
370
-1
100
AcDbLine
10
20
20
-10
11
410
21
-10
0
LINE
5
16F
100
AcDbEntity
8
BORDER
6
ByLayer
62
7
370
-1
100
AcDbLine
10
410
20
-10
11
410
21
-287
0
LINE
5
170
100
AcDbEntity
8
BORDER
6
ByLayer
62
7
370
-1
100
AcDbLine
10
410
20
-287
11
20
21
-287
0
LINE
5
171
100
AcDbEntity
8
BORDER
6
ByLayer
62
7
370
-1
100
AcDbLine
10
20
20
-287
11
20
21
-10
0
LINE
5
172
100
AcDbEntity
8
TITLEBLOCK
6
ByLayer
62
7
370
-1
100
AcDbLine
10
230
20
-227
11
410
21
-227
0
LINE
5
173
100
AcDbEntity
8
TITLEBLOCK
6
ByLayer
62
7
370
-1
100
AcDbLine
10
410
20
-227
11
410
21
-287
0
LINE
5
174
100
AcDbEntity
8
TITLEBLOCK
6
ByLayer
62
7
370
-1
100
AcDbLine
10
410
20
-287
11
230
21
-287
0
LINE
5
175
100
AcDbEntity
8
TITLEBLOCK
6
ByLayer
62
7
370
-1
100
AcDbLine
10
230
20
-287
11
230
21
-227
0
LINE
5
176
100
AcDbEntity
8
TITLEBLOCK
6
ByLayer
62
7
370
-1
100
AcDbLine
10
230
20
-239
11
410
21
-239
0
LINE
5
177
100
AcDbEntity
8
TITLEBLOCK
6
ByLayer
62
7
370
-1
100
AcDbLine
10
290
20
-227
11
290
21
-239
0
LINE
5
178
100
AcDbEntity
8
TITLEBLOCK
6
ByLayer
62
7
370
-1
100
AcDbLine
10
350
20
-239
11
350
21
-287
0
LINE
5
179
100
AcDbEntity
8
TITLEBLOCK
6
ByLayer
62
7
370
-1
100
AcDbLine
10
370
20
-239
11
370
21
-251
0
LINE
5
17A
100
AcDbEntity
8
TITLEBLOCK
6
ByLayer
62
7
370
-1
100
AcDbLine
10
390
20
-239
11
390
21
-251
0
LINE
5
17B
100
AcDbEntity
8
TITLEBLOCK
6
ByLayer
62
7
370
-1
100
AcDbLine
10
350
20
-251
11
410
21
-251
0
LINE
5
17C
100
AcDbEntity
8
TITLEBLOCK
6
ByLayer
62
7
370
-1
100
AcDbLine
10
350
20
-275
11
410
21
-275
0
LINE
5
17D
100
AcDbEntity
8
TITLEBLOCK
6
ByLayer
62
7
370
-1
100
AcDbLine
10
390
20
-275
11
390
21
-287
0
LINE
5
17E
100
AcDbEntity
8
LOGO
6
ByLayer
62
7
370
-1
100
AcDbLine
10
338.6524
20
-276.15254
11
338.6524
21
-285.00744
0
LINE
5
17F
100
AcDbEntity
8
LOGO
6
ByLayer
62
7
370
-1
100
AcDbLine
10
338.6524
20
-285.00744
11
340.6268
21
-285.00744
0
LINE
5
180
100
AcDbEntity
8
LOGO
6
ByLayer
62
7
370
-1
100
AcDbLine
10
340.6268
20
-285.00744
11
340.6268
21
-281.54224
0
LINE
5
181
100
AcDbEntity
8
LOGO
6
ByLayer
62
7
370
-1
100
AcDbLine
10
340.6268
20
-281.54224
11
342.0228
21
-281.54224
0
LINE
5
182
100
AcDbEntity
8
LOGO
6
ByLayer
62
7
370
-1
100
AcDbLine
10
342.0228
20
-281.54224
11
342.0228
21
-280.17614
0
LINE
5
183
100
AcDbEntity
8
LOGO
6
ByLayer
62
7
370
-1
100
AcDbLine
10
342.0228
20
-280.17614
11
340.6268
21
-280.17614
0
LINE
5
184
100
AcDbEntity
8
LOGO
6
ByLayer
62
7
370
-1
100
AcDbLine
10
340.6268
20
-280.17614
11
340.6268
21
-278.70164
0
LINE
5
185
100
AcDbEntity
8
LOGO
6
ByLayer
62
7
370
-1
100
AcDbLine
10
340.6268
20
-278.70164
11
344.0659
21
-278.70164
0
LINE
5
186
100
AcDbEntity
8
LOGO
6
ByLayer
62
7
370
-1
100
AcDbLine
10
344.0659
20
-278.70164
11
344.0659
21
-276.15754
0
LINE
5
187
100
AcDbEntity
8
LOGO
6
ByLayer
62
7
370
-1
100
AcDbLine
10
344.0659
20
-276.15754
11
338.6524
21
-276.15254
0
LINE
5
188
100
AcDbEntity
8
LOGO
6
ByLayer
62
7
370
-1
100
AcDbLine
10
338.6524
20
-276.15254
11
338.6524
21
-276.15254
0
LINE
5
189
100
AcDbEntity
8
LOGO
6
ByLayer
62
7
370
-1
100
AcDbLine
10
346.2927
20
-279.4504
11
345.78555
21
-279.2744
0
LINE
5
18A
100
AcDbEntity
8
LOGO
6
ByLayer
62
7
370
-1
100
AcDbLine
10
345.78555
20
-279.2744
11
345.30168
21
-278.0378
0
LINE
5
18B
100
AcDbEntity
8
LOGO
6
ByLayer
62
7
370
-1
100
AcDbLine
10
345.30168
20
-278.0378
11
344.54053
21
-278.0778
0
LINE
5
18C
100
AcDbEntity
8
LOGO
6
ByLayer
62
7
370
-1
100
AcDbLine
10
344.54053
20
-278.0778
11
344.19335
21
-279.3565
0
LINE
5
18D
100
AcDbEntity
8
LOGO
6
ByLayer
62
7
370
-1
100
AcDbLine
10
344.19335
20
-279.3565
11
343.70745
21
-279.58919
0
LINE
5
18E
100
AcDbEntity
8
LOGO
6
ByLayer
62
7
370
-1
100
AcDbLine
10
343.70745
20
-279.58919
11
342.49555
21
-279.05904
0
LINE
5
18F
100
AcDbEntity
8
LOGO
6
ByLayer
62
7
370
-1
100
AcDbLine
10
342.49555
20
-279.05904
11
341.98367
21
-279.62786
0
LINE
5
190
100
AcDbEntity
8
LOGO
6
ByLayer
62
7
370
-1
100
AcDbLine
10
341.98367
20
-279.62786
11
342.64259
21
-280.77636
0
LINE
5
191
100
AcDbEntity
8
LOGO
6
ByLayer
62
7
370
-1
100
AcDbLine
10
342.64259
20
-280.77636
11
342.46253
21
-281.28203
0
LINE
5
192
100
AcDbEntity
8
LOGO
6
ByLayer
62
7
370
-1
100
AcDbLine
10
342.46253
20
-281.28203
11
341.22593
21
-281.7659
0
LINE
5
193
100
AcDbEntity
8
LOGO
6
ByLayer
62
7
370
-1
100
AcDbLine
10
341.22593
20
-281.7659
11
341.269994
21
-282.52853
0
LINE
5
194
100
AcDbEntity
8
LOGO
6
ByLayer
62
7
370
-1
100
AcDbLine
10
341.269994
20
-282.52853
11
342.548694
21
-282.87571
0
LINE
5
195
100
AcDbEntity
8
LOGO
6
ByLayer
62
7
370
-1
100
AcDbLine
10
342.548694
20
-282.87571
11
342.781384
21
-283.36161
0
LINE
5
196
100
AcDbEntity
8
LOGO
6
ByLayer
62
7
370
-1
100
AcDbLine
10
342.781384
20
-283.36161
11
342.247174
21
-284.57201
0
LINE
5
197
100
AcDbEntity
8
LOGO
6
ByLayer
62
7
370
-1
100
AcDbLine
10
342.247174
20
-284.57201
11
342.815994
21
-285.08389
0
LINE
5
198
100
AcDbEntity
8
LOGO
6
ByLayer
62
7
370
-1
100
AcDbLine
10
342.815994
20
-285.08389
11
343.964494
21
-284.42498
0
LINE
5
199
100
AcDbEntity
8
LOGO
6
ByLayer
62
7
370
-1
100
AcDbLine
10
343.964494
20
-284.42498
11
344.474224
21
-284.60653
0
LINE
5
19A
100
AcDbEntity
8
LOGO
6
ByLayer
62
7
370
-1
100
AcDbLine
10
344.474224
20
-284.60653
11
344.954024
21
-285.84163
0
LINE
5
19B
100
AcDbEntity
8
LOGO
6
ByLayer
62
7
370
-1
100
AcDbLine
10
344.954024
20
-285.84163
11
345.720724
21
-285.79905
0
LINE
5
19C
100
AcDbEntity
8
LOGO
6
ByLayer
62
7
370
-1
100
AcDbLine
10
345.720724
20
-285.79905
11
346.063834
21
-284.51885
0
LINE
5
19D
100
AcDbEntity
8
LOGO
6
ByLayer
62
7
370
-1
100
AcDbLine
10
346.063834
20
-284.51885
11
346.549734
21
-284.28616
0
LINE
5
19E
100
AcDbEntity
8
LOGO
6
ByLayer
62
7
370
-1
100
AcDbLine
10
346.549734
20
-284.28616
11
347.764234
21
-284.82186
0
LINE
5
19F
100
AcDbEntity
8
LOGO
6
ByLayer
62
7
370
-1
100
AcDbLine
10
347.764234
20
-284.82186
11
348.276114
21
-284.25304
0
LINE
5
1A0
100
AcDbEntity
8
LOGO
6
ByLayer
62
7
370
-1
100
AcDbLine
10
348.276114
20
-284.25304
11
347.617204
21
-283.10454
0
LINE
5
1A1
100
AcDbEntity
8
LOGO
6
ByLayer
62
7
370
-1
100
AcDbLine
10
347.617204
20
-283.10454
11
347.794684
21
-282.59332
0
LINE
5
1A2
100
AcDbEntity
8
LOGO
6
ByLayer
62
7
370
-1
100
AcDbLine
10
347.794684
20
-282.59332
11
349.029784
21
-282.11352
0
LINE
5
1A3
100
AcDbEntity
8
LOGO
6
ByLayer
62
7
370
-1
100
AcDbLine
10
349.029784
20
-282.11352
11
348.991274
21
-281.34831
0
LINE
5
1A4
100
AcDbEntity
8
LOGO
6
ByLayer
62
7
370
-1
100
AcDbLine
10
348.991274
20
-281.34831
11
347.711074
21
-281.0052
0
LINE
5
1A5
100
AcDbEntity
8
LOGO
6
ByLayer
62
7
370
-1
100
AcDbLine
10
347.711074
20
-281.0052
11
347.478384
21
-280.5193
0
LINE
5
1A6
100
AcDbEntity
8
LOGO
6
ByLayer
62
7
370
-1
100
AcDbLine
10
347.478384
20
-280.5193
11
348.010014
21
-279.3033
0
LINE
5
1A7
100
AcDbEntity
8
LOGO
6
ByLayer
62
7
370
-1
100
AcDbLine
10
348.010014
20
-279.3033
11
347.441204
21
-278.79146
0
LINE
5
1A8
100
AcDbEntity
8
LOGO
6
ByLayer
62
7
370
-1
100
AcDbLine
10
347.441204
20
-278.79146
11
346.2927
21
-279.4504
0
LINE
5
1A9
100
AcDbEntity
8
LOGO
6
ByLayer
62
7
370
-1
100
AcDbLine
10
345.7212
20
-280.6748
11
345.95696
21
-280.81159
0
LINE
5
1AA
100
AcDbEntity
8
LOGO
6
ByLayer
62
7
370
-1
100
AcDbLine
10
345.95696
20
-280.81159
11
346.16122
21
-280.99678
0
LINE
5
1AB
100
AcDbEntity
8
LOGO
6
ByLayer
62
7
370
-1
100
AcDbLine
10
346.16122
20
-280.99678
11
346.32475
21
-281.21779
0
LINE
5
1AC
100
AcDbEntity
8
LOGO
6
ByLayer
62
7
370
-1
100
AcDbLine
10
346.32475
20
-281.21779
11
346.44238
21
-281.46351
0
LINE
5
1AD
100
AcDbEntity
8
LOGO
6
ByLayer
62
7
370
-1
100
AcDbLine
10
346.44238
20
-281.46351
11
346.51154
21
-281.7284
0
LINE
5
1AE
100
AcDbEntity
8
LOGO
6
ByLayer
62
7
370
-1
100
AcDbLine
10
346.51154
20
-281.7284
11
346.523
21
-281.99986
0
LINE
5
1AF
100
AcDbEntity
8
LOGO
6
ByLayer
62
7
370
-1
100
AcDbLine
10
346.523
20
-281.99986
11
346.48379
21
-282.27125
0
LINE
5
1B0
100
AcDbEntity
8
LOGO
6
ByLayer
62
7
370
-1
100
AcDbLine
10
346.48379
20
-282.27125
11
346.39431
21
-282.52889
0
LINE
5
1B1
100
AcDbEntity
8
LOGO
6
ByLayer
62
7
370
-1
100
AcDbLine
10
346.39431
20
-282.52889
11
346.25197
21
-282.76723
0
LINE
5
1B2
100
AcDbEntity
8
LOGO
6
ByLayer
62
7
370
-1
100
AcDbLine
10
346.25197
20
-282.76723
11
346.07233
21
-282.9689
0
LINE
5
1B3
100
AcDbEntity
8
LOGO
6
ByLayer
62
7
370
-1
100
AcDbLine
10
346.07233
20
-282.9689
11
345.85132
21
-283.13243
0
LINE
5
1B4
100
AcDbEntity
8
LOGO
6
ByLayer
62
7
370
-1
100
AcDbLine
10
345.85132
20
-283.13243
11
345.6056
21
-283.25006
0
LINE
5
1B5
100
AcDbEntity
8
LOGO
6
ByLayer
62
7
370
-1
100
AcDbLine
10
345.6056
20
-283.25006
11
345.34071
21
-283.31922
0
LINE
5
1B6
100
AcDbEntity
8
LOGO
6
ByLayer
62
7
370
-1
100
AcDbLine
10
345.34071
20
-283.31922
11
345.06776
21
-283.33475
0
LINE
5
1B7
100
AcDbEntity
8
LOGO
6
ByLayer
62
7
370
-1
100
AcDbLine
10
345.06776
20
-283.33475
11
344.79586
21
-283.29475
0
LINE
5
1B8
100
AcDbEntity
8
LOGO
6
ByLayer
62
7
370
-1
100
AcDbLine
10
344.79586
20
-283.29475
11
344.53826
21
-283.20575
0
LINE
5
1B9
100
AcDbEntity
8
LOGO
6
ByLayer
62
7
370
-1
100
AcDbLine
10
344.53826
20
-283.20575
11
344.29996
21
-283.06275
0
LINE
5
1BA
100
AcDbEntity
8
LOGO
6
ByLayer
62
7
370
-1
100
AcDbLine
10
344.29996
20
-283.06275
11
344.09976
21
-282.87975
0
LINE
5
1BB
100
AcDbEntity
8
LOGO
6
ByLayer
62
7
370
-1
100
AcDbLine
10
344.09976
20
-282.87975
11
343.93476
21
-282.66275
0
LINE
5
1BC
100
AcDbEntity
8
LOGO
6
ByLayer
62
7
370
-1
100
AcDbLine
10
343.93476
20
-282.66275
11
343.81706
21
-282.41675
0
LINE
5
1BD
100
AcDbEntity
8
LOGO
6
ByLayer
62
7
370
-1
100
AcDbLine
10
343.81706
20
-282.41675
11
343.74946
21
-282.14775
0
LINE
5
1BE
100
AcDbEntity
8
LOGO
6
ByLayer
62
7
370
-1
100
AcDbLine
10
343.74946
20
-282.14775
11
343.73386
21
-281.87475
0
LINE
5
1BF
100
AcDbEntity
8
LOGO
6
ByLayer
62
7
370
-1
100
AcDbLine
10
343.73386
20
-281.87475
11
343.773066
21
-281.60335
0
LINE
5
1C0
100
AcDbEntity
8
LOGO
6
ByLayer
62
7
370
-1
100
AcDbLine
10
343.773066
20
-281.60335
11
343.86255
21
-281.34571
0
LINE
5
1C1
100
AcDbEntity
8
LOGO
6
ByLayer
62
7
370
-1
100
AcDbLine
10
343.86255
20
-281.34571
11
344.0034
21
-281.11144
0
LINE
5
1C2
100
AcDbEntity
8
LOGO
6
ByLayer
62
7
370
-1
100
AcDbLine
10
344.0034
20
-281.11144
11
344.18453
21
-280.9057
0
LINE
5
1C3
100
AcDbEntity
8
LOGO
6
ByLayer
62
7
370
-1
100
AcDbLine
10
344.18453
20
-280.9057
11
344.40554
21
-280.74218
0
LINE
5
1C4
100
AcDbEntity
8
LOGO
6
ByLayer
62
7
370
-1
100
AcDbLine
10
344.40554
20
-280.74218
11
344.65126
21
-280.62455
0
LINE
5
1C5
100
AcDbEntity
8
LOGO
6
ByLayer
62
7
370
-1
100
AcDbLine
10
344.65126
20
-280.62455
11
344.92021
21
-280.55687
0
LINE
5
1C6
100
AcDbEntity
8
LOGO
6
ByLayer
62
7
370
-1
100
AcDbLine
10
344.92021
20
-280.55687
11
345.19168
21
-280.54541
0
LINE
5
1C7
100
AcDbEntity
8
LOGO
6
ByLayer
62
7
370
-1
100
AcDbLine
10
345.19168
20
-280.54541
11
345.46307
21
-280.58462
0
LINE
5
1C8
100
AcDbEntity
8
LOGO
6
ByLayer
62
7
370
-1
100
AcDbLine
10
345.46307
20
-280.58462
11
345.72071
21
-280.6741
0
LINE
5
1C9
100
AcDbEntity
8
LOGO
6
ByLayer
62
7
370
-1
100
AcDbLine
10
345.72071
20
-280.6741
11
345.7212
21
-280.6748
0
TEXT
5
1CA
100
AcDbEntity
8
TITLEBLOCK
6
ByLayer
62
256
370
20
100
AcDbText
10
231
20
-230
30
0
40
2.2
1
Created by:
50
0
41
1
51
0
7
standard
71
0
210
0
220
0
230
1
100
AcDbText
0
TEXT
5
1CB
100
AcDbEntity
8
TITLEBLOCK
6
ByLayer
62
256
370
20
100
AcDbText
10
231
20
-242
30
0
40
2.2
1
Supplementary information:
50
0
41
1
51
0
7
standard
71
0
210
0
220
0
230
1
100
AcDbText
0
TEXT
5
1CC
100
AcDbEntity
8
TITLEBLOCK
6
ByLayer
62
256
370
20
100
AcDbText
10
291
20
-230
30
0
40
2.2
1
Title:
50
0
41
1
51
0
7
standard
71
0
210
0
220
0
230
1
100
AcDbText
0
TEXT
5
1CD
100
AcDbEntity
8
TITLEBLOCK
6
ByLayer
62
256
370
20
100
AcDbText
10
351
20
-242
30
0
40
2.2
1
Size:
50
0
41
1
51
0
7
standard
71
0
210
0
220
0
230
1
100
AcDbText
0
TEXT
5
1CE
100
AcDbEntity
8
TITLEBLOCK
6
ByLayer
62
256
370
20
100
AcDbText
10
371
20
-242
30
0
40
2.2
1
Sheet:
50
0
41
1
51
0
7
standard
71
0
210
0
220
0
230
1
100
AcDbText
0
TEXT
5
1CF
100
AcDbEntity
8
TITLEBLOCK
6
ByLayer
62
256
370
20
100
AcDbText
10
391
20
-242
30
0
40
2.2
1
Scale:
50
0
41
1
51
0
7
standard
71
0
210
0
220
0
230
1
100
AcDbText
0
TEXT
5
1D0
100
AcDbEntity
8
TITLEBLOCK
6
ByLayer
62
256
370
20
100
AcDbText
10
351
20
-254
30
0
40
2.2
1
Part number:
50
0
41
1
51
0
7
standard
71
0
210
0
220
0
230
1
100
AcDbText
0
TEXT
5
1D1
100
AcDbEntity
8
TITLEBLOCK
6
ByLayer
62
256
370
20
100
AcDbText
10
351
20
-266
30
0
40
2.2
1
Drawing number:
50
0
41
1
51
0
7
standard
71
0
210
0
220
0
230
1
100
AcDbText
0
TEXT
5
1D2
100
AcDbEntity
8
TITLEBLOCK
6
ByLayer
62
256
370
20
100
AcDbText
10
351
20
-278
30
0
40
2.2
1
Date:
50
0
41
1
51
0
7
standard
71
0
210
0
220
0
230
1
100
AcDbText
0
TEXT
5
1D3
100
AcDbEntity
8
TITLEBLOCK
6
ByLayer
62
256
370
20
100
AcDbText
10
391
20
-278
30
0
40
2.2
1
Revision:
50
0
41
1
51
0
7
standard
71
0
210
0
220
0
230
1
100
AcDbText
0
TEXT
5
1D4
100
AcDbEntity
8
TITLEBLOCK
6
ByLayer
62
256
370
35
100
AcDbText
10
260
20
-236
30
0
40
3.7
1
AUTHOR NAME
50
0
41
1
51
0
7
standard
71
0
72
1
11
260
21
-236
31
0
210
0
220
0
230
1
100
AcDbText
0
TEXT
5
1D5
100
AcDbEntity
8
TITLEBLOCK
6
ByLayer
62
256
370
35
100
AcDbText
10
350
20
-236
30
0
40
3.7
1
DRAWING TITLE
50
0
41
1
51
0
7
standard
71
0
72
1
11
350
21
-236
31
0
210
0
220
0
230
1
100
AcDbText
0
TEXT
5
1D6
100
AcDbEntity
8
TITLEBLOCK
6
ByLayer
62
256
370
35
100
AcDbText
10
290
20
-262
30
0
40
3.7
1
FreeCAD DRAWING
50
0
41
1
51
0
7
standard
71
0
72
1
11
290
21
-262
31
0
210
0
220
0
230
1
100
AcDbText
0
TEXT
5
1D7
100
AcDbEntity
8
TITLEBLOCK
6
ByLayer
62
256
370
35
100
AcDbText
10
380
20
-260
30
0
40
3.7
1
PN
50
0
41
1
51
0
7
standard
71
0
72
1
11
380
21
-260
31
0
210
0
220
0
230
1
100
AcDbText
0
TEXT
5
1D8
100
AcDbEntity
8
TITLEBLOCK
6
ByLayer
62
256
370
35
100
AcDbText
10
380
20
-272
30
0
40
3.7
1
DN
50
0
41
1
51
0
7
standard
71
0
72
1
11
380
21
-272
31
0
210
0
220
0
230
1
100
AcDbText
0
TEXT
5
1D9
100
AcDbEntity
8
TITLEBLOCK
6
ByLayer
62
256
370
35
100
AcDbText
10
360
20
-248
30
0
40
3.7
1
A3
50
0
41
1
51
0
7
standard
71
0
72
1
11
360
21
-248
31
0
210
0
220
0
230
1
100
AcDbText
0
TEXT
5
1DA
100
AcDbEntity
8
TITLEBLOCK
6
ByLayer
62
256
370
35
100
AcDbText
10
380
20
-248
30
0
40
3.7
1
X / Y
50
0
41
1
51
0
7
standard
71
0
72
1
11
380
21
-248
31
0
210
0
220
0
230
1
100
AcDbText
0
TEXT
5
1DB
100
AcDbEntity
8
TITLEBLOCK
6
ByLayer
62
256
370
35
100
AcDbText
10
400
20
-248
30
0
40
3.7
1
SCALE
50
0
41
1
51
0
7
standard
71
0
72
1
11
400
21
-248
31
0
210
0
220
0
230
1
100
AcDbText
0
TEXT
5
1DC
100
AcDbEntity
8
TITLEBLOCK
6
ByLayer
62
256
370
35
100
AcDbText
10
370
20
-284
30
0
40
3.7
1
DD/MM/YYYY
50
0
41
1
51
0
7
standard
71
0
72
1
11
370
21
-284
31
0
210
0
220
0
230
1
100
AcDbText
0
TEXT
5
1DD
100
AcDbEntity
8
TITLEBLOCK
6
ByLayer
62
256
370
35
100
AcDbText
10
400
20
-284
30
0
40
3.7
1
REV A
50
0
41
1
51
0
7
standard
71
0
72
1
11
400
21
-284
31
0
210
0
220
0
230
1
100
AcDbText
0
INSERT
5
1DE
100
AcDbEntity
8
0
6
ByLayer
62
256
370
-1
100
AcDbBlockReference
2
Ortho1
10
214.999908447
20
-176
30
0
41
0.5
42
0.5
43
0
50
-90.0000026563
70
1
71
1
44
0
45
0
0
INSERT
5
1DF
100
AcDbEntity
8
0
6
ByLayer
62
256
370
-1
100
AcDbBlockReference
2
Ortho0011
10
214.999908447
20
-275.25
30
0
41
0.5
42
0.5
43
0
50
-180.000005313
70
1
71
1
44
0
45
0
0
INSERT
5
1E0
100
AcDbEntity
8
0
6
ByLayer
62
256
370
-1
100
AcDbBlockReference
2
Ortho0021
10
-6.25
20
-176
30
0
41
0.5
42
0.5
43
0
50
-90.0000026563
70
1
71
1
44
0
45
0
0
INSERT
5
1E1
100
AcDbEntity
8
0
6
ByLayer
62
256
370
-1
100
AcDbBlockReference
2
Ortho0031
10
214.999908447
20
38.25
30
0
41
0.5
42
0.5
43
0
50
0
70
1
71
1
44
0
45
0
0
INSERT
5
1E2
100
AcDbEntity
8
0
6
ByLayer
62
256
370
-1
100
AcDbBlockReference
2
Ortho0041
10
436.25
20
-176
30
0
41
0.5
42
0.5
43
0
50
90.0000026563
70
1
71
1
44
0
45
0
0
ENDSEC
0
SECTION
2
OBJECTS
0
DICTIONARY
5
C
330
0
100
AcDbDictionary
281
1
3
ACAD_GROUP
350
D
0
DICTIONARY
5
D
330
C
100
AcDbDictionary
281
1
0
ENDSEC
0
EOF
