999
dxfrw 0.5.4
0
SECTION
2
HEADER
9
$ACADVER
1
AC1021
9
$HANDSEED
5
20000
9
$DWGCODEPAGE
3
ANSI_1252
9
$INSBASE
10
0
20
0
30
0
9
$EXTMIN
10
1e+020
20
1e+020
30
1e+020
9
$EXTMAX
10
-1e+020
20
-1e+020
30
-1e+020
9
$LIMMIN
10
0
20
0
9
$LIMMAX
10
420
20
297
9
$ORTHOMODE
70
0
9
$LTSCALE
40
1
9
$TEXTSTYLE
7
STANDARD
9
$DIMASZ
40
2.5
9
$DIMEXO
40
0.625
9
$DIMEXE
40
1.25
9
$DIMTXT
40
2.5
9
$DIMTSZ
40
0
9
$DIMAUNIT
70
0
9
$DIMADEC
70
0
9
$DIMSTYLE
2
Standard
9
$DIMGAP
40
0.625
9
$DIMTIH
70
0
9
$LUNITS
70
2
9
$LUPREC
70
4
9
$AUNITS
70
0
9
$AUPREC
70
2
9
$SPLINESEGS
70
8
9
$SNAPSTYLE
70
0
9
$PINSBASE
10
0
20
0
30
0
9
$PLIMMIN
10
0
20
0
9
$PLIMMAX
10
297
20
210
9
$INSUNITS
70
0
9
$PSVPSCALE
40
0
0
ENDSEC
0
SECTION
2
CLASSES
0
ENDSEC
0
SECTION
2
TABLES
0
TABLE
2
VPORT
5
8
330
0
100
AcDbSymbolTable
70
1
0
VPORT
5
31
330
2
100
AcDbSymbolTableRecord
100
AcDbViewportTableRecord
2
*ACTIVE
70
0
10
0
20
0
11
1
21
1
12
469.68460083
22
233.65020752
13
0
23
0
14
10
24
10
15
10
25
10
16
0
26
0
36
1
17
0
27
0
37
0
40
693.321228027
41
2.15543328748
42
50
43
0
44
0
50
0
51
0
71
0
72
100
73
1
74
3
75
0
76
1
77
0
78
0
281
0
65
1
110
0
120
0
130
0
111
1
121
0
131
0
112
0
122
1
132
0
79
0
146
0
348
10020
60
7
61
5
292
1
282
1
141
0
142
0
63
250
421
3358443
0
ENDTAB
0
TABLE
2
LTYPE
5
5
330
0
100
AcDbSymbolTable
70
4
0
LTYPE
5
14
330
5
100
AcDbSymbolTableRecord
100
AcDbLinetypeTableRecord
2
ByBlock
70
0
3

72
65
73
0
40
0
0
LTYPE
5
15
330
5
100
AcDbSymbolTableRecord
100
AcDbLinetypeTableRecord
2
ByLayer
70
0
3

72
65
73
0
40
0
0
LTYPE
5
16
330
5
100
AcDbSymbolTableRecord
100
AcDbLinetypeTableRecord
2
Continuous
70
0
3
Solid line
72
65
73
0
40
0
0
LTYPE
5
32
330
5
100
AcDbSymbolTableRecord
100
AcDbLinetypeTableRecord
2
DOT
70
0
3
Dot . . . . . . . . . . . . . . . . . . . . . .
72
65
73
2
40
6.35
49
0
74
0
49
-6.35
74
0
0
LTYPE
5
33
330
5
100
AcDbSymbolTableRecord
100
AcDbLinetypeTableRecord
2
DOT2
70
0
3
Dot (.5x) .....................................
72
65
73
2
40
3.175
49
0
74
0
49
-3.175
74
0
0
LTYPE
5
34
330
5
100
AcDbSymbolTableRecord
100
AcDbLinetypeTableRecord
2
DOTX2
70
0
3
Dot (2x) .  .  .  .  .  .  .  .  .  .  .  .  .
72
65
73
2
40
12.7
49
0
74
0
49
-12.7
74
0
0
LTYPE
5
35
330
5
100
AcDbSymbolTableRecord
100
AcDbLinetypeTableRecord
2
DASHED
70
0
3
Dot . . . . . . . . . . . . . . . . . . . . . .
72
65
73
2
40
19.05
49
12.7
74
0
49
-6.35
74
0
0
LTYPE
5
36
330
5
100
AcDbSymbolTableRecord
100
AcDbLinetypeTableRecord
2
DASHED2
70
0
3
Dashed (.5x) _ _ _ _ _ _ _ _ _ _ _ _ _ _ _ _ _
72
65
73
2
40
9.525
49
6.35
74
0
49
-3.175
74
0
0
LTYPE
5
37
330
5
100
AcDbSymbolTableRecord
100
AcDbLinetypeTableRecord
2
DASHEDX2
70
0
3
Dashed (2x) ____  ____  ____  ____  ____  ___
72
65
73
2
40
38.1
49
25.4
74
0
49
-12.7
74
0
0
LTYPE
5
38
330
5
100
AcDbSymbolTableRecord
100
AcDbLinetypeTableRecord
2
DASHDOT
70
0
3
Dash dot __ . __ . __ . __ . __ . __ . __ . __
72
65
73
4
40
25.4
49
12.7
74
0
49
-6.35
74
0
49
0
74
0
49
-6.35
74
0
0
LTYPE
5
39
330
5
100
AcDbSymbolTableRecord
100
AcDbLinetypeTableRecord
2
DASHDOT2
70
0
3
Dash dot (.5x) _._._._._._._._._._._._._._._.
72
65
73
4
40
12.7
49
6.35
74
0
49
-3.175
74
0
49
0
74
0
49
-3.175
74
0
0
LTYPE
5
3A
330
5
100
AcDbSymbolTableRecord
100
AcDbLinetypeTableRecord
2
DASHDOTX2
70
0
3
Dash dot (2x) ____  .  ____  .  ____  .  ___
72
65
73
4
40
50.8
49
25.4
74
0
49
-12.7
74
0
49
0
74
0
49
-12.7
74
0
0
LTYPE
5
3B
330
5
100
AcDbSymbolTableRecord
100
AcDbLinetypeTableRecord
2
DIVIDE
70
0
3
Divide ____ . . ____ . . ____ . . ____ . . ____
72
65
73
6
40
31.75
49
12.7
74
0
49
-6.35
74
0
49
0
74
0
49
-6.35
74
0
49
0
74
0
49
-6.35
74
0
0
LTYPE
5
3C
330
5
100
AcDbSymbolTableRecord
100
AcDbLinetypeTableRecord
2
DIVIDE2
70
0
3
Divide (.5x) __..__..__..__..__..__..__..__.._
72
65
73
6
40
15.875
49
6.35
74
0
49
-3.175
74
0
49
0
74
0
49
-3.175
74
0
49
0
74
0
49
-3.175
74
0
0
LTYPE
5
3D
330
5
100
AcDbSymbolTableRecord
100
AcDbLinetypeTableRecord
2
DIVIDEX2
70
0
3
Divide (2x) ________  .  .  ________  .  .  _
72
65
73
6
40
63.5
49
25.4
74
0
49
-12.7
74
0
49
0
74
0
49
-12.7
74
0
49
0
74
0
49
-12.7
74
0
0
LTYPE
5
3E
330
5
100
AcDbSymbolTableRecord
100
AcDbLinetypeTableRecord
2
BORDER
70
0
3
Border __ __ . __ __ . __ __ . __ __ . __ __ .
72
65
73
6
40
44.45
49
12.7
74
0
49
-6.35
74
0
49
12.7
74
0
49
-6.35
74
0
49
0
74
0
49
-6.35
74
0
0
LTYPE
5
3F
330
5
100
AcDbSymbolTableRecord
100
AcDbLinetypeTableRecord
2
BORDER2
70
0
3
Border (.5x) __.__.__.__.__.__.__.__.__.__.__.
72
65
73
6
40
22.225
49
6.35
74
0
49
-3.175
74
0
49
6.35
74
0
49
-3.175
74
0
49
0
74
0
49
-3.175
74
0
0
LTYPE
5
40
330
5
100
AcDbSymbolTableRecord
100
AcDbLinetypeTableRecord
2
BORDERX2
70
0
3
Border (2x) ____  ____  .  ____  ____  .  ___
72
65
73
6
40
88.9
49
25.4
74
0
49
-12.7
74
0
49
25.4
74
0
49
-12.7
74
0
49
0
74
0
49
-12.7
74
0
0
LTYPE
5
41
330
5
100
AcDbSymbolTableRecord
100
AcDbLinetypeTableRecord
2
CENTER
70
0
3
Center ____ _ ____ _ ____ _ ____ _ ____ _ ____
72
65
73
4
40
50.8
49
31.75
74
0
49
-6.35
74
0
49
6.35
74
0
49
-6.35
74
0
0
LTYPE
5
42
330
5
100
AcDbSymbolTableRecord
100
AcDbLinetypeTableRecord
2
CENTER2
70
0
3
Center (.5x) ___ _ ___ _ ___ _ ___ _ ___ _ ___
72
65
73
4
40
28.575
49
19.05
74
0
49
-3.175
74
0
49
3.175
74
0
49
-3.175
74
0
0
LTYPE
5
43
330
5
100
AcDbSymbolTableRecord
100
AcDbLinetypeTableRecord
2
CENTERX2
70
0
3
Center (2x) ________  __  ________  __  _____
72
65
73
4
40
101.6
49
63.5
74
0
49
-12.7
74
0
49
12.7
74
0
49
-12.7
74
0
0
ENDTAB
0
TABLE
2
LAYER
5
2
330
0
100
AcDbSymbolTable
70
1
0
LAYER
5
10
330
2
100
AcDbSymbolTableRecord
100
AcDbLayerTableRecord
2
0
70
0
62
7
6
CONTINUOUS
370
0
390
F
0
ENDTAB
0
TABLE
2
STYLE
5
3
330
0
100
AcDbSymbolTable
70
3
0
STYLE
5
44
330
2
100
AcDbSymbolTableRecord
100
AcDbTextStyleTableRecord
2
Standard
70
0
40
0
41
1
50
0
71
0
42
1
3
txt
4

0
ENDTAB
0
TABLE
2
VIEW
5
6
330
0
100
AcDbSymbolTable
70
0
0
ENDTAB
0
TABLE
2
UCS
5
7
330
0
100
AcDbSymbolTable
70
0
0
ENDTAB
0
TABLE
2
APPID
5
9
330
0
100
AcDbSymbolTable
70
1
0
APPID
5
12
330
9
100
AcDbSymbolTableRecord
100
AcDbRegAppTableRecord
2
ACAD
70
0
0
ENDTAB
0
TABLE
2
DIMSTYLE
5
A
330
0
100
AcDbSymbolTable
70
1
100
AcDbDimStyleTable
71
1
0
DIMSTYLE
105
45
330
A
100
AcDbSymbolTableRecord
100
AcDbDimStyleTableRecord
2
Standard
70
0
40
1
41
2.5
42
0.625
43
0.38
44
1.25
45
0
46
0
47
0
48
0
140
2.5
141
0.09
142
0
143
25.4
144
1
145
0
146
1
147
0.625
148
0
71
0
72
0
73
0
74
1
75
0
76
0
77
0
78
0
79
0
170
0
171
2
172
0
173
0
174
0
175
0
176
0
177
0
178
0
179
0
271
4
272
4
273
2
274
2
275
0
276
0
277
2
278
46
279
0
280
0
281
0
282
0
283
1
284
0
285
0
286
0
288
0
289
3
340
Standard
341

371
-2
372
-2
0
ENDTAB
0
TABLE
2
BLOCK_RECORD
5
1
330
0
100
AcDbSymbolTable
70
2
0
BLOCK_RECORD
5
1F
330
1
100
AcDbSymbolTableRecord
100
AcDbBlockTableRecord
2
*Model_Space
70
0
280
1
281
0
0
BLOCK_RECORD
5
1E
330
1
100
AcDbSymbolTableRecord
100
AcDbBlockTableRecord
2
*Paper_Space
70
0
280
1
281
0
0
BLOCK_RECORD
5
46
330
1
100
AcDbSymbolTableRecord
100
AcDbBlockTableRecord
2
Ortho1
70
0
280
1
281
0
0
BLOCK_RECORD
5
49
330
1
100
AcDbSymbolTableRecord
100
AcDbBlockTableRecord
2
Ortho0011
70
0
280
1
281
0
0
BLOCK_RECORD
5
4C
330
1
100
AcDbSymbolTableRecord
100
AcDbBlockTableRecord
2
Ortho0021
70
0
280
1
281
0
0
BLOCK_RECORD
5
4F
330
1
100
AcDbSymbolTableRecord
100
AcDbBlockTableRecord
2
Ortho0031
70
0
280
1
281
0
0
BLOCK_RECORD
5
52
330
1
100
AcDbSymbolTableRecord
100
AcDbBlockTableRecord
2
Ortho0041
70
0
280
1
281
0
0
ENDTAB
0
ENDSEC
0
SECTION
2
BLOCKS
0
BLOCK
5
20
330
1F
100
AcDbEntity
8
0
100
AcDbBlockBegin
2
*Model_Space
70
0
10
0
20
0
30
0
3
*Model_Space
1

0
ENDBLK
5
21
330
1F
100
AcDbEntity
8
0
100
AcDbBlockEnd
0
BLOCK
5
1C
330
1B
100
AcDbEntity
8
0
100
AcDbBlockBegin
2
*Paper_Space
70
0
10
0
20
0
30
0
3
*Paper_Space
1

0
ENDBLK
5
1D
330
1F
100
AcDbEntity
8
0
100
AcDbBlockEnd
0
BLOCK
5
47
330
46
100
AcDbEntity
8
0
100
AcDbBlockBegin
2
Ortho1
70
0
10
0
20
0
3
Ortho1
1

0
LINE
5
55
100
AcDbEntity
8
0
6
ByBlock
62
0
370
-1
100
AcDbLine
10
-210
20
-145
11
210
21
-145
0
LINE
5
56
100
AcDbEntity
8
0
6
ByBlock
62
0
370
-1
100
AcDbLine
10
-210
20
170
11
-210
21
-145
0
LINE
5
57
100
AcDbEntity
8
0
6
ByBlock
62
0
370
-1
100
AcDbLine
10
210
20
-145
11
210
21
170
0
LINE
5
58
100
AcDbEntity
8
0
6
ByBlock
62
0
370
-1
100
AcDbLine
10
210
20
170
11
-210
21
170
0
CIRCLE
5
59
100
AcDbEntity
8
0
6
ByBlock
62
0
370
-1
100
AcDbCircle
10
-205
20
-92.5
40
1.7
0
CIRCLE
5
5A
100
AcDbEntity
8
0
6
ByBlock
62
0
370
-1
100
AcDbCircle
10
205
20
-92.5
40
1.7
0
CIRCLE
5
5B
100
AcDbEntity
8
0
6
ByBlock
62
0
370
-1
100
AcDbCircle
10
-205
20
12.5
40
1.7
0
CIRCLE
5
5C
100
AcDbEntity
8
0
6
ByBlock
62
0
370
-1
100
AcDbCircle
10
205
20
12.5
40
1.7
0
CIRCLE
5
5D
100
AcDbEntity
8
0
6
ByBlock
62
0
370
-1
100
AcDbCircle
10
205
20
117.5
40
1.7
0
CIRCLE
5
5E
100
AcDbEntity
8
0
6
ByBlock
62
0
370
-1
100
AcDbCircle
10
-205
20
117.5
40
1.7
0
CIRCLE
5
5F
100
AcDbEntity
8
0
6
ByBlock
62
0
370
-1
100
AcDbCircle
10
0
20
165
40
1.7
0
CIRCLE
5
60
100
AcDbEntity
8
0
6
ByBlock
62
0
370
-1
100
AcDbCircle
10
150
20
165
40
1.7
0
CIRCLE
5
61
100
AcDbEntity
8
0
6
ByBlock
62
0
370
-1
100
AcDbCircle
10
-150
20
165
40
1.7
0
ENDBLK
5
48
330
46
100
AcDbEntity
8
0
100
AcDbBlockEnd
0
BLOCK
5
4A
330
49
100
AcDbEntity
8
0
100
AcDbBlockBegin
2
Ortho0011
70
0
10
0
20
0
3
Ortho0011
1

0
LINE
5
62
100
AcDbEntity
8
0
6
ByBlock
62
0
370
-1
100
AcDbLine
10
-240
20
145
11
-250
21
145
0
LINE
5
63
100
AcDbEntity
8
0
6
ByBlock
62
0
370
-1
100
AcDbLine
10
-240
20
-170
11
-250
21
-170
0
LINE
5
64
100
AcDbEntity
8
0
6
ByBlock
62
0
370
-1
100
AcDbLine
10
-240
20
-170
11
-240
21
145
0
LINE
5
65
100
AcDbEntity
8
0
6
ByBlock
62
0
370
-1
100
AcDbLine
10
-250
20
-170
11
-250
21
145
0
SPLINE
5
66
100
AcDbEntity
8
0
6
ByBlock
62
0
370
-1
100
AcDbSpline
210
0
220
0
230
1
70
8
71
1
72
17
73
15
74
0
42
1e-007
43
1e-007
40
0
40
0
40
0.0714285714286
40
0.142857142857
40
0.214285714286
40
0.285714285714
40
0.357142857143
40
0.428571428571
40
0.5
40
0.571428571429
40
0.642857142857
40
0.714285714286
40
0.785714285714
40
0.857142857143
40
0.928571428571
40
1
40
1
10
-250
20
90.8
30
0
10
-250
20
90.8426
30
0
10
-250
20
90.9684
30
0
10
-250
20
91.1709
30
0
10
-250
20
91.4401
30
0
10
-250
20
91.7624
30
0
10
-250
20
92.1217
30
0
10
-250
20
92.5
30
0
10
-250
20
92.8783
30
0
10
-250
20
93.2376
30
0
10
-250
20
93.5599
30
0
10
-250
20
93.8291
30
0
10
-250
20
94.0316
30
0
10
-250
20
94.1574
30
0
10
-250
20
94.2
30
0
0
SPLINE
5
67
100
AcDbEntity
8
0
6
ByBlock
62
0
370
-1
100
AcDbSpline
210
0
220
0
230
1
70
8
71
1
72
17
73
15
74
0
42
1e-007
43
1e-007
40
0
40
0
40
0.0714285714286
40
0.142857142857
40
0.214285714286
40
0.285714285714
40
0.357142857143
40
0.428571428571
40
0.5
40
0.571428571429
40
0.642857142857
40
0.714285714286
40
0.785714285714
40
0.857142857143
40
0.928571428571
40
1
40
1
10
-250
20
-166.7
30
0
10
-250
20
-166.657
30
0
10
-250
20
-166.532
30
0
10
-250
20
-166.329
30
0
10
-250
20
-166.06
30
0
10
-250
20
-165.738
30
0
10
-250
20
-165.378
30
0
10
-250
20
-165
30
0
10
-250
20
-164.622
30
0
10
-250
20
-164.262
30
0
10
-250
20
-163.94
30
0
10
-250
20
-163.671
30
0
10
-250
20
-163.468
30
0
10
-250
20
-163.343
30
0
10
-250
20
-163.3
30
0
0
ENDBLK
5
4B
330
49
100
AcDbEntity
8
0
100
AcDbBlockEnd
0
BLOCK
5
4D
330
4C
100
AcDbEntity
8
0
100
AcDbBlockBegin
2
Ortho0021
70
0
10
0
20
0
3
Ortho0021
1

0
LINE
5
68
100
AcDbEntity
8
0
6
ByBlock
62
0
370
-1
100
AcDbLine
10
240
20
-210
11
250
21
-210
0
LINE
5
69
100
AcDbEntity
8
0
6
ByBlock
62
0
370
-1
100
AcDbLine
10
240
20
210
11
250
21
210
0
LINE
5
6A
100
AcDbEntity
8
0
6
ByBlock
62
0
370
-1
100
AcDbLine
10
240
20
210
11
240
21
-210
0
LINE
5
6B
100
AcDbEntity
8
0
6
ByBlock
62
0
370
-1
100
AcDbLine
10
250
20
210
11
250
21
-210
0
SPLINE
5
6C
100
AcDbEntity
8
0
6
ByBlock
62
0
370
-1
100
AcDbSpline
210
0
220
0
230
1
70
8
71
1
72
17
73
15
74
0
42
1e-007
43
1e-007
40
0
40
0
40
0.0714285714286
40
0.142857142857
40
0.214285714286
40
0.285714285714
40
0.357142857143
40
0.428571428571
40
0.5
40
0.571428571429
40
0.642857142857
40
0.714285714286
40
0.785714285714
40
0.857142857143
40
0.928571428571
40
1
40
1
10
250
20
1.7
30
0
10
250
20
1.65738
30
0
10
250
20
1.53165
30
0
10
250
20
1.32911
30
0
10
250
20
1.05993
30
0
10
250
20
0.737602
30
0
10
250
20
0.378286
30
0
10
250
20
1.04095e-016
30
0
10
250
20
-0.378286
30
0
10
250
20
-0.737602
30
0
10
250
20
-1.05993
30
0
10
250
20
-1.32911
30
0
10
250
20
-1.53165
30
0
10
250
20
-1.65738
30
0
10
250
20
-1.7
30
0
0
SPLINE
5
6D
100
AcDbEntity
8
0
6
ByBlock
62
0
370
-1
100
AcDbSpline
210
0
220
0
230
1
70
8
71
1
72
17
73
15
74
0
42
1e-007
43
1e-007
40
0
40
0
40
0.0714285714286
40
0.142857142857
40
0.214285714286
40
0.285714285714
40
0.357142857143
40
0.428571428571
40
0.5
40
0.571428571429
40
0.642857142857
40
0.714285714286
40
0.785714285714
40
0.857142857143
40
0.928571428571
40
1
40
1
10
250
20
151.7
30
0
10
250
20
151.657
30
0
10
250
20
151.532
30
0
10
250
20
151.329
30
0
10
250
20
151.06
30
0
10
250
20
150.738
30
0
10
250
20
150.378
30
0
10
250
20
150
30
0
10
250
20
149.622
30
0
10
250
20
149.262
30
0
10
250
20
148.94
30
0
10
250
20
148.671
30
0
10
250
20
148.468
30
0
10
250
20
148.343
30
0
10
250
20
148.3
30
0
0
SPLINE
5
6E
100
AcDbEntity
8
0
6
ByBlock
62
0
370
-1
100
AcDbSpline
210
0
220
0
230
1
70
8
71
1
72
17
73
15
74
0
42
1e-007
43
1e-007
40
0
40
0
40
0.0714285714286
40
0.142857142857
40
0.214285714286
40
0.285714285714
40
0.357142857143
40
0.428571428571
40
0.5
40
0.571428571429
40
0.642857142857
40
0.714285714286
40
0.785714285714
40
0.857142857143
40
0.928571428571
40
1
40
1
10
250
20
-148.3
30
0
10
250
20
-148.343
30
0
10
250
20
-148.468
30
0
10
250
20
-148.671
30
0
10
250
20
-148.94
30
0
10
250
20
-149.262
30
0
10
250
20
-149.622
30
0
10
250
20
-150
30
0
10
250
20
-150.378
30
0
10
250
20
-150.738
30
0
10
250
20
-151.06
30
0
10
250
20
-151.329
30
0
10
250
20
-151.532
30
0
10
250
20
-151.657
30
0
10
250
20
-151.7
30
0
0
ENDBLK
5
4E
330
4C
100
AcDbEntity
8
0
100
AcDbBlockEnd
0
BLOCK
5
50
330
4F
100
AcDbEntity
8
0
100
AcDbBlockBegin
2
Ortho0031
70
0
10
0
20
0
3
Ortho0031
1

0
LINE
5
6F
100
AcDbEntity
8
0
6
ByBlock
62
0
370
-1
100
AcDbLine
10
240
20
145
11
250
21
145
0
LINE
5
70
100
AcDbEntity
8
0
6
ByBlock
62
0
370
-1
100
AcDbLine
10
240
20
-170
11
250
21
-170
0
LINE
5
71
100
AcDbEntity
8
0
6
ByBlock
62
0
370
-1
100
AcDbLine
10
240
20
145
11
240
21
-170
0
LINE
5
72
100
AcDbEntity
8
0
6
ByBlock
62
0
370
-1
100
AcDbLine
10
250
20
145
11
250
21
-170
0
SPLINE
5
73
100
AcDbEntity
8
0
6
ByBlock
62
0
370
-1
100
AcDbSpline
210
0
220
0
230
1
70
8
71
1
72
17
73
15
74
0
42
1e-007
43
1e-007
40
0
40
0
40
0.0714285714286
40
0.142857142857
40
0.214285714286
40
0.285714285714
40
0.357142857143
40
0.428571428571
40
0.5
40
0.571428571429
40
0.642857142857
40
0.714285714286
40
0.785714285714
40
0.857142857143
40
0.928571428571
40
1
40
1
10
250
20
92.5
30
0
10
250
20
92.3097
30
0
10
250
20
92.1217
30
0
10
250
20
91.9385
30
0
10
250
20
91.7624
30
0
10
250
20
91.5955
30
0
10
250
20
91.4401
30
0
10
250
20
91.2979
30
0
10
250
20
91.1709
30
0
10
250
20
91.0606
30
0
10
250
20
90.9684
30
0
10
250
20
90.8954
30
0
10
250
20
90.8426
30
0
10
250
20
90.8107
30
0
10
250
20
90.8
30
0
0
SPLINE
5
74
100
AcDbEntity
8
0
6
ByBlock
62
0
370
-1
100
AcDbSpline
210
0
220
0
230
1
70
8
71
1
72
17
73
15
74
0
42
1e-007
43
1e-007
40
0
40
0
40
0.0714285714286
40
0.142857142857
40
0.214285714286
40
0.285714285714
40
0.357142857143
40
0.428571428571
40
0.5
40
0.571428571429
40
0.642857142857
40
0.714285714286
40
0.785714285714
40
0.857142857143
40
0.928571428571
40
1
40
1
10
250
20
94.2
30
0
10
250
20
94.1893
30
0
10
250
20
94.1574
30
0
10
250
20
94.1046
30
0
10
250
20
94.0316
30
0
10
250
20
93.9394
30
0
10
250
20
93.8291
30
0
10
250
20
93.7021
30
0
10
250
20
93.5599
30
0
10
250
20
93.4045
30
0
10
250
20
93.2376
30
0
10
250
20
93.0615
30
0
10
250
20
92.8783
30
0
10
250
20
92.6903
30
0
10
250
20
92.5
30
0
0
SPLINE
5
75
100
AcDbEntity
8
0
6
ByBlock
62
0
370
-1
100
AcDbSpline
210
0
220
0
230
1
70
8
71
1
72
17
73
15
74
0
42
1e-007
43
1e-007
40
0
40
0
40
0.0714285714286
40
0.142857142857
40
0.214285714286
40
0.285714285714
40
0.357142857143
40
0.428571428571
40
0.5
40
0.571428571429
40
0.642857142857
40
0.714285714286
40
0.785714285714
40
0.857142857143
40
0.928571428571
40
1
40
1
10
250
20
-165
30
0
10
250
20
-165.19
30
0
10
250
20
-165.378
30
0
10
250
20
-165.561
30
0
10
250
20
-165.738
30
0
10
250
20
-165.904
30
0
10
250
20
-166.06
30
0
10
250
20
-166.202
30
0
10
250
20
-166.329
30
0
10
250
20
-166.439
30
0
10
250
20
-166.532
30
0
10
250
20
-166.605
30
0
10
250
20
-166.657
30
0
10
250
20
-166.689
30
0
10
250
20
-166.7
30
0
0
SPLINE
5
76
100
AcDbEntity
8
0
6
ByBlock
62
0
370
-1
100
AcDbSpline
210
0
220
0
230
1
70
8
71
1
72
17
73
15
74
0
42
1e-007
43
1e-007
40
0
40
0
40
0.0714285714286
40
0.142857142857
40
0.214285714286
40
0.285714285714
40
0.357142857143
40
0.428571428571
40
0.5
40
0.571428571429
40
0.642857142857
40
0.714285714286
40
0.785714285714
40
0.857142857143
40
0.928571428571
40
1
40
1
10
250
20
-163.3
30
0
10
250
20
-163.311
30
0
10
250
20
-163.343
30
0
10
250
20
-163.395
30
0
10
250
20
-163.468
30
0
10
250
20
-163.561
30
0
10
250
20
-163.671
30
0
10
250
20
-163.798
30
0
10
250
20
-163.94
30
0
10
250
20
-164.096
30
0
10
250
20
-164.262
30
0
10
250
20
-164.439
30
0
10
250
20
-164.622
30
0
10
250
20
-164.81
30
0
10
250
20
-165
30
0
0
ENDBLK
5
51
330
4F
100
AcDbEntity
8
0
100
AcDbBlockEnd
0
BLOCK
5
53
330
52
100
AcDbEntity
8
0
100
AcDbBlockBegin
2
Ortho0041
70
0
10
0
20
0
3
Ortho0041
1

0
LINE
5
77
100
AcDbEntity
8
0
6
ByBlock
62
0
370
-1
100
AcDbLine
10
-240
20
-210
11
-250
21
-210
0
LINE
5
78
100
AcDbEntity
8
0
6
ByBlock
62
0
370
-1
100
AcDbLine
10
-240
20
210
11
-250
21
210
0
LINE
5
79
100
AcDbEntity
8
0
6
ByBlock
62
0
370
-1
100
AcDbLine
10
-240
20
-210
11
-240
21
210
0
LINE
5
7A
100
AcDbEntity
8
0
6
ByBlock
62
0
370
-1
100
AcDbLine
10
-250
20
-210
11
-250
21
210
0
SPLINE
5
7B
100
AcDbEntity
8
0
6
ByBlock
62
0
370
-1
100
AcDbSpline
210
0
220
0
230
1
70
8
71
1
72
17
73
15
74
0
42
1e-007
43
1e-007
40
0
40
0
40
0.0714285714286
40
0.142857142857
40
0.214285714286
40
0.285714285714
40
0.357142857143
40
0.428571428571
40
0.5
40
0.571428571429
40
0.642857142857
40
0.714285714286
40
0.785714285714
40
0.857142857143
40
0.928571428571
40
1
40
1
10
-240
20
1.7
30
0
10
-240
20
1.65738
30
0
10
-240
20
1.53165
30
0
10
-240
20
1.32911
30
0
10
-240
20
1.05993
30
0
10
-240
20
0.737602
30
0
10
-240
20
0.378286
30
0
10
-240
20
1.04095e-016
30
0
10
-240
20
-0.378286
30
0
10
-240
20
-0.737602
30
0
10
-240
20
-1.05993
30
0
10
-240
20
-1.32911
30
0
10
-240
20
-1.53165
30
0
10
-240
20
-1.65738
30
0
10
-240
20
-1.7
30
0
0
SPLINE
5
7C
100
AcDbEntity
8
0
6
ByBlock
62
0
370
-1
100
AcDbSpline
210
0
220
0
230
1
70
8
71
1
72
17
73
15
74
0
42
1e-007
43
1e-007
40
0
40
0
40
0.0714285714286
40
0.142857142857
40
0.214285714286
40
0.285714285714
40
0.357142857143
40
0.428571428571
40
0.5
40
0.571428571429
40
0.642857142857
40
0.714285714286
40
0.785714285714
40
0.857142857143
40
0.928571428571
40
1
40
1
10
-240
20
151.7
30
0
10
-240
20
151.657
30
0
10
-240
20
151.532
30
0
10
-240
20
151.329
30
0
10
-240
20
151.06
30
0
10
-240
20
150.738
30
0
10
-240
20
150.378
30
0
10
-240
20
150
30
0
10
-240
20
149.622
30
0
10
-240
20
149.262
30
0
10
-240
20
148.94
30
0
10
-240
20
148.671
30
0
10
-240
20
148.468
30
0
10
-240
20
148.343
30
0
10
-240
20
148.3
30
0
0
SPLINE
5
7D
100
AcDbEntity
8
0
6
ByBlock
62
0
370
-1
100
AcDbSpline
210
0
220
0
230
1
70
8
71
1
72
17
73
15
74
0
42
1e-007
43
1e-007
40
0
40
0
40
0.0714285714286
40
0.142857142857
40
0.214285714286
40
0.285714285714
40
0.357142857143
40
0.428571428571
40
0.5
40
0.571428571429
40
0.642857142857
40
0.714285714286
40
0.785714285714
40
0.857142857143
40
0.928571428571
40
1
40
1
10
-240
20
-148.3
30
0
10
-240
20
-148.343
30
0
10
-240
20
-148.468
30
0
10
-240
20
-148.671
30
0
10
-240
20
-148.94
30
0
10
-240
20
-149.262
30
0
10
-240
20
-149.622
30
0
10
-240
20
-150
30
0
10
-240
20
-150.378
30
0
10
-240
20
-150.738
30
0
10
-240
20
-151.06
30
0
10
-240
20
-151.329
30
0
10
-240
20
-151.532
30
0
10
-240
20
-151.657
30
0
10
-240
20
-151.7
30
0
0
SPLINE
5
7E
100
AcDbEntity
8
0
6
ByBlock
62
0
370
-1
100
AcDbSpline
210
0
220
0
230
1
70
8
71
1
72
17
73
15
74
0
42
1e-007
43
1e-007
40
0
40
0
40
0.0714285714286
40
0.142857142857
40
0.214285714286
40
0.285714285714
40
0.357142857143
40
0.428571428571
40
0.5
40
0.571428571429
40
0.642857142857
40
0.714285714286
40
0.785714285714
40
0.857142857143
40
0.928571428571
40
1
40
1
10
-240
20
-206.7
30
0
10
-240
20
-206.657
30
0
10
-240
20
-206.532
30
0
10
-240
20
-206.329
30
0
10
-240
20
-206.06
30
0
10
-240
20
-205.738
30
0
10
-240
20
-205.378
30
0
10
-240
20
-205
30
0
10
-240
20
-204.622
30
0
10
-240
20
-204.262
30
0
10
-240
20
-203.94
30
0
10
-240
20
-203.671
30
0
10
-240
20
-203.468
30
0
10
-240
20
-203.343
30
0
10
-240
20
-203.3
30
0
0
ENDBLK
5
54
330
52
100
AcDbEntity
8
0
100
AcDbBlockEnd
0
ENDSEC
0
SECTION
2
ENTITIES
0
INSERT
5
7F
100
AcDbEntity
8
0
6
ByLayer
62
256
370
-1
100
AcDbBlockReference
2
Ortho1
10
210
20
-123.1875
30
0
41
0.375
42
0.375
43
0
50
0
70
1
71
1
44
0
45
0
0
INSERT
5
80
100
AcDbEntity
8
0
6
ByLayer
62
256
370
-1
100
AcDbBlockReference
2
Ortho0011
10
-21.25
20
-123.1875
30
0
41
0.375
42
0.375
43
0
50
-180.000005313
70
1
71
1
44
0
45
0
0
INSERT
5
81
100
AcDbEntity
8
0
6
ByLayer
62
256
370
-1
100
AcDbBlockReference
2
Ortho0021
10
210
20
57.15625
30
0
41
0.375
42
0.375
43
0
50
-90.0000026563
70
1
71
1
44
0
45
0
0
INSERT
5
82
100
AcDbEntity
8
0
6
ByLayer
62
256
370
-1
100
AcDbBlockReference
2
Ortho0031
10
441.25
20
-123.1875
30
0
41
0.375
42
0.375
43
0
50
-180.000005313
70
1
71
1
44
0
45
0
0
INSERT
5
83
100
AcDbEntity
8
0
6
ByLayer
62
256
370
-1
100
AcDbBlockReference
2
Ortho0041
10
210
20
-294.15625
30
0
41
0.375
42
0.375
43
0
50
-90.0000026563
70
1
71
1
44
0
45
0
0
ENDSEC
0
SECTION
2
OBJECTS
0
DICTIONARY
5
C
330
0
100
AcDbDictionary
281
1
3
ACAD_GROUP
350
D
0
DICTIONARY
5
D
330
C
100
AcDbDictionary
281
1
0
ENDSEC
0
EOF
