999
FreeCAD DXF exporter v0.16-6706 (Git)
0
SECTION
2
HEADER
9
$ACADVER
1
AC1009
0
ENDSEC
0
SECTION
2
BLOCKS
0
BLOCK
5
2711
100
AcDbEntity
8
0
100
AcDbBlockBegin
2
Ortho1
70
0
10
0
20
0
3
Ortho1
1

0
LINE
8
0
6
BYBLOCK
62
0
5
2712
100
AcDbEntity
100
AcDbLine
10
-210
20
-145
30
0
11
210
21
-145
31
0
0
LINE
8
0
6
BYBLOCK
62
0
5
2713
100
AcDbEntity
100
AcDbLine
10
-210
20
170
30
0
11
-210
21
-145
31
0
0
LINE
8
0
6
BYBLOCK
62
0
5
2714
100
AcDbEntity
100
AcDbLine
10
210
20
-145
30
0
11
210
21
170
31
0
0
LINE
8
0
6
BYBLOCK
62
0
5
2715
100
AcDbEntity
100
AcDbLine
10
210
20
170
30
0
11
-210
21
170
31
0
0
CIRCLE
8
0
6
BYBLOCK
62
0
5
2716
100
AcDbEntity
100
AcDbCircle
10
-205
20
-92.5
30
0
40
1.7
0
CIRCLE
8
0
6
BYBLOCK
62
0
5
2717
100
AcDbEntity
100
AcDbCircle
10
205
20
-92.5
30
0
40
1.7
0
CIRCLE
8
0
6
BYBLOCK
62
0
5
2718
100
AcDbEntity
100
AcDbCircle
10
-205
20
12.5
30
0
40
1.7
0
CIRCLE
8
0
6
BYBLOCK
62
0
5
2719
100
AcDbEntity
100
AcDbCircle
10
205
20
12.5
30
0
40
1.7
0
CIRCLE
8
0
6
BYBLOCK
62
0
5
271a
100
AcDbEntity
100
AcDbCircle
10
205
20
117.5
30
0
40
1.7
0
CIRCLE
8
0
6
BYBLOCK
62
0
5
271b
100
AcDbEntity
100
AcDbCircle
10
-205
20
117.5
30
0
40
1.7
0
CIRCLE
8
0
6
BYBLOCK
62
0
5
271c
100
AcDbEntity
100
AcDbCircle
10
0
20
165
30
0
40
1.7
0
CIRCLE
8
0
6
BYBLOCK
62
0
5
271d
100
AcDbEntity
100
AcDbCircle
10
150
20
165
30
0
40
1.7
0
CIRCLE
8
0
6
BYBLOCK
62
0
5
271e
100
AcDbEntity
100
AcDbCircle
10
-150
20
165
30
0
40
1.7
0
ENDBLK
5
271f
100
AcDbEntity
8
0
100
AcDbBlockEnd
0
BLOCK
5
2720
100
AcDbEntity
8
0
100
AcDbBlockBegin
2
Ortho0011
70
0
10
0
20
0
3
Ortho0011
1

0
LINE
8
0
6
BYBLOCK
62
0
5
2721
100
AcDbEntity
100
AcDbLine
10
-240
20
145
30
0
11
-250
21
145
31
0
0
LINE
8
0
6
BYBLOCK
62
0
5
2722
100
AcDbEntity
100
AcDbLine
10
-240
20
-170
30
0
11
-250
21
-170
31
0
0
LINE
8
0
6
BYBLOCK
62
0
5
2723
100
AcDbEntity
100
AcDbLine
10
-240
20
-170
30
0
11
-240
21
145
31
0
0
LINE
8
0
6
BYBLOCK
62
0
5
2724
100
AcDbEntity
100
AcDbLine
10
-250
20
-170
30
0
11
-250
21
145
31
0
0
SPLINE
8
0
6
BYBLOCK
62
0
5
2725
100
AcDbEntity
100
AcDbSpline
70
0
71
1
72
17
73
15
74
0
40
1.5708
40
1.5708
40
1.7952
40
2.0196
40
2.24399
40
2.46839
40
2.69279
40
2.91719
40
3.14159
40
3.36599
40
3.59039
40
3.81479
40
4.03919
40
4.26359
40
4.48799
40
4.71239
40
4.71239
10
-250
20
90.8
30
0
10
-250
20
90.8426
30
0
10
-250
20
90.9684
30
0
10
-250
20
91.1709
30
0
10
-250
20
91.4401
30
0
10
-250
20
91.7624
30
0
10
-250
20
92.1217
30
0
10
-250
20
92.5
30
0
10
-250
20
92.8783
30
0
10
-250
20
93.2376
30
0
10
-250
20
93.5599
30
0
10
-250
20
93.8291
30
0
10
-250
20
94.0316
30
0
10
-250
20
94.1574
30
0
10
-250
20
94.2
30
0
0
SPLINE
8
0
6
BYBLOCK
62
0
5
2726
100
AcDbEntity
100
AcDbSpline
70
0
71
1
72
17
73
15
74
0
40
1.5708
40
1.5708
40
1.7952
40
2.0196
40
2.24399
40
2.46839
40
2.69279
40
2.91719
40
3.14159
40
3.36599
40
3.59039
40
3.81479
40
4.03919
40
4.26359
40
4.48799
40
4.71239
40
4.71239
10
-250
20
-166.7
30
0
10
-250
20
-166.657
30
0
10
-250
20
-166.532
30
0
10
-250
20
-166.329
30
0
10
-250
20
-166.06
30
0
10
-250
20
-165.738
30
0
10
-250
20
-165.378
30
0
10
-250
20
-165
30
0
10
-250
20
-164.622
30
0
10
-250
20
-164.262
30
0
10
-250
20
-163.94
30
0
10
-250
20
-163.671
30
0
10
-250
20
-163.468
30
0
10
-250
20
-163.343
30
0
10
-250
20
-163.3
30
0
0
ENDBLK
5
2727
100
AcDbEntity
8
0
100
AcDbBlockEnd
0
BLOCK
5
2728
100
AcDbEntity
8
0
100
AcDbBlockBegin
2
Ortho0021
70
0
10
0
20
0
3
Ortho0021
1

0
LINE
8
0
6
BYBLOCK
62
0
5
2729
100
AcDbEntity
100
AcDbLine
10
240
20
-210
30
0
11
250
21
-210
31
0
0
LINE
8
0
6
BYBLOCK
62
0
5
272a
100
AcDbEntity
100
AcDbLine
10
240
20
210
30
0
11
250
21
210
31
0
0
LINE
8
0
6
BYBLOCK
62
0
5
272b
100
AcDbEntity
100
AcDbLine
10
240
20
210
30
0
11
240
21
-210
31
0
0
LINE
8
0
6
BYBLOCK
62
0
5
272c
100
AcDbEntity
100
AcDbLine
10
250
20
210
30
0
11
250
21
-210
31
0
0
SPLINE
8
0
6
BYBLOCK
62
0
5
272d
100
AcDbEntity
100
AcDbSpline
70
0
71
1
72
17
73
15
74
0
40
0
40
0
40
0.224399
40
0.448799
40
0.673198
40
0.897598
40
1.122
40
1.3464
40
1.5708
40
1.7952
40
2.0196
40
2.24399
40
2.46839
40
2.69279
40
2.91719
40
3.14159
40
3.14159
10
250
20
1.7
30
0
10
250
20
1.65738
30
0
10
250
20
1.53165
30
0
10
250
20
1.32911
30
0
10
250
20
1.05993
30
0
10
250
20
0.737602
30
0
10
250
20
0.378286
30
0
10
250
20
1.04095e-016
30
0
10
250
20
-0.378286
30
0
10
250
20
-0.737602
30
0
10
250
20
-1.05993
30
0
10
250
20
-1.32911
30
0
10
250
20
-1.53165
30
0
10
250
20
-1.65738
30
0
10
250
20
-1.7
30
0
0
SPLINE
8
0
6
BYBLOCK
62
0
5
272e
100
AcDbEntity
100
AcDbSpline
70
0
71
1
72
17
73
15
74
0
40
0
40
0
40
0.224399
40
0.448799
40
0.673198
40
0.897598
40
1.122
40
1.3464
40
1.5708
40
1.7952
40
2.0196
40
2.24399
40
2.46839
40
2.69279
40
2.91719
40
3.14159
40
3.14159
10
250
20
151.7
30
0
10
250
20
151.657
30
0
10
250
20
151.532
30
0
10
250
20
151.329
30
0
10
250
20
151.06
30
0
10
250
20
150.738
30
0
10
250
20
150.378
30
0
10
250
20
150
30
0
10
250
20
149.622
30
0
10
250
20
149.262
30
0
10
250
20
148.94
30
0
10
250
20
148.671
30
0
10
250
20
148.468
30
0
10
250
20
148.343
30
0
10
250
20
148.3
30
0
0
SPLINE
8
0
6
BYBLOCK
62
0
5
272f
100
AcDbEntity
100
AcDbSpline
70
0
71
1
72
17
73
15
74
0
40
0
40
0
40
0.224399
40
0.448799
40
0.673198
40
0.897598
40
1.122
40
1.3464
40
1.5708
40
1.7952
40
2.0196
40
2.24399
40
2.46839
40
2.69279
40
2.91719
40
3.14159
40
3.14159
10
250
20
-148.3
30
0
10
250
20
-148.343
30
0
10
250
20
-148.468
30
0
10
250
20
-148.671
30
0
10
250
20
-148.94
30
0
10
250
20
-149.262
30
0
10
250
20
-149.622
30
0
10
250
20
-150
30
0
10
250
20
-150.378
30
0
10
250
20
-150.738
30
0
10
250
20
-151.06
30
0
10
250
20
-151.329
30
0
10
250
20
-151.532
30
0
10
250
20
-151.657
30
0
10
250
20
-151.7
30
0
0
ENDBLK
5
2730
100
AcDbEntity
8
0
100
AcDbBlockEnd
0
BLOCK
5
2731
100
AcDbEntity
8
0
100
AcDbBlockBegin
2
Ortho0031
70
0
10
0
20
0
3
Ortho0031
1

0
LINE
8
0
6
BYBLOCK
62
0
5
2732
100
AcDbEntity
100
AcDbLine
10
240
20
145
30
0
11
250
21
145
31
0
0
LINE
8
0
6
BYBLOCK
62
0
5
2733
100
AcDbEntity
100
AcDbLine
10
240
20
-170
30
0
11
250
21
-170
31
0
0
LINE
8
0
6
BYBLOCK
62
0
5
2734
100
AcDbEntity
100
AcDbLine
10
240
20
145
30
0
11
240
21
-170
31
0
0
LINE
8
0
6
BYBLOCK
62
0
5
2735
100
AcDbEntity
100
AcDbLine
10
250
20
145
30
0
11
250
21
-170
31
0
0
SPLINE
8
0
6
BYBLOCK
62
0
5
2736
100
AcDbEntity
100
AcDbSpline
70
0
71
1
72
17
73
15
74
0
40
0
40
0
40
0.1122
40
0.224399
40
0.336599
40
0.448799
40
0.560999
40
0.673198
40
0.785398
40
0.897598
40
1.0098
40
1.122
40
1.2342
40
1.3464
40
1.4586
40
1.5708
40
1.5708
10
250
20
92.5
30
0
10
250
20
92.3097
30
0
10
250
20
92.1217
30
0
10
250
20
91.9385
30
0
10
250
20
91.7624
30
0
10
250
20
91.5955
30
0
10
250
20
91.4401
30
0
10
250
20
91.2979
30
0
10
250
20
91.1709
30
0
10
250
20
91.0606
30
0
10
250
20
90.9684
30
0
10
250
20
90.8954
30
0
10
250
20
90.8426
30
0
10
250
20
90.8107
30
0
10
250
20
90.8
30
0
0
SPLINE
8
0
6
BYBLOCK
62
0
5
2737
100
AcDbEntity
100
AcDbSpline
70
0
71
1
72
17
73
15
74
0
40
4.71239
40
4.71239
40
4.82459
40
4.93679
40
5.04899
40
5.16119
40
5.27339
40
5.38559
40
5.49779
40
5.60999
40
5.72219
40
5.83439
40
5.94659
40
6.05879
40
6.17099
40
6.28319
40
6.28319
10
250
20
94.2
30
0
10
250
20
94.1893
30
0
10
250
20
94.1574
30
0
10
250
20
94.1046
30
0
10
250
20
94.0316
30
0
10
250
20
93.9394
30
0
10
250
20
93.8291
30
0
10
250
20
93.7021
30
0
10
250
20
93.5599
30
0
10
250
20
93.4045
30
0
10
250
20
93.2376
30
0
10
250
20
93.0615
30
0
10
250
20
92.8783
30
0
10
250
20
92.6903
30
0
10
250
20
92.5
30
0
0
SPLINE
8
0
6
BYBLOCK
62
0
5
2738
100
AcDbEntity
100
AcDbSpline
70
0
71
1
72
17
73
15
74
0
40
0
40
0
40
0.1122
40
0.224399
40
0.336599
40
0.448799
40
0.560999
40
0.673198
40
0.785398
40
0.897598
40
1.0098
40
1.122
40
1.2342
40
1.3464
40
1.4586
40
1.5708
40
1.5708
10
250
20
-165
30
0
10
250
20
-165.19
30
0
10
250
20
-165.378
30
0
10
250
20
-165.561
30
0
10
250
20
-165.738
30
0
10
250
20
-165.904
30
0
10
250
20
-166.06
30
0
10
250
20
-166.202
30
0
10
250
20
-166.329
30
0
10
250
20
-166.439
30
0
10
250
20
-166.532
30
0
10
250
20
-166.605
30
0
10
250
20
-166.657
30
0
10
250
20
-166.689
30
0
10
250
20
-166.7
30
0
0
SPLINE
8
0
6
BYBLOCK
62
0
5
2739
100
AcDbEntity
100
AcDbSpline
70
0
71
1
72
17
73
15
74
0
40
4.71239
40
4.71239
40
4.82459
40
4.93679
40
5.04899
40
5.16119
40
5.27339
40
5.38559
40
5.49779
40
5.60999
40
5.72219
40
5.83439
40
5.94659
40
6.05879
40
6.17099
40
6.28319
40
6.28319
10
250
20
-163.3
30
0
10
250
20
-163.311
30
0
10
250
20
-163.343
30
0
10
250
20
-163.395
30
0
10
250
20
-163.468
30
0
10
250
20
-163.561
30
0
10
250
20
-163.671
30
0
10
250
20
-163.798
30
0
10
250
20
-163.94
30
0
10
250
20
-164.096
30
0
10
250
20
-164.262
30
0
10
250
20
-164.439
30
0
10
250
20
-164.622
30
0
10
250
20
-164.81
30
0
10
250
20
-165
30
0
0
ENDBLK
5
273a
100
AcDbEntity
8
0
100
AcDbBlockEnd
0
BLOCK
5
273b
100
AcDbEntity
8
0
100
AcDbBlockBegin
2
Ortho0041
70
0
10
0
20
0
3
Ortho0041
1

0
LINE
8
0
6
BYBLOCK
62
0
5
273c
100
AcDbEntity
100
AcDbLine
10
-240
20
-210
30
0
11
-250
21
-210
31
0
0
LINE
8
0
6
BYBLOCK
62
0
5
273d
100
AcDbEntity
100
AcDbLine
10
-240
20
210
30
0
11
-250
21
210
31
0
0
LINE
8
0
6
BYBLOCK
62
0
5
273e
100
AcDbEntity
100
AcDbLine
10
-240
20
-210
30
0
11
-240
21
210
31
0
0
LINE
8
0
6
BYBLOCK
62
0
5
273f
100
AcDbEntity
100
AcDbLine
10
-250
20
-210
30
0
11
-250
21
210
31
0
0
SPLINE
8
0
6
BYBLOCK
62
0
5
2740
100
AcDbEntity
100
AcDbSpline
70
0
71
1
72
17
73
15
74
0
40
0
40
0
40
0.224399
40
0.448799
40
0.673198
40
0.897598
40
1.122
40
1.3464
40
1.5708
40
1.7952
40
2.0196
40
2.24399
40
2.46839
40
2.69279
40
2.91719
40
3.14159
40
3.14159
10
-240
20
1.7
30
0
10
-240
20
1.65738
30
0
10
-240
20
1.53165
30
0
10
-240
20
1.32911
30
0
10
-240
20
1.05993
30
0
10
-240
20
0.737602
30
0
10
-240
20
0.378286
30
0
10
-240
20
1.04095e-016
30
0
10
-240
20
-0.378286
30
0
10
-240
20
-0.737602
30
0
10
-240
20
-1.05993
30
0
10
-240
20
-1.32911
30
0
10
-240
20
-1.53165
30
0
10
-240
20
-1.65738
30
0
10
-240
20
-1.7
30
0
0
SPLINE
8
0
6
BYBLOCK
62
0
5
2741
100
AcDbEntity
100
AcDbSpline
70
0
71
1
72
17
73
15
74
0
40
0
40
0
40
0.224399
40
0.448799
40
0.673198
40
0.897598
40
1.122
40
1.3464
40
1.5708
40
1.7952
40
2.0196
40
2.24399
40
2.46839
40
2.69279
40
2.91719
40
3.14159
40
3.14159
10
-240
20
151.7
30
0
10
-240
20
151.657
30
0
10
-240
20
151.532
30
0
10
-240
20
151.329
30
0
10
-240
20
151.06
30
0
10
-240
20
150.738
30
0
10
-240
20
150.378
30
0
10
-240
20
150
30
0
10
-240
20
149.622
30
0
10
-240
20
149.262
30
0
10
-240
20
148.94
30
0
10
-240
20
148.671
30
0
10
-240
20
148.468
30
0
10
-240
20
148.343
30
0
10
-240
20
148.3
30
0
0
SPLINE
8
0
6
BYBLOCK
62
0
5
2742
100
AcDbEntity
100
AcDbSpline
70
0
71
1
72
17
73
15
74
0
40
0
40
0
40
0.224399
40
0.448799
40
0.673198
40
0.897598
40
1.122
40
1.3464
40
1.5708
40
1.7952
40
2.0196
40
2.24399
40
2.46839
40
2.69279
40
2.91719
40
3.14159
40
3.14159
10
-240
20
-148.3
30
0
10
-240
20
-148.343
30
0
10
-240
20
-148.468
30
0
10
-240
20
-148.671
30
0
10
-240
20
-148.94
30
0
10
-240
20
-149.262
30
0
10
-240
20
-149.622
30
0
10
-240
20
-150
30
0
10
-240
20
-150.378
30
0
10
-240
20
-150.738
30
0
10
-240
20
-151.06
30
0
10
-240
20
-151.329
30
0
10
-240
20
-151.532
30
0
10
-240
20
-151.657
30
0
10
-240
20
-151.7
30
0
0
SPLINE
8
0
6
BYBLOCK
62
0
5
2743
100
AcDbEntity
100
AcDbSpline
70
0
71
1
72
17
73
15
74
0
40
3.14159
40
3.14159
40
3.36599
40
3.59039
40
3.81479
40
4.03919
40
4.26359
40
4.48799
40
4.71239
40
4.93679
40
5.16119
40
5.38559
40
5.60999
40
5.83439
40
6.05879
40
6.28319
40
6.28319
10
-240
20
-206.7
30
0
10
-240
20
-206.657
30
0
10
-240
20
-206.532
30
0
10
-240
20
-206.329
30
0
10
-240
20
-206.06
30
0
10
-240
20
-205.738
30
0
10
-240
20
-205.378
30
0
10
-240
20
-205
30
0
10
-240
20
-204.622
30
0
10
-240
20
-204.262
30
0
10
-240
20
-203.94
30
0
10
-240
20
-203.671
30
0
10
-240
20
-203.468
30
0
10
-240
20
-203.343
30
0
10
-240
20
-203.3
30
0
0
ENDBLK
5
2744
100
AcDbEntity
8
0
100
AcDbBlockEnd
0
ENDSEC
0
SECTION
2
ENTITIES
0
INSERT
5
2745
8
0
6
BYLAYER
62
256
2
Ortho1
10
210.0
20
-123.1875
30
0
41
0.375
42
0.375
43
0.375
50
0.0
0
INSERT
5
2746
8
0
6
BYLAYER
62
256
2
Ortho0011
10
-21.25
20
-123.1875
30
0
41
0.375
42
0.375
43
0.375
50
-180.000005313
0
INSERT
5
2747
8
0
6
BYLAYER
62
256
2
Ortho0021
10
210.0
20
57.15625
30
0
41
0.375
42
0.375
43
0.375
50
-90.0000026563
0
INSERT
5
2748
8
0
6
BYLAYER
62
256
2
Ortho0031
10
441.25
20
-123.1875
30
0
41
0.375
42
0.375
43
0.375
50
-180.000005313
0
INSERT
5
2749
8
0
6
BYLAYER
62
256
2
Ortho0041
10
210.0
20
-294.15625
30
0
41
0.375
42
0.375
43
0.375
50
-90.0000026563
0
ENDSEC
0
EOF