999
FreeCAD DXF exporter v0.16-6706 (Git)
0
SECTION
2
HEADER
9
$ACADVER
1
AC1009
0
ENDSEC
0
SECTION
2
BLOCKS
0
BLOCK
5
2711
100
AcDbEntity
8
0
100
AcDbBlockBegin
2
Ortho1
70
0
10
0
20
0
3
Ortho1
1

0
LINE
8
0
6
BYBLOCK
62
0
5
2712
100
AcDbEntity
100
AcDbLine
10
-200
20
-140
30
0
11
200
21
-140
31
0
0
LINE
8
0
6
BYBLOCK
62
0
5
2713
100
AcDbEntity
100
AcDbLine
10
-200
20
160
30
0
11
-200
21
-140
31
0
0
SPLINE
8
0
6
BYBLOCK
62
0
5
2714
100
AcDbEntity
100
AcDbSpline
70
0
71
1
72
17
73
15
74
0
40
1.5708
40
1.5708
40
1.7952
40
2.0196
40
2.24399
40
2.46839
40
2.69279
40
2.91719
40
3.14159
40
3.36599
40
3.59039
40
3.81479
40
4.03919
40
4.26359
40
4.48799
40
4.71239
40
4.71239
10
-200
20
116.7
30
0
10
-200
20
116.657
30
0
10
-200
20
116.532
30
0
10
-200
20
116.329
30
0
10
-200
20
116.06
30
0
10
-200
20
115.738
30
0
10
-200
20
115.378
30
0
10
-200
20
115
30
0
10
-200
20
114.622
30
0
10
-200
20
114.262
30
0
10
-200
20
113.94
30
0
10
-200
20
113.671
30
0
10
-200
20
113.468
30
0
10
-200
20
113.343
30
0
10
-200
20
113.3
30
0
0
SPLINE
8
0
6
BYBLOCK
62
0
5
2715
100
AcDbEntity
100
AcDbSpline
70
0
71
1
72
17
73
15
74
0
40
1.5708
40
1.5708
40
1.7952
40
2.0196
40
2.24399
40
2.46839
40
2.69279
40
2.91719
40
3.14159
40
3.36599
40
3.59039
40
3.81479
40
4.03919
40
4.26359
40
4.48799
40
4.71239
40
4.71239
10
-200
20
11.7
30
0
10
-200
20
11.6574
30
0
10
-200
20
11.5316
30
0
10
-200
20
11.3291
30
0
10
-200
20
11.0599
30
0
10
-200
20
10.7376
30
0
10
-200
20
10.3783
30
0
10
-200
20
10
30
0
10
-200
20
9.62171
30
0
10
-200
20
9.2624
30
0
10
-200
20
8.94007
30
0
10
-200
20
8.67089
30
0
10
-200
20
8.46835
30
0
10
-200
20
8.34262
30
0
10
-200
20
8.3
30
0
0
SPLINE
8
0
6
BYBLOCK
62
0
5
2716
100
AcDbEntity
100
AcDbSpline
70
0
71
1
72
17
73
15
74
0
40
1.5708
40
1.5708
40
1.7952
40
2.0196
40
2.24399
40
2.46839
40
2.69279
40
2.91719
40
3.14159
40
3.36599
40
3.59039
40
3.81479
40
4.03919
40
4.26359
40
4.48799
40
4.71239
40
4.71239
10
-200
20
-93.3
30
0
10
-200
20
-93.3426
30
0
10
-200
20
-93.4684
30
0
10
-200
20
-93.6709
30
0
10
-200
20
-93.9401
30
0
10
-200
20
-94.2624
30
0
10
-200
20
-94.6217
30
0
10
-200
20
-95
30
0
10
-200
20
-95.3783
30
0
10
-200
20
-95.7376
30
0
10
-200
20
-96.0599
30
0
10
-200
20
-96.3291
30
0
10
-200
20
-96.5316
30
0
10
-200
20
-96.6574
30
0
10
-200
20
-96.7
30
0
0
LINE
8
0
6
BYBLOCK
62
0
5
2717
100
AcDbEntity
100
AcDbLine
10
200
20
-140
30
0
11
200
21
160
31
0
0
LINE
8
0
6
BYBLOCK
62
0
5
2718
100
AcDbEntity
100
AcDbLine
10
200
20
160
30
0
11
-200
21
160
31
0
0
CIRCLE
8
0
6
BYBLOCK
62
0
5
2719
100
AcDbEntity
100
AcDbCircle
10
-155
20
-66
30
0
40
5
0
CIRCLE
8
0
6
BYBLOCK
62
0
5
271a
100
AcDbEntity
100
AcDbCircle
10
155
20
-66
30
0
40
5
0
ENDBLK
5
271b
100
AcDbEntity
8
0
100
AcDbBlockEnd
0
BLOCK
5
271c
100
AcDbEntity
8
0
100
AcDbBlockBegin
2
Ortho0011
70
0
10
0
20
0
3
Ortho0011
1

0
LINE
8
0
6
BYBLOCK
62
0
5
271d
100
AcDbEntity
100
AcDbLine
10
-10
20
-200
30
0
11
1.95399e-014
21
-200
31
0
0
SPLINE
8
0
6
BYBLOCK
62
0
5
271e
100
AcDbEntity
100
AcDbSpline
70
0
71
1
72
17
73
15
74
0
40
0
40
0
40
0.224399
40
0.448799
40
0.673198
40
0.897598
40
1.122
40
1.3464
40
1.5708
40
1.7952
40
2.0196
40
2.24399
40
2.46839
40
2.69279
40
2.91719
40
3.14159
40
3.14159
10
-6.7
20
-200
30
0
10
-6.65738
20
-200
30
0
10
-6.53165
20
-200
30
0
10
-6.32911
20
-200
30
0
10
-6.05993
20
-200
30
0
10
-5.7376
20
-200
30
0
10
-5.37829
20
-200
30
0
10
-5
20
-200
30
0
10
-4.62171
20
-200
30
0
10
-4.2624
20
-200
30
0
10
-3.94007
20
-200
30
0
10
-3.67089
20
-200
30
0
10
-3.46835
20
-200
30
0
10
-3.34262
20
-200
30
0
10
-3.3
20
-200
30
0
0
LINE
8
0
6
BYBLOCK
62
0
5
271f
100
AcDbEntity
100
AcDbLine
10
-10
20
200
30
0
11
-10
21
-200
31
0
0
SPLINE
8
0
6
BYBLOCK
62
0
5
2720
100
AcDbEntity
100
AcDbSpline
70
0
71
1
72
17
73
15
74
0
40
0
40
0
40
0.224399
40
0.448799
40
0.673198
40
0.897598
40
1.122
40
1.3464
40
1.5708
40
1.7952
40
2.0196
40
2.24399
40
2.46839
40
2.69279
40
2.91719
40
3.14159
40
3.14159
10
-10
20
-150
30
0
10
-10
20
-150.125
30
0
10
-10
20
-150.495
30
0
10
-10
20
-151.091
30
0
10
-10
20
-151.883
30
0
10
-10
20
-152.831
30
0
10
-10
20
-153.887
30
0
10
-10
20
-155
30
0
10
-10
20
-156.113
30
0
10
-10
20
-157.169
30
0
10
-10
20
-158.117
30
0
10
-10
20
-158.909
30
0
10
-10
20
-159.505
30
0
10
-10
20
-159.875
30
0
10
-10
20
-160
30
0
0
SPLINE
8
0
6
BYBLOCK
62
0
5
2721
100
AcDbEntity
100
AcDbSpline
70
0
71
1
72
17
73
15
74
0
40
0
40
0
40
0.224399
40
0.448799
40
0.673198
40
0.897598
40
1.122
40
1.3464
40
1.5708
40
1.7952
40
2.0196
40
2.24399
40
2.46839
40
2.69279
40
2.91719
40
3.14159
40
3.14159
10
-10
20
160
30
0
10
-10
20
159.875
30
0
10
-10
20
159.505
30
0
10
-10
20
158.909
30
0
10
-10
20
158.117
30
0
10
-10
20
157.169
30
0
10
-10
20
156.113
30
0
10
-10
20
155
30
0
10
-10
20
153.887
30
0
10
-10
20
152.831
30
0
10
-10
20
151.883
30
0
10
-10
20
151.091
30
0
10
-10
20
150.495
30
0
10
-10
20
150.125
30
0
10
-10
20
150
30
0
0
LINE
8
0
6
BYBLOCK
62
0
5
2722
100
AcDbEntity
100
AcDbLine
10
1.95943e-014
20
200
30
0
11
1.95943e-014
21
-200
31
0
0
LINE
8
0
6
BYBLOCK
62
0
5
2723
100
AcDbEntity
100
AcDbLine
10
-10
20
200
30
0
11
1.95399e-014
21
200
31
0
0
CIRCLE
8
0
6
BYBLOCK
62
0
5
2724
100
AcDbEntity
100
AcDbCircle
10
-5
20
150
30
0
40
1.7
0
CIRCLE
8
0
6
BYBLOCK
62
0
5
2725
100
AcDbEntity
100
AcDbCircle
10
-5
20
-150
30
0
40
1.7
0
CIRCLE
8
0
6
BYBLOCK
62
0
5
2726
100
AcDbEntity
100
AcDbCircle
10
-5
20
0
30
0
40
1.7
0
CIRCLE
8
0
6
BYBLOCK
62
0
5
2727
100
AcDbEntity
100
AcDbCircle
10
-5
20
0
30
0
40
1.7
0
ENDBLK
5
2728
100
AcDbEntity
8
0
100
AcDbBlockEnd
0
BLOCK
5
2729
100
AcDbEntity
8
0
100
AcDbBlockBegin
2
Ortho0021
70
0
10
0
20
0
3
Ortho0021
1

0
LINE
8
0
6
BYBLOCK
62
0
5
272a
100
AcDbEntity
100
AcDbLine
10
10
20
140
30
0
11
1.77636e-014
21
140
31
0
0
SPLINE
8
0
6
BYBLOCK
62
0
5
272b
100
AcDbEntity
100
AcDbSpline
70
0
71
1
72
17
73
15
74
0
40
1.5708
40
1.5708
40
1.7952
40
2.0196
40
2.24399
40
2.46839
40
2.69279
40
2.91719
40
3.14159
40
3.36599
40
3.59039
40
3.81479
40
4.03919
40
4.26359
40
4.48799
40
4.71239
40
4.71239
10
6.7
20
140
30
0
10
6.65738
20
140
30
0
10
6.53165
20
140
30
0
10
6.32911
20
140
30
0
10
6.05993
20
140
30
0
10
5.7376
20
140
30
0
10
5.37829
20
140
30
0
10
5
20
140
30
0
10
4.62171
20
140
30
0
10
4.2624
20
140
30
0
10
3.94007
20
140
30
0
10
3.67089
20
140
30
0
10
3.46835
20
140
30
0
10
3.34262
20
140
30
0
10
3.3
20
140
30
0
0
LINE
8
0
6
BYBLOCK
62
0
5
272c
100
AcDbEntity
100
AcDbLine
10
10
20
-160
30
0
11
-1.95399e-014
21
-160
31
0
0
LINE
8
0
6
BYBLOCK
62
0
5
272d
100
AcDbEntity
100
AcDbLine
10
10
20
-160
30
0
11
10
21
140
31
0
0
LINE
8
0
6
BYBLOCK
62
0
5
272e
100
AcDbEntity
100
AcDbLine
10
-1.95943e-014
20
-160
30
0
11
1.71451e-014
21
140
31
0
0
CIRCLE
8
0
6
BYBLOCK
62
0
5
272f
100
AcDbEntity
100
AcDbCircle
10
5
20
-115
30
0
40
1.7
0
CIRCLE
8
0
6
BYBLOCK
62
0
5
2730
100
AcDbEntity
100
AcDbCircle
10
5
20
-10
30
0
40
1.7
0
CIRCLE
8
0
6
BYBLOCK
62
0
5
2731
100
AcDbEntity
100
AcDbCircle
10
5
20
95
30
0
40
1.7
0
SPLINE
8
0
6
BYBLOCK
62
0
5
2732
100
AcDbEntity
100
AcDbSpline
70
0
71
1
72
17
73
15
74
0
40
1.5708
40
1.5708
40
1.7952
40
2.0196
40
2.24399
40
2.46839
40
2.69279
40
2.91719
40
3.14159
40
3.36599
40
3.59039
40
3.81479
40
4.03919
40
4.26359
40
4.48799
40
4.71239
40
4.71239
10
7.10543e-015
20
61
30
0
10
7.10543e-015
20
61.1254
30
0
10
7.10543e-015
20
61.4952
30
0
10
7.10543e-015
20
62.0908
30
0
10
7.10543e-015
20
62.8826
30
0
10
7.10543e-015
20
63.8306
30
0
10
7.10543e-015
20
64.8874
30
0
10
7.10543e-015
20
66
30
0
10
7.10543e-015
20
67.1126
30
0
10
7.10543e-015
20
68.1694
30
0
10
7.10543e-015
20
69.1174
30
0
10
7.10543e-015
20
69.9092
30
0
10
7.10543e-015
20
70.5048
30
0
10
7.10543e-015
20
70.8746
30
0
10
7.10543e-015
20
71
30
0
0
SPLINE
8
0
6
BYBLOCK
62
0
5
2733
100
AcDbEntity
100
AcDbSpline
70
0
71
1
72
17
73
15
74
0
40
1.5708
40
1.5708
40
1.7952
40
2.0196
40
2.24399
40
2.46839
40
2.69279
40
2.91719
40
3.14159
40
3.36599
40
3.59039
40
3.81479
40
4.03919
40
4.26359
40
4.48799
40
4.71239
40
4.71239
10
6.7
20
-160
30
0
10
6.65738
20
-160
30
0
10
6.53165
20
-160
30
0
10
6.32911
20
-160
30
0
10
6.05993
20
-160
30
0
10
5.7376
20
-160
30
0
10
5.37829
20
-160
30
0
10
5
20
-160
30
0
10
4.62171
20
-160
30
0
10
4.2624
20
-160
30
0
10
3.94007
20
-160
30
0
10
3.67089
20
-160
30
0
10
3.46835
20
-160
30
0
10
3.34262
20
-160
30
0
10
3.3
20
-160
30
0
0
ENDBLK
5
2734
100
AcDbEntity
8
0
100
AcDbBlockEnd
0
BLOCK
5
2735
100
AcDbEntity
8
0
100
AcDbBlockBegin
2
Ortho0031
70
0
10
0
20
0
3
Ortho0031
1

0
LINE
8
0
6
BYBLOCK
62
0
5
2736
100
AcDbEntity
100
AcDbLine
10
10
20
-200
30
0
11
1.77636e-014
21
-200
31
0
0
LINE
8
0
6
BYBLOCK
62
0
5
2737
100
AcDbEntity
100
AcDbLine
10
10
20
-200
30
0
11
10
21
200
31
0
0
LINE
8
0
6
BYBLOCK
62
0
5
2738
100
AcDbEntity
100
AcDbLine
10
1.71451e-014
20
-200
30
0
11
1.71451e-014
21
200
31
0
0
LINE
8
0
6
BYBLOCK
62
0
5
2739
100
AcDbEntity
100
AcDbLine
10
10
20
200
30
0
11
1.77636e-014
21
200
31
0
0
CIRCLE
8
0
6
BYBLOCK
62
0
5
273a
100
AcDbEntity
100
AcDbCircle
10
5
20
0
30
0
40
1.7
0
CIRCLE
8
0
6
BYBLOCK
62
0
5
273b
100
AcDbEntity
100
AcDbCircle
10
5
20
-150
30
0
40
1.7
0
CIRCLE
8
0
6
BYBLOCK
62
0
5
273c
100
AcDbEntity
100
AcDbCircle
10
5
20
150
30
0
40
1.7
0
SPLINE
8
0
6
BYBLOCK
62
0
5
273d
100
AcDbEntity
100
AcDbSpline
70
0
71
1
72
17
73
15
74
0
40
3.14159
40
3.14159
40
3.36599
40
3.59039
40
3.81479
40
4.03919
40
4.26359
40
4.48799
40
4.71239
40
4.93679
40
5.16119
40
5.38559
40
5.60999
40
5.83439
40
6.05879
40
6.28319
40
6.28319
10
7.10543e-015
20
-160
30
0
10
7.10543e-015
20
-159.875
30
0
10
7.10543e-015
20
-159.505
30
0
10
7.10543e-015
20
-158.909
30
0
10
7.10543e-015
20
-158.117
30
0
10
7.10543e-015
20
-157.169
30
0
10
7.10543e-015
20
-156.113
30
0
10
7.10543e-015
20
-155
30
0
10
7.10543e-015
20
-153.887
30
0
10
7.10543e-015
20
-152.831
30
0
10
7.10543e-015
20
-151.883
30
0
10
7.10543e-015
20
-151.091
30
0
10
7.10543e-015
20
-150.495
30
0
10
7.10543e-015
20
-150.125
30
0
10
7.10543e-015
20
-150
30
0
0
SPLINE
8
0
6
BYBLOCK
62
0
5
273e
100
AcDbEntity
100
AcDbSpline
70
0
71
1
72
17
73
15
74
0
40
3.14159
40
3.14159
40
3.36599
40
3.59039
40
3.81479
40
4.03919
40
4.26359
40
4.48799
40
4.71239
40
4.93679
40
5.16119
40
5.38559
40
5.60999
40
5.83439
40
6.05879
40
6.28319
40
6.28319
10
7.10543e-015
20
150
30
0
10
7.10543e-015
20
150.125
30
0
10
7.10543e-015
20
150.495
30
0
10
7.10543e-015
20
151.091
30
0
10
7.10543e-015
20
151.883
30
0
10
7.10543e-015
20
152.831
30
0
10
7.10543e-015
20
153.887
30
0
10
7.10543e-015
20
155
30
0
10
7.10543e-015
20
156.113
30
0
10
7.10543e-015
20
157.169
30
0
10
7.10543e-015
20
158.117
30
0
10
7.10543e-015
20
158.909
30
0
10
7.10543e-015
20
159.505
30
0
10
7.10543e-015
20
159.875
30
0
10
7.10543e-015
20
160
30
0
0
SPLINE
8
0
6
BYBLOCK
62
0
5
273f
100
AcDbEntity
100
AcDbSpline
70
0
71
1
72
17
73
15
74
0
40
3.14159
40
3.14159
40
3.36599
40
3.59039
40
3.81479
40
4.03919
40
4.26359
40
4.48799
40
4.71239
40
4.93679
40
5.16119
40
5.38559
40
5.60999
40
5.83439
40
6.05879
40
6.28319
40
6.28319
10
3.3
20
200
30
0
10
3.34262
20
200
30
0
10
3.46835
20
200
30
0
10
3.67089
20
200
30
0
10
3.94007
20
200
30
0
10
4.2624
20
200
30
0
10
4.62171
20
200
30
0
10
5
20
200
30
0
10
5.37829
20
200
30
0
10
5.7376
20
200
30
0
10
6.05993
20
200
30
0
10
6.32911
20
200
30
0
10
6.53165
20
200
30
0
10
6.65738
20
200
30
0
10
6.7
20
200
30
0
0
CIRCLE
8
0
6
BYBLOCK
62
0
5
2740
100
AcDbEntity
100
AcDbCircle
10
5
20
-150
30
0
40
1.7
0
ENDBLK
5
2741
100
AcDbEntity
8
0
100
AcDbBlockEnd
0
BLOCK
5
2742
100
AcDbEntity
8
0
100
AcDbBlockBegin
2
Ortho0041
70
0
10
0
20
0
3
Ortho0041
1

0
LINE
8
0
6
BYBLOCK
62
0
5
2743
100
AcDbEntity
100
AcDbLine
10
-10
20
140
30
0
11
-1.77636e-014
21
140
31
0
0
LINE
8
0
6
BYBLOCK
62
0
5
2744
100
AcDbEntity
100
AcDbLine
10
-10
20
140
30
0
11
-10
21
-160
31
0
0
LINE
8
0
6
BYBLOCK
62
0
5
2745
100
AcDbEntity
100
AcDbLine
10
-1.71451e-014
20
140
30
0
11
1.95943e-014
21
-160
31
0
0
SPLINE
8
0
6
BYBLOCK
62
0
5
2746
100
AcDbEntity
100
AcDbSpline
70
0
71
1
72
17
73
15
74
0
40
4.71239
40
4.71239
40
4.82459
40
4.93679
40
5.04899
40
5.16119
40
5.27339
40
5.38559
40
5.49779
40
5.60999
40
5.72219
40
5.83439
40
5.94659
40
6.05879
40
6.17099
40
6.28319
40
6.28319
10
-7.10543e-015
20
71
30
0
10
-7.10543e-015
20
70.9686
30
0
10
-7.10543e-015
20
70.8746
30
0
10
-7.10543e-015
20
70.7194
30
0
10
-7.10543e-015
20
70.5048
30
0
10
-7.10543e-015
20
70.2336
30
0
10
-7.10543e-015
20
69.9092
30
0
10
-7.10543e-015
20
69.5355
30
0
10
-7.10543e-015
20
69.1174
30
0
10
-7.10543e-015
20
68.6602
30
0
10
-7.10543e-015
20
68.1694
30
0
10
-7.10543e-015
20
67.6514
30
0
10
-7.10543e-015
20
67.1126
30
0
10
-7.10543e-015
20
66.5598
30
0
10
-7.10543e-015
20
66
30
0
0
LINE
8
0
6
BYBLOCK
62
0
5
2747
100
AcDbEntity
100
AcDbLine
10
-10
20
-160
30
0
11
1.95399e-014
21
-160
31
0
0
CIRCLE
8
0
6
BYBLOCK
62
0
5
2748
100
AcDbEntity
100
AcDbCircle
10
-5
20
-10
30
0
40
1.7
0
CIRCLE
8
0
6
BYBLOCK
62
0
5
2749
100
AcDbEntity
100
AcDbCircle
10
-5
20
-115
30
0
40
1.7
0
CIRCLE
8
0
6
BYBLOCK
62
0
5
274a
100
AcDbEntity
100
AcDbCircle
10
-5
20
95
30
0
40
1.7
0
SPLINE
8
0
6
BYBLOCK
62
0
5
274b
100
AcDbEntity
100
AcDbSpline
70
0
71
1
72
17
73
15
74
0
40
0
40
0
40
0.1122
40
0.224399
40
0.336599
40
0.448799
40
0.560999
40
0.673198
40
0.785398
40
0.897598
40
1.0098
40
1.122
40
1.2342
40
1.3464
40
1.4586
40
1.5708
40
1.5708
10
-5
20
-160
30
0
10
-5.19034
20
-160
30
0
10
-5.37829
20
-160
30
0
10
-5.56147
20
-160
30
0
10
-5.7376
20
-160
30
0
10
-5.90445
20
-160
30
0
10
-6.05993
20
-160
30
0
10
-6.20208
20
-160
30
0
10
-6.32911
20
-160
30
0
10
-6.43943
20
-160
30
0
10
-6.53165
20
-160
30
0
10
-6.6046
20
-160
30
0
10
-6.65738
20
-160
30
0
10
-6.68931
20
-160
30
0
10
-6.7
20
-160
30
0
0
SPLINE
8
0
6
BYBLOCK
62
0
5
274c
100
AcDbEntity
100
AcDbSpline
70
0
71
1
72
17
73
15
74
0
40
4.71239
40
4.71239
40
4.82459
40
4.93679
40
5.04899
40
5.16119
40
5.27339
40
5.38559
40
5.49779
40
5.60999
40
5.72219
40
5.83439
40
5.94659
40
6.05879
40
6.17099
40
6.28319
40
6.28319
10
-3.3
20
-160
30
0
10
-3.31069
20
-160
30
0
10
-3.34262
20
-160
30
0
10
-3.3954
20
-160
30
0
10
-3.46835
20
-160
30
0
10
-3.56057
20
-160
30
0
10
-3.67089
20
-160
30
0
10
-3.79792
20
-160
30
0
10
-3.94007
20
-160
30
0
10
-4.09555
20
-160
30
0
10
-4.2624
20
-160
30
0
10
-4.43853
20
-160
30
0
10
-4.62171
20
-160
30
0
10
-4.80966
20
-160
30
0
10
-5
20
-160
30
0
0
ENDBLK
5
274d
100
AcDbEntity
8
0
100
AcDbBlockEnd
0
ENDSEC
0
SECTION
2
ENTITIES
0
INSERT
5
274e
8
0
6
BYLAYER
62
256
2
Ortho1
10
210.0
20
-122.25
30
0
41
0.375
42
0.375
43
0.375
50
0.0
0
INSERT
5
274f
8
0
6
BYLAYER
62
256
2
Ortho0011
10
210.0
20
-38.0
30
0
41
0.375
42
0.375
43
0.375
50
-90.0000026563
0
INSERT
5
2750
8
0
6
BYLAYER
62
256
2
Ortho0021
10
74.375
20
-122.25
30
0
41
0.375
42
0.375
43
0.375
50
-180.000005313
0
INSERT
5
2751
8
0
6
BYLAYER
62
256
2
Ortho0031
10
210.0
20
-199.0
30
0
41
0.375
42
0.375
43
0.375
50
-90.0000026563
0
INSERT
5
2752
8
0
6
BYLAYER
62
256
2
Ortho0041
10
345.625
20
-122.25
30
0
41
0.375
42
0.375
43
0.375
50
-180.000005313
0
ENDSEC
0
EOF